<svg enable-background="new 0 0 572.7 126.2" height="126.2" viewBox="0 0 572.7 126.2" width="572.7" xmlns="http://www.w3.org/2000/svg" xmlns:xlink="http://www.w3.org/1999/xlink"><image height="187" opacity=".16" overflow="visible" transform="translate(-28 -25.76)" width="180" xlink:href="1688D94536A6A90B.png"/><path d="m68 76.5-.1.1zm44.7-20.2h.3v-.3h-.3zm-1.1 38h.3v.3h-.3zm-38-16.7h-.3v-.3h.3zm10.7-17.7h.3v.3h-.3zm3-1.8h-.3v-.3h.3zm-10.7 28.4h.3v.3h-.3zm31.7-36.2h-.3v-.3h.3zm-36-18.4h.3v.3h-.3zm37.9 55.6h.3v-.3h-.3zm-37.4 1.5h.3v.3h-.3zm.9-8.9c0 .3-.2.3-.4.3.1-.1.1-.4.4-.3m42.6-38.5c0-.1.2-.2.4-.1-.2.2-.3.6-.4.1m-8.7 18.6c.1-.1.1-.2.1-.3h.3v.3zm-30.4 37.6h-.4c.1-.1.1-.2.1-.3h.3zm-.4-6c-.1.1-.1.2-.1.3h-.3v-.3zm-.7-17.6c.1.5.2.1.4-.1-.2-.1-.4 0-.4.1m-9.1-1.5h-.3c0 .1 0 .2-.1.3h.4zm10.5-29.5h-.4c.1-.1.1-.2.1-.3h.3zm-8.1 41.1v-.3h.4c-.1.1-.1.2-.1.3zm40.6 21.7h-.3c0 .1 0 .2-.1.3h.4zm-36.6-29.5v-.3h.4c-.1.1-.1.2-.1.3zm34.8-28.7h-.3v-.3h.4c0 .1-.1.2-.1.3m-39.3 20.2h-.3v-.3h.4c0 .1-.1.2-.1.3m6.2 25.9h-.3v-.3h.4c0 .1-.1.2-.1.3m35.5 9.6h-.3c0 .1 0 .2-.1.3h.4zm-34.7-62.4c.1-.1.1-.2.1-.3h.3v.3zm35 60.3h-.4v.3h.3c0-.1.1-.2.1-.3m.7 10.2v-.3h.4c-.1.1-.1.2-.1.3zm-32.1-46.4h-.4c.1-.1.1-.2.1-.3h.3zm-13.7 43.2h-.3v-.3h.4c0 .1-.1.2-.1.3m43.3-10.9h-.3c0 .1 0 .2-.1.3h.4zm-39.5-52.8h-.4v.3h.3c0-.1.1-.2.1-.3m8 42.1h-.3v-.3h.4c0 .1-.1.2-.1.3m-.2-52.4c-.1.1-.1.2-.1.3h-.3v-.3zm-5.8 3.9v.3h-.4c.1-.1.1-.2.1-.3zm43.9 4.2h-.4c.1-.1.1-.2.1-.3h.3zm-1.7 68.1h.4c-.1.1-.1.2-.1.3h-.3zm-39.7-13.5h-.4c0-.1.1-.2.1-.3h.3zm1.6-53.9h-.3v-.3h.4c0 .1-.1.2-.1.3m-1.6 29.8h-.4c0-.1.1-.2.1-.3h.3zm36.2 12.8c-.2.3.3.2.4.3-.2-.2 0-.5-.4-.3m.8-48.9v.3h-.4c0-.1.1-.2.1-.3zm-30.7 54.2h.3v.3h-.4c0-.1.1-.2.1-.3m30.2 26.2h.4v-.3h-.3c0 .1-.1.2-.1.3m-46.6-22.3h-.3c0 .1-.1.2-.1.3h.4zm14-32.6h.4c0 .1-.1.2-.1.3h-.3zm-11.4 52.4h-.4c0-.1.1-.2.1-.3h.3zm1.4-20.9h-.3v-.3h.4c0 .1-.1.2-.1.3m5.9-25.9v-.3h.4c0 .1-.1.2-.1.3zm39.3 27.7h.4c0 .1-.1.2-.1.3h-.3zm1.6-39.4h-.4c0-.1.1-.2.1-.3h.3zm-32.3-20.5h.4c0 .1-.1.2-.1.3h-.3zm30.8 24.4h.4v-.3h-.3c0 .1-.1.2-.1.3m-43.1 15.6h-.3v-.3h.4c0 .1 0 .2-.1.3m43.3-24.4h.4c0 .1 0 .2-.1.3h-.3zm-46.1 62h-.3v-.3h.4c0 .1 0 .2-.1.3m-.1-19.1c0 .1 0 .2-.1.3h-.3v-.3zm12.5-53.2h-.3v-.3h.4c0 .1 0 .2-.1.3m.1-7.8h-.3v-.3h.4c0 .1 0 .2-.1.3m30.5 62.4h-.4v.3h.3c.1-.1.1-.2.1-.3m-33.1-2.1c0 .1 0 .2-.1.3h-.3v-.3zm-10.6-.4h.3c.1-.1.1-.2.1-.3h-.4zm.6-2.5h.3c.1-.1.1-.2.1-.3h-.4zm6-51h.3v.3h-.4c0-.1 0-.2.1-.3m-6.4 7.1h.3v.3h-.4c0-.1 0-.2.1-.3m39.2-12.8h.3c.1-.1.1-.2.1-.3h-.4zm-27.6-7.4v.3h-.4c0-.1 0-.2.1-.3zm32.1 73.7h-.3c-.1.1-.1.2-.1.3h.4zm-42-1.4c0 .1 0 .2-.1.3h-.3v-.3zm4.8-19.2v-.3h.4c0 .1 0 .2-.1.3zm-.9-1.7h-.3c-.1.1-.1.2-.1.3h.4zm6.1-41.9v-.3h.4c0 .1 0 .2-.1.3zm39.1-15.2h.4v-.3h-.3c-.1.1-.1.2-.1.3m-41.5 27.7h.4v.3h-.4zm-.7-3.2h-.3v-.4h.3zm-7.8 62h-.3v-.4h.3zm44.5-15.3h-.4v-.3h.4zm-.5-40.7h.4v.3h-.4zm2.6 2.8h.3v.4h-.3zm-41 40.1h-.3v-.4h.3zm38.1-5h.3v.4h-.3zm.5-8.5h-.3v-.4h.3zm-43.5-28.4h.4v-.3h-.4zm-.2 43.6h-.4v-.3h.4zm48-49.6h-.4v-.3h.4zm-8 63.5h-.3v-.4h.3zm-33.2-42.2c-.3.1-.3-.1-.3-.4.1.1.5 0 .3.4m33.4-31.6h-.4v-.3h.4zm4.1 53.2h-.4v-.3h.4zm-.6 18.8h.4v.3h-.4zm-45.4-19.5h.3v-.4h-.3zm44.6-13.8h-.3v-.4h.3zm-35.9-23.4h.4v.3h-.4zm7.2 9.6h-.3v-.4h.3zm28.6 18.7h-.4v-.3h.4zm-44.3 16.7c-.3.1-.3-.1-.3-.4.1.1.5-.1.3.4m46.1-20.6h.3v.4h-.4c.1-.1.1-.2.1-.4m-1.6-43.2h-.4c.1-.1.1-.2.1-.4h.3zm-35.4 30.8h.3v.4h-.4c.1-.1.1-.2.1-.4m-6.1 24.8h.3v.4h-.4c.1-.1.1-.2.1-.4m2.8-20.9h-.3c0 .2 0 .3-.1.4h.4zm4.8-38.9v-.4h.4c-.1.1-.1.2-.1.4zm31.4 83.6h-.4c.1-.1.1-.2.1-.4h.3zm-33.5-36.5h.4v-.4h-.3c0 .2 0 .3-.1.4m36.7-5.3c.1-.1.1-.3.1-.4h.3v.4zm6.9-52.5h-.4v.4h.3c0-.1.1-.3.1-.4m-53.9 69.1h-.4v.4h.3c0-.1 0-.3.1-.4m7.4-44.3c-.1.1-.1.3-.1.4h-.3v-.4zm-5.6 44h.3c0-.1 0-.3.1-.4h-.4zm40.9-11.7v-.4h.4c-.1.1-.1.3-.1.4zm-28.9-12.1h.3v.4h-.4c.1-.1.1-.2.1-.4m27.9 48.6h.4v-.4h-.3c0 .2 0 .3-.1.4m-28.3-72.7v.4h-.4c.1-.1.1-.3.1-.4zm28 30.9h.4v-.4h-.3c0 .1 0 .3-.1.4m-21.4-8.5h-.4c.1-.1.1-.3.1-.4h.3zm-3.2 0h-.4c.1-.1.1-.3.1-.4h.3zm-14.1-24.5v-.4h.4c-.1.1-.1.3-.1.4zm42.1 48.2h-.3c0 .1 0 .3-.1.4h.4zm-30.2-40.4h-.3v-.4h.4c0 .1-.1.3-.1.4m29.3-12.1c-.1.1-.1.3-.1.4h-.3v-.4zm-.2 52.9h.4v-.4h-.3c0 .1 0 .3-.1.4m-30.3-39.7c.1-.1.1-.3.1-.4h.3v.4zm-6.9 43.6h.3c0-.2.1-.3.1-.4h-.4zm-1.2-61h.4c0 .1-.1.2-.1.4h-.3zm2.8 17.4h-.3v-.4h.4c0 .1-.1.2-.1.4m-.3 48.2v-.4h.4c0 .1-.1.2-.1.4zm42.1-40.8h-.4c0-.1.1-.2.1-.4h.3zm-48.6-3.2h.4c0 .1-.1.3-.1.4h-.3zm-.9 53.9v-.4h.4c0 .1-.1.3-.1.4zm.6 3.9h-.3v-.4h.4c0 .1-.1.3-.1.4m44-48.6h-.3c0 .1-.1.3-.1.4h.4zm-31.6-12.7v-.4h.4c0 .1-.1.3-.1.4zm33.8 60.2v.4h-.4c0-.1.1-.3.1-.4zm-.4 7.8h.3v.4h-.4c0-.1.1-.3.1-.4m-39.5-36.8h.4v-.4h-.3c0 .1-.1.2-.1.4m37.8-16h-.3c0 .1-.1.2-.1.4h.4zm2.6 23h.4c0 .2-.1.3-.1.4h-.3zm-40.2-60.6h.4c0 .2-.1.3-.1.4h-.3zm44.8 12.8h.3c0-.1.1-.2.1-.4h-.4zm-51.4 68.4h-.3v-.4h.4c0 .2-.1.3-.1.4m44.7-55.6h-.3v-.4h.4c0 .2 0 .3-.1.4m-40.8 38.6c0-.1 0-.3.1-.4h.3v.4zm-1.5-44v.4h-.4c0-.1 0-.3.1-.4zm2.5-6.7h-.4v.4h.3c.1-.1.1-.2.1-.4m44.7 20.2c0 .1 0 .3-.1.4h-.3v-.4zm-3.4-15.6h.4c0 .1 0 .3-.1.4h-.3zm-36.7 33h.4v-.4h-.3c0 .1-.1.3-.1.4m.8-28.4v.4h-.4c0-.1 0-.3.1-.4zm33.7 0h-.4v.4h.3c.1-.1.1-.2.1-.4m-28.6-35.4h-.4c0-.1 0-.3.1-.4h.3zm-2.7 73.7h-.3v-.4h.4c0 .2 0 .3-.1.4m-2 19.5h-.3v-.4h.4c0 .2 0 .3-.1.4m33.2-60.3h-.4v.4h.3c.1-.1.1-.2.1-.4m-40.5 72.7h-.3v-.4h.4c0 .2 0 .3-.1.4m38.9-84.7v-.4h.4c0 .2 0 .3-.1.4zm-42 18.4h.4v.4h-.4zm12.3-12h-.4v-.4h.4zm-7.9 48.5h.4v.4h-.4zm-6.1 1.1h.4v-.4h-.4zm41.6-45.7h-.4v-.4h.4zm-.3 6.4h-.4v-.4h.4zm1.5 74.4h.4v-.4h-.4zm-26.6-85.4h-.4v-.4h.4zm-.6-5.4h.4v.4h-.4zm26.2 24.9h.4v-.4h-.4zm4.3 23.7h-.4v.4h.4zm.3-20.2h-.4v.4h.4zm-.8 28.4h.4v-.4h-.4zm-.2-29.1h.4v-.4h-.4zm-1.6-8.9h.4v.4h-.4zm-36.1 24.1h-.4v.4h.4zm6.9-42.5h-.4v-.4h.4zm35.5 43.6h.4v-.4h-.4zm-47.7 26.6h-.4v-.4h.4zm40.6-68.1h.4v.4h-.4zm-38.6 41.7c.1-.3-.7-.3-.7 0 0 .1 0 .1-.1.1.3 0 .7.1.8-.1m40.2 22.8h.7v-.3h-.7zm-31.9-31.2h.7v-.3h-.7zm-10 38.7c0 .1-.1.2-.1.3h-.7c0-.1.1-.2.1-.3zm12.1-76.6c0 .2-.1.4-.3.4 0 0 0 0-.1 0 0 .3-.2.3-.4.3 0-.2.1-.3.2-.3s.3-.4.6-.4m29.4 37.9h.7c0-.1.1-.2.1-.3h-.7c-.1.1-.1.2-.1.3m-40.6-15.4c.1-.1 0-.3.1-.5-.6-.2-.3.5-.4.7 0 0 .3-.1.3-.2m-.8 1.3v.3h-.8c.1-.1.1-.2.1-.3zm1.9 32.9v-.3h.8c-.1.1-.1.2-.1.3zm4.9-19.8h.7c-.1.2-.1.3 0 .3-.3 0-.9.2-.7-.3m-.5 4.9c0-.2.1-.3.2-.3s.2-.4.6-.4c0 .2-.1.4-.3.4 0 0 0 0-.1 0 0 .3-.2.3-.4.3m-.7 16.7c.1-.2.1-.5.1-.7h.4c-.1.2-.1.5-.1.7zm2.6-14.9h.4c0-.2 0-.5.1-.7h-.4c0 .2 0 .5-.1.7m37.7-1.4h.4c0-.2 0-.5.1-.7h-.4c0 .2 0 .5-.1.7m-6.5-42.9h-.4c0 .2 0 .5-.1.7h.4c0-.2 0-.5.1-.7m-37.5 9.2h.4c-.1.2-.1.5-.1.7h-.4c.1-.2.1-.5.1-.7m-5.3 48.2c0 .2 0 .5-.1.7h.4c0-.2 0-.5.1-.7zm15-52.4c-.1.2-.1.5-.1.7h-.4c.1-.2.1-.5.1-.7zm-12 43.6h.4c0-.2 0-.5.1-.7h-.4c0 .2 0 .5-.1.7m-.1 1h.4c0-.2 0-.5.1-.7h-.4c0 .2 0 .5-.1.7m39.7 30.9h.4c0-.2 0-.5.1-.7h-.4c0 .2 0 .5-.1.7m-29.9-60.3h.3v.7h-.4c0-.2.1-.4.1-.7m40.5-35.4h-.4v.7h.3c0-.3.1-.5.1-.7m-7.9 80.4v-.7h-.3c0 .3-.1.5-.1.7zm-43.9 6c0-.2.1-.4.1-.7h.3v.7zm3.8-12.7c0-.2.1-.5.1-.7h.3v.7zm9.5-67.7v-.7h.4c0 .2-.1.5-.1.7zm-5.7 65.2c0-.2.1-.5.1-.7h.3v.7zm-8.8 2.5h-.3c0 .2-.1.5-.1.7h.4zm48.2 24.8h-.4c0-.2.1-.5.1-.7h.3zm1.4-62.4h.4c0 .3-.1.5-.1.7h-.3zm-7.3 40.1h.4v-.7h-.3c0 .2-.1.4-.1.7m7.3-33.3h-.3c0 .2-.1.4-.1.7h.4zm-1.5 46c0 .3-.1.5-.1.7h-.3v-.7zm-38.3-20.9h.4c0 .3-.1.5-.1.7h-.3zm-8.2-9.5c0 .2 0 .5-.1.7h-.3c0-.2 0-.5.1-.7zm7.4 14.1c0 .2 0 .5-.1.7h-.3c0-.2 0-.5.1-.7zm-6.1-12.7h.3c.1-.2.1-.5.1-.7h-.3c-.1.2-.1.5-.1.7m47-2.2h.3c.1-.2.1-.5.1-.7h-.3c0 .2-.1.5-.1.7m-40.9-5.6h-.3c-.1.2-.1.5-.1.7h.3c.1-.2.1-.5.1-.7m39-10.3h.3c.1-.2.1-.5.1-.7h-.3c-.1.2-.1.5-.1.7m-.8 31.9c0-.2 0-.5.1-.7h.3c0 .2 0 .5-.1.7zm-46.3-8.5h-.3c-.1.2-.1.5-.1.7h.3c.1-.2.1-.5.1-.7m2.5-31.2c0 .2 0 .5-.1.7h-.3c0-.2 0-.5.1-.7zm47.7 18.8h-.3c-.1.2-.1.5-.1.7h.3c.1-.2.1-.5.1-.7m-48.1 30.1c0-.2 0-.5.1-.7h.3c0 .2 0 .5-.1.7zm-.2-22.3h-.3c-.1.2-.1.5-.1.7h.3c.1-.2.1-.5.1-.7m41.6-18.6c-.1-.2-.4-.2-.3-.6.3 0 .3.2.3.4.3-.1.4.1.4.3-.3.1-.4 0-.4-.1m-43.3 41.6h-.3c0-.2 0-.5.1-.7h.3c0 .2 0 .5-.1.7m-.8-16.3h.4c0-.2.1-.5.1-.7h-.4c0 .2 0 .5-.1.7m12.1-17h-.4c0 .2 0 .5-.1.7h.4c0-.2.1-.5.1-.7m2.3-26.2h.4c0 .2-.1.4-.1.7h-.4c.1-.2.1-.5.1-.7m33.5 39.7c0 .2 0 .5-.1.7h-.3v-.7zm-4.1-19.2h.4c0 .2 0 .5-.1.7h-.3zm-42.3 4.6h.4c0 .2 0 .5-.1.7h-.3zm45.6 25.6c.1-.3.1-.5.1-.8h.4c-.1.3-.1.5-.1.8zm-41.4-35.1v.7h-.4c0-.2 0-.5.1-.7zm-.6-31.6v-.7h.4c0 .2 0 .5-.1.7zm3.1 17.7h.4c-.1.3-.1.5-.1.8h-.4c.1-.2.1-.5.1-.8m37.2 65.3h.4c0-.3 0-.5.1-.8h-.4c0 .3 0 .6-.1.8m-44.7-33.4h.7c0 .2 0 .3-.1.4h-.7c.1-.1.1-.2.1-.4m4.2-3.1h-.7v-.4h.7zm6.1-21.7h.7v.4h-.7zm31.2 41.1h-.3c0 .3-.1.5-.1.8h.4zm1.3-60.6h.7v.4h-.7zm3.8 63.5c-.1.3 0 .9-.5.7.2-.2-.2-1 .5-.7m7-51.1c0 .2 0 .3-.1.4h.8v-.4zm-6.8 4.3h.7c0 .1 0 .3-.1.4h-.7c0-.2.1-.3.1-.4m-38.3 48.6h-.8c.1-.1.1-.3.1-.4h.7zm35.5 23v-.4h.8c-.1.1-.1.3-.1.4zm-29.8-75.9h-.7c.1-.2.1-.5.1-.7.3 0 .3.2.3.4.3-.1.3.1.3.3m32.2 73.1h-.3v-.8h.4c0 .3 0 .6-.1.8m-42.6-12.8c-.3.1-.3-.1-.3-.4-.3.1-.3-.1-.3-.3h.7c-.1.2-.1.5-.1.7m40-26.9c0 .1 0 .2-.1.3h-1v-.3zm-36.9-47.9c.3-.1.3.2.3.4.3-.1.3.1.3.3h-.7c0-.2.1-.4.1-.7m37.4 49.8v-.3c0-.3-.4-.2-.7-.2-.2.5.5.1.3.7 0-.1.3 0 .4-.2m-36.7 8.7c0-.3.2-.3.4-.4.1-.3-.1-.8.4-.7 0 .2 0 .5-.1.7-.5-.2-.2.6-.7.4m36.1-13.5c0 .2 0 .4.3.4.1-.2.1-.5.1-.7h-.7c0 .2 0 .4.3.3m-29.7-21.6c-.5.2-.2-.4-.2-.7.5.2.2-.6.7-.4 0 .5-.6.4-.5 1.1m29 8.2c.6-.2.1.7.2 1-.6.2-.2-.7-.2-1m-42.9 17c0 .3-.2.3-.4.3 0-.2.1-.5.1-.7h.7c0 .3-.2.3-.4.4m47.3 36.1c-.6.2-.1-.6-.6-.3 0-.4-.1-.9.4-.7-.3.7.3.5.2 1m-47.8-20.9c-.1-.4.4-1.2-.2-1.1 0 .4-.4 1.3.2 1.1m44.2-23c.2 0 .4-.1.4-.3 0 0 0 0 0-.1h-.7c0 .3-.1.5-.1.7.2 0 .4 0 .4-.3m.4 37.5c.1.4-.4 1.3.2 1.1 0-.4.4-1.2-.2-1.1m-41.6-33.6c.3 0 .5-.1.4-.4h-.7v.7c.2 0 .4 0 .3-.3m.2 32.6c-.6.2 0-.6-.6-.4 0-.3-.1-.9.4-.7-.3.7.3.6.2 1.1m4.8-80.5c.6-.1.1.7.2 1.1-.6.2-.2-.7-.2-1.1m36.8 68.8c-.5-.2-.3.4-.4.7-.2 0-.4 0-.4.3.6.3.2-.5.8-.3zm-41.4 3.5c.5 0 .2.6 1 .4.1.5-.4.3-.8.3.3-.5-.5-.1-.2-.7m-4.1-9.2c0-.4.5-1.2-.2-1.1.1.4-.4 1.3.2 1.1m4.7-13.8c.6-.2.1.7.2 1.1-.7.1-.2-.7-.2-1.1m-4.8 19.1c0 .4-.5 1.3.2 1.1-.1-.4.4-1.2-.2-1.1m6.4-59.5c.3-.1.4.1.4.3.3 0 .3.2.3.4h-.7zm40.2 70.9c.1.3-.4 1.2.3 1-.1-.3.4-1.2-.3-1m7.6-83.7c0 .4-.4 1.3.2 1.1 0-.4.4-1.2-.2-1.1m-49.1 66.7c.7-.2.2.7.3 1-.7.2-.2-.7-.3-1m41.8-16.3c-.1-.4.4-1.3-.3-1.1.1.4-.4 1.2.3 1.1m-35.8-17.4c-.7.2-.2-.7-.3-1.1.7-.1.2.7.3 1.1m3.6-35.5c.7-.1.2.7.3 1.1-.7.2-.2-.7-.3-1.1m33.6 66.7c-.7.1-.2-.7-.3-1.1.7-.2.2.7.3 1.1m0-26.3c-.4.1-.1.9-.3 1.1.6.3.6-1 .3-1.1m-35.4-8.8c0-.2.1-.5.1-.7h1c.1.4-.2.3-.5.3s-.2.4-.6.4m31.8 14.9-.2 1.4h-.3c.2-.5-.2-1.5.5-1.4m-32.9 9.9h.3l.2-1.4c-.7-.1-.3 1-.5 1.4m-7.1 34h-.3c.2-.4-.2-1.5.5-1.4zm8.6-7.1h-.8l.2-1c.3-.1.3.2.3.5s.3.2.3.5m-.1-54.5c-.1-.4.4-.3.4-.6s-.4-.2-.3-.5c.3-.1.3.1.3.3.3.1.9-.1.7.4-.7-.2-.6.4-1.1.4m30.9 26.9c.6-.2.1.6.7.3-.1.3 0 .7-.3.8s-.2.4-.6.3c0-.3.2-.3.4-.3.1-.2.1-.4.1-.6-.1-.2-.4-.2-.3-.5m3.4-22.7c-.1.5-.1.9-.1 1.4h-.4c.2-.4-.2-1.5.5-1.4m-37.2 25.5c-.2.1-.2.4-.6.4 0-.2.1-.4.3-.4h.1c.1-.2.1-.3.1-.5-.1-.2-.4-.2-.3-.5.6-.3.1.5.7.3-.1.3 0 .7-.3.7m36.2 35.8c.4-.1.2.4.5.4s.2-.5.2-.7c-.2 0-.6-.1-.7.1s-.3.1-.4.2.1.3 0 .4c.2 0 .4-.1.4-.4zm-32.3-64.8c0 .2-.1.4-.1.7-.6.2-.1-.6-.7-.4.1-.2.1-.5.1-.7.6-.2.1.6.7.4m33.9 38.6c0 .4 0 .7-.1 1.1-.4 0-.3-.3-.3-.6s-.4-.2-.3-.5zm-35 17c-.3.1-.3-.1-.3-.4-.4.1-.4-.1-.4-.3.3.1.4-.1.4-.4.7-.1.2.7.3 1.1m-.1 1.1c-.7.1-.9-.1-.7-.7h.7zm-4.4-33.3c.2-.1.4-.1.4-.4-.6-.2-.2.6-.8.4.1.3-.4 1.2.3 1 0-.3.1-.7.1-1m1.1 26.9c.2-.5-.2-1.5.5-1.4 0 .4-.1.9-.1 1.4zm4.4-56.4c.5-.2.4 1.1.2 1.5h-.3c.2-.3-.1-1 .1-1.5m32.8-9.2h.8c0 .2-.1.4-.3.4 0 0 0 0-.1 0-.1.3.1.9-.5.7.1-.4.1-.7.1-1.1m-40.3 41.1c.7 0 0 1.3.1 1.8-.7 0 0-1.2-.1-1.8m-1.3 18.8c-.7 0 0-1.2-.1-1.8.7 0 0 1.3.1 1.8m41.3 8.9c.1.3-.4 1.2.2 1l.2-1.4h-.7c0 .2 0 .4.3.4m-33.9-11.7h.7c0 .3 0 .7-.1 1h-.7c0-.3.4-.2.4-.5s-.4-.2-.3-.5m-2.1-17.4c-.5-.2-.2.6-.7.4-.2-.9.6-.6.5-1.4.6-.2.1.7.2 1m-10.4 12.1c0-.5.1-1 .1-1.5-.7-.1-.3 1-.5 1.5zm8.2-45.4c.6-.2 0 .6.6.4 0 .3 0 .7-.1 1-.4.1-.3-.2-.3-.5s-.4-.3-.2-.9m5 12.8c-.1-.2-.5 0-.3-.4h.7c-.1.5.6.4.3 1.1-.4.1-.2-.3-.3-.4s-.3.1-.4 0 .1-.3 0-.3m.5-.7h-.7c0-.6.6-.4.4-1.1h.7c0 .5-.6.3-.4 1.1m-3.9 44.3c.1-.4.1-.9.1-1.3-.1-.2-.4-.2-.3-.5.6-.2.1.6.7.3-.2.5.2 1.6-.5 1.5m-.2-11.4h-.7c0-.4 0-.7.1-1.1.2.1.2.1.3 0-.1.6.6.4.3 1.1m37.5-30.5c-.2.4 0 .9-.2 1.4-.7.1 0-1.2-.1-1.7h.7c.1.3-.4.2-.4.3m-40.6-1.4c-.6-.2-.2.6-.8.4 0-.2.1-.4.3-.4h.1l.2-1.4c.7-.1.1 1 .2 1.4m42.4 17.9c.1-.4.1-.5.4-.5s.4.2.3.5 0 .6-.4.5c-.3.1-.3-.2-.3-.5m-4.6-13.6c-.7 0-.1-1.3-.2-1.8.8 0 .1 1.2.2 1.8m3.5 42c.1.1.4.1.3.5-.6-.2-.2.6-.8.4l.2-1.5c.4-.1.3.3.3.6m.8-49.1c.3 0 .3-.2.4-.4.7 0 0 1.3.1 1.8-.6.2-.2-.6-.2-.9s-.4-.2-.3-.5m-6 41.1c.3-.7-.3-.6-.3-.9s.1-.7.1-1.2c-.6-.1-.3.9-.5 1.4.8-.3-.1 1 .7.7m-34 2.6c0-.1-.4-.1-.3-.5.6.2.2-.6.8-.3 0 .4-.4.2-.4.5s.3.1.3.2-.1.6-.1.9.4.1.3.5c-.4.1-.2-.4-.5-.4s0-.4-.1-.9m-.6-17.8c.1-.4.1-.9.1-1.3 0-.3.3-.7-.1-.9-.4.4-.2 1.5-.4 2.2.1-.1.4 0 .4 0m6.5-5c-.1.5 0 1.1-.1 1.6-.1.2-.5.1-.4.5.7.3.6-.3.8-.9 0-.4.2-1.4-.3-1.2m34.3 1.1h.7c-.1.5 0 .8-.3 1s-.2.4-.6.4zm-3.5 40.7c0 .1.3 0 .4 0s-.1.5.3.4c0-.5.1-1 .1-1.5h-.7c.1.4-.2.8-.1 1.1m2.3-12c0-.1-.5-.1-.3-.4h.7c0 .5-.2.9-.1 1.2s.4.2.3.6c-.6-.2-.2.5-.8.3.1-.6.2-1.1.2-1.7m-2.7-1.1c.6-.2.1.6.7.4 0-.4.1-1 .1-1.5s.4-1.1-.2-1c-.2.5 0 1.1-.2 1.6-.1.2-.4.1-.4.5m-36.6-16.8c.1-.2-.1-.2-.3-.2 0 .2-.1.4-.4.3-.1.8-.2 1.7-.2 2.5.5.1.3-.6.4-1s.1-1.2.2-1.5c0 0 .3.1.3-.1m4.1-14c-.2 0-.2.3-.2.5s.4.1.3.5c.2.6-.6.2-.4.7.5.3.2-.5.7-.3.1-.7.2-1.4.2-2.1-.7 0 0 .7-.6.7m-6.5 30.8c-.7-.2-.6.4-1.1.4.3-.6-.6-.2-.3-.8.4-.1.2.4.5.4.4-.2.2-1.2.4-1.8.6-.2.2.6.2.9.2.2.5.3.3.9m6.3-5.7c.1-.1.2.1.3-.2.1-.6.2-1.3.2-1.9.2 0 .3 0 .4.2-.1.6-.2 1.1-.2 1.7-.2.6.1 1.2-.8.9.1-.1-.1-.5.1-.7m2.5-48.5c-.6.2-.3-.4-.3-.7-.5-.1-.4.6-1.1.3.1-.4 0-.7.1-1 0-.1.3 0 .4 0-.1 0-.1 0-.1.1 0 .2.5.3.7.2s.1-.5.4-.3c-.1.3.1.3.3.3 0 .5-.6.4-.4 1.1m-1.4 54.9c-.6.2-.1-.6-.7-.3l.2-2.2c.5-.1.2.3.3.6.1.1.3.1.3.3 0 .5-.1 1.1-.1 1.6m32.1 5h.7c.1-.4-.2-.3-.3-.4s0-.3 0-.3c-.1-.2-.3 0-.3-.2s.1-.5-.2-.6-.1-.4-.5-.3c-.1.4.3.3.3.5s-.1.4 0 .6.5-.1.3.3c-.7-.1-.3 1-.5 1.4.6.2.2-.5.7-.3.3-.6-.5-.2-.2-.7m1.5 2.4c-.7-.1-.3 1-.5 1.5.1 0 .3 0 .3.1s-.2.2-.4.2c0 .4 0 .7-.1 1.1-.2 0-.4 0-.4.3.6.3.2-.5.8-.3.1.3-.4 1.2.2 1-.1-.5.4-1.3.2-1.7 0-.1-.4 0-.3-.2s.4-.1.4-.5c-.7.1-.1-1-.2-1.5m-41.4-21.7c0 .3-.4.1-.9.1-.2.1-.2.4-.5.4-.1-.4.2-.3.4-.4s0-.4.3-.3c.1-.3.1-.6.1-.9-.1-.2-.4-.2-.3-.5s.1-.4.2-.4.3-.4.6-.4c.2.6-.6.2-.4.8.5 0 .4-.6 1.1-.4 0 .3-.2.3-.4.4 0 .3-.2.3-.4.3 0 .4-.1.7-.1 1.1.5 0 .4-.6 1.1-.4.1.8-.7 0-.8.6m-4.1-15.1s-.5-.1-.3-.4h.7l-.2 2.2c-.3.5.5.1.3.7-.1.1 0 .4-.1.5s-.3.1-.4.2.1.9-.4.7c-.1-1.2.6-2.9.4-3.9m4.7 23c-.2.6.6.2.3.7.2.4-.4.3-.4.4s0 .8-.1 1.2.1 1.1-.5.9c.2-1.2.3-2.3.4-3.5-.2-.1-.3-.1-.3 0 0-.5.1-1 .1-1.4.6-.3.1.5.7.3 0 .3-.3.9.3.7.1.6-.6.2-.5.7m-2.3 12.4c0 .4-.1.7-.1 1.1-.2 0-.3 0-.4.2s.4.1.7.1c0 .2-.1.4-.3.4 0 0 0 0-.1 0 0 .3-.2.3-.4.4v.5c0 .2.4.1.7.2-.1.2-.1.5-.1.7-.4.1-.2-.4-.5-.4s0-.2-.2-.3c0-.1-.2 0-.3 0s0-.5-.3-.4c0-.4 0-.7.1-1.1.3.1.3-.1.4-.3.2 0 .3 0 .3-.2-.2-.6-.3.4-.7.2 0-.4.4-.3.4-.5s-.4-.2-.3-.6c.3 0 .3.2.3.4.6.2.2-.6.8-.4m7.3-19.5c-.5-.2-.5.6 0 .4 0 .4-.4.2-.4.5s.3.1.3.2c0 .6 0 1.2-.2 1.8l-.3.1c-.1.2 0 .4-.1.6.5.2.2-.6.7-.4 0-.3.2-.3.4-.3.2-.4-.3-.3-.3-.6.1-.3.1-.5.1-.8h.4c0-.7.1-1.5.2-2.2h-1.1c-.2.6.6.2.3.7m3.8-8.8h-.7c-.3.5.5.1.2.7-.5 0-.4.6-1.1.3 0-.2.1-.3.1-.5 0-.1-.3-.1-.3-.2-.1-.4.2-1 .1-1.7.4-.2.2.2.4.3s.4 0 .3.4c.5 0 .4-.6 1.1-.4-.1.4-.1.7-.1 1.1m-11.3 36.8c-.2.4.1.6-.1 1.1h-.7c0-.2.1-.5.1-.7.3.1.3-.1.4-.4s-.3-.2-.3-.3c-.2-.4.2-1 .1-1.6.1-.2-.3-.1-.3-.2-.2-.3.4-.9-.3-.7 0-.5.6-.3.5-1.1h.7c0 .6-.7.3-.5.9 0 .2.1.2.2.2s.2-.4.6-.4c0 .2-.1.4-.3.4 0 0 0 0-.1 0-.1.6-.2 1.3-.2 1.9l.3.4c.1.1.1.2.3.2.2.3-.3.2-.4.3m9.5-33.6c0-.1.5 0 .4-.2-.3-.2-.2-.2-.3-.7 0-.2-.4-.2-.3-.6.3.1.4-.1.4-.3h1.1c.1.5-.5.3-.8.3 0 .3 0 .6-.1.9.2.2.5.4.3.9.5.2.2-.6.7-.3.1.4-.3.2-.4.5s-.3.1-.4.4c.2 0 .2.2.4.3 0 .1.1.2.3.2 0 .3-.1.7-.1 1-.4.2-.2-.3-.3-.3s-.6.1-.7 0 0-.5-.4-.4c.2-.5 0-1.3.2-1.7m-8.5 24.1c-.5.1-.2-.3-.3-.6s-.4-.1-.3-.5c-.6.2-.6-.2-.8-.4-.5.2-.2 1-.4 1.5-.7.2.2-1-.6-.7 0-.4.1-.8.1-1.1.5.3.3-.5.4-.7s.4 0 .4 0c.1-.3 0-.7.1-1.1.2.1.3 0 .4-.2s-.8 0-1.1-.1c-.1.5.6.3.3 1-.5.2-.2-.3-.3-.5s-.3-.1-.3-.4c-.2-.5.3-.4.4-.7-.2-.2-.5-.3-.3-.8.6-.2.3.3.3.7.4-.1.7-.1 1.1 0-.1-.1.1.6.6.3-.2.6.6.2.3.7-.4.1-.2-.3-.5-.3s-.1 1-.3 1.4c-.3 0-.7-.1-.7.2s.4.1.7.1c-.2.4.2.3.3.4s-.1.5.3.3c-.3.9.5.6.2 1.5m43.1 15.2c0 .3-.2.3-.4.4-.3.5.6.1.3.7-.7-.1-.3.9-.5 1.4h-.7c0-.5.1-1 .1-1.4-.7-.1-.3 1.5-.6 2.1-.4.1-.2-.3-.4-.4-.5 0 .3-.6-.5-.7 0-.3.1-.7.1-1 .7-.3 0 .7.5.7.3 0 .1-.6.2-.9-.1-.2-.4-.2-.3-.5-.5-.3-.2.5-.7.3-.1-.6.2-.7.4-.9-.1-.2-.4-.2-.3-.5.4-.2.2.3.4.4 0 0 .2-.1.3 0s-.1.2 0 .3.3 0 .3 0c.1.2-.2.7.1.7s.2-.6.3-.9c-.2-.2-.5-.3-.3-.9h.9c.3-.2.4-.5.9-.3.1.3-.1.3-.3.3l-.2 1.1c.6.2.2-.6.8-.3 0 .3-.2.3-.4.3m-2.2-81.9c.1-.4-.3-.2-.3-.5-.2-.6.3-.4.4-.7-.1-.2-.4-.2-.3-.5.5.2.6-.6.1-.4-.1-.4.3-.2.4-.5s-.3-.1-.4-.2.5-1.2-.2-1.1c.2-.4-.1-1.1.1-1.4.1 0 .5.1.4-.2.1-.2-.3 0-.3-.1-.2-.5.3-1.3.1-1.8.6.2.4-.4.5-.7.5-.2.4 1 .2 1.4-.1.1-.6 0-.4.4-.2.3.2.2.3.3s0 .5.3.4c0 .5-.1 1-.1 1.6-.1.2.3.1.3.1.1.6-.3 2-.3 2.7 0 .2.2.1.4.2 0 .4-.4.2-.4.5-.4.7.4.3.2.9-.2 0-.3 0-.4.2s.3.1.4.1c.1.4-.3 1.1-.2 1.5-.7.2-.5-.4-1-.4 0-.3.2-.6.1-.9s-.3-.1-.3-.3c0-.4.1-.6.4-.6m5.1 26.6c-1.1.7.1-.4-.3-.7-.1-.1-.7.1-.7 0-.2-.2.2-.7-.1-.7-.5.3-.2.7-.3 1.1 0 0-.4 0-.4.1s0 .4-.1.6c.6.2.2-.6.8-.4 0 .4-.1.7-.1 1.1-.6-.2-.9.1-.8.7-.3.1-.3-.1-.3-.4-.3.1-.3 0-.4-.1-.1-.3-.4-.3-.2-.9.6-.2.1.5.7.3 0-.3-.2-.3-.4-.3.1-.3-.1-.4-.3-.4l.2-1.6c.1-.2-.3-.1-.4-.2s.2-.7.2-1c.6-.2 0 .6.6.3 0 .4 0 .7-.1 1.1.9.1-.1-1.9 1.2-1.4 0-.3.1-.5.1-.7-.5-.1-.4.6-1.1.3 0-.5.6-.3.5-1-.6-.2-.3.5-.5.7 0 0-.3-.1-.3 0-.2.1-.1.4-.4.3-.2-.5.6-.1.4-.7.3-.6-.5-.1-.3-.7-.1.1-.2.1-.3 0l.4-3.9c.5 0 .3.6 1 .4.2-.6-.4-.3-.7-.4.1-.3-.1-.3-.3-.3 0-.2.1-.4.3-.4h.1c0-.4.1-.7.1-1.1h.4c.1-.4-.3-.2-.3-.5s-.2-1.1.4-.9c.3-.6-.5-.1-.3-.7h.7l-.3 3.2c.5.2.4-.4.4-.7.6-.2.1.6.7.3l-.3 2.9c-.7 0 0-1.7-.1-2.3.1-.2 0-.2-.1-.2-.5.4-.3 1.8-.5 2.7.2.1.3.3.5.5.4.1-.1-1 .6-.7.2.8-.6.5-.5 1.2 0 .3.4.2.7.2 0 .3-.2.3-.4.4l-.2 1.6c0 .2.3 0 .4.1.1.3-.4.9.3.7-.1.4-.2.9-.2 1.3 0 .2.3 0 .4.2s-.3.7-.1 1m-40.3-18.4c.1-.4-.3-.3-.3-.5v-.6c.1-.3.3-.2.4-.5.1-.5-1 .2-.6-.5h.7c-.1-.4.4-1.3-.3-1.1 0-.4 1-.6.1-.7 0-.3.2-.3.4-.4.3-.5-.5-.1-.3-.7 0-.4.4-.2.4-.5.1-.2.1-.5.1-.7-.1-.2-.4-.2-.3-.5.7.1.3-.9.5-1.3-.1-.2-.4-.2-.3-.5-.2-.4.3-.3.4-.4.2-.3 0-.7.1-1.2s-1 .2-.6-.5c.7.2.6-.4 1.1-.4.1-.4-.4-.2-.3-.5v-.6c0-.4.4-.2.4-.5.4-.7-.4-.3-.2-.9.5.2.5-.6.4-.9s-.4-.1-.3-.5c.6.2.3-.5.5-.9-.1-.2-.4-.1-.4-.3s0-.5.1-.6.3.1.3 0c.2-.4-.1-1.1.4-1.4.1 0 .2-.1.2-.2-.1-.1-.3-.1-.4-.3s.1-2 .6-1.6c.1-.5-.1-1.5.3-1.8.1 0 .2 0 .2-.2.3-.6-.4-.3-.2-.8 0-.1.3 0 .3 0 .1-1 .2-1.9.3-2.9.6.2.2-.6.7-.3 0 .1.1.3 0 .5s-.4.1-.4.2c-.5 1.5-.1 4.1-.6 5.6 0 .3 0 .3-.2.4s-.2 0-.2.2c.2.6.3-.4.8-.2.1.4-.4.2-.4.4-.2.2.1.8-.5.7.2.5-.6 2.1.2 2.1.1.3-.4.3-.4.3-.4 1-.2 2.9-.4 3.9-.1.3-.1.4-.4.4-.1.3.1.3.3.3.1.4-.4.3-.4.6.2.6.3-.4.7-.2-.1.5.6.3.3 1.1-.4.1-.2-.4-.5-.4s-.3.4-.3.5.4.2.4.4c-.1.6-.2 1.3-.2 1.9-.6-.3-.2.5-.5.8 0 0-.4-.1-.3.1-.2.5.8-.1.6.4.2.5-.3.4-.4.7-.3.7.5.3.3.9-.3-.1-.4.1-.4.3-.2 0-.3.1-.4.2-.3.6.2.4.3.7s-.1.6-.1.9-.4.3-.4.5c.2.7.3-.4.7-.1 0 .3-.2.3-.4.3.1.3-.2.4-.4.4.1.3-.2.9-.1 1.2s.3.1.3.4v.5c0 .3-.2.3-.4.4 0 .3-.4 1.2.2 1 .2.6-.6.2-.4.7-.3.6.6.2.3.7-.1.1-.4 0-.4 0-.4 1.4-.1 3.6-.5 5.2 0 .2.3.1.3.3v.6c-.8-.3-.7.5-1.5.3.3-.7-.3-.5-.2-1.1h.7c0-.3-.3-.2-.3-.5s.1-.7.1-1.2.4-.3.4-.6-.3 0-.3-.1c-.2-.3.3-.9-.3-.7-.2-.4.3-.3.4-.4.2-1.4.4-2.7.4-4.1 0-.2-.4-.1-.3-.5.7.3.1-1 .8-.7m-2.3 46.1c-.4.1-.2-.4-.5-.4-.1-.1-.3.6-.2.7s.3 0 .3.4v.3c-.6.2-.1-.5-.7-.3l.2-2.5c-.5-.2-.2.6-.7.3 0-.3.2-.3.4-.3-.1-.3.1-.3.4-.4s-.2-1.1.1-1.4h.4c.2-.9 0-1.7.3-2.8-.7-.1-.4.8-.5 1.4s.1 1.5-.5 1.4c.2-.8 0-1.7.2-2.5v-.3c.1-.1.4 0 .4 0 .1-.2 0-.4.1-.5-.1-.3-.5-.2-.7-.2 0-1 .1-1.9.3-2.9 0-.2.1-.3.4-.3v-.7c-.5-.2-.2.5-.7.3 0-.4.1-.9.1-1.4h.7l.2-1.4c-.8-.3 0 1.3-.8 1.1.2-1.6.1-2.9.4-4.3v-.3c-.6 0-.2-1-.2-1.6.2-.7.2-1.3.2-2 0-.5-.2-.1-.2-.7.8.2 0-.5 0-.4.1-.3.3-.2.4-.5.3-.7-.4-.3-.3-.9h.8c0-.3 0-.7.1-1 .2-.6-.6-.2-.3-.7.3.1.3-.3.4-.4s.8.2.7-.4c.5 0 .3.6 1 .4.2.5-.4.3-.7.4 0 .5-.6.3-.5 1 .8.3.1-1 .8-.7l-.7 7.3c0 .2.3.1.3.3-.2.4.2 1.4-.5 1.3-.1.4.3.2.3.5.1.7-.7.4-.5 1.2.7.1.2-1.1 1.2-.7.1.4-.3.3-.4.4s-.1.5-.4.3c-.1 1.3-.3 2.8-.5 4.3-.1 1.2-.7 4.2-.3 4.6.1.1.3 0 .2.2.2.5-.3.4-.4.7l.3.3c.1.1.1.3.3.2.1.4-.3.3-.4.5-.3.9 0 2.1-.3 3.1m-5.2-39c.6.1.9-.1.8-.7.5-.2.3.4.3.7.3 0 .3-.2.4-.4.2.1.3 0 .3-.2-.2-.2-.3-.6-1-.5 0-.4.4-.2.4-.5s-.7-.6.1-.5c.3-.6-.6-.2-.3-.8-.2-.3.4-.2.4-.3.3-.8 0-2 .3-2.8.6.1.3-.7.5-1.1.2 0 .3 0 .3-.2-.2-.6-.3.4-.7.2 0-.3.2-.3.4-.4.3-.5-.6-.1-.3-.7h1.1c0-.3 0-.7.1-1-.5-.2-.4.4-.4.7h-.8c.1-.2.1-.5.1-.7.2 0 .4-.1.4-.3 0 0 0 0 0-.1.3 0 .4-.2.6-.3s.2 0 .2-.2c0-.4-.8-.1-1.1-.2.3-.6-.5-.1-.2-.7h1c.1-.4.1-.7.1-1.1s.4-.2.4-.5c-.2-.6-.4.5-1 .2-.2-.6.4-.3.7-.4 0-.3.1-.7.1-1 .2 0 .3-.1.4-.2l-.5-.6c-.4.2-.2 1-.3 1.5-.7.1-.1-1-.2-1.5.5.3.2-.5.7-.3-.1-.6.2-.7.5-.9-.3-.6-.3.4-.8.2-.1-.4.4-.3.4-.4.2-.3 0-.6.1-1-.5-.3-.2.5-.7.3-.1-.4.4-.2.4-.5s.5-.2.7-.2c.3-.6-.5-.1-.3-.7h.8c-.1-.4.2-.9.1-1.2s-.3-.2-.3-.4c-.2-.5.3-.4.4-.7-.1-.2-.4-.2-.3-.5.5.1.5-.6.4-.9s-.4-.2-.3-.5c.6.1.4-.6.5-.9-.1-.2-.4-.2-.3-.6h.7c-.2.6.1.7.3.9.2.6-1.1.8-.1.9 0 .4-.4.3-.4.5s.3.2.3.6c.5.2.1-.6.7-.4 0 .2 0 .5-.1.7h-1c-.3.4.2.3.3.4.1.3-.2.9-.2 1.4-.6-.3-.3 1.5-.5 2.1.5.2.2-.6.7-.3 0 .3-.2.3-.4.3-.2.2.1.9-.1 1.1 0 0-.3-.1-.3 0-.2.4 0 1.1-.4 1.4-.1.1-.2 0-.2.2.2.6.3-.4.8-.2.1.4-.4.3-.4.4-.3.4 0 1.3-.2 1.9-.1.2.2.1.3.2s-.1.4 0 .5c0 .3.5.2.2.9-.7.3 0-.8-.4-.7-.3.3-.4.8-.3 1.2 0 .2.4.2.2.6-.6-.2-.2.4-.4.7 0 0-.4-.1-.3.1s.3.2.3.6c.5.2.1-.6.7-.4.1.4-.4.3-.4.6-.1.1-.4.1-.4.3-.3.7.4.4.3.9h-.8c0 .4 0 .8-.1 1.2 0 .4.8.1 1.1.2.1.5-.5.3-.8.4 0 .3-.1.7-.1 1 .3.1.4-.1.4-.3.4-.1.2.3.5.3.5 0-.1-1.3.6-1 0 .4 0 .8-.1 1.2-.1.2.3.1.3.2.1.4-.2.9-.1 1.2s.4.2.3.6c-.7-.3 0 .9-.8.7 0 .5.6.3.3 1h-.7c-.1-.4.3-.2.4-.5s-.4-.1-.3-.4c0-.1-.2-.1-.4-.1 0-.2.1-.4.3-.4h.1c.2-.5 0-.7.1-1l.4-.2v-.4c0-.3-.4-.1-.7-.2-.1 0 .1-.3-.1-.3h-.3c-.5.4-.3 1.5-.4 2.1-.6-.2-.4.6-.5.9s.3.1.3.2c.2.2-.2.7.2.7s-.2-1.3.6-1.1c0 .3-.1.6-.1.9s.5.2.3.9h.8c.2-.1.3-.4.6-.4.1.3-.2.4-.4.4.1.3-.1.3-.4.3 0 .4 0 .7-.1 1.1-.3.1-.3-.1-.3-.3-.5-.1-.4.6-1.1.3 0-.2.1-.5.1-.7h.7c0-.3.3-.9-.3-.7.1-.4-.2-.3-.5-.4s.1 1-.6.7c-.1.4.3.3.3.6s-.1.5-.4.5c-.1.5.6.4.2 1.1h-.7c.4-.9-.3-.8-1-.7.2-.4 0-.7.1-1-.1 0-.2-.2-.3-.1s0 .5-.4.4c-.2-.6.6-.2.4-.8.3-.5-.5-.1-.2-.7.4-.1.2.4.5.4.1 0 .1-.4.3-.4.3-.2.4-.5 1-.3v-.7c-.3-.2-.2.3-.4.3-.2.2-.8-.2-.7.4-.4.2-.2-.3-.3-.4-.5-.1-.1.3-.8.4.1-.2.1-.5.1-.7m10.6 31.5c.1.8-.7.6-.5 1.4.7.3.1-.9.8-.7-.3.6.5.2.3.7.1.4-.4.3-.4.4-.3.5 0 1.5-.3 2.1-.6.2 0-.6-.6-.3-.1-.4.4-1.3-.3-1.1 0-.3.2-.3.4-.4.2-.3-.3-.2-.3-.3s.2-.7-.1-.7c-.4.2-.2.7-.3 1-.2 1.3-.4 2.5-.4 3.8 0 .2.5.1.3.5-.3-.1-.3.1-.4.4-.2-.1-.3 0-.3.1 0 .3.4.2.6.2l-.3 3.6c-.6-.3-.2.5-.8.3.1-.2 0-.4.1-.5s.2-.2.4-.2c.1-.4-.1-.6.1-1.1-.7-.2-.1 1-.8.7-.2-.6.4-.6.4-.8s-.4-.2-.3-.6c.3.1.4-.1.4-.3.2 0 .3-.1.4-.2-.2-.7-.3.4-.7.2-.4-.4.8-.3.4-.7 0-.1-.3 0-.4 0 0-.3.4-1.4-.2-1.1 0-.5.6-.3.5-1.1-.8-.2-.1 1-.8.7-.3.6.5.2.3.8 0 .3-.4.2-.4.5-.4.7.4.3.2.9-.5-.2-.2.5-.7.3-.1-.4.3-.2.4-.5s-.4-.1-.3-.4c0-.1-.2-.1-.4-.1-.1-.6.6-.2.5-.7.2-.6-.6-.2-.3-.8 0 0 .3.1.3 0 .4-1.4.5-2.9.5-4.4 0-.2-.5-.2-.3-.5.6.1.3-.9.5-1.3 0-.1-.2-.1-.4-.1.3-.6-.1-2.2.6-2.2.3-.3-.3-.2-.3-.3-.1-.4.5-1.5-.2-1.4-.1-.4.3-.3.4-.6.3-.6-.5-.3-.3-.9.3.1.4-.1.4-.3.1-.4-.2-.3-.3-.5-.1-.6.3-.5.4-.7-.1-.2-.3-.2-.3-.6.9-.1-.1-.3.1-.7.6.2.3-.7.5-1-.7-.3-.1.9-.8.7 0-.3.1-.6.1-.9s-.4-.2-.3-.6c.4-.1.2.4.5.4s.2-.4.2-.7c.2 0 .4-.1.4-.2s-.3-.1-.3-.2.1-.6.1-.9-.6-.1-.3-.8h.7c0-.3.1-.5.1-.7-.6-.3-.2.5-.8.3.1-.2.1-.5.1-.7.2-.1.4.1.5 0s.2-.3.3-.4.6.2.7-.1-.8-.1-1.1-.2c-.1-.6.3-.7.5-.9-.1-.3-.6-.1-.3-.7-.1-.2-.4-.2-.3-.5-.4-.1-1.3.2-1-.4h.9c.2-.1.2-.4.5-.3.1-.3.1-.5.1-.8.6.2.9-.1.8-.7.7-.2.5.4 1 .4.1.6-.4 1.8 0 2.1.4-.4.1-.9.3-1.4h.3c.3-.3-.1-.8.2-1.1.5 0 .2.6 1 .4 0 .3-.2.3-.4.3 0 .4-.1.8-.1 1.1h-.7c-.3.6.5.1.3.7h.7c0 .1-.1.3-.1.4h-.7c0-.1 0-.3.1-.4-.5 0-.5.6-1.1.4 0 .3-.3.9.2.7-.1.4.3.3.5.3s.2-.4.3-.7c.7-.3 0 .8.4.7.6 0-.1-1.3.7-1 0 1.4-.6 3.5-.5 4.8 0 .1.2.1.3.1.2.4-.3.3-.4.4-.2.4 0 1.2-.1 1.8h-.8c.2-.6 0-.9-.6-.7-.2-.4.3-.3.4-.4.2-.3 0-.6.1-1.1.7-.2 0 .8.5.7.1 0 .3-.5.2-.7 0 0-.5 0-.3-.3.4.1.4-.3.4-.6s-.6 0-.9-.1l-.3.3c-.1.1-.3.2-.3.4-.2 0-.3-.1-.3-.2s-.4-.2-.3-.5h.7c0-.3-.2-.4-.3-.6s-.4-.2-.3-.5c.3-.1 1 .2 1.1-.2-.1-.4-1.1.1-1.4-.3 0-.1 0-.2-.1-.2-.3 0-.6 1.3 0 1.1.1.2-.1.6-.1.8s.5.2.3.6c.3-.1.3.1.3.3.6.3.2-.5.8-.3.1.5-.2.7-.5.9.1.1.4.1.3.5-.6-.1-.3 1-.5 1.4-.3-.1-.3.2-.3.4 0 0 .2-.1.3 0 0 .4-.1.8-.1 1.2.1.2.4.2.3.5-.6.2-.7-.1-.9-.3-.3.2-.1 1-.9.7-.1.3-.1.6-.1.9.1.2.4.2.3.5.6-.2.1.6.7.4 0-.3-.2-.4-.3-.6s-.3-.1-.4-.3c-.1-.6.4-.4.5-.7s.4-.2.7-.2c.1.4-.4 1.2.2 1.1.1.3-.1.3-.4.3 0 .4 0 .7-.1 1.1-.4.2-.2-.3-.3-.4-.3-.1-.6.1-1 0-.3.6.3.3.6.4-.1.6-.4.1-.4.7 0 .3 0 .2.1.3s.3.5.1.7c0 .1-.4 0-.3.2s.3.2.5.2c.4-.2.2-1.2.3-1.8.6-.1.3.7.3 1.1 0 .5-.1.9-.2 1.4-.5.2-.6-.1-.8-.3-.2 0-.2.3-.2.5s.4.1.6.2c-.3.7.4.5.3 1h1.1v-.7c-.5-.2-.2.6-.7.4 0-.2.1-.4.3-.4h.1c.1-.3-.1-.8.1-1 0-.1.4 0 .4-.2s-.3-.1-.4-.2.1-.3.1-.4-.5 0-.4-.3c.4-.1.4.1.4.3h.7c-.3.6.5.2.3.8h-.8v.7c.4.1.3-.4.5-.4s.3-.4.6-.3c-.2.5.2 1.8-.5 1.7 0-.3.2-.9-.3-.7m-9.9-14.3c0-.3-.4-.2-.7-.2.1-.3-.1-.3-.3-.4.3-.8-.5-.6-.2-1.4-.5-.2-.2.6-.7.4-.1-.4.3-.3.4-.6-.1-.2-.4-.1-.3-.3s-.2-.2-.4-.2c0-.2.1-.5.1-.7.5-.1.2.3.3.5s.3.3.5.6c.2-.1.2-.5.2-.7.3-.1.3.1.3.3h1.1c-.1.3.1.3.3.4.2.3-.3.2-.4.3-.1.3.2.9-.4.7 0-.3.1-.7.1-1-.6-.2-.3.5-.4.8.1.3.4.4.2.9.6.3.2-.5.8-.3 0-.4 0-.7.1-1.1.6 0 .2.9.2 1.4-.1.5-.2 1.1-.2 1.6.1.2.4.2.3.6.5 0 .4-.6 1.1-.4-.1-.2.4-1 0-1.1s-.1-.4-.1-1c-.6-.2-.2.6-.8.3.1-.3.1-.7.1-1 .7.2.7-.4 1.1-.4.1.3-.2.9.3.7v.7c0 .4-.4.3-.5.6s.3.1.4.1c.1.3-.4 1 .3.8 0 .3-.4.2-.4.5s.3.1.3.3 0 .4-.1.6-.2.2-.4.5.3.1.3.2c.1.6.1 1.2-.1 1.8 0 0-.4-.1-.4 0s0 .9-.1 1c0-.1-.7.2-.4.7-.6-.2-.2.6-.8.4-.1-.4.4-.3.4-.4.2-.2-.1-.9.4-.7l.3-2.8c-.7-.3-.6.4-1.1.3-.1-.5.6-.1.5-.7-.6-.2-.2.6-.8.4 0 .3 0 .6-.1.9.2.2.5.3.3.9.1.5-.6.2-.5.8.1.2.4.2.6.2.4.1-.1-1 .6-.7-.1.2-.1.5-.1.7-.5 0-.4.6-1.1.4-.1.4.3.2.3.5l-.2 1.6c.6.2.3-.5.5-.7 0-.1.3 0 .3 0 .1-.2.1-.5.4-.4.2.6-.6.2-.4.7.3.1.3-.1.4-.3.2 0 .3-.1.3-.2.4-.7-.4-.3-.2-.9.5.2.2-.6.7-.3l-.2 2.1c-.4-.1-.4.2-.4.5s.4.2.7.2c-.1.3.1.3.3.4 0 .3-.2.3-.4.3 0 .3-.2.3-.4.4 0 .4-.1.8-.1 1.2.1.2.4.2.3.5.3 0 .3.2.3.4-.4.1-.2-.3-.5-.4-.2.1-.2.5-.2.7-.6.3-.1-.5-.7-.3-.3.6.6.1.3.7-.7-.3-.1 1-.8.7 0-.4.1-.8.1-1.2-.1-.2-.4-.2-.3-.6.6.3.2-.5.8-.3-.1-.6.2-.7.4-.9 0-.2-.3-.1-.3-.4-.1-.1-.4-.1-.3-.5-.3.1-.3-.1-.3-.3h.7c.3-.8-1 0-.8-.7-.2 0-.5-.1-.9-.1-.2.6.3.4.7.4 0 .4-.5 1.2.2 1.1.1.4-.4.2-.4.5-.3.7.4.3.3.9-.6-.2-.2.6-.8.3.1.4-.4.3-.4.6s.7 0 1 .1c0 .4 0 .7-.1 1.1-.6.2 0-.6-.6-.3-.1.3.1.3.3.3-.2.6.6.2.2.9.1.2.5.1.7.2.1.3-.2.2-.4.3s0 .5-.3.4l-.2 1h-.7v.8c.5.1.2-.7.9-.4.2-.1.2-.4.6-.4 0-.3-.1-.8.4-.7 0 .6-.2.9-.1 1.3 0 .2.5.2.2.9h-.7c-.1-.4.4-.3.4-.6l-.5-.5c-.4.3-.2 1.4-.3 1.9l.4.6c.5 0 0-1 .6-.7.1.5-.2.6-.4.9.2.1.3.3.5.5.2 0 .1.4.1.7-.4.2-.2-.3-.3-.4-.3-.1-.6.1-1.1 0-.1.5.6.4.2 1.1.5 0 .5-.6 1.1-.3v.7c-.3 0-.7-.1-.8.1.2.4 1.1.1.7.9.5.1.4-.6 1.1-.3-.1.1-.1.4-.4.3.1.6-.3.7-.5.9l.3.4c.1 0 .2.2.4.1l-.2 1.5c-.6.1-.1-.7-.2-1.1-.5 0-.4.6-1.1.4-.1-.6.4-.4.7-.4.1-.2.1-.5.1-.7-.5-.2-.2.6-.7.3 0-.1 0-.3-.2-.3s-.1.3-.2.3c-.2.2-.7-.1-.7.2s.4.2.7.2c-.1.4-.1.7-.1 1.1h-.8c0 .4 0 .8-.1 1.2 0 .4.8.1 1.1.2.1.4-.3.2-.4.3s0 .4-.1.4-.5-.1-.7 0c-.1.1-.1.2 0 .3h-.7c.1-.3-.1-.3-.3-.3-.1-.4.2-.3.4-.4s0-.4.4-.3c-.2-.6.5-1.8-.2-1.8-.1-.4.3-.2.4-.5s-.4-.2-.7-.2c-.1-.6.2-.7.4-.9s-.3-.1-.3-.2c-.1-.6.4-2 .3-2.6 0-.2-.4-.1-.3-.4-.2-.5.3-.4.4-.7-.1-.2-.4-.2-.3-.5.2 0 .3-.1.4-.2 0-.2-.3-.1-.4-.2s.1-.4.1-.5-.3-.2-.3-.4c-.2-.5.3-.4.4-.7-.1-.1-.4-.2-.3-.5-.3.1-.3-.1-.3-.4.4-.1.2.4.5.4s.1-.3.2-.5-.4-.2-.7-.2c-.1-.4.4-.3.4-.5s-.3-.2-.3-.6c0 0 .5 0 .4-.1s-.3-.2-.3-.4v-.5c.1-.4.3-.3.4-.6s-.4-.1-.7-.1c0-.2.1-.4.3-.4h.1c0-.3.2-.3.4-.4.3-.3-.3-.2-.3-.3 0-.6.1-1.2.2-1.8.1-.2 0-.2.2-.3s.2 0 .2-.2c-.2-.7-.3.4-.7.2-.1-1.2.5-3.1.4-4.1 0-.2-.3-.1-.3-.4-.2-.5.3-.4.4-.7s0-.5-.3-.5c.1-.5.4-.3.4-.7s-.3-.2-.2-.7c.2 0 .3-.2.3-.4.2-.4-.3-.2-.3-.5s0-.4.1-.5c.1-.4.2-.3.4-.6 0-.2-.4-.1-.7-.1.2-.5-.2-1.6.5-1.5 0 .4-.1.7-.1 1.1.7.2.8-.3 1.1-.5m41 14.7c.8.2.1-1 .8-.7 0 .6-.1 1.1-.2 1.7-.5-.1-.3.4-.4.7.6.3.2-.5.8-.3-.1.2 0 .3.1.3.3 0 .5-1.3-.1-1l.2-1.6c0-.3-.4-.2-.7-.2-.1-.5.4-1.5 0-1.8-.4.2-.2 1-.3 1.5-.8.2 0-.7-.5-.8-.3 0 0-1.1 0-1.7h.7v.7h.7c.3-.8-.6-.6-.2-1.4h-1.4c-.1-.4.3-.3.4-.6-.1-.1-.3-.1-.4-.3s.2-.6.1-.9c.4-.1.2.3.5.3.5-.2.1-.6.3-1-.5-.2-.2.6-.7.3 0-.3 0-.7.1-1 .5.2.2-.6.7-.4.1-.3-.1-.9.4-.7.3-.3-.2-.2-.3-.3 0-.3.2-.7.1-.9s-.3-.2-.3-.4c-.1-.5.3-.4.4-.7-.2-.6-.3.4-.7.2.2-.5-.4-.3-.7-.4l.2-1.2c-.1-.2-.4-.2-.3-.5.5.2.2-.6.7-.4 0 .3-.1.7.1.7.5 0 .1-.8.3-1 0-.1.4 0 .4-.2s-.6-.3-.7-.2 0 .3-.4.4c-.1 0-.2-.1-.4 0 0-.4.4-.3.4-.6s-.2-.1-.3-.3c.1-.8.2-1.5.3-2.3h1c.1-.2.1-.5.1-.7-.6-.3-.2.5-.7.3 0-.2-.1-.3-.2-.3-.4-.1.1.9-.6.7 0-.4.1-.7.1-1.1h1.1c-.1-.4.2-1 .1-1.2s-.3-.2-.3-.4c-.2-.6.3-.4.4-.7-.1-.2-.4-.2-.3-.5-.5-.3-.2.5-.7.3-.1-.3.1-.6.1-.9s-.5-.1-.3-.5h.7c0 .3-.2.7.1.7.3-.7.5-1.5.4-2.3 0-.2-.2-.1-.3-.2-.2-.3.3-.2.3-.3.2-.3 0-.6.2-1.1-.6-.2-.2.6-.8.4 0-.4.4-.3.4-.6-.1-.1-.4-.1-.3-.5.4-.1.2.3.5.4.3-.4.4-.8.3-1.3 0-.2-.4-.2-.3-.5.7.1.3-1 .5-1.4h-.7c-.3.5.6.1.3.7 0 .2-.1.3-.2.3s-.2.4-.6.4l.3-2.5c.8-.3.5.5.8.7.4-.2.2-1.2.3-1.8h-.7c-.2.6.6.2.3.7h-.7c.1-.8.2-1.5.2-2.3 0-.1-.1-.1-.3-.1-.2-.4.3-.3.4-.4s0-.6.1-.9-.3-.1-.4-.1c-.1-.3.4-1-.2-.8-.2-.3.3-.2.4-.3.2-.6 0-1.6.2-2.3.1-.2-.3-.1-.3-.2-.2-.4.2-1.2.1-1.8.7.3.6-.3 1.1-.3v.9c-.2.2.3.1.3.1-.1 1.3-.2 2.5-.4 3.8l-.4 3.7c.8.2 0-1.3.8-1.1-.1 1.3-.2 2.6-.4 3.9.7.2.4-.7.5-1 .6-.3.1.5.7.3-.1.4-.1.7-.1 1.1-.4.1-.3-.4-.5-.4-.3.3-.8.4-.7 1.1.7.2.6-.4 1.1-.4.1.3-.1.4-.4.4-.2.6.6.1.3.7-.5 0-.3-.6-1-.4-.2.4.3.3.3.4.1.3-.2.6-.1 1.1.3 0 .4-.3.6-.4s.2-.4.5-.4v.8c-.7-.3-.6.3-1.1.3-.3.6.5.1.2.7h.8l-.2 1.1c-.6.2 0-.6-.6-.4-.2.6.6.2.2.9.2.1.2.3.4.4.1.1.2.2.3.1 0 .4-.1.8-.1 1.1h-.7c0 .5-.4 1.5 0 1.8.4-.1.1-1 .3-1.4.6-.2.4 1.6-.2 1.4-.2.6.6.1.3.7-.5-.5-.6 1.7-.3 1.8.4-.2.1-1 .3-1.5.7 0 0 1.3.2 1.8-.4-.1-.3.4-.6.4s-.2.3-.2.5.3.2.5.2c.4 0-.1-1 .6-.7l-.3 2.8c-.4-.1-.3.3-.6.4s-.2.4-.2.7c.6 0 .3-.5.6-.7s.2-.4.5-.4c0 .5-.1 1-.1 1.4-.4.1-.2-.3-.5-.3s-.2.7-.3 1c.6.3.2-.5.8-.3l-.2 1.4c-.6.2-.1-.6-.7-.4-.2.6.6.2.3.8.1.3-.3.2-.4.5.2.6.3-.4.7-.2-.2.2.2.8-.1 1.1 0 0-.3-.1-.3 0-.1.6-.2 1.1-.2 1.7.5.3.2-.5.7-.3.1.5-.2.9-.1 1.2s.4.2.3.6c-.7.2-.5-.4-1-.4-.3.6.5.1.3.7.2 0 .7-.1.7.2.1.6-.4.6-.8.5-.4.8 1 0 .6.7h-.7c0 .4-.1.9-.1 1.3 0 .2.4.1.7.1.1.4-.4 1.3.2 1.1 0 .5-.1 1-.1 1.4-.3 0-.7-.1-.7.2s.4.2.6.2c-.1.4.1 1.1-.1 1.4 0 .1-.4 0-.4.2s.4.2.3.5h.7c-.2.6.6.1.3.7-.3.1-.3-.1-.3-.3-.3-.1-.4.1-.4.3h-.3c0 .2-.4.9.2.7v.7c0 .4-.4.3-.4.6l.3.3c0 .1.1.2.3.2 0 .3-.2.3-.4.4 0 .2 0 .5-.1.7-.2-.1-.3 0-.3.1l.3.4c.1.1.1.2.3.2.1.4-.3.2-.4.5.2.2.5.3.3.9h.3c0 .4 0 .7-.1 1.1h-.7c.1-.4.1-.7.1-1.1-.6-.2-.3.8-.5 1.2.1.4.9.1 1.3.2s-.1-1 .6-.7c-.1.4-.1.7-.1 1.1h-.7c-.3.8 0 2.7-.6 3.2 0 0-.2-.1-.2.1s.5.2.7.2c.1.4-.3.3-.4.5.1.3.5.2.7.2l-.3 2.8c.5.2.4-.3.5-.7.3-.2.2.4.3.4.4.1.1-.3.7-.4.1.6-.2.7-.4.9.1.2.4.2.3.6h-.4c-.1.3.1.3.3.3 0 .4 0 .7-.1 1.1-.6.2 0-.6-.6-.4 0-.6.1-1.2.1-1.8-.4-.2-.4.6-.4 1.1s-.4 1.5.2 1.4l-.3 2.5h.7c.1-.5-.2-.1-.2-.7h.3c.3-.4-.3-.1-.3-.7h.7c.1.6-.2.7-.4.9.2.2.5.3.3.9h-.8v.9c.1.1.3.1.3.5.3 0 .9-.2.6.3-.6.2-.6-.1-.8-.3-.4 0-.2.7-.3 1-.2 0-.4.1-.4.3v.1c-.1.3.1.3.3.4-.1.3.1.3.3.3 0 .3-.2.9.3.7 0 .5-.6.4-.4 1.1-.6.2-.1-.6-.7-.4-.2.4.3.3.3.6l-.3 2.8c0 .2.4.1.7.2.1.8-.7.6-.5 1.4h-.7c.3-.8-.6-.6-.2-1.4-.5-.1-.4.6-1.1.3 0-.3 0-.7.1-1 .1 0 .4-.1.5 0s0 .2.1.3.4 0 .4 0-.1.4.1.4.3-.4.3-.6c-.1-.1-.3-.1-.4-.1-.1-.3.3-1-.2-.7-.1-.4.3-.3.4-.6-.2-.2-.4-.3-.5-.5-.4 0-.2.7-.3 1.1-.6-.1-.4-.7-.2-1.1-.1.1.7-.2.4-.7.7-.3 0 .7.4.7s.2-.6.3-.9c-.1-.2-.4-.2-.3-.5-.1.1-.4-.1-.5 0s-.1.2-.2.3-.3 0-.4 0 0 .5-.4.4c.1-.4.1-1.4.2-1.8s.1-.3.4-.3c.3-.6-.6-.2-.3-.8 0-.3.2-.3.4-.3 0-.3.2-.3.4-.4 0-.3.2-.3.4-.3.1-.3-.1-.4-.3-.4 0-.2 0-.3-.2-.3-.4-.1.1 1-.6.7.3-.8-.5-.6-.2-1.4h.7c0-.3.1-.5.1-.7-.6-.3-.2.5-.8.3.2-.6 0-.8-.6-.7-.1-.5.4-.3.8-.4 0-.3-.3-.2-.3-.5-.2-.6.2-1.4.2-2.1.1-.2-.3-.1-.4-.2-.1-.4.5-1.2-.2-1.1-.2-.5.6-.1.4-.7.3-.3-.3-.2-.3-.3-.1-.6.3-1.7.2-2.3 0-.2-.1-.2-.3-.2-.1-.4.4-.2.4-.5s-.3-.2-.3-.4c-.1-.4.2-1.1.1-1.4 0-.1-.5-.3-.3-.5s.4 0 .4 0c.2-.5-.7-.3-.3-.7h.7c.4-.8-1 0-.6-.7.3-.1 1 .2 1.1-.2-.1-.4-1-.1-1.4-.2 0-.3 0-.7.2-.7s.2-.4.6-.4c.1-.4-.3-.2-.3-.5v-.5c0-.4.4-.3.5-.6-.1-.1-.4-.1-.3-.5-.4.1-.4-.1-.4-.3h.7c.2-.4-.3-.3-.3-.6s-.3-.2-.3-.5c-.2-.7.8-.1.8-.5s-.7-.1-1-.2c.1-.3-.1-.4-.4-.4-.1-.7.5-.5.5-1 .6-.3.1.5.7.3.2-.4-.2-.2-.3-.3s0-.5-.4-.4c0-.4.5-1.2-.2-1.1 0-.3.1-.7.1-1 .3 0 .7.1.7-.2s-.4-.1-.7-.2l.2-1.4h.7c0 .5-.6.4-.5 1.1m9.1-60.3c-.1-.1-.4.1-.4-.2l.2-1.4c0-.2-.3-.1-.3-.3s.1-.6.1-.9h-.4c-.2-.2.3-.9.1-1.1h.7c.1-.3-.2-.3-.3-.5-.1-.4.2-.8.1-1.2.3-.1.5-.1.4-.4-.5.1-1.1-.1-1.6 0-.2.1-.2.4-.5.4l.3-3.2c-.5.1-.3-.4-.3-.7-.2-.1-.6 0-.7-.2l.2-1.3c-.2.1-.3-.1-.4-.1l-.3-.4c0-.3.1-.6.1-.9-.9.3-.5-.6-1.4-.3.3-.6-.3-.3-.7-.4.3-.6-.5-.1-.2-.7-.5-.1-1.6.3-1.4-.4-.4 0-.4.3-.6.4-.2-.1-.1-.3-.5-.4-.2 0-.3.1-.5 0-.3.1-.2.5-.6.4.1-.7-.4-.1-.5 0-.3-.1-.1-.6-.7-.4-.3.1-.2.5-.6.4.4-.8-1.3.1-.9-.7-.8.1-1.3-.1-1.8 0-.1 0-.1.3-.2.3s-.4 0-.6 0c0 .3-.1.5-.4.4.1.3-.1.6 0 .9s.2.2.3.3c-.1.3-.1.6-.1.9.4-.1.2.3.3.4s.3-.1.4 0-.1.4.1.3c.2.1.2.3.3.4.1.2.3.3.5.3.6.3.2-.5.8-.3h.7c0 .5-.3.7-.1 1.1 0 .1.5-.1.3.3 0 .6-.7.2-.5.9 0 .2.3.2.3.4s-.1.8-.1 1.2c.7-.2.2.4.3.7 0 .1.4 0 .3.2l-.3 2.8c0 .3.5.2.3.5v.6c-.1.3-.6.1-.4.7 0 .2.2.2.3.3s-.1.4-.1.6.4-.1.4.1-.5.2-.4.6c-.1.2-.1.3-.1.5s.3.2.3.4-.2.7-.1.9c.1 0 .4-.1.4.1s-.2.2-.4.2c-.2.6.6.2.2.9 0 .3-.4.1-.4.5.2.1.4 0 .4.2.1.5-.3 1.6-.2 2.1-.1.3.2.2.3.4 0 .5-.3 1-.2 1.4s.4.2.3.5c-.7-.1-.3 1-.5 1.4.6-.1.2.5.3.8.1.1.6-.1.3.3.2.6-.6.1-.4.7-.3.6.6.2.3.7-.6-.1-.3.7-.5 1.1.3 0 .7-.1.7.2 0 .1-.1.1-.2.1-.5.4-.2 1.6-.4 2.2-.6-.3-.1.7-.6.7-.3-.3-.5.3-.7.3-.4.1-.9.1-1.3 0-.3.5.8.5.1.7-.2.1-.1-.1-.1-.1-.3-.4-1.3-.1-1.8-.2 0 .2-.1.3-.2.3-.1.2-.3.3-.4.4-.5-.2-.4.3-.7.4h-1.3c.2.5-.4.3-.7.3.2 1-.9.7-1.5.7-.1.3 0 .7-.3.7s0-.5-.6-.3c-.2 0-.3.2-.4.3s-.4 0-.6 0 0 .6-.3.4c-.1-.3.2-.9-.3-.7-.1.2 0 .6-.3.7-.7.2-.3-.5-.8-.4 0 .2 0 .4.3.4-.1.2 0 .6-.3.7-.7.2-.3-.6-1-.4-.2.1-.2.3-.4.4s-.8-.1-1.2 0c0 .1-.1.2-.2.3-.1.2-.3.3-.4.4h-.9c0 .2-.1.3-.2.4-.1 0-.3.2-.4.3s-.4-.1-.5 0-.1.6-.4.4c-.1.2 0 .6-.3.7h-1.6c.1.6-.5.2-.7.3s0 .3-.2.4-.4-.1-.6 0c0 .2 0 .6-.2.7-.6-.1-.5.2-.8.3-.1.1-.3 0-.5 0v.4c-.1.1-.5-.1-.6 0l-.4-.5c-.1-.2.1-.2.2-.2.3-.3.2-.8.3-1.3 0-.2-.3-.1-.4-.3.4-3.5.8-7 1.1-10.5.2 0 .4 0 .4-.3.3-.7-.2-.6-.3-.9 0-.8.1-1.5.3-2.3h.3c.1-.1 0-.4.1-.5 0-.3-.3-.2-.3-.4-.1-.5 0-1.1.1-1.6.1 0 .4.1.4 0v-.3c.2-1 0-2.3.4-3.2 0-.1.3 0 .3 0s0-.3 0-.4c.2-1.2.4-2.3.4-3.5s.1-2.4.4-3.6c0 0 .3.1.3 0s.1-.3.1-.3c.2-1 .3-1.9.3-2.9-.1-.9 0-1.9.3-2.8h.3v-.4c.3-1.1 0-2.4.4-3.5 0-.1.6 0 .4-.4.3-.5-.6-.1-.3-.7-.1-.5.6-.1.4-.7-.7 0-.1-.9-.2-1.4 0 0-.3 0-.3-.2s.1-.3.1-.5h-.8c.2-.4-.1-.2-.3-.3 0-.1.1-.3.1-.4-.2-.1-1 .2-.7-.4h-1.1c.3-.6-.4-.2-.6-.3s0-.6-.4-.4c-.5-.2-.2.6-.7.4.2-.5-.4-.3-.7-.4.3-.5-.5-.1-.3-.7h-1.9c-.3 0-.2.5-.6.4h-.5c-.2 0-.1-.1-.2-.2-.2-.4-.9-.1-1.4-.2.4-.7-1 .1-.6-.7h-1.8c.4-.7-.8-.1-1-.3 0-.1.1-.4 0-.4-.3-.1-.7.1-1 0 .3-.6-.6-.2-.7-.3s.1-.4 0-.4c-.3-.1-.9.1-1.4 0 0 .5-.1.9-.1 1.4.2 0 .2.1.3.2s.2.3.3.3c-.2.6.3.5.3.8l-.6 5.4c-.2.1-.4.1-.3.4-.1.3-.1.6-.1.9-.1.3.4.1.3.5-.3 0-.4.1-.4.4-.3.9 0 2.2-.4 3.2 0 0-.3-.1-.3 0s0 .3 0 .3c-.3 1.1 0 2.3-.4 3.2 0 .1-.5 0-.4.4-.2.5.6.1.3.7-.2 0-.4 0-.4.3.2.1.4 0 .4.2s-.2.1-.2.2c-.6.4-.3 2.8-.6 3.7-.1.3-.4.2-.4.5.2.1.4.1.3.4.4.2.5-.8.7-.2.1.2-.1.1-.2.2-.4.3-.2 1.3-.3 1.8 0 0-.6 0-.4.3 0 .2 0 .4-.1.5.1.3.6.2.3.8-.1.2-.3.1-.4.5 0 .7-.1 1.4-.2 2.1-.1.1-.6 0-.4.4 0 .2 0 .3-.1.5 0 .3.5.1.3.5-.7.1 0 .7-.6.7-.2 0-.2.3-.2.6-.2.5.9-.2.7.3s.2.5.3.7c-.3.2-.6.4-.5.9h-.7c-.1.4.2.4.3.6l-.2 2.1c0 .3.4.1.3.5-.6-.2-.3.5-.4.7s-.6 0-.4.4c-.2.5.1.6.2.9s-.4.1-.4.5c.4-.1.2.2.3.3s.5 0 .4.4c.1.6-.6.1-.5.7v.7c.2.2.3-.3.4-.3s.6 0 .6.1c0 .3-.4.2-.7.2 0 .2-.1.4-.3.4 0 0 0 0-.1 0-.1.5 0 .7-.1 1 0 .1-.3 0-.3 0-.2.2 0 .7-.1.9s.3.2.3.4l-.3 2.3c-.5-.2-.3.4-.4.7.7.3.1-1 .8-.7 0 .3-.1.6-.1.9s-.5.1-.4.5c.1 0 .4 0 .3.2.1.2-.1.1-.2.2-.5.3-.2 1.9-.4 2.6 0 .3.4.1.3.5-.5-.1-.4.4-.4.7-.3.1-.5.1-.4.4.2 0 .6-.1.7.2-.2.5 0 .9-.2 1.2 0 .1-.5 0-.4.4.7-.4.2 2.6-.2 2.1-.3.6.6.1.3.7.2.6-.6.1-.4.7.4.3.5-.8.7-.2 0 .3-.5.2-.4.6 0 .2 0 .3-.1.5 0 .3.5.1.3.5-.3 0-.3.3-.5.4s-.2.4-.3.7c.4.2.5-.8.8-.2 0 .2-.2.1-.2.2-.2.1-.2.1-.3.4-.2.8-.2 1.5-.2 2.3 0 .2.3.1.3.3s-.3.2-.4.5v.6c-.1.3.4.1.3.5-.3 0-.5.1-.4.4.5-.3.4.5-.1.3-.1.4.2.4.3.5 0 .3-.4.2-.4.6-.3.6.6.1.3.7-.2 0-.4 0-.4.3.7 0 .1 1.1.2 1.6 0 .3.3.2.3.4s-.4.1-.4.5c-.3.6.6.2.3.7-.2.1-.4.1-.4.4-.2 0-.4 0-.4.3.3.1.7 0 .7.2 0 .5-.2.9.1.9s.2.8-.1.7-.1-.4-.5-.3c-.2.5.1.6.3.8-.1.4-.1.9-.1 1.3-.7-.2-.4.7-.5 1 .3 0 .3.3.5.4s.1.4.1.7c-.3.1-.9-.2-.8.4.8-.3.6.4 1.1.3l.3-3c0-.3-.1-.7.3-.9.3.3 0 .8 0 1.4l-.2 1.6c0 .3.3.2.3.4-.3 1.2 0 3-.4 4.1 0 0-.3-.1-.3 0-.2.5.6.2.2.9.1.1-.1.1-.2.1-.3.3-.3 1.1-.3 1.6s-.3 1.1.3.9c.1-.6-.1-1.8.3-2.1.4.1.1.7.1 1 0 .5 0 1-.1 1.5-.1 0-.6 0-.4.3.2 0 .2.1.3.2s.2.3.3.3c0 .4 0 .7-.1 1.1 0 .3.5.2.3.5-.3 0-.3.1-.4.4s0 1.4-.1 1.8c-.8-.1-.4 1.2-.6 1.7.7.4.9-.7 1.1-.1-.1.1-.2.2-.4.1 0 .3-.1.5-.4.4l-.2 2.5c.2 0 .6-.1.7.2s-1-.2-.8.5c-.1.3.3.3.3.5.1.8 0 1.6-.2 2.3-.1.1-.4 0-.4 0-.2.2-.1 1.4-.2 1.6s-.3 1 .3.9c.2-.5-.1-1.5.4-1.8l.4.6c0 .2.1.5 0 .7s-.4.1-.4.5c.3.1 1-.2 1 .2 0 .2-.4.1-.7.2-.1.3-.1.7-.1 1 .7.3 0-1 .8-.7l-.2 1.1c-.6-.2-.3.8-.4 1.2s.4.2.3.5c-.3.1-.5.1-.4.4.7-.1.1 1 .2 1.4.7.3.1-1 .6-1s.1.4.1.7c.1.1.3 0 .4.1s-.1.4-.1.6h-.7l-.3 2.5c.3 0 .5 0 .4.3.7.3 0-1 .7-.7-.1.5.1 1.5-.3 1.8-.5 0 .3-1-.5-.7.1.6-.2.8-.8.7 0 .3.2.3.3.5.1.4-.4 1.4.3 1.2.1-.4-.1-1.2.3-1.4.4 0 0 .8.1 1.1.3 0 .9-.2.6.3h-.7c0 .5-.6.4-.4 1.1.5.2.2-.6.7-.3 0 .2 0 .5-.1.7-.3-.1-.4.1-.4.5 0 .2.3.2.3.3s-.1.5 0 .6.4-.1.3.2-.1.8-.1 1.2c-.7-.1-.3 1-.5 1.4.3 0 .7 0 .7.2s-.1.4-.1.5.3 0 .4 0-.1.3-.1.4c.2.1.8-.2.7.2 0 .3 0 .5-.1.8h1.1c-.3.8.3.6.3 1.1h.8c.3 0 .2-.4.6-.4.2.6-.6.2-.4.8.2 0 .4 0 .3.3.3.1.9-.2.7.4.3.1.3-.3.5-.4.5-.1 1.1.1 1.6 0 0 .2.1.3.2.4l.3.3c.2 0 .1.1.2.2l.3.4.5.5h.1c.1 0-.1.3 0 .3.1.2.5 0 .3.4h1.1c-.3.6.5.3.8.3s.2-.3.4-.3h2c-.2-.5.4-.3.7-.4.1-.3-.1-.8.4-.7.2-.6 0-1.6.3-2.1 0-.1.5 0 .3-.4.3-.5-.5-.1-.2-.7v-.5c.1-.3.5-.1.4-.5-.7.1-.1-.7-.2-1.1 0-.1-.5 0-.4-.2l.2-1.2c.5.2.3-.5.4-.7s.5 0 .4-.4c-.1.1-.2 0-.3-.1-.2-.1-.2-.3-.4-.4l.2-1.4c0-.2-.3-.2-.3-.4.3-3.7.7-7.4 1.1-11.1.4.1.3-.3.4-.4s.5 0 .4-.3c.3-.6-.6-.2-.3-.8 0-.2.1-.3.1-.5 0-.3.4-.1.4-.5s-.3-.3-.3-.5c-.1-.4.2-.9.1-1.3 0-.1-.4 0-.3-.2 0-.4.1-.9.1-1.4 0-.2-.3-.1-.3-.3.1-.5.1-1 .1-1.5 0-.2-.2-.1-.3-.3-.1-.4.2-.7.2-1.2-.6-.3-.2.5-.8.3-.1-.6.2-.8.8-.7.1-.4-.3-.3-.3-.5-.1-.4.2-1 .1-1.5 0-.2-.2-.1-.3-.3.1-.7.2-1.3.2-2-.3-.1-1 .3-1-.1 0-.3 0-.6.1-.9-.2 0-.3-.1-.4-.2l-.3-.4c.1-.2 0-.4.1-.7s.4-.1.4-.5c-.3 0-.9.2-.7-.3h.7c.1-.3.1-.6.1-.9s-.2-.2-.3-.4c-.1-.4.2-.9.1-1.2 0-.1-.4 0-.3-.2.3-1 0-2.2.3-3 0-.1.6 0 .4-.4v-.5c.1-.3-.4-.1-.2-.5h.3c.2-.6-.6-.2-.3-.9.1-.3.5-.2.5-.6-.7.2-.2-.4-.3-.7-.1-.1-.4.1-.4-.1s0-.5.1-.7.4-.2.4-.6c-.5.2-.3-.4-.3-.7-.1 0-.3 0-.3-.2s.5-.1.4-.5c0-.2 0-.3.1-.5 0-.3-.5-.2-.3-.6.5.2.5-.8.4-1.2s-.3-.2-.3-.5h.8c0-.2-.1-.4-.3-.4 0 0 0 0-.1 0 .1-.3-.2-.3-.3-.5.1-.3.5-.2.4-.5-.3 0-.4-.2-.3-.6 0-.2.2-.1.2-.2.5-.3.2-1.2.4-1.7-.7.1-.2-.7-.2-1.1-.7.2-.2-.5-.3-.7s-.6 0-.3-.4c.6.3.6-.3 1.1-.3.3-.7-.8-.1-.7-.5s.5-.2.4-.6c0 0-.6 0-.3-.3.3 0 .4-.3.6-.4.5.2.4-.3.7-.3s.1.4.5.3c-.1-.6.5-.2.7-.3s.1-.5.3-.4h2.3c-.2-.6.4-.2.7-.3.1-.1 0-.5.2-.4h.9c0-.2.1-.3.2-.4.1 0 .3-.2.4-.3s.5.1.6-.2.4 0 .7-.2c.1 0 0-.4.2-.3s.1.4.5.3c.3.1.4-.2.6-.3.2.1.1.5.6.3l1.2-1h.5c0-.2.2-.3.3-.4l1.1-1c.3 0 .1-.3.2-.4s.4.1.4 0-.1-.7.2-.7h.9c0-.2.2-.3.2-.4l.4-.3c.3-.3.5-.5 1-.4 0-.2 0-.6.2-.7s.5.1.6-.2.1 0 .2-.1.3-.3.3-.4c.2-.1.4.1.6 0s0-.3.2-.3.4 0 .5 0c.1-.3 0-.7.3-.8h.5c0-.3.3-.3.4-.5l.6-.5h.9c0-.3.2-.4.4-.5l.6-.6c.6.1.5-.2.7-.3s.4 0 .6 0 0-.3.2-.4.3.1.5 0c0-.2.1-.4.4-.3.1-.4-.1-1.1.3-1.1h.5l-.2 2.3c0 .2.3.2.3.4-.1.8-.2 1.5-.2 2.3.2-.1.2.1.3.1l.3.4c0 .2-.1.1-.2.2-.3.5-.4 1-.3 1.6 0 .2.2.1.3.3-.1.3-.6.2-.4.7-.1.3.3.2.3.4.1.7-.3 2-.3 2.8 0 .2.3.2.3.4l-.3 3.2c0 .2.3.1.3.3s-.2.7-.1 1.1c0 .2.2.2.3.3-.1.3-.6.2-.4.7 0 .3.3.2.3.4.1.7-.3 2-.3 2.8 0 .3.3.2.3.4s-.2 1-.1 1.4.4.1.3.5c0 .2-.1.4-.1.6s-.6.1-.4.7c0 .2.3.1.3.3l-.2 2.2c0 .2.4.1.3.5-.2 0-.4 0-.4.3.1.1.4 0 .3.2s-.4.2-.4.5c.2.1.4.1.4.2l-.2 1.4c0 .3.3.2.3.4.1.6-.3 1.6-.2 2.1.1.2.3.2.3.4s-.4.1-.4.5v.5c0 .3.3.2.3.4s-.3 1-.2 1.4c.1.2.3.2.4.4-.2.2-.4.1-.4.5-.1.2-.1.3-.1.5 0 .3.4.2.3.6-.2 0-.4 0-.4.3.7 0 .1 1.1.2 1.6 0 .3.4.2.3.5-.2.1-.4.1-.4.4.2 0 .3 0 .3.2.1.7-.3 2-.2 2.8-.1.2.2.2.3.4l-.5 4.2c0 .3.3.2.4.4l-.2 1.4c0 .2.3.2.3.3.1.3-.2.7-.1.9s.4 0 .4.2-.5.1-.4.5c-.1.2-.1.4-.1.6s.3.1.3.3c.1.7-.3 1.6-.2 2.2.1.2.4.1.3.5-.2 0-.4 0-.4.3.7 0 .1 1.1.2 1.6 0 .3.3.2.3.4l-.3 2.6c.3.1.5.1.4.4.2 0 .4.1.3.4-.6.2-.1-.6-.7-.4.1.5-.3 1.3-.2 1.8.1.1.5-.1.4.1l-.2 1.6c.3.1.7 0 .7.2s-.2.2-.4.2c0 .4-.1.7-.1 1.1-.2 0-.4 0-.4.3.7-.1.8.3 1 .5 0 .2-.1.3-.3.2-.1.2-.1.4-.4.4.1.5-.4 1.3-.2 1.8 0 0 .4-.1.3.1-.1.5.1 1.4-.3 1.6l-.8-.9c.1-.2.6-.1.4-.7-.2-.2-.5-.3-.3-.9-.5-.2-.2.6-.7.4 0 .6.2.2.3.7 0 .2-.1.5-.1.7-.3 0-.4.3-.6.4s-.1-.5-.5-.4c0 .2-.1.4-.3.4-.2.3.2.2.3.3s-.1.3-.1.4.4-.1.4.2-.5.1-.4.5c.3-.1.2.2.3.3s.3 0 .3 0-.1.3 0 .4.3-.1.4 0c0 .1-.1.2-.1.3.1.1.3 0 .4 0 0 .1-.1.3-.1.4.2.1.6-.1.7 0-.3.7.4.6.3 1.1h1c0 .3 0 .7-.1 1 .3.1.7 0 .7.2s-.1.6-.1.9c0 0 .3 0 .4.2 0 .2-.1.3-.1.5h1.8c-.2.5.4.3.7.4l.2-2.5c.3.1 1.1-.2 1.1.2-.1.2-.1.5-.1.7-.2.2-.5.3-.5.8.6.3.2-.5.8-.3-.4.7.8.1.6.5 0 .2-.2.3-.3.4-.2.1-.4.3-.5.5.9-.3.5.5 1.2.4.3-.1.2-.5.6-.4.2-.5-.1-1.5.4-1.8.3.1.1.5.5.4.2-.7-.2-.6-.3-.9 0-.1.1-.4.1-.5s-.4 0-.4-.2c-.1-.4.3-1 .2-1.2s-.5 0-.4-.2l.2-1.8c0-.2-.3-.2-.3-.3 0-.6.1-1.2.2-1.8 0-.3-.3-.2-.4-.4l.3-2.8c0-.2-.2-.2-.3-.4s.2-1 .2-1.4c0-.2-.3-.1-.3-.3 0-.7.1-1.5.2-2.2 0-.2-.3-.1-.3-.3l.3-3.2c0-.2-.3-.2-.3-.4 0-.8.1-1.5.2-2.3-.1.1-.2 0-.3-.1-.1-.1-.2-.3-.4-.4 0-.2.2-.1.2-.2.4-.2.2-.8.3-1.2s-.4-.1-.3-.5c.3-.1.5-.1.4-.4-.7.1 0-1.1-.2-1.6.1-.2-.2-.2-.3-.3.1-.7.2-1.5.2-2.2.1-.2-.2-.1-.3-.3.1-.6.2-1.2.2-1.8 0-.3-.4-.2-.3-.5-.1-.6.6-.2.4-.7-.7 0 0-1.1-.1-1.6 0-.3-.3-.2-.4-.4l.3-2.1c0-.3-.5-.2-.3-.5-.1-.6.6-.3.4-.9 0-.3-.4-.2-.3-.6v-.5c.1-.3.5-.1.5-.5-.7.1-.2-.5-.3-.7s-.4 0-.4-.2.2-.2.4-.2c.2-.5-.6-.2-.2-.9 0-.3.4-.1.4-.5-.6-.2-.2.6-.8.3 0-.2.1-.4.1-.7.3 0 .3 0 .4-.3.2-.7.2-1.3.2-2-.1-.2-.3-.1-.3-.3.2-.2.5-.3.4-.9-.4-.2-.5.8-.7.2.2-.2.5-.3.4-.9-.5-.2-.2.6-.7.3 0-.4.1-.9.1-1.4.7.3.1-1 .8-.7.1-.3-.2-.3-.3-.5-.1-.4.2-.8.1-1.1s-.2-.2-.3-.3c.2-.3.5-.4.4-.9-.2 0-.4 0-.3.3-.3 0-.7.1-.7-.1s.4-.2.7-.2l.2-2.1c-.5-.3-.2.5-.7.3.1-.3-.2-.3-.3-.5 0-.4 0-.7.1-1.1 0-.3-.5-.1-.3-.5.3 0 .4-.3.5-.4.3 0 .2-.4.6-.3 0 .3-.3.9.3.7l.2-1.8c-.2 0-.4 0-.4-.2l.3-3c-.5.2 0-.6-.6-.3-.2.3.1 1-.3 1h-.5c0-.4.1-.9.1-1.4.7.3.1-.8.6-.7.5-.1-.3 1 .5.7.3-.7-.4-.6-.3-1.1-.2.1-.4.1-.4.4-.2 0-.6.1-.7-.2.4-.2.5-.7 1.2-.5.1-.4-.1-1.3.3-1.4l.5.5c-.1.3-.5.1-.4.5.8.1-.2.4-.1.7.8.1-.2 1.4.4 1.5s-.4.9.4.7c.1-.3.1-.6.1-.9s-.4-.2-.3-.5c.3 0 .3-.1.4-.4 0-.6.1-1.2.2-1.8 0 0 .6 0 .4-.3.3-.6-.6-.2-.3-.7 0-.2 0-.4.1-.6 0-.2.4-.1.4-.5-.7.1-.2-.8-.3-1.2s-.4-.2-.3-.6c.6-.2.1.6.7.4l.2-1.4c-.2-.1-.4 0-.4-.2s.1-.3.1-.5c-.2-.1-.4 0-.4-.2s.5-.2.4-.6c-.2 0-.6.1-.6-.1s0-.6.4-.6v-.7c.3 0 .5 0 .4-.3-.2-.1-.6 0-.7-.2l.2-1.2h.7c.1-.4-.3-.4-.3-.6 0-.6.1-1.1.2-1.7 0-.3-.3-.2-.4-.4l.2-1.2c.2-.1.4-.1.4-.4.2-.6-.1-2.4.5-2.1.3-.6-.5-.2-.3-.7.1-.2.1-.5.1-.7.6.1.3-.5.4-.7s.6 0 .4-.4c.1-.6-.4-.2-.2-.7 0-.1.5 0 .3-.4-.6-.2-.6.4-1.1.4-.3-1 .9-.4.9-1.1-.3 0-.7.1-.7-.2-.2-.6.5-.3.4-.8-.1-.1-.3 0-.3 0 .1-.4-.2-1.3.4-1.1.2-.5-.6-.2-.2-.9.1-.3.5-.1.4-.7.2-.5-.9.1-.7-.3 0-.5 1 .1.8-.6-.3 0-.7.1-.7-.2.1-1.1.2-2.3.4-3.5 0-.2-.3-.2-.4-.4.3-.4-.1-1.6.6-1.6.1-.3-.3-.3-.3-.5 0-1.4.1-2.8.4-4.2.2-1.5.3-3.2.5-4.5-.7.2-.2-.4-.3-.7m-111.9 51.2h.3v.3h-.3zm-5.4 3.8h.3v-.3h-.3zm50-14.4h.3v-.3h-.3zm-44.2 28.5h.3v.3h-.3zm38.5-25h-.3v-.3h.3zm-1.5 7.4h.3v-.3h-.3zm-12 3.5h-.3v-.3h.4c0 .1-.1.2-.1.3m-12-3.5h.3c0-.1 0-.2.1-.3h-.4zm-18.1-7.7h-.3c0 .1 0 .2-.1.3h.4zm9.4-7v.3h-.4c.1-.1.1-.2.1-.3zm6 39.3v.3h-.4c0-.1.1-.2.1-.3zm10.1-21.1h-.3v-.3h.4c0 .1 0 .2-.1.3m-19.4-60.7v-.3h.4c0 .1 0 .2-.1.3zm11.7 47.1c-.2 0-.4.1-.4.3v.1c.2 0 .4 0 .4-.4m-4.3 42c-.2-.3.3-.3.4-.3-.1.1-.1.5-.4.3m11.1-72.3h-.3v-.4h.3zm-15.9 59.9h.3v-.4h-.3zm6.5 10.9h-.3v-.4h.3zm-12.1-33.1h-.3v.4h.3zm-1 1.2h-.3v-.4h.3zm-.6-13.6h-.3v-.4h.3zm18.6 13.6h-.3v-.4h.3zm-14.5 12.8c-.3.1-.3-.1-.3-.4.1.1.4 0 .3.4m46.7-35h-.3v-.4h.3zm-52.5 21.4h-.3v.4h.3zm4.2 23.7h.3v.4h-.3zm45-32.6h-.4v.3h.4zm-45.9 40h-.3v-.4h.3zm13.6-35.8h-.3v-.4h.3zm-15.2-17.1h.3v.4h-.3zm43.4 17.5h-.3v-.4h.3zm-34.9-16.7h.3v.4h-.3zm-5.1 5.1h-.3v-.4h.3zm-1.4 56h.3v.4h-.3zm13.4-51.8h-.3v-.4h.3zm40.5 59.6h.3v-.4h-.3zm-8.7-58.8h-.3v.4h.3zm-30.1-24.1h.3v.4h-.3zm-13.3 59.5h-.3v-.4h.3zm-4.8-4.3h.3v.4h-.3zm7.8-18.6h-.3v-.4h.3zm17.6-39.7h-.3v-.4h.3zm-17.5 15.1h.3v.4h-.3zm6.4 15.2h-.3v-.4h.3zm17 12.5h-.3v-.4h.3zm14.4-9.8h.3v.4h-.3zm-45.7-17.5h-.3v.4h.3zm3.2 23.8h.3v.4h-.3zm12.4-7.8h.3v.4h-.3zm-6.4-4.7h-.3v-.4h.3zm42.2-17.1h.3v.4h-.3zm-7.7 24.1h-.3v-.4h.3zm-42.7-7h-.3v-.4h.3zm-.5 46.7h-.3v-.4h.3zm-1-41.6h-.3v.4h.3zm5.3-2h-.3v-.4h.3zm-6.3 34.7h.3v-.4h-.3zm58.3 24.5h.3v-.4h-.3zm-39.9-68.1h-.3v-.4h.3zm3.1 17.1h-.3v-.4h.3zm-18.2 36.2h-.3v-.4h.3zm-1.9-24.5h-.3v.4h.3zm4.9-29.6h.3v.4h-.3zm-3.4 3.9h-.3v-.4h.3zm2.1 16.3h.3v.4h-.3zm1.6-17.9h-.4v-.3h.4zm.2 54.1h-.3v-.4h.3zm-3 1.6h-.3v-.4h.3zm-2.3-61.9h-.3v.4h.3zm49.2 10.5h.3v-.4h-.3zm-46.1-26.1h.3v.4h-.3zm45.7 27.7h-.3v.4h.3zm-43.2 28.4h-.3v-.4h.3zm2-32.3h.3v.4h-.3zm-7.3 14h.3v.4h-.3zm14.2 39.3c-.2 0-.4 0-.4.4.1-.1.6 0 .4-.4m-13.9-26.9h.3v.4h-.4c.1-.1.1-.2.1-.4m13.5-1.5c-.1.1-.1.2-.1.4h-.3v-.4zm1.2-9.7h-.3v-.4h.4c-.1.1-.1.2-.1.4m-13.7-23h.4c-.1.1-.1.3-.1.4h-.3zm3.4-14.4h.4c-.1.1-.1.3-.1.4h-.3zm5.2 22.2h-.3v-.4h.4c0 .1-.1.3-.1.4m-5.6-7.4h.3v.4h-.4c.1-.1.1-.2.1-.4m44 9.3h-.4v.4h.3c0-.1.1-.3.1-.4m-9.8-1.5h.3v.4h-.4c.1-.1.1-.2.1-.4m-37.4 29.2h.4v-.4h-.3c0 .2 0 .3-.1.4m-2.8-3.9h.3c0-.2.1-.3.1-.4h-.4zm9.2-20.3h-.4c0-.1.1-.2.1-.4h.3zm6.1 45.9v.4h-.4c0-.1.1-.2.1-.4zm.2-8.1h-.3v-.4h.4c0 .1-.1.2-.1.4m-6-6.6h.3c0-.2.1-.3.1-.4h-.4zm34.8-22.2h.3c0-.1.1-.3.1-.4h-.4zm5.9-11.3h.4v-.4h-.3c0 .1-.1.3-.1.4m-32.5.8h-.3v-.4h.4c0 .2 0 .3-.1.4m26.1 7h-.4c0-.1 0-.3.1-.4h.3zm-8.8 6.2h-.3v-.4h.4c0 .2 0 .3-.1.4m-30.4 18.7v-.4h.4c0 .1 0 .3-.1.4zm5.1-37.8h.4c0 .2 0 .3-.1.4h-.3zm40.1 8.2h.3c.1-.1.1-.2.1-.4h-.4zm-48.4 36.6h.4v.4h-.4zm1.2-3.9h-.4v-.4h.4zm12.7 13.6h-.4v-.4h.4zm-10.5-42.8h-.4v.4h.4zm3 6.6h.4v.4h-.4zm-3.2-44.7h.4v.4h-.4zm.6 1.9h.4v.4h-.4zm41.6 36.2h-.4v-.4h.4zm-37.3-13.2h-.4v-.4h.4zm4.9 29.2h.4v.4h-.4zm-11-36.6h.4v.4h-.4zm2.7 0h-.4v.4h.4zm1.5 12.8h.4v.4h-.4zm6.9 41.7h.4v.4h-.4zm38.1-54.1h.4v.4h-.4zm-47.6 66.9h-.4v-.4h.4zm2.7-36.6h.4v.4h-.4zm2.2 5.5h-.4v.4h.4zm.9-9.4h-.6v-.3h.6zm-7-32.3c.2-.1.2-.4.5-.3 0 .3-.2.3-.4.3.1.4-.1.4-.3.4 0-.1.1-.3.2-.4m-1.4 60.5c-.1-.2-.4-.2-.3-.5.3-.1.3.1.3.4.3-.1.3.1.3.3-.2.1-.3 0-.3-.2m48.7-46.1h.3v-.7h-.3zm-48.9-.3h.3v.7h-.3zm15.2 28.7h.3v-.7h-.3zm-11.9-39.3c0 .4-.2.4-.4.4.1.4-.1.4-.3.4 0-.2 0-.3.2-.4s.2-.4.5-.4m.7 61.1v-.7h.4c-.1.2-.1.5-.1.7zm-1.4-49.8v-.7h.4c-.1.2-.1.5-.1.7zm41.1 14c-.2.1-.2.2-.2.4.2 0 .4 0 .2-.4.3 0 .5 0 .5-.4-.4 0-.4.3-.5.4m-40.2 19.9c0-.2.1-.4.2-.4s.2-.5.5-.4c0 .3-.1.4-.3.4 0 .2-.1.4-.4.4.1 0 .1 0 0 0m37.7-20.6h-.6v-.4h.6zm-40.2 26.8h-.3v-.8h.3zm1.9-17.5h-.3v-.8h.3zm-3.5-3.1h.6v.4h-.6zm2.1 5h-.3v.8h.3zm4.7 8.2h.3v.8h-.3zm-1.8 15.6h-.3v-.8h.3zm8.1-19.1h-.3v-.8h.3zm-11.7-24.5h-.6v-.4h.6zm3.1 6.2h-.3v-.8h.3zm11.2 19.9h.3v-.8h-.3zm-.9 8.1h.3v.8h-.3zm-5.4-27.6h-.3v-.8h.3zm-1.6 41.3h-.3v-.8h.3zm-3.2-66.6h-.6v-.4h.6zm-2.3.4h.3v.8h-.3zm.2 68.1h.6v.4h-.6zm1.6-31.5h-.3v-.8h.3zm45.1-26.9h-.3v-.7h.4c0 .2-.1.5-.1.7m-48.9 53.7h-.3v-.7h.4c0 .2-.1.5-.1.7m29.5-30.1c-.1-.2-.4-.2-.3-.6.3-.1.3.1.3.4.3-.1.3.1.3.4-.2 0-.3-.1-.3-.2m-11.7-4.1h-.3v-.8h.4c-.1.3-.1.5-.1.8m-10.8-11.3h.4c-.1.3-.1.5-.1.8h-.3zm-2.8-5.4c.1-.3.1-.5.1-.8h.3v.8zm-1.6 54.4c-.1.3-.1.5-.1.8h-.3v-.8zm-2.5-6.6h-.3v-.8h.4c0 .3-.1.5-.1.8m16.3-47.1h-.4c0-.2 0-.5.1-.7h.3zm-2.6 7h-.3v-.7h.4c0 .3 0 .5-.1.7m1.6 22.6h.4v-.8h-.3c0 .3-.1.6-.1.8m-10.3-35.4c0 .3-.1.5-.1.8h-.3v-.8zm-4.9 17.9h.7v.4h-.7zm13.6 17.5c-.6-.2-.2.6-.4.8.5.2.3-.4.4-.8m34.8-23.3h.4v-.8h-.3c0 .2-.1.5-.1.8m4.4-14.4h.3c.1-.3.1-.5.1-.8h-.4zm-2.6-.8v-.8h.4c0 .3 0 .5-.1.8zm-48.8 21h.3v.8h-.4c0-.3 0-.5.1-.8m5.5-18.7h.3v.8h-.4c0-.3 0-.5.1-.8m-3 51.8c0-.3 0-.5.1-.8h.3v.8zm3.7-56.1h.4c0 .3 0 .5-.1.8h-.3zm41.3 12.5v-.8c-.5.3-.1-.6-.6-.4-.1.4.2.4.3.6s0 .7.3.6m-44.5-14h-.6v-.8c.3-.1.3.2.3.4.3-.1.3.2.3.4m36.2 27.2h-.6c-.2-.6.5-.1.3-.8.5-.1.3.5.3.8m-38.5-15.1c.5-.2.2.4.3.7h-.7c-.2-.6.5-.1.4-.7m-3 12h.6c0-.3.2-1-.3-.8.2.7-.5.2-.3.8m14 3.9c0 .2-.1.4-.3.4 0 0 0 0-.1 0v-.8h.7c0 .3-.2.4-.3.4m12.5 6.2h-.9v-.4h1c0 .2 0 .3-.1.4m-23.3 12.5c-.2-.6.5-.2.4-.8-.4-.1-.4.3-.6.4s-.5 0-.5.4zm15.5-44c-.6.2-.2-.8-.3-1.2.6-.1.2.8.3 1.2m-1.7 12.5c-.6.1-.2-.8-.3-1.2.6-.2.2.8.3 1.2m-12.2 2.3c.6-.2.2.8.3 1.2-.6.1-.2-.8-.3-1.2m-1.7 42c0-.3 0-.5.1-.8h.6c.1.4-.1.4-.3.4 0 .4-.2.4-.4.4m32-26.4c-.6-.3-.5.4-1 .4-.2-.7.5-.2.4-.8.3 0 .8-.2.6.4m-31-5.5v-.8h.7c.1.4-.1.4-.3.4 0 .4-.2.4-.4.4m-3.3-8.9c-.1.3.1.9-.4.7.1-.4.1-.7.1-1.1h.6c.1.3-.1.3-.3.4m4-14c.6-.2.2.7.3 1.1h-.6c0-.5.5-.4.3-1.1m18.9 26.4c0 .3-.1.4-.3.4.2-.8-.4-.6-.3-1.2.4 0 .3.7.9.4.1.4-.1.4-.3.4m-13.3-14.8h-.3c.1-.5-.3-1.6.3-1.5zm20.7 17.9h-.6c-.2-.6.5-.1.3-.7h.7c.2.6-.5.1-.4.7m-28.9 11.7c-.6-.2-.2.9-.3 1.4-.1.2.2.1.3.2-.1-.5.1-.9 0-1.6m8.1-27.6h-.3c.1-.5-.3-1.7.4-1.6-.1.5-.1 1.1-.1 1.6m-6.5 10.5v-.8c.3-.1.2.4.5.4.1-.1.1-.5.5-.4.1.6-.6.2-.4.8zm3 6.2v1.6h-.3c.1-.5-.3-1.7.3-1.6m.3-19.8h.7v.7c-.6.2-.8-.1-.7-.7m11.2-10.2h-.4c.2-.4-.2-1.6.4-1.5zm-14.3 6.7c-.3 0-.3-.2-.4-.4-.2 0-.3-.2-.3-.4-.1-.4.3-.3.4-.4-.1.5.5.4.3 1.2m3.4 6.6h.6v.8h-.7c.1-.1 0-.6.1-.8m-2.9 7.4c.2-.5-.3-1.7.4-1.6 0 .5 0 1.1-.1 1.6zm46-14.4c.1-.4.1-.8.1-1.2.2 0 .4-.1.3-.4-.5-.2-.1.6-.6.4 0 .4-.4 1.4.2 1.2m-49.7-3.9c.7-.3-.1 1.1.6.8v1.1c-.8.3.2-1.4-.6-1.1zm5.6 31.9h.6v1.2c-.5.2-.1-.7-.6-.4zm34-8.2c.1.4-.2.3-.3.4s0 .3 0 .4-.5 0-.4.4c.5 0 .4-.7 1-.4-.2-.6.6-.2.4-.8zm-37.2 27.3v-1.6c.6-.2.3.6.3 1 .1.2.4.2.3.6zm3.3-21.4h.6c-.2.5.3 1.9-.4 1.9-.1-.6.2-1.2.1-1.6-.1 0-.5 0-.3-.3m.6-20.7h.7c0 .4-.2.4-.4.4v1.2c-.7.1-.2-1.1-.3-1.6m43-.2c0 .3-.1.7.3.6v-1.5h-.6c-.2.6.1.7.3.9m-9.1 11.9c-.2.2-.2.5-.8.4v-1.2c.5 0 .3.7 1 .4 0 .3-.1.3-.2.4m7.4-12.1h.7c.1-.2-.1-.5 0-.7s.3 0 .3 0c.2-.3.1-1.2-.3-.8.2.3-.3.3-.3.4s.1.5 0 .8c-.1.1-.5-.1-.4.3m-41.1-7.3c.5.1.3-.5.4-.8.7-.1.1 1.3.3 1.9-.4.1-.3-.3-.4-.6s-.3-.2-.3-.5m-.7 25.2v-1.9h.7c-.1.3.1 1-.4.8-.1.4.2 1.3-.3 1.1m7.3 28.1c-.2-.1-.3-.1-.3 0 .1-.9.1-1.7 0-2.6 0-.2-.1-.1-.3-.2.1-.9.3.2.7 0-.1.9-.1 1.9-.1 2.8m-11.5-41.3c.3-.1.2.4.5.4.1-.1.1-.4.5-.4.1.4-.3.3-.4.4s0 .5-.3.4c-.1.4.2 1.3-.4 1.2 0-.7.1-1.3.1-2m13.7 23.4c0 .3-.1 1-.1 1.5s-.2 1.3.3 1.2c0-.9.1-1.7.1-2.5 0-.2-.1-.3-.3-.2m-11.3-48.3h.6c.2.9-.5.7-.3 1.6-.6.2-.1-.7-.7-.4 0-.6.6-.4.4-1.2m8.3 50.6c-.1.5-.1 1.1-.1 1.6-.7 0-.1-1.4-.3-2h1c.2.6-.4.3-.6.4m2.9-21.4c-.5-.2-.1.6-.7.4.1-.7.1-1.3.1-2 .5-.2.1.7.7.4-.1.4-.1.8-.1 1.2m-6.4 4.7h-.3c0-1.1.1-2.1.1-3.2h.3c0 1.1 0 2.1-.1 3.2m41.2-16.2c-.1-.2.1-.7-.3-.6-.1.2 0 .4 0 .6-.1.1-.3.2-.4.2-.1.4.1.6 0 1.2.3 0 .4-.3.5-.4s.2-.4.5-.4c.1-.4-.2-.4-.3-.6m-35.2 13.8c-.1.3 0 .4-.3.4-.1.3.1.4.3.4v.8c-.5.1-.2-.4-.3-.6s-.4-.2-.4-.6c.7 0 .3-1.3.4-1.9.5-.3.4 1 .3 1.5m-10.2 13.6h-.4c-.1.2-.1.4 0 .4-.3.1-.3-.1-.3-.4.6.3.2-1.9.4-2.7.4-.1.2.4.3.6s.4.2.3.6c-.6-.1-.2 1.1-.3 1.5m29.2-11.2c0-.1-.1-.4 0-.4s.2 0 .3 0 0-.4 0-.4.4 0 .5 0 .2-.6.8-.4c.1.4-.3.3-.3.6s-.5.2-.4.6h-.8c-.1.1-.2.4-.5.4-.1-.5.3-.3.4-.4m-31.9-20.7c.6.3.2-.6.7-.3.1.3-.1.3-.3.3-.3.7.5.2.3.8-.7 0-.2 1.4-.4 2-.6.1-.3-.7-.3-1.2zm37.5 20.3c-.2 0-.4-.1-.4-.3 0 0 0 0 0-.1-.5-.2-.2.5-.3.8-.1 0-.5 0-.4.4-.5-.3-.1.6-.6.3v-.7c.5.2.1-.7.7-.4 0-.3-.1-.6 0-.8s.3 0 .3 0c.1-.2 0-.5.4-.4-.3.8.3.6.3 1.2m-37.2 23.3c-.5-.2-.1.6-.6.4v-1.5c.2 0 .3-.1.3-.2.1-.3-.2-.1-.3-.2s0-.6-.3-.4c-.1-.4.1-.4.3-.4 0-.2.1-.4.3-.4h.1c0 .3-.1.7-.1 1s.4.1.4.4-.1.6-.4.5c-.2.7.5.2.3.8m21.2-28.4c-.5.2-.2-.4-.3-.8-.3 0-.8.2-.6-.4h-.7c.3-.6-.5-.1-.3-.7.5 0 .7-.1 1 0-.1-.1.2.7.7.4-.1.3.1.3.3.3 0 .4-.1.8-.1 1.2m-10.6 5.5c.2-.1.3 0 .3.2-.1 1 0 2.4-.1 3.7-.1.2.1.9-.4.7zm-6.7-18.7c.7-.2.7.3 1 .6.2.6-.3.4-.3.7s.2.1.3.2c.1.4-.2 1.1-.1 1.6-.5.2-.1-.6-.6-.4-.1-.4.3-.3.3-.6s-.3-.1-.3-.2c0-.5 0-1 .1-1.5-.1-.1-.6-.1-.4-.4m1.7 52.9c-.6-.2-.2.6-.7.4 0-.5.4-.3.4-.8s-.3-.3-.4-.6c-.1-.6.3-.4.4-.7-.2-.8-.3.4-.7.1 0-.3.2-.3.4-.3-.1-.4.1-.4.3-.4.1-.4-.2-1.4.4-1.2-.1 1.2-.1 2.3-.1 3.5m13.4-40.1c-.7.3-.6-.4-1-.4v-1.5c-.2.1-.3-.2-.3-.4h.7c-.2.4.2.2.3.4s0 .5.3.4c.1.3-.1.3-.3.4-.1.5.5.3.3 1.1m-8 12.5c-.2-.1-.3 0-.3.2 0 .6 0 1.3-.1 1.9 0 .5.2 1.5-.3 1.4-.1-.7.1-2.1 0-2.7 0-.4 0-.4-.3-.4 0-.4.3-.3.4-.6s-.1-.8 0-1.4c.6-.1.2.7.3 1s.4.2.3.6m37.6-27.3c0 .3-.1.5-.3.4-.1.5-.1 1.1-.1 1.6-.6-.1-.2 1.1-.4 1.5.6-.2.1.7.7.4 0-.9 0-1.8.1-2.7.3.1.2-.3.3-.4s.5 0 .3-.4c-.5.3-.1-.6-.6-.4m-13.8 22.2c-.4-.1-.6.1-.8.4-.1.1-.2 0-.2.2 0 .4-.4.1-.8.2s-.2.6-.9.4c-.1-.4.3-.3.4-.4s-.1-.4 0-.4.3.1.5 0 .1-.5.2-.8h.8l.3-.4c.1-.1.2-.1.2-.3h.7c0 .5-.6.3-.4 1.1m-34.1-10.9c-.2-.6.5-.1.3-.8-.2 0-.3.3-.5.4s-.2.5-.5.4c.1-.8.1-1.5.1-2.3h.7c0 .4-.4.3-.4.6.3.7.3-.5.7-.2 0 .3-.2 1 .3.8 0 .5 0 1-.1 1.5-.5-.2-.1.6-.6.4-.1-.4.8-.7 0-.8m-1.1 2.7c.6.3.2-.6.7-.3v-.4c.4-.3.5.8.3 1.1 0 .1-.4 0-.3.2s.4.2.6.2c-.1.4.1.4.3.4.1.4-.3.3-.3.6s-.3.1-.5.2-.2.5-.5.4v-1.8c-.1-.2-.3-.2-.3-.6m2.1 49.8c-.8.3.2-1.4-.6-1.1-.1-.3.1-.4.3-.4.2-.4-.3-.3-.3-.4-.1-.3.1-.6 0-1.2-.5-.2-.1.7-.6.4-.1-.3.1-.3.3-.4-.1-.9.2-2 .1-2.9-.1-.2-.4-.2-.3-.6.5-.2.1.7.6.4 0 1 0 1.9-.1 2.9 0 .3.3.1.4.2.1.3-.3 1 .3.8-.1.8-.1 1.5-.1 2.3m4.5-39.8c-.3.7.4.3.3.9-.6-.1-.2 1-.4 1.4.1.2.4.2.3.6-.3-.6-.4 1.4-.3 1.7s.4.2.3.6c-.6-.2-.2.7-.7.4-.1-.4.3-1.3-.3-1.2-.1-.4.3-.2.4-.5.2-.8-.5-.4-.3-1h.3c.2-1.1-.1-3 .1-4.3h.7v.8c0 .4-.4.3-.4.6m-7.2 29.7c.1-.2 0-.6.1-.7s.2 0 .3-.2c.1-.5 0-.8.1-1.4-.7-.3 0 1.1-.7.8 0-1.2 0-2.4.1-3.5.7-.1.1 1.6.2 2.3.6.3.2-.6.7-.4-.1.4.1.4.3.4 0 .9 0 1.8-.1 2.7zm24.3-31.9v1.2c-.5.2-.3-.4-.3-.8h-1.7c.1-.8.1-1.5.1-2.3h.7v.8c.2-.1.3.1.3.4.3 0 .8-.2.6.3h1c.1.6-.4.4-.7.4m-23.1-25.7h.6c.2.4-.3.3-.3.4-.2.5.1 1.4-.1 2 .7.3 0-1.1.7-.8.2-.6-.5-.1-.3-.8.4-.1.2.3.3.4s.5 0 .3.4c-.8.1.2.3 0 .8-.6-.1-.2 1.2-.4 1.7.1.3.4.2.7.2.2.8-.7.1-.7.6.1.3.4.2.7.2 0 .3 0 .5-.1.8-.4 0-.3-.7-.9-.4.1-.3-.2-1 .3-.8.2-.4-.3-.3-.3-.4s.1-.7 0-.9-.4-.2-.6-.2c0-1.1.1-2.1.1-3.2m43.5-27.2c-.5-.1-.7.1-1 0 .1 0-.2-.7-.7-.4.3-.6-.5-.1-.3-.8-.2 0-.6.1-.6-.1 0-.6-.9.1-.6-.6h-1c.2-.7-.6-.2-.3-.8.1.2.7-.2.9 0 .1 0 0 .4 0 .4.3.1 1.2-.3 1 .4h1.3v.7c.2.1.5-.1.7 0 0 .1-.1.3-.1.4.2.2.4 0 .4.2s.2.3.3.4 0 .3 0 .2c.2-.1.3.2.3.4-.3.1-.3-.2-.3-.4m-31.9 63.4c.1.3-.2 1.2.2 1.2s0 1.1.1 1.9c-.3 0-.3.3-.5.4s-.2.5-.5.4v-.9c0-.3-.3-.2-.3-.4s-.2-.1-.3-.2 0-.6-.4-.4c.3-.7-.5-.2-.3-.8h.7v.8c.5-.2.6.1.8.4.6-.3-.4-.3-.2-.8-.1.1-.2.1-.3 0-.2-.9.6-.7.4-1.6zm-12.5 24.2c-.1-.4 0-.7.3-1 0-.2-.3-.2-.3-.6h.7c.2-.6-.5-.1-.3-.8h.6c.1-1 .1-2.1.1-3.1.5-.1.2.4.4.6 0 .2.3.2.3.6-.7-.2-.3.9-.4 1.3 0 .2.2.2.3.2v1.8c-.1.5.2 1.4-.4 1.3-.1-.5.3-1.6-.1-1.9-.4 0-.1.8-.2 1.2-.5-.1-.4.6-1 .4m-.7-9c-.1-.5.4-1.7-.3-1.5-.2-.4.3-.3.3-.4.2-.4-.2-1.3.4-1.2v1.7c-.1.5.5.1.8.2s.1-.4.2-.7c.1 0 .3-.1.3-.2 0-.3-.3-.2-.5-.2-.4-.1.1 1.1-.5.8v-1.6c.3-.1.3.1.4.4.4 0 .3-.7 1-.4.1.4-.2.9-.1 1.4l.3.2c0 .4-.2.2-.3.5-.3.8.4.4.3 1h-.7c-.1-.3.3-1.1-.1-1.2-.2 0-.1.4-.2.4-.2.2-.7-.1-1 0-.1.8.3.9.5 1.2.4.1-.1-1.1.5-.8 0 .8 0 1.6-.1 2.4-.7.1.2-1.8-.9-1.2 0-.4.2-1-.3-.8m1.6-53.3c.6.2.2-.6.7-.4 0 .3-.1.8.2.8s-.2-1.5.5-1.2c-.1-.3.1-.7 0-.9s-.4-.2-.3-.6c.5.2.1-.7.7-.4 0 .3 0 .5-.1.8.7.3 0-1.1.7-.8 0 .9 0 1.8-.1 2.7h-.3c-.1.4-.1.8 0 1.2-.1 0-.3-.1-.4 0s.1.4-.1.4c-.5-.1.1 1.1-.5.7v-1.5c-.7-.3 0 1.1-.7.8 0-.3.1-.7.1-1s-.5-.2-.4-.6m3.7 21c0-.1.4.1.3-.2.2-.6-.3-.5-.3-.8v-.5c-.1-.5.3-.3.3-.6s-.2-.2-.3-.4c-.1-.6.2-1.8.1-2.5.1.1.2.1.3 0v1.5c.5.3.1-.6.7-.4-.1.7-.1 1.3-.1 2h-.7c-.1.6.4.3.7.4.2.7-.7 0-.7.5.1.3.4.2.7.2-.1.6-.4.4-.4.8s.3.3.3.8c-.4-.6-.6 2.3 0 1.9.1.4-.4.3-.4.4-.2.6.1 1.6-.1 2.4-.5-.3-.1.6-.6.4-.1-.7.1-.8.3-1-.1-.2-.3-.2-.3-.6s.3-.3.4-.6c.2-.7-.5-.4-.3-1 .5.2.2-.6.3-.9s-.2-.2-.3-.2c.1-.5-.1-1.2.1-1.6m-4-10.5c0 1 0 2.1-.1 3.1.6.1.4-.9.4-1.3v-1.8c.4.1.3-.4.5-.4s.5 0 .5.2.4.2.3.6c-.2-.1-.3.1-.3.4-.4.1-.2-.4-.5-.4s-.4 1.8.1 1.6c.1.4-.3.2-.3.5.2.2.3.4.5.6.3.1.1-.7.2-1-.1-.2-.4-.2-.3-.5.6.3 0-1.1.6-.8 0 1 0 2.1-.1 3.1-.4-.1-1 .2-1.3-.2 0-.1 0-.2-.1-.2-.3.3-.2.9-.2 1.6-.1.5-.1 1-.1 1.5-.6 0-.3-1-.3-1.5 0-1.1 0-2.4.1-3.7.1-.5-.2-1.4.4-1.4m11.8 31.5c-.3 1.3.4 4.8-.3 5.5-.1 0-.2 0-.2.2.2.3.5.4.7.7-.1.2 0 .5-.1.6s-.3 0-.3 0c-.1.3.2 1-.3.8l-.2 3.9c-.5-.2-.1.6-.6.4.1-.2-.1-.6 0-.8s.3.1.3-.2c.1-.5.1-1 .1-1.5-.1-.3-.3-.2-.3-.4s-.1-.6 0-.8.3-.2.3-.4c.3-.7-.4-.4-.3-1 .2.1.3 0 .4-.2.1-1.5.2-2.9.1-4.4-.1-.6-.2-.2-.3-.8h.7c.2-.6-.6-.2-.4-.8.5.2.4-.4.4-.8.3.1.3-.1.3-.4.5-.2.5.7 0 .4m-7.7 15.6c-.1.4.3 1.3-.3 1.2v-1.8c0-.2-.3-.1-.3-.4.1-.3.1-.7 0-1 .1-.5.3-.1.4-.7s-.3-.3-.3-.6v-1c0-.3.1-.4.3-.4.1-.4.1-.7.1-1.1-.7-.3 0 1-.7.7.3-1-.3-3.7.3-4.2.1-.1.2 0 .2-.2s-.4-.2-.3-.4c.1-.6-.2-1.5.2-1.8 0 0 .2 0 .1-.2s-.4-.1-.6-.2c0-.5.6-.4.4-1.1.1-.5-.3-.3-.4-.6.1-.3 0-.6.1-.8s.3-.1.3-.4c-.2-.2-.4-.3-.3-1-.1-.4.3-.2.4-.5v-1c.1-.5-.3-.3-.3-.6 0-.7-.2-1.7.7-1.4.1.4-.1.8-.4 1 .1.2.3.2.3.4.1.6.1 1.1 0 1.7-.1.3-.1.4-.4.4-.1.5.3.3.4.6-.1.8-.1 1.6-.1 2.4 0 .2.3.1.3.3 0 1.5-.1 2.9-.1 4.3 0 .2.3.2.3.4-.1.5.1 1.1-.2 1.4-.1 0-.2 0-.2.2-.2.6.2.4.3.7-.1.8 0 2.2-.1 3 0 .3 0 .3-.3.4-.1.4.2.3.3.5.1.5-.4 1.5.3 1.4.1.4-.3.3-.4.4m2.2-15.6c0 .5-.4.3-.4.6s.3.2.3.4c.1.7.1 1.4 0 2.1-.1.3-.1.4-.4.4-.1.5.3.3.3.6 0 1 0 1.9-.1 2.9-.3-.1-.2.4-.5.4s-.1.5-.2.8c.7.3 0-1.1.7-.8v1.2h-.7v.8c-.1.4.3.2.3.5v.6c0 .4-.1.4-.3.4 0 .3-.1.5-.1.8.7.3 0-1.1.7-.8 0 .2.1.4 0 .6s-.2 0-.3.2 0 .3-.1.4-.3-.1-.3.2.8.3.7 0 0-.6.3-.6c.2.8-.4.6-.3 1.2h-.7v.5c0 .5.7.1 1 .2 0 .6-.6.4-.4 1.2-.7.3 0-.8-.5-.8s.2 1.8-.5 1.6c0-1.6.1-3.3.1-5.1.2-1.6.3-3.2.2-4.8 0-.2-.2-.2-.3-.2-.2-.7.5-.2.3-.8 0-.3-.2-.4-.3-.6s-.3-.2-.3-.4c-.2-.6.3-.5.4-.8v-.5c.2-.7-.6-.2-.3-.8.6.1.2-.9.3-1.4 0-.2-.3-.1-.3-.4v-.9c0-.4.2-.4.4-.4-.1-.6.2-1.3 0-1.8 0-.2-.4-.2-.3-.6-.1-.6.4-.3.7-.4.2-.4-.3-.2-.3-.3s.1-.5 0-.6-.3-.2-.3-.4v-.6c-.1-.4.3-.3.4-.6s-.3-.1-.4-.2c-.1-.3 0-1.4.4-1.1.1.4-.3 1.3.3 1.1.1.5-.3.3-.4.6s.7.1 1 .2c.1 1.4-.3 3.6-.1 4.9 0 .1.1.1.3.2 0 .3-.2.3-.4.3-.2.7.6.2.4.8m-8.3-9.7h.7v-1c0-.2-.4-.1-.6-.2-.1-.3.1-.3.3-.4 0-.3.1-.3.3-.3 0-.4.2-.4.4-.4v-1.2c.2 0 .3 0 .4-.2-.3-.7-.3.5-.7.2-.2-.4.3-.3.3-.4.4-1.4-.1-3.8.2-5.4h.7c.1.6-.6.1-.4.7.4.1.3-.3.5-.4s.2-.5.2-.7h.7c-.1.2-.1.5-.1.7h-.6c-.1.9-.1 1.9-.1 2.8-.7.3 0-.9-.5-.8-.1 0-.2.5-.2.8.1 0 .5 0 .4.4-.2-.1-.3 0-.4.2v.5c.5.3.1-.6.7-.3.1.6-.2.9-.7.7-.2.6.3.4.6.4.1.4-.3.3-.3.6s-.4.2-.4.6c.3.1.4-.2.4-.4.3.1.3-.2.3-.4.3 0 .8.2.7-.4.3-.1.3.2.3.4.5.2.1-.6.7-.4 0 .2-.1.4-.3.4 0 0 0 0-.1 0 .1.3-.1.4-.3.4-.2.6.5.1.3.8h-.7c0-.3.1-.5.1-.8-.5-.2-.6.2-.9.4l-.5.6c.3.7.3-.5.7-.2.2 1.1-.9.8-.7 1.9.5.3.1-.6.6-.4v2c-.8.2 0-1.2-.5-1.2s-.1 1-.2 1.4c.1.2.4.1.7.2-.1.7-.1 1.4-.1 2.1.3.2.5.6.3 1-.5 0-.3-.7-1-.4-.2-.6.6-.2.4-.8-.3-.1-.3.2-.4.4-.2 0-.3 0-.3.2.3.3.3.7 1 .6.2.9-.5.6-.7 1 0 .4.7 0 1 .1.1.9-.7.1-.7.6 0 .3-.6.2-.4 1h.5c.4.1-.1-1.1.5-.8v.8c-.3-.1-.3.2-.3.4-.3 0-.7-.1-.7.2s.7.1 1 .2v.8c-.7-.3-.6.4-1 .3-.1.4-.1.8-.1 1.2h.7c.2-.6-.5-.1-.3-.8.5.3.1-.6.6-.4v1.6c.8.3-.1-1.4.7-1.2.2-.6-.5-.1-.3-.7.5.2.1-.7.7-.4-.1-.5.2-1.4-.2-1.6-.3.2-.1 1.1-.2 1.6-.5.1-.3-.8-.3-1.2-.1-1.4 0-2.9.2-4.3 0 .1.3-.1.3-.2s0-.4 0-.6c-.5-.2-.1.7-.6.4-.1-.3.1-.3.3-.4v-1.1c.4-.1.3.3.3.6s.4.1.7.2c.1.6-.2.7-.4.9-.2.8.5.4.3 1-.5-.2-.3.4-.3.8-.2-.1-.3 0-.4.2.3.7.3-.5.7-.2-.1.3.1.9 0 1.1s-.4 0-.4.2.3.1.4.2c.1.7-.2 2-.1 2.8h-.7c-.2.5.4.3.7.3-.1.4-.1.8-.1 1.2-.5.3-.1-.6-.6-.4-.2.7.5.2.3.8 0 .6-.6.4-.4 1.2.7.3 0-1.1.7-.8-.1.4.2 1.3-.4 1.2v1.9c-.6.2-.1-.6-.7-.4 0-.4.4-.3.4-.6s-.4-.2-.3-.5c-.6-.3-.2.6-.7.3 0-.1.1-.4 0-.5s-.3-.2-.3-.2c.1.2-.2.7.1.7.1 0 .3.4.3.4.1.2.2.2.2.4v.4c-.5.2-.3-.4-.3-.8-.5-.2-.2.7-.7.4-.2.6.5.2.3.8-.4-.1-.4.6-.3 1 0 .2.4.2.3.6-.6-.3-.2.6-.7.3v-1.3c.1-.2-.3-.1-.3-.2-.1-.7.2-1.8.1-2.5 0-.3-.4-.2-.3-.6h.6c.1-.5-.2-.3-.3-.6-.1-1.9 0-3.8.2-5.7 0 .1.3-.1.3-.1.1-.2 0-.5.1-.6-.6-.3-.2.6-.7.4-.2-.7.5-.2.4-.8.2-.7-.6-.2-.4-.8.2 0 .3 0 .4-.2-.1-.2-.3-.1-.3-.4v-1c.6.2.2-.9.4-1.3 0-.5-1 .2-.7-.6m16.5-13.6c-.2 0-.4 0-.3.4-.3-.1-.6 0-.7-.2.2-.3.5-.4.4-1 .2 0 .4-.1.3-.4-.2 0-.6.1-.6-.2s.4-.2.6-.2c.2-.5-.1-1.1.1-1.5 0-.1.3 0 .3 0 .1-.5.1-.9.1-1.4-.1-.2-.3-.2-.4-.4.2-.3.3-.2.4-.6v-.6c0-.3-.4-.1-.3-.5.2-.1.4-.1.3-.4-.6.1-.1-1.1-.2-1.6-.4-.2-.5.9-.7.2 0-.3.4-.1.3-.6.6.3.2-.6.7-.4.2-.6-.5-.1-.3-.7.6.1.2-1 .4-1.4-.1-.3-.5-.2-.3-.8 0-.3.4-.1.3-.6 0-.3 0-.6.1-.9-.1-.3-.5-.2-.4-.6-.1-.4.4-.3.4-.4.1-.4-.1-.7 0-1.2.7.3.5-.4 1-.4 0-.5 0-1 .1-1.5.6 0 .2-1.4.4-2 .5.3.1-.6.6-.4 0-.6.1-1.3.1-1.9.3.1.2-.2.3-.4.1 0 .3.1.3 0s0-.5.1-.8h.6c.1-.3-.1-.9.4-.7v-1.2c.2 0 .4-.1.4-.3 0 0 0 0 0-.1.1 0 .2-.1.3-.2l.3-.4c.1 0 0-.1 0-.2s.3.1.4 0 0-.5.3-.4c-.2-.9.6-.6.4-1.5.5.2.1-.7.6-.4v1.5c.3.1.3-.2.5-.3.2-.4.7-.5.5-1.2.6.2.2-.6.7-.4v-.8c.3.1.4-.2.5-.4l.7-.8c.1 0 .3-.3.4-.3s.1-.5.5-.4v-.8c.2 0 .4-.1.3-.4.3 0 .4-.2.5-.4s.2-.4.5-.4v-.8c.2.1.3-.1.4-.1s.3-.4.3-.4c0-.3.1-.1.2-.2s.3-.3.3-.4h.5c0-.4.1-.8.1-1.2.9.3.7-1 1.6-.8.1-.2.1-.4.4-.4 0-.2-.1-.7.2-.7.6.2.3-.6.8-.4 0-.2.1-.3.2-.4.2-.3.4-.5.6-.8.3-.3.5-.5.9-.4-.1-.2.1-.3.2-.4s.2-.2.3-.4c.6.2.4-.6 1.2-.3-.1-.3.1-.3.1-.4.2-.3.5-.6.9-.4-.2-.7.4-.3.6-.4s0-.6.4-.4c-.1.4.2.4.3.6s-.1.4 0 .6.2 0 .3.2-.1.4 0 .5.2.2.3.2l.3.4v1.4c.1-.1.2.1.3.2l.3.4c0 .8-.1 1.5-.1 2.3 0 .3.3.2.3.4.2.4-.1 1 0 1.4 0 0 .3 0 .3.2.2.5-.1 1.1 0 1.7.1.1.3 0 .3.2 0 1-.1 2.3-.1 3.5s.1 2.9-.1 3.7c-.1.1-.6 0-.4.4v.6c0 .3.4.1.3.6.2.6-.5.1-.3.7-.2.6.5.3.3 1 0 .2-.1.1-.2.2-.4.4 0 1-.2 1.6 0 0-.3-.1-.3 0-.4.4 0 2.1-.1 2.7h-.4c-.1.5.2 1.4 0 1.9-.1.1-.5 0-.4.4v1.6c-.2 0-.4 0-.4.4-.2 0-.3 0-.3.4.4.2.4-1 .7-.2-.1.1-.2.2-.4.2 0 .2 0 .4-.3.3-.1.4.1 1-.4.8v1.6h-.7c0 .3.2.9-.3.8v1.1c-.6-.2-.2.6-.7.4 0 .4 0 .8-.1 1.2h-.6c0 .2 0 .7-.2.8s-.1.2-.2.3-.3 0-.3 0c-.1.2.1.7 0 .8s-.3 0-.4 0c0 .2.1.6 0 .8-.6-.3-.2.6-.3.8-.1 0-.3-.1-.4 0s.1.5 0 .8c0 0-.3-.1-.3 0s.1.6 0 .7h-.7c0 .4-.2.4-.3.6-.2.2-.4.4-.5.6-.3.3-.5.6-.9.4.1.2-.1.3-.2.4-.2.3-.4.5-.8.4 0 .2-.1.3-.2.4 0 .1-.2.3-.3.3-.1.1-.4 0-.5 0s0 .5-.2.4h-.8c.2.7-.4.2-.7.4 0 .1.1.5-.1.4s-.2.4-.4.4h-.8c.4 1-.7.6-.7 1 0 .2-.3.2-.3.4s-.8.3-.7 0 0-.5 0-.6.3 0 .4 0c.2-.3-.2-1.1 0-1.6h.7c.1-.4-.3-.3-.3-.6-.1-.1 0-.4 0-.5s-.3 0-.3-.2 0-.4 0-.6h-.7c0-.3 0-.5-.3-.4.2-.6-.5-.2-.3-.8-.7.3-.5-.4-1-.4h-.5c-.2 0-.1.5-.5.4.2-.7-1-.3-1.3-.4 0 0 .1-.4 0-.4-.5-.1-1 .1-1.6 0-.1.2.1.7 0 .8h-.3c-.2.4 0 .9-.1 1.2 0 0-.3-.1-.3 0-.3.3.2 1.4-.1 1.9-.2 0-.4.1-.3.4-.2.8.2.7.3 1 .1.5-.3.9.1 1s.2.8 0 .7c-.4.1.2-1.1-.5-.7v.7c-.3 0-.3.3-.5.4h-.8c0-.5-.6-.4-.3-1.1-.2-.1-.4-.1-.3-.4-.5-.3-.2.6-.7.4v-1.2h1c.1-.4-.2-.4-.3-.6s-.4-.2-.3-.8c.1-.1.2-.2.3-.2.1-.2.1-.4.4-.4.2-.6-.5-.1-.3-.7.2-.1.4-.1.3-.4m36.5-23.4c-.1 0-.3 0-.3-.2-.3-1.8.3-4.8.2-7 0-.2-.3-.2-.3-.4-.1-.4.1-.9 0-1.3 0-.1-.4 0-.3-.2v-1.6c0-.2-.2-.2-.3-.4-.1-.5.3-.9-.1-.9s-.1-.9-.1-1.2c-.1-.1-.4 0-.4-.2.1-.5.1-.9.1-1.4-.1.1-.2 0-.3-.1l-.3-.4c-.1-.6.1-1-.2-1s0-.9-.1-1.2c0-.1-.3 0-.3-.2s.1-.4 0-.6-.3.1-.3-.2c-.1-.1 0-.4 0-.5-.2-.1-.4-.1-.3-.4-1 .2-.7-1.1-1.6-.8.2-.8-.4-.6-.3-1.2h-1v-.7c-.3-.1-.8.2-.6-.4-.6.3-.8-.5-.7-.4-.1-.1-.8.1-1 0 0-.1.1-.4 0-.4s-.8.1-.9 0 0-.4 0-.4c-.4-.1-1.1.2-1.3 0-.1 0 0-.4 0-.4-.5-.1-.9.1-1.3 0-.1 0 0-.4 0-.4-.2-.2-.9.2-1 0-.1.3 0 .7-.2.8s-.5 0-.5-.2.4-.1.4-.6h-2.3c.3-.6-1.6-.4-1.7-.4s.1.5-.1.4c-.6.1-1.2-.2-1.2.2s-1 .1-1.3.2c.2.7-.4.2-.7.4-.1.1 0 .5-.2.4h-.8c.1.4-.2.2-.3.4s0 .4-.2.4-.2.3-.3.4-.2-.1-.2 0 0 .3 0 .3c-.1.2-.3 0-.3.2-.1.4-.5.1-.7.2s0 .3-.2.4-.3 0-.5 0c0 .3.1.7-.2.8-.1 0-.4 0-.5.2s-.1.1-.1.2l-.4.4-.6.8c-.1 0-.2-.1-.2 0s0 .3 0 .3-.3 0-.4 0 .1.4 0 .4-.2 0-.3 0 .1.4 0 .4-.3 0-.3 0c-.1.2 0 .4-.2.4s-.1.1-.2.2l-.3.4-.7.8v.2c-.1 0-.3-.1-.3 0s0 .3 0 .4-.3-.1-.4 0 .1.3 0 .3-.3 0-.3 0v.4s-.3 0-.4 0c-.1.2.1.6 0 .8-.6-.3-.5.4-1 .4v.8c-.3-.1-.2.2-.3.4-.1 0-.3-.1-.4 0s.1.5 0 .7c-.5-.2-.1.7-.7.4v1.2c-.5 0-.3.7-1 .4-.1.1.1.7 0 .8s-.3-.1-.3 0 0 .6-.1.7-.3 0-.3 0c-.1.2.1.7 0 .8s-.3 0-.4.2 0 .1-.1.2-.2.4-.5.4c0-.4-.2-.4-.3-.6.1-.4-.3-1.5.3-1.3.4-2.3-.2-4.4.2-6.3h.2c.4 0 0-3.5.4-3.5s.2-3.2.3-3.9c-.2.1-.2-.1-.3-.1-.1-.1-.2-.3-.3-.4v-.6c-.2-.2-.7.1-.7-.2.3-.8-.4-.4-.3-1-.4.1-.8-.1-1.1 0s-.2.5-.5.4c.1-.4-.2-.3-.3-.4s0-.3 0-.4c-.2-.1-.7.2-.7-.2s-.4-.1-.3-.6h-1c.3-.6-.5-.1-.3-.7-.1-.4.4-.4.4-.4.1-.4-.3-1.3.3-1.2.1-.4-.2-.4-.3-.6s.1-.6.1-.9c-.3-.1-.7-.1-1 0 0-.6-.6-.4-.3-1.2-.6.1-.8-.1-.6-.8h-1.4c.2-.6-.3-.3-.6-.4 0-.2-.1-.3-.1-.4s-.3-.2-.4-.4c0 0-.1.1-.1 0s0-.3 0-.4-.5.1-.3-.3h-.7c0-.3 0-.5-.3-.4.2-.7-.5-.2-.3-.8h-1.3c.2-.6-.4-.4-.7-.4.1.6-.2 1.2 0 1.6 0 .1.5 0 .3.3v.6c0 .2-.1.2-.2.2-.4.4-.1 1.4-.2 2-.6-.2-.3.9-.4 1.1s-.3 0-.3 0c-.3.3.1 1.7-.1 2 0 0-.3-.1-.3 0-.3.3.1 1.6-.1 1.9 0 .1-.5 0-.3.4-.2.8.3.6.3 1.2h-.7c-.2.6.6.1.3.8-.6-.3 0 1-.6.7-.2.6.1 1.2-.1 1.6 0 .1-.5 0-.3.4.4.2.4-.9.6-.2 0 .1-.1.2-.3.2 0 .3.1 1-.3.8-.1.5.5.3.2 1.1-.5-.1-.7.1-.6.8.5.3.1-.6.6-.4v2c-.5-.2-.3.4-.4.7-.2.1-.4.1-.3.4.4.3.4-.9.6-.2 0 .2-.1.3-.3.2 0 .4.1 1-.3.8-.2.7.2 2.7-.4 2.3-.2.6.5.3.3 1-.1.2-.2.2-.4.2 0 .4.2 1-.3.8-.1.9.1 3.5-.3 3.5s0 3.1-.4 3.1-.2 2.9-.3 3.5h-.3c-.3.6.5.2.3.8-.2 0-.4 0-.4.4.5-.3.5.6 0 .4-.1.6.6.2.3.9-.1.3-.3.2-.3.6 0 .8 0 1.6-.1 2.4 0 0-.3 0-.3.2s0 .4-.1.5c.5.3.5-.9.7-.2 0 .2-.1.3-.3.2-.1.3-.1.5-.4.4 0 2.5-.1 5-.2 7.4-.2 0-.4.1-.3.4.2 0 .6-.1.6.2s-.1.1-.2.2-.1.1-.1.4c-.5 2.5.1 6.2-.3 8.9.5.2.2-.5.3-.7s.5 0 .4-.4.1-.7 0-1-.4-.2-.3-.6h.7c-.1 1.2-.1 2.3-.1 3.5-.7-.1-.3 1.1-.4 1.6.1 0 .3 0 .3.2-.1.4.2 1.2-.2 1.3s-.1-.5-.5-.4c-.2.8.3.7.3 1.2-.3-.1-.2.3-.3.4s-.5 0-.4.4c.3-.1.4.2.5.4l.5.6c-.2.4.2 1.5-.4 1.3 0-.6.2-1.1-.1-1.1-.5-.1.2-1-.5-.8 0 1.3-.1 2.7-.1 4.1 0 .3.4.1.3.5-.1.2 0 .5 0 .6-.1.1-.3.2-.4.2-.1.5.1 1.2 0 2h.6c0-.3.1-.6.1-.8-.2 0-.4-.1-.4-.3 0 0 0 0 0-.1.9 0 0-2 .6-2.3l.5.5c-.1.4-.5.2-.4.8.1.3.3.2.3.6s-.3.3-.3.8c-.2.6.5.1.3.8-.2 0-.6-.1-.7.2 0 .5-.8-.3-.6.5.6.4.7-.8.9-.2 0 .4-.5.2-.3.8 0 .3.4.2.3.6.2.6-.5.2-.3.8.5.2.1-.6.6-.4-.1.4.1.8 0 1.2 0 0-.3-.1-.3 0-.4.3.1 1.4-.1 1.9-.5-.2-.3.4-.4.8.6.2.2-.6.7-.4v.8h-.7c-.1.4.3.3.3.6s0 2.6-.4 2.1c.1.5.4.3.3.8s-.3.2-.3.8c.3 0 .8-.2.6.4h-.6v.9c0 .3.4.2.3.6-.9.1.2.4-.1 1 0 .3-.4.1-.3.6.6 0 .2.9.3 1.3s.2.1.3.2-.1.6 0 .8h-.7c-.2.8.4.6.3 1.2-.2 0-.4 0-.3.4.6-.2.1.7.3 1.1 0 .1.4 0 .3.2s-.1.1-.2.2c-.3.3-.1 1.1-.2 1.6.7-.1.1 1.3.3 1.9h-.7c-.1.4.3.4.3.6.1.5-.1 1.3 0 1.9 0 .3.2.2.3.4 0 .5 0 .9-.1 1.4.2-.1.3.1.4.2l.3.4c-.1.3-.5.1-.4.6.6-.2.2.7.3 1.1.6-.2.2.6.3.8s.4 0 .3.2-.5.2-.3.8c.3.2.4.6.3.9.2.1.4.1.3.4.2.7-.5.2-.4.8.3.1.9-.2.7.4h-.7v1.2c.2 0 .6-.1.7.2-.3.6.2.4.3.7-.1.3-.1.7-.1 1 .3 0 .4.3.5.4l.5.6c.2.2.4.3.3 1 .2-.1.2.1.3.2l.3.3c0 .4.4.2.3.6h.7c0 .3 0 .5.3.4 0 .4.2.4.3.6s.3.3.3.6c.5.1.7-.1 1 0v.4c.1.1.4-.1.5 0s.1-.5.5-.4h.5c.1-.1.1.4.1.4.4.1 1-.2 1.3 0 .1 0 0 .3 0 .4h.4c.7.1 1.7-.1 2.6 0 0-.8 0-1.6.1-2.4.6.1.2-1.3.3-1.9.7.1.3-1.2.4-1.6 0 0 .3.1.3 0 .5-.5-.4-2.7.3-2.7.3 0 .2-2.4.2-2.7-.2-.1-.6.1-.6-.2s.4-.2.3-.6c.2 0 .4-.1.4-.3 0 0 0 0 0-.1.2 0 .4 0 .3-.4.2-.6-.5-.1-.3-.8.3.1.3 0 .4-.3.1-.5-.1-1.5 0-2-.8-.3.1 1.5-.7 1.2-.1-.4.3-.8.1-1.2-.1-.1-.3.1-.4-.2 0-.1.2-.2.4-.2.2-.6-.6-.1-.3-.8.2.1.4.1.3.4.5.3.1-.6.7-.4 0 .4-.4 1.4.2 1.2.3-1.3-.1-3.2.2-4.3 0-.1.5 0 .3-.4-.6.2-.2-.7-.3-1.1-.2 0-.4-.1-.3-.4.3-.1.8.2.7-.4.2-.6-.5-.2-.3-.8.7.1.1-.4 0-.6s.1-.1.2-.2c.6-.6 0-4.4.3-5.4 0-.1.5 0 .3-.4-.2-.1-.4.1-.6 0s0-.3 0-.4c-.2-.1-.7.2-.7-.2 0-.2.1-.4.2-.6.3-.4.7-.4 1.2-.3v-.8c-.7-.3-.6.6-1.3.4 0-.2-.1-.5 0-.6s.3-.1.3-.2 0-.6.1-.8.5 0 .3-.4c.1-.4-.2-.4-.3-.6.1-.3.5-.1.3-.7 0-.4-.4-.2-.3-.6s-.1-1 .4-.8c.2-.6-.5-.2-.3-.8.6.1.2-1.2.4-1.7 0-.3-.4-.2-.3-.6-.2-.4.3-.3.3-.4.1-.4-.1-.7 0-1.2h.7c.3-.7-.7 0-.7-.6.1-.3.1-.6.1-.9h.6c.3-.8-.7-.1-.6-.6 0-.3.4-.2.3-.6.5.2.3-.4.4-.8-.6-.1-.1 1.2-1 .8v-1.9h.7v-1.2h-.9c-.1-.4.2-1-.3-.8-.1 1.8-.2 3.6-.2 5.5.1 0 .3 0 .3.1-.1.5.3 1.6-.4 1.4.1.6.3.3.3.8.1.2 0 .5 0 .8-.6-.3-.1.8-.5.7-.2 0-.5.1-.5-.1 0-.4.4-.2.4-.6v-1.2c-.2 0-.6.1-.7-.2.1-.3.4-.2.7-.2.3-2.1-.2-5.1.2-7h.4c-.1-.2-.1-.5-.4-.4 0-.2.1-.5.1-.8h.6v1.2c.7-.3.5.4 1 .4-.1-.2-.1-.5-.4-.4.1-.3 0-.7.2-.8s.1.5.5.4c.1-.5-.1-.8 0-1.1s.5 0 .4-.4c-.2-.1-.4-.1-.3-.4-.6-.3-.2.6-.7.4-.2-.9.6-.7.4-1.6h.6c.1-.3-.1-1 .4-.8.2.8-.4.6-.4 1.2.4-.1.2.3.3.4s.3-.1.4 0c0 .1-.1.3-.1.4.2.1.5-.1.7 0-.2.6.1.7.3.9.3.4.6.8 1 1.2.2.3.4.5.2 1h.7c-.1.4.2.2.3.4.1 0 0 .3 0 .4.2.1.7-.2.7.2 0 .2.2 0 .3.2 0 0-.1.3 0 .3s.4 0 .6 0c-.2.8.4.7.3 1.2h1c-.3.8.9 0 .6.8.6.2.2-.6.7-.4.2.6-.5.1-.4.8.3 0 .9-.2.7.4h1.3c-.1.7.9.2 1.3.4 0-.2 0-.4.2-.4h2.1c0-.8 1.2-.2 1.7-.4 0 .3-.2.9.3.8.1-.4-.2-1.2.2-1.2h1.1c-.1-.8.7-.2 1-.4.1 0 0-.5.2-.4h1.1c.2-.3-.3-.3-.3-.4 0-.3 0-.6.2-.8.4 0-.2 1.1.5.8.3.1.3-.3.5-.4.5-.2.4 0 .6-.4.6.3.5-.3.7-.3h.8c-.2-.8.4-.7.4-1.2-.3-.1-.3.3-.5.4s-.4-.1-.5 0 0 .3-.2.4-.3-.1-.5 0c.1.3-.2.3-.3.5s-.4.2-.7.2c.3-.7-.3-.6-.3-1.1.3-.1.7 0 .7-.2s.1-.1.2-.2l.3-.4c.3 0 .1.5.5.4 0-.2.1-.3.2-.4l.3-.4c.6.2.4-.4.7-.4s.1-.1.1-.2l.6-.6c.2-.2.3-.5.8-.3 0-.2.1-.5.3-.6.2-.2.4-.4.5-.6.2-.2.4-.6.9-.4v-1.6c.5.3.2-.6.7-.4v.8c.2 0 .4 0 .3-.4.3.1.3-.2.5-.4s.3-.5.8-.3c.3-.7-.5-.2-.3-.8.2 0 .4-.1.4-.3 0 0 0 0 0-.1.5.2.1-.6.6-.4v.8c.6-.3.1.6.7.4.2-.8-.4-.6-.3-1.2h.6c.1-.2.1-.5.4-.4v-.8c.2 0 .4 0 .3-.4.3.1.4-.2.5-.3l.2-.2v-.2h-.3v-.4h.3v.4c0-.1.3 0 .3 0 .1-.2 0-.6.1-.8.2 0 .4-.1.3-.4-.3-.1-.3.3-.5.4s-.4-.1-.5 0 0 .3-.2.4-.3-.1-.5 0c.1.2-.1.3-.1.4s-.3.2-.4.4c-.2-.3-.3-.6-.8-.4.1-.6-.5-.4-.3-1.2h1c0 .2 0 .5.3.4.1-.4-.2-.4-.3-.6s-.3-.2-.3-.6.3-.3.3-.4c.2-.2-.1-.9.4-.7v-1.2c.4.1.3-.2.4-.4s.3.1.3 0-.1-.8.2-.8.1-.5.5-.4v-1.5c.7.1.3-1.1.4-1.6.7.3 0-1.1.7-.8 0-.6 0-1.3.1-1.9.3 0 .3-.2.5-.4s.2-.4.5-.4v-1.9c.1-.1.3 0 .4 0 .1-.7-.1-2 0-2.8.2 0 .4 0 .4-.3.2 0 .6-.1.6.2.1.1-.1.1-.1.1-.4.3-.1.8-.2 1.2-.1.1-.3 0-.4 0-.2.3.2 1 0 1.2.3-.2.2.2.3.4s.5-.1.3.4c-.5.2-.1-.7-.6-.4 0 .5-.6.4-.4 1.1.3.1.4-.2.5-.3h.8c-.1-.7.6-.2.4-.8.2-.7-.5-.2-.3-.8.7.3 0-1.1.7-.8v-1.5c.5.2.2-.7.7-.4v-1c0-.3-.4-.2-.3-.6.2 0 .4 0 .4-.4-.2 0-.4 0-.4-.2.2-.3.3-.1.4-.6.1-.8-.2-2 .1-2.7 0-.1.5 0 .3-.4" fill="#07516f"/><image height="79" opacity=".16" overflow="visible" transform="translate(102 70.24)" width="503" xlink:href="1688D94536A6A909.png"/><path d="m568.6 113.2 3.8-17.4h-4.2l-1.4 6.6h-5.1l1.5-6.6h-4.2l-3.8 17.3h4.2l1.6-7.1h5l-1.5 7.1h4.1zm-20.6.3c2.7 0 5.2-1.6 6.5-4l-3.3-1.8c-.6 1.1-1.7 1.9-2.9 2-1.7 0-2.8-1.2-2.8-3.2 0-3.3 1.8-7.3 4.4-7.3 1.4 0 2.3 1.1 2.5 2.7l4-1c-.5-2.6-2.3-5.4-6.3-5.4-5.6 0-9 5.5-9 11.1-.2 3.6 2.5 6.6 6.1 6.8.2.1.5.1.8.1m-16.3-9.9.9-4h2.1c.8 0 1.5.6 1.6 1.4v.2c.1 1.3-.9 2.4-2.2 2.4-.1 0-.1 0-.2 0zm6.4 9.6-1.4-6.5c2.4-1 4-3.4 3.9-6 0-2.7-2.1-4.9-4.8-4.9-.1 0-.1 0-.2 0h-6.4l-3.8 17.3h4.2l1.3-6h1.7l1 6h4.5zm-18.4-6.3h-3.3l3.1-6.6zm4.5 6.3-1.3-17.4h-5.1l-8.9 17.3h4.7l1.2-2.7h4.9v2.7zm-16 0 .8-3.7h-6.2l.7-3.3h6l.8-3.7h-6l.7-3h6.2l.8-3.7h-10.4l-3.8 17.3zm-17.6.3c3.3.2 6.2-2.3 6.4-5.7 0-.1 0-.3 0-.4 0-4.4-6.2-4.9-6.2-6.8 0-.8.7-1.5 1.6-1.4h.1c1.4 0 2.8.6 3.8 1.7l2.4-3c-1.5-1.5-3.6-2.4-5.8-2.3-4 0-6.5 2.8-6.5 5.9 0 4.4 6.2 4.8 6.2 6.7 0 .9-.8 1.6-1.7 1.6-.1 0-.1 0-.2 0-1.7 0-3.3-.8-4.3-2.1l-2.4 3c1.2 1.7 3.7 2.7 6.6 2.8m-8.5-.4.8-3.7h-6.2l.7-3.3h6l.8-3.7h-6l.7-3h6.2l.8-3.7h-10.5l-3.8 17.3zm-19-9.6.9-4h2.1c.8 0 1.5.6 1.6 1.5v.2c.1 1.3-.9 2.4-2.2 2.4-.1 0-.1 0-.2 0zm6.4 9.6-1.4-6.5c2.4-1 4-3.4 3.9-6 0-2.7-2.1-4.9-4.8-4.9-.1 0-.1 0-.2 0h-6.4l-3.8 17.3h4.2l1.3-6h1.7l1 6h4.5zm-20.9 0 3.8-17.3h-4.2l-2 8.9-3-8.9h-4.2l-3.8 17.3h4.2l2.1-9.3 3.2 9.4zm-16.2 0 3.8-17.3h-4.2l-3.8 17.3zm-16.7.3c3.3.2 6.2-2.3 6.4-5.6 0-.2 0-.3 0-.5 0-4.4-6.2-4.9-6.2-6.8 0-.8.7-1.5 1.6-1.4 1.4 0 2.8.6 3.8 1.7l2.4-3c-1.5-1.5-3.6-2.4-5.8-2.3-4 0-6.4 2.8-6.4 5.9 0 4.4 6.2 4.8 6.2 6.7 0 .9-.8 1.6-1.7 1.6h-.1c-1.7 0-3.3-.8-4.3-2.1l-2.5 3c1.7 1.9 4.1 2.9 6.6 2.8m-9-.3 3.9-17.3h-4.1l-2 9-3-9h-4.3l-3.8 17.3h4.2l2.1-9.4 3.2 9.4zm-22-3.4c-1.7 0-2.8-1.3-2.8-3.2 0-3.4 1.8-7.3 4.4-7.3 1.7 0 2.8 1.3 2.8 3.2 0 3.4-1.8 7.3-4.4 7.3m-.2 3.7c5.7 0 9-5.7 9-11.1.2-3.6-2.6-6.6-6.2-6.8-.2 0-.5 0-.7 0-5.7 0-9 5.7-9 11.1-.2 3.6 2.5 6.6 6.1 6.8zm-10.5-.3 3.9-17.3h-4.2l-3.8 17.3zm-9.8 0 3-13.7h3.7l.8-3.7h-11.6l-.8 3.7h3.7l-3 13.7zm-11.2-6.3h-3.2l3.1-6.6zm4.5 6.3-1.2-17.3h-5.1l-8.9 17.3h4.7l1.2-2.7h4.9v2.7zm-19.5 0 9-17.3h-4.7l-5.8 12.4-.4-12.4h-4.4l1.3 17.3zm-16.3-3.3c-1.7 0-2.8-1.3-2.8-3.2 0-3.4 1.8-7.3 4.4-7.3 1.7 0 2.8 1.3 2.8 3.2 0 3.4-1.8 7.3-4.4 7.3m-.3 3.7c5.7 0 9-5.7 9-11.1.2-3.6-2.6-6.6-6.2-6.8-.2 0-.5 0-.7 0-5.7 0-9 5.7-9 11.1-.2 3.6 2.5 6.6 6.1 6.8zm-10.4-.3 3.8-17.4h-4.2l-2 8.9-3-8.9h-4.3l-3.8 17.3h4.2l2.1-9.4 3.2 9.4zm-16.2 0 3.8-17.4h-4.1l-2 9-3-9h-4.3l-3.8 17.3h4.2l2-9.4 3.2 9.4zm-16.2 0 3.9-17.4h-4.2l-3.8 17.3zm-16.5-12.4c0-1.4.7-2.5 1.5-2.5.5 0 .9.3.9 1.1 0 1.1-1 1.8-2.3 2.4-.1-.3-.1-.7-.1-1m-2 9.8c-1 0-1.7-.8-1.7-1.8 0-.1 0-.1 0-.2 0-1.1.5-2.1 1.4-2.7.3.6.5 1.3.8 2s.6 1.4 1 2.1c-.5.4-1 .6-1.5.6m7.3 2.6c-.7-1.1-1.2-2-1.7-3 1.1-1.2 2.1-2.6 3-4l-2.6-1.6c-.5 1-1.1 1.9-1.7 2.8-.3-.5-.5-1.1-.8-1.7s-.4-.9-.6-1.4c2.4-1.1 4.8-2.2 4.8-5.1 0-2.4-1.8-3.6-4.1-3.6-2.8 0-5 2.2-5 5v.2c0 .8.1 1.7.3 2.5-2.3 1.1-4.5 2.6-4.5 5.9 0 3 2.1 4.3 4.9 4.3 1.3 0 2.5-.4 3.6-1 .2.2.3.5.4.7zm-25.5.3c3.3.2 6.2-2.3 6.4-5.6 0-.2 0-.3 0-.5 0-4.4-6.2-4.9-6.2-6.8 0-.8.7-1.5 1.5-1.4h.1c1.4 0 2.8.6 3.8 1.7l2.4-3c-1.5-1.5-3.6-2.4-5.8-2.3-4 0-6.4 2.8-6.4 5.9 0 4.4 6.2 4.8 6.2 6.7 0 .9-.8 1.6-1.7 1.6h-.1c-1.7 0-3.3-.8-4.3-2.1l-2.4 3c1.6 1.9 4 2.9 6.5 2.8m-8.5-.3.8-3.7h-6.2l.7-3.3h6.1l.8-3.7h-6l.7-3h6.2l.8-3.7h-10.4l-3.8 17.3zm-17.6.3c2.7 0 5.2-1.6 6.5-4l-3.3-1.8c-.6 1.1-1.7 1.9-2.9 2-1.7 0-2.8-1.2-2.8-3.2 0-3.3 1.8-7.3 4.5-7.3 1.4 0 2.3 1.1 2.5 2.7l4-1c-.5-2.6-2.3-5.4-6.3-5.4-5.6 0-9 5.5-9 11.1-.2 3.6 2.5 6.6 6.1 6.8.1.1.4.1.7.1m-10.5-.3 3.9-17.4h-4.2l-2 8.9-3-8.9h-4.3l-3.8 17.3h4.2l2.1-9.4 3.2 9.4zm-19.1-6.3h-3.2l3.1-6.6zm4.5 6.3-1.2-17.4h-5.1l-8.9 17.4h4.7l1.2-2.7h4.9v2.7zm-19.5 0 9-17.4h-4.7l-5.8 12.4-.4-12.4h-4.4l1.3 17.3zm-18.8-3.7 2.2-10h1.8c1.6 0 2.7 1.2 2.7 3.2 0 3.1-1.6 6.8-4.9 6.8zm1.1 3.7c7.5 0 9.9-6 9.9-10.7.2-3.5-2.5-6.5-6-6.7-.1 0-.2 0-.3 0h-6l-3.8 17.3h6.2zm-11.7-6.3h-3.2l3.1-6.6zm4.4 6.3-1.3-17.4h-5.1l-8.9 17.3h4.7l1.2-2.7h4.9v2.7z" fill="#fff"/><image height="113" opacity=".16" overflow="visible" transform="translate(105 6.24)" width="498" xlink:href="1688D94536A6A90F.png"/><path d="m552 73.2c-4.9 0-6.5-5.7-6.5-15.4s1.6-15.3 6.5-15.3 6.5 5.5 6.5 15.3-1.6 15.4-6.5 15.4m0 10.9c13 0 18.9-12.8 18.9-26.2s-5.9-26.2-18.9-26.2-19 12.7-19 26.1 6 26.3 19 26.3m-23.4-.9v-10.7h-16.9c12-11.3 16.5-17.3 16.5-24.6 0-9.7-7.5-16.1-18.2-16.1-7.1-.1-13.8 3-18.2 8.4l7.2 7.8c3-3.5 6.5-5.4 10.9-5.4 3.5 0 6 2.2 6 5.4 0 4.9-3 7.8-22.4 25.3v9.9zm-59-10c-4.9 0-6.5-5.7-6.5-15.4s1.6-15.3 6.5-15.3 6.5 5.5 6.5 15.3-1.6 15.4-6.5 15.4m0 10.9c13 0 18.9-12.8 18.9-26.2s-5.9-26.1-18.9-26.1-19 12.7-19 26.1 6 26.2 19 26.2m-23.4-.9v-10.7h-16.9c12-11.3 16.5-17.3 16.5-24.6 0-9.7-7.5-16.1-18.2-16.1-7.1-.1-13.8 3-18.2 8.4l7.1 7.8c3-3.5 6.5-5.4 10.9-5.4 3.5 0 6 2.2 6 5.4 0 4.9-3 7.8-22.4 25.3v9.9zm-66.3 0v-40h10.8v-10.7h-34v10.7h10.9v40zm-28.7-50.7h-12.4v50.7h12.3zm-20.4 50.7v-50.7h-16.2l-8.7 25.4-8.6-25.3h-16.3v50.7h12.3v-30.2l10.2 30.1h4.8l10.3-30.1v30.1zm-57.8 0v-50.7h-16.2l-8.7 25.4-8.6-25.3h-16.3v50.7h12.3v-30.2l10.2 30.1h4.8l10.3-30.1v30.1zm-77.7.9c12.1 0 19.8-6.9 19.8-18.9v-32.7h-12.4v32.8c0 5.1-2.7 8.1-7.5 8.1s-7.5-3-7.5-8.1v-32.8h-12.4v32.7c.1 12 7.9 18.9 20 18.9m-43.7 0c11.5 0 18.2-6.5 18.2-16.2 0-17-22.4-15-22.4-21.7 0-2.3 1.7-3.9 4.8-3.9 4.1 0 8 1.5 11 4.2l5.7-9.1c-4.5-3.9-10.3-5.9-16.3-5.8-11.5 0-17.8 7.5-17.8 15.6 0 17.6 22.5 14.6 22.5 21.9 0 2.5-2.2 4.3-5.8 4.3-4.7 0-9.2-2-12.4-5.4l-5.9 9.4c4.3 4.2 10.1 6.7 18.4 6.7" fill="#07516f"/><path d="m0 0h572.7v126.2h-572.7z" fill="none"/></svg>