<svg xmlns="http://www.w3.org/2000/svg" xmlns:xlink="http://www.w3.org/1999/xlink" width="602.4" height="156.238" viewBox="0 0 602.4 156.238">
  <defs>
    <style>
      .cls-1 {
        fill: #07516f;
      }

      .cls-2 {
        fill: #fff;
      }

      .cls-3 {
        fill: none;
      }

      .cls-4 {
        filter: url(#Path_11);
      }

      .cls-5 {
        filter: url(#Path_10);
      }

      .cls-6 {
        filter: url(#Path_9);
      }
    </style>
    <filter id="Path_9" x="0" y="0" width="149.3" height="156.238" filterUnits="userSpaceOnUse">
      <feOffset dy="5" input="SourceAlpha"/>
      <feGaussianBlur stdDeviation="5" result="blur"/>
      <feFlood flood-opacity="0.161"/>
      <feComposite operator="in" in2="blur"/>
      <feComposite in="SourceGraphic"/>
    </filter>
    <filter id="Path_10" x="130.89" y="95.488" width="471.51" height="48.095" filterUnits="userSpaceOnUse">
      <feOffset dy="5" input="SourceAlpha"/>
      <feGaussianBlur stdDeviation="5" result="blur-2"/>
      <feFlood flood-opacity="0.161"/>
      <feComposite operator="in" in2="blur-2"/>
      <feComposite in="SourceGraphic"/>
    </filter>
    <filter id="Path_11" x="133.21" y="31.682" width="467.7" height="82.447" filterUnits="userSpaceOnUse">
      <feOffset dy="5" input="SourceAlpha"/>
      <feGaussianBlur stdDeviation="5" result="blur-3"/>
      <feFlood flood-opacity="0.161"/>
      <feComposite operator="in" in2="blur-3"/>
      <feComposite in="SourceGraphic"/>
    </filter>
  </defs>
  <g id="logo_mtg" transform="translate(14.97 10.019)">
    <g class="cls-6" transform="matrix(1, 0, 0, 1, -14.97, -10.02)">
      <path id="Path_9-2" data-name="Path 9" class="cls-1" d="M464.57,397.71l-.1.1Zm44.7-20.2h.3v-.3h-.3Zm-1.1,38h.3v.3h-.3Zm-38-16.7h-.3v-.3h.3Zm10.7-17.7h.3v.3h-.3Zm3-1.8h-.3V379h.3Zm-10.7,28.4h.3v.3h-.3Zm31.7-36.2h-.3v-.3h.3Zm-36-18.4h.3v.3h-.3Zm37.9,55.6h.3v-.3h-.3Zm-37.4,1.5h.3v.3h-.3Zm.9-8.9c0,.3-.2.3-.4.3.1-.1.1-.4.4-.3m42.6-38.5c0-.1.2-.2.4-.1-.2.2-.3.6-.4.1m-8.7,18.6a.37.37,0,0,0,.1-.3h.3v.3ZM473.77,419h-.4a.37.37,0,0,0,.1-.3h.3Zm-.4-6a.37.37,0,0,0-.1.3H473V413Zm-.7-17.6c.1.5.2.1.4-.1-.2-.1-.4,0-.4.1m-9.1-1.5h-.3a.37.37,0,0,1-.1.3h.4Zm10.5-29.5h-.4a.37.37,0,0,0,.1-.3h.3Zm-8.1,41.1v-.3h.4a.37.37,0,0,0-.1.3Zm40.6,21.7h-.3a.37.37,0,0,1-.1.3h.4ZM470,397.71v-.3h.4a.37.37,0,0,0-.1.3Zm34.8-28.7h-.3v-.3h.4a.37.37,0,0,0-.1.3m-39.3,20.2h-.3v-.3h.4a.37.37,0,0,0-.1.3m6.2,25.9h-.3v-.3h.4a.37.37,0,0,0-.1.3m35.5,9.6h-.3a.37.37,0,0,1-.1.3h.4Zm-34.7-62.4a.37.37,0,0,0,.1-.3h.3v.3Zm35,60.3h-.4v.3h.3a.37.37,0,0,1,.1-.3m.7,10.2v-.3h.4a.37.37,0,0,0-.1.3Zm-32.1-46.4h-.4a.37.37,0,0,0,.1-.3h.3Zm-13.7,43.2h-.3v-.3h.4a.37.37,0,0,0-.1.3m43.3-10.9h-.3a.37.37,0,0,1-.1.3h.4Zm-39.5-52.8h-.4v.3h.3a.37.37,0,0,1,.1-.3m8,42.1h-.3v-.3h.4a.37.37,0,0,0-.1.3m-.2-52.4a.37.37,0,0,0-.1.3h-.3v-.3Zm-5.8,3.9v.3h-.4a.37.37,0,0,0,.1-.3Zm43.9,4.2h-.4a.37.37,0,0,0,.1-.3h.3Zm-1.7,68.1h.4a.37.37,0,0,0-.1.3h-.3Zm-39.7-13.5h-.4c0-.1.1-.2.1-.3h.3Zm1.6-53.9H472v-.3h.4c0,.1-.1.2-.1.3m-1.6,29.8h-.4c0-.1.1-.2.1-.3h.3Zm36.2,12.8c-.2.3.3.2.4.3-.2-.2,0-.5-.4-.3m.8-48.9v.3h-.4c0-.1.1-.2.1-.3ZM477,412.31h.3v.3h-.4c0-.1.1-.2.1-.3m30.2,26.2h.4v-.3h-.3c0,.1-.1.2-.1.3m-46.6-22.3h-.3c0,.1-.1.2-.1.3h.4Zm14-32.6h.4c0,.1-.1.2-.1.3h-.3ZM463.17,436h-.4c0-.1.1-.2.1-.3h.3Zm1.4-20.9h-.3v-.3h.4c0,.1-.1.2-.1.3m5.9-25.9v-.3h.4c0,.1-.1.2-.1.3Zm39.3,27.7h.4c0,.1-.1.2-.1.3h-.3Zm1.6-39.4H511c0-.1.1-.2.1-.3h.3ZM479.07,357h.4c0,.1-.1.2-.1.3h-.3Zm30.8,24.4h.4v-.3H510a.37.37,0,0,0-.1.3M466.77,397h-.3v-.3h.4a.37.37,0,0,1-.1.3m43.3-24.4h.4a.37.37,0,0,1-.1.3h-.3Zm-46.1,62h-.3v-.3h.4a.37.37,0,0,1-.1.3m-.1-19.1a.37.37,0,0,1-.1.3h-.3v-.3Zm12.5-53.2h-.3V362h.4a.37.37,0,0,1-.1.3m.1-7.8h-.3v-.3h.4a.37.37,0,0,1-.1.3m30.5,62.4h-.4v.3h.3a.37.37,0,0,0,.1-.3m-33.1-2.1a.37.37,0,0,1-.1.3h-.3v-.3Zm-10.6-.4h.3a.37.37,0,0,0,.1-.3h-.4Zm.6-2.5h.3a.37.37,0,0,0,.1-.3h-.4Zm6-51h.3v.3h-.4a.37.37,0,0,1,.1-.3m-6.4,7.1h.3v.3h-.4a.37.37,0,0,1,.1-.3m39.2-12.8h.3a.37.37,0,0,0,.1-.3h-.4Zm-27.6-7.4v.3h-.4a.37.37,0,0,1,.1-.3Zm32.1,73.7h-.3a.37.37,0,0,0-.1.3h.4Zm-42-1.4a.37.37,0,0,1-.1.3h-.3v-.3Zm4.8-19.2v-.3h.4a.37.37,0,0,1-.1.3Zm-.9-1.7h-.3a.37.37,0,0,0-.1.3h.4Zm6.1-41.9V357h.4a.37.37,0,0,1-.1.3Zm39.1-15.2h.4v-.3h-.3a.37.37,0,0,0-.1.3m-41.5,27.7h.4v.3h-.4Zm-.7-3.2h-.3v-.4h.3Zm-7.8,62H464v-.4h.3Zm44.5-15.3h-.4V413h.4Zm-.5-40.7h.4v.3h-.4Zm2.6,2.8h.3v.4h-.3Zm-41,40.1h-.3v-.4h.3Zm38.1-5h.3v.4H508Zm.5-8.5h-.3v-.4h.3ZM465,373.61h.4v-.3H465Zm-.2,43.6h-.4v-.3h.4Zm48-49.6h-.4v-.3h.4Zm-8,63.5h-.3v-.4h.3Zm-33.2-42.2c-.3.1-.3-.1-.3-.4.1.1.5,0,.3.4m33.4-31.6h-.4V357h.4Zm4.1,53.2h-.4v-.3h.4Zm-.6,18.8h.4v.3h-.4Zm-45.4-19.5h.3v-.4h-.3Zm44.6-13.8h-.3v-.4h.3Zm-35.9-23.4h.4v.3h-.4Zm7.2,9.6h-.3v-.4h.3Zm28.6,18.7h-.4v-.3h.4Zm-44.3,16.7c-.3.1-.3-.1-.3-.4.1.1.5-.1.3.4m46.1-20.6h.3v.4h-.4c.1-.1.1-.2.1-.4m-1.6-43.2h-.4c.1-.1.1-.2.1-.4h.3Zm-35.4,30.8h.3v.4h-.4c.1-.1.1-.2.1-.4m-6.1,24.8h.3v.4h-.4c.1-.1.1-.2.1-.4m2.8-20.9h-.3c0,.2,0,.3-.1.4h.4Zm4.8-38.9v-.4h.4c-.1.1-.1.2-.1.4Zm31.4,83.6h-.4c.1-.1.1-.2.1-.4h.3Zm-33.5-36.5h.4v-.4h-.3c0,.2,0,.3-.1.4m36.7-5.3a.6.6,0,0,0,.1-.4h.3v.4Zm6.9-52.5H515v.4h.3a.6.6,0,0,1,.1-.4M461.47,408h-.4v.4h.3a.6.6,0,0,1,.1-.4m7.4-44.3a.6.6,0,0,0-.1.4h-.3v-.4Zm-5.6,44h.3a.6.6,0,0,1,.1-.4h-.4Zm40.9-11.7v-.4h.4a.6.6,0,0,0-.1.4Zm-28.9-12.1h.3v.4h-.4a.6.6,0,0,0,.1-.4m27.9,48.6h.4v-.4h-.3a.6.6,0,0,1-.1.4m-28.3-72.7v.4h-.4a.6.6,0,0,0,.1-.4Zm28,30.9h.4v-.4H503a.76.76,0,0,1-.1.4m-21.4-8.5h-.4a.76.76,0,0,0,.1-.4h.3Zm-3.2,0h-.4a.76.76,0,0,0,.1-.4h.3Zm-14.1-24.5v-.4h.4a.76.76,0,0,0-.1.4Zm42.1,48.2H506a.76.76,0,0,1-.1.4h.4Zm-30.2-40.4h-.3v-.4h.4a.76.76,0,0,0-.1.4m29.3-12.1a.76.76,0,0,0-.1.4H505v-.4Zm-.2,52.9h.4v-.4h-.3a.76.76,0,0,1-.1.4m-30.3-39.7a.76.76,0,0,0,.1-.4h.3v.4ZM468,410.2h.3c0-.2.1-.3.1-.4H468Zm-1.2-61h.4c0,.1-.1.2-.1.4h-.3Zm2.8,17.4h-.3v-.4h.4c0,.1-.1.2-.1.4m-.3,48.2v-.4h.4c0,.1-.1.2-.1.4ZM511.4,374H511c0-.1.1-.2.1-.4h.3Zm-48.6-3.2h.4c0,.1-.1.3-.1.4h-.3Zm-.9,53.9v-.4h.4c0,.1-.1.3-.1.4Zm.6,3.9h-.3v-.4h.4c0,.1-.1.3-.1.4m44-48.6h-.3c0,.1-.1.3-.1.4h.4Zm-31.6-12.7v-.4h.4c0,.1-.1.3-.1.4Zm33.8,60.2v.4h-.4c0-.1.1-.3.1-.4Zm-.4,7.8h.3v.4h-.4c0-.1.1-.3.1-.4m-39.5-36.8h.4v-.4h-.3c0,.1-.1.2-.1.4m37.8-16h-.3c0,.1-.1.2-.1.4h.4Zm2.6,23h.4c0,.2-.1.3-.1.4h-.3ZM469,344.91h.4c0,.2-.1.3-.1.4H469Zm44.8,12.8h.3c0-.1.1-.2.1-.4h-.4Zm-51.4,68.4h-.3v-.4h.4c0,.2-.1.3-.1.4m44.7-55.6h-.3v-.4h.4a.76.76,0,0,1-.1.4m-40.8,38.6a.76.76,0,0,1,.1-.4h.3v.4Zm-1.5-44v.4h-.4a.76.76,0,0,1,.1-.4Zm2.5-6.7h-.4v.4h.3a.76.76,0,0,0,.1-.4m44.7,20.2a.76.76,0,0,1-.1.4h-.3v-.4Zm-3.4-15.6h.4a.6.6,0,0,1-.1.4h-.3Zm-36.7,33h.4v-.4H472a.6.6,0,0,0-.1.4m.8-28.4v.4h-.4a.6.6,0,0,1,.1-.4Zm33.7,0H506v.4h.3a.6.6,0,0,0,.1-.4m-28.6-35.4h-.4a.6.6,0,0,1,.1-.4h.3Zm-2.7,73.7h-.3v-.4h.4c0,.2,0,.3-.1.4m-2,19.5h-.3V425h.4c0,.2,0,.3-.1.4m33.2-60.3h-.4v.4h.3c.1-.1.1-.2.1-.4m-40.5,72.7h-.3v-.4h.4c0,.2,0,.3-.1.4m38.9-84.7v-.4h.4c0,.2,0,.3-.1.4Zm-42,18.4h.4v.4h-.4Zm12.3-12h-.4v-.4h.4ZM467.1,408h.4v.4h-.4Zm-6.1,1.1h.4v-.4H461Zm41.6-45.7h-.4V363h.4Zm-.3,6.4h-.4v-.4h.4Zm1.5,74.4h.4v-.4h-.4Zm-26.6-85.4h-.4v-.4h.4Zm-.6-5.4h.4v.4h-.4Zm26.2,24.9h.4v-.4h-.4Zm4.3,23.7h-.4v.4h.4Zm.3-20.2H507v.4h.4Zm-.8,28.4h.4v-.4h-.4Zm-.2-29.1h.4v-.4h-.4Zm-1.6-8.9h.4v.4h-.4Zm-36.1,24.1h-.4v.4h.4Zm6.9-42.5h-.4v-.4h.4Zm35.5,43.6h.4V397h-.4ZM463.37,424H463v-.4h.4Zm40.6-68.1h.4v.4H504Zm-38.6,41.7c.1-.3-.7-.3-.7,0,0,.1,0,.1-.1.1.3,0,.7.1.8-.1m40.2,22.8h.7v-.3h-.7Zm-31.9-31.2h.7v-.3h-.7Zm-10,38.7c0,.1-.1.2-.1.3h-.7c0-.1.1-.2.1-.3Zm12.1-76.6a.37.37,0,0,1-.4.4c0,.3-.2.3-.4.3,0-.2.1-.3.2-.3s.3-.4.6-.4m29.4,37.9h.7c0-.1.1-.2.1-.3h-.7a.37.37,0,0,0-.1.3m-40.6-15.4c.1-.1,0-.3.1-.5-.6-.2-.3.5-.4.7,0,0,.3-.1.3-.2m-.8,1.3v.3H463a.37.37,0,0,0,.1-.3Zm1.9,32.9v-.3h.8a.37.37,0,0,0-.1.3Zm4.9-19.8h.7q-.15.3,0,.3c-.3,0-.9.2-.7-.3m-.5,4.9c0-.2.1-.3.2-.3s.2-.4.6-.4a.37.37,0,0,1-.4.4c0,.3-.2.3-.4.3m-.7,16.7a1.7,1.7,0,0,0,.1-.7h.4a1.7,1.7,0,0,0-.1.7Zm2.6-14.9h.4a1.7,1.7,0,0,1,.1-.7h-.4a1.7,1.7,0,0,1-.1.7m37.7-1.4h.4a1.7,1.7,0,0,1,.1-.7h-.4a1.7,1.7,0,0,1-.1.7m-6.5-42.9h-.4a1.7,1.7,0,0,1-.1.7h.4a1.7,1.7,0,0,1,.1-.7m-37.5,9.2h.4a2,2,0,0,0-.1.7h-.4a1.48,1.48,0,0,0,.1-.7m-5.3,48.2a1.48,1.48,0,0,1-.1.7h.4a2,2,0,0,1,.1-.7Zm15-52.4a1.48,1.48,0,0,0-.1.7h-.4a2,2,0,0,0,.1-.7Zm-12,43.6h.4a1.48,1.48,0,0,1,.1-.7h-.4a2,2,0,0,1-.1.7m-.1,1h.4a2,2,0,0,1,.1-.7h-.4a1.48,1.48,0,0,1-.1.7m39.7,30.9h.4a1.48,1.48,0,0,1,.1-.7h-.4a2,2,0,0,1-.1.7m-29.9-60.3h.3v.7H473c0-.2.1-.4.1-.7m40.5-35.4h-.4v.7h.3c0-.3.1-.5.1-.7m-7.9,80.4v-.7h-.3c0,.3-.1.5-.1.7Zm-43.9,6c0-.2.1-.4.1-.7h.3v.7Zm3.8-12.7c0-.2.1-.5.1-.7h.3v.7Zm9.5-67.7v-.7h.4c0,.2-.1.5-.1.7Zm-5.7,65.2c0-.2.1-.5.1-.7h.3v.7Zm-8.8,2.5h-.3c0,.2-.1.5-.1.7h.4Zm48.2,24.8h-.4c0-.2.1-.5.1-.7h.3Zm1.4-62.4h.4c0,.3-.1.5-.1.7h-.3Zm-7.3,40.1h.4v-.7H503c0,.2-.1.4-.1.7m7.3-33.3h-.3c0,.2-.1.4-.1.7h.4Zm-1.5,46c0,.3-.1.5-.1.7h-.3v-.7Zm-38.3-20.9h.4c0,.3-.1.5-.1.7h-.3Zm-8.2-9.5a2,2,0,0,1-.1.7h-.3a1.48,1.48,0,0,1,.1-.7Zm7.4,14.1a1.48,1.48,0,0,1-.1.7h-.3a2,2,0,0,1,.1-.7Zm-6.1-12.7h.3a2,2,0,0,0,.1-.7h-.3a1.48,1.48,0,0,0-.1.7m47-2.2h.3a1.48,1.48,0,0,0,.1-.7h-.3a2,2,0,0,0-.1.7m-40.9-5.6h-.3a1.48,1.48,0,0,0-.1.7h.3a2,2,0,0,0,.1-.7m39-10.3h.3a1.7,1.7,0,0,0,.1-.7h-.3a1.7,1.7,0,0,0-.1.7m-.8,31.9a1.7,1.7,0,0,1,.1-.7h.3a1.7,1.7,0,0,1-.1.7Zm-46.3-8.5h-.3a1.7,1.7,0,0,0-.1.7h.3a1.7,1.7,0,0,0,.1-.7m2.5-31.2a1.7,1.7,0,0,1-.1.7h-.3a1.7,1.7,0,0,1,.1-.7Zm47.7,18.8h-.3a1.7,1.7,0,0,0-.1.7h.3a1.7,1.7,0,0,0,.1-.7m-48.1,30.1a1.7,1.7,0,0,1,.1-.7h.3a1.7,1.7,0,0,1-.1.7Zm-.2-22.3h-.3a1.7,1.7,0,0,0-.1.7h.3a1.7,1.7,0,0,0,.1-.7M505,377.4c-.1-.2-.4-.2-.3-.6.3,0,.3.2.3.4.3-.1.4.1.4.3-.3.1-.4,0-.4-.1M461.67,419h-.3a1.7,1.7,0,0,1,.1-.7h.3a1.7,1.7,0,0,1-.1.7m-.8-16.3h.4c0-.2.1-.5.1-.7H461a1.7,1.7,0,0,1-.1.7m12.1-17h-.4a1.7,1.7,0,0,1-.1.7h.4c0-.2.1-.5.1-.7m2.3-26.2h.4c0,.2-.1.4-.1.7h-.4a2,2,0,0,0,.1-.7m33.5,39.7a2,2,0,0,1-.1.7h-.3v-.7ZM504.7,380h.4a1.48,1.48,0,0,1-.1.7h-.3Zm-42.3,4.6h.4a1.48,1.48,0,0,1-.1.7h-.3ZM508,410.2a2.2,2.2,0,0,0,.1-.8h.4a2.2,2.2,0,0,0-.1.8Zm-41.4-35.1v.7h-.4a1.48,1.48,0,0,1,.1-.7Zm-.6-31.6v-.7h.4a1.48,1.48,0,0,1-.1.7Zm3.1,17.7h.4a2.2,2.2,0,0,0-.1.8H469a2.2,2.2,0,0,0,.1-.8m37.2,65.3h.4a2.2,2.2,0,0,1,.1-.8h-.4a2.2,2.2,0,0,1-.1.8m-44.7-33.4h.7c0,.2,0,.3-.1.4h-.7c.1-.1.1-.2.1-.4m4.2-3.1h-.7v-.4h.7Zm6.1-21.7h.7v.4h-.7Zm31.2,41.1h-.3c0,.3-.1.5-.1.8h.4Zm1.3-60.6h.7v.4h-.7Zm3.8,63.5c-.1.3,0,.9-.5.7.2-.2-.2-1,.5-.7m7-51.1c0,.2,0,.3-.1.4h.8v-.4Zm-6.8,4.3h.7a.76.76,0,0,1-.1.4h-.7c0-.2.1-.3.1-.4m-38.3,48.6h-.8a.76.76,0,0,0,.1-.4h.7Zm35.5,23v-.4h.8a.76.76,0,0,0-.1.4Zm-29.8-75.9h-.7a1.479,1.479,0,0,0,.1-.7c.3,0,.3.2.3.4.3-.1.3.1.3.3M508,434.3h-.3v-.8h.4a2.2,2.2,0,0,1-.1.8m-42.6-12.8c-.3.1-.3-.1-.3-.4-.3.1-.3-.1-.3-.3h.7a1.7,1.7,0,0,0-.1.7m40-26.9a.37.37,0,0,1-.1.3h-1v-.3Zm-36.9-47.9c.3-.1.3.2.3.4.3-.1.3.1.3.3h-.7c0-.2.1-.4.1-.7m37.4,49.8v-.3c0-.3-.4-.2-.7-.2-.2.5.5.1.3.7,0-.1.3,0,.4-.2m-36.7,8.7c0-.3.2-.3.4-.4.1-.3-.1-.8.4-.7a1.48,1.48,0,0,1-.1.7c-.5-.2-.2.6-.7.4m36.1-13.5c0,.2,0,.4.3.4a2,2,0,0,0,.1-.7H505c0,.2,0,.4.3.3m-29.7-21.6c-.5.2-.2-.4-.2-.7.5.2.2-.6.7-.4,0,.5-.6.4-.5,1.1m29,8.2c.6-.2.1.7.2,1-.6.2-.2-.7-.2-1m-42.9,17c0,.3-.2.3-.4.3,0-.2.1-.5.1-.7h.7c0,.3-.2.3-.4.4M509,431.4c-.6.2-.1-.6-.6-.3,0-.4-.1-.9.4-.7-.3.7.3.5.2,1m-47.8-20.9c-.1-.4.4-1.2-.2-1.1,0,.4-.4,1.3.2,1.1m44.2-23a.37.37,0,0,0,.4-.4h-.7c0,.3-.1.5-.1.7.2,0,.4,0,.4-.3m.4,37.5c.1.4-.4,1.3.2,1.1,0-.4.4-1.2-.2-1.1m-41.6-33.6c.3,0,.5-.1.4-.4h-.7v.7c.2,0,.4,0,.3-.3m.2,32.6c-.6.2,0-.6-.6-.4,0-.3-.1-.9.4-.7-.3.7.3.6.2,1.1m4.8-80.5c.6-.1.1.7.2,1.1-.6.2-.2-.7-.2-1.1M506,412.3c-.5-.2-.3.4-.4.7-.2,0-.4,0-.4.3.6.3.2-.5.8-.3Zm-41.4,3.5c.5,0,.2.6,1,.4.1.5-.4.3-.8.3.3-.5-.5-.1-.2-.7m-4.1-9.2c0-.4.5-1.2-.2-1.1.1.4-.4,1.3.2,1.1m4.7-13.8c.6-.2.1.7.2,1.1-.7.1-.2-.7-.2-1.1m-4.8,19.1c0,.4-.5,1.3.2,1.1-.1-.4.4-1.2-.2-1.1m6.4-59.5c.3-.1.4.1.4.3.3,0,.3.2.3.4h-.7ZM507,423.3c.1.3-.4,1.2.3,1-.1-.3.4-1.2-.3-1m7.6-83.7c0,.4-.4,1.3.2,1.1,0-.4.4-1.2-.2-1.1m-49.1,66.7c.7-.2.2.7.3,1-.7.2-.2-.7-.3-1M507.3,390c-.1-.4.4-1.3-.3-1.1.1.4-.4,1.2.3,1.1m-35.8-17.4c-.7.2-.2-.7-.3-1.1.7-.1.2.7.3,1.1m3.6-35.5c.7-.1.2.7.3,1.1-.7.2-.2-.7-.3-1.1m33.6,66.7c-.7.1-.2-.7-.3-1.1.7-.2.2.7.3,1.1m0-26.3c-.4.1-.1.9-.3,1.1.6.3.6-1,.3-1.1m-35.4-8.8c0-.2.1-.5.1-.7h1c.1.4-.2.3-.5.3s-.2.4-.6.4m31.8,14.9-.2,1.4h-.3c.2-.5-.2-1.5.5-1.4m-32.9,9.9h.3l.2-1.4c-.7-.1-.3,1-.5,1.4m-7.1,34h-.3c.2-.4-.2-1.5.5-1.4Zm8.6-7.1h-.8l.2-1c.3-.1.3.2.3.5s.3.2.3.5m-.1-54.5c-.1-.4.4-.3.4-.6s-.4-.2-.3-.5c.3-.1.3.1.3.3.3.1.9-.1.7.4-.7-.2-.6.4-1.1.4m30.9,26.9c.6-.2.1.6.7.3-.1.3,0,.7-.3.8s-.2.4-.6.3c0-.3.2-.3.4-.3a1.271,1.271,0,0,0,.1-.6c-.1-.2-.4-.2-.3-.5m3.4-22.7a7.082,7.082,0,0,0-.1,1.4h-.4c.2-.4-.2-1.5.5-1.4m-37.2,25.5c-.2.1-.2.4-.6.4a.37.37,0,0,1,.4-.4.9.9,0,0,0,.1-.5c-.1-.2-.4-.2-.3-.5.6-.3.1.5.7.3-.1.3,0,.7-.3.7m36.2,35.8c.4-.1.2.4.5.4s.2-.5.2-.7c-.2,0-.6-.1-.7.1s-.3.1-.4.2.1.3,0,.4a.37.37,0,0,0,.4-.4m-32.3-64.8c0,.2-.1.4-.1.7-.6.2-.1-.6-.7-.4a1.7,1.7,0,0,0,.1-.7c.6-.2.1.6.7.4m33.9,38.6a4.48,4.48,0,0,1-.1,1.1c-.4,0-.3-.3-.3-.6s-.4-.2-.3-.5Zm-35,17c-.3.1-.3-.1-.3-.4-.4.1-.4-.1-.4-.3.3.1.4-.1.4-.4.7-.1.2.7.3,1.1m-.1,1.1c-.7.1-.9-.1-.7-.7h.7ZM469,390c.2-.1.4-.1.4-.4-.6-.2-.2.6-.8.4.1.3-.4,1.2.3,1,0-.3.1-.7.1-1m1.1,26.9c.2-.5-.2-1.5.5-1.4,0,.4-.1.9-.1,1.4Zm4.4-56.4c.5-.2.4,1.1.2,1.5h-.3c.2-.3-.1-1,.1-1.5m32.8-9.2h.8a.37.37,0,0,1-.4.4c-.1.3.1.9-.5.7a4.1,4.1,0,0,0,.1-1.1M467,392.41c.7,0,0,1.3.1,1.8-.7,0,0-1.2-.1-1.8m-1.3,18.8c-.7,0,0-1.2-.1-1.8.7,0,0,1.3.1,1.8m41.3,8.9c.1.3-.4,1.2.2,1l.2-1.4h-.7c0,.2,0,.4.3.4m-33.9-11.7h.7a3.4,3.4,0,0,1-.1,1H473c0-.3.4-.2.4-.5s-.4-.2-.3-.5M471,391c-.5-.2-.2.6-.7.4-.2-.9.6-.6.5-1.4.6-.2.1.7.2,1m-10.4,12.1c0-.5.1-1,.1-1.5-.7-.1-.3,1-.5,1.5Zm8.2-45.4c.6-.2,0,.6.6.4a3.4,3.4,0,0,1-.1,1c-.4.1-.3-.2-.3-.5s-.4-.3-.2-.9m5,12.8c-.1-.2-.5,0-.3-.4h.7c-.1.5.6.4.3,1.1-.4.1-.2-.3-.3-.4s-.3.1-.4,0,.1-.3,0-.3m.5-.7h-.7c0-.6.6-.4.4-1.1h.7c0,.5-.6.3-.4,1.1m-3.9,44.3a6.152,6.152,0,0,0,.1-1.3c-.1-.2-.4-.2-.3-.5.6-.2.1.6.7.3-.2.5.2,1.6-.5,1.5m-.2-11.4h-.7a4.48,4.48,0,0,1,.1-1.1c.2.1.2.1.3,0-.1.6.6.4.3,1.1m37.5-30.5c-.2.4,0,.9-.2,1.4-.7.1,0-1.2-.1-1.7h.7c.1.3-.4.2-.4.3m-40.6-1.4c-.6-.2-.2.6-.8.4a.37.37,0,0,1,.4-.4l.2-1.4c.7-.1.1,1,.2,1.4m42.4,17.9c.1-.4.1-.5.4-.5s.4.2.3.5,0,.6-.4.5c-.3.1-.3-.2-.3-.5m-4.6-13.6c-.7,0-.1-1.3-.2-1.8.8,0,.1,1.2.2,1.8m3.5,42c.1.1.4.1.3.5-.6-.2-.2.6-.8.4l.2-1.5c.4-.1.3.3.3.6m.8-49.1c.3,0,.3-.2.4-.4.7,0,0,1.3.1,1.8-.6.2-.2-.6-.2-.9s-.4-.2-.3-.5m-6,41.1c.3-.7-.3-.6-.3-.9s.1-.7.1-1.2c-.6-.1-.3.9-.5,1.4.8-.3-.1,1,.7.7m-34,2.6c0-.1-.4-.1-.3-.5.6.2.2-.6.8-.3,0,.4-.4.2-.4.5s.3.1.3.2-.1.6-.1.9.4.1.3.5c-.4.1-.2-.4-.5-.4s0-.4-.1-.9m-.6-17.8a5.7,5.7,0,0,0,.1-1.3c0-.3.3-.7-.1-.9-.4.4-.2,1.5-.4,2.2.1-.1.4,0,.4,0m6.5-5c-.1.5,0,1.1-.1,1.6-.1.2-.5.1-.4.5.7.3.6-.3.8-.9,0-.4.2-1.4-.3-1.2m34.3,1.1h.7c-.1.5,0,.8-.3,1s-.2.4-.6.4Zm-3.5,40.7c0,.1.3,0,.4,0s-.1.5.3.4c0-.5.1-1,.1-1.5H506c.1.4-.2.8-.1,1.1m2.3-12c0-.1-.5-.1-.3-.4h.7c0,.5-.2.9-.1,1.2s.4.2.3.6c-.6-.2-.2.5-.8.3a11.138,11.138,0,0,0,.2-1.7m-2.7-1.1c.6-.2.1.6.7.4,0-.4.1-1,.1-1.5s.4-1.1-.2-1c-.2.5,0,1.1-.2,1.6-.1.2-.4.1-.4.5m-36.6-16.8c.1-.2-.1-.2-.3-.2,0,.2-.1.4-.4.3a22.844,22.844,0,0,0-.2,2.5c.5.1.3-.6.4-1s.1-1.2.2-1.5c0,0,.3.1.3-.1m4.1-14c-.2,0-.2.3-.2.5s.4.1.3.5c.2.6-.6.2-.4.7.5.3.2-.5.7-.3a14.921,14.921,0,0,0,.2-2.1c-.7,0,0,.7-.6.7m-6.5,30.8c-.7-.2-.6.4-1.1.4.3-.6-.6-.2-.3-.8.4-.1.2.4.5.4.4-.2.2-1.2.4-1.8.6-.2.2.6.2.9.2.2.5.3.3.9m6.3-5.7c.1-.1.2.1.3-.2a9.2,9.2,0,0,0,.2-1.9c.2,0,.3,0,.4.2a8.809,8.809,0,0,0-.2,1.7c-.2.6.1,1.2-.8.9.1-.1-.1-.5.1-.7m2.5-48.5c-.6.2-.3-.4-.3-.7-.5-.1-.4.6-1.1.3.1-.4,0-.7.1-1,0-.1.3,0,.4,0a.1.1,0,0,0-.1.1c0,.2.5.3.7.2s.1-.5.4-.3c-.1.3.1.3.3.3,0,.5-.6.4-.4,1.1m-1.4,54.9c-.6.2-.1-.6-.7-.3l.2-2.2c.5-.1.2.3.3.6.1.1.3.1.3.3,0,.5-.1,1.1-.1,1.6m32.1,5h.7c.1-.4-.2-.3-.3-.4s0-.3,0-.3c-.1-.2-.3,0-.3-.2s.1-.5-.2-.6-.1-.4-.5-.3c-.1.4.3.3.3.5s-.1.4,0,.6.5-.1.3.3c-.7-.1-.3,1-.5,1.4.6.2.2-.5.7-.3.3-.6-.5-.2-.2-.7m1.5,2.4c-.7-.1-.3,1-.5,1.5.1,0,.3,0,.3.1s-.2.2-.4.2a4.1,4.1,0,0,1-.1,1.1c-.2,0-.4,0-.4.3.6.3.2-.5.8-.3.1.3-.4,1.2.2,1-.1-.5.4-1.3.2-1.7,0-.1-.4,0-.3-.2s.4-.1.4-.5c-.7.1-.1-1-.2-1.5M466.07,404c0,.3-.4.1-.9.1-.2.1-.2.4-.5.4-.1-.4.2-.3.4-.4s0-.4.3-.3a2.771,2.771,0,0,0,.1-.9c-.1-.2-.4-.2-.3-.5s.1-.4.2-.4.3-.4.6-.4c.2.6-.6.2-.4.8.5,0,.4-.6,1.1-.4,0,.3-.2.3-.4.4,0,.3-.2.3-.4.3,0,.4-.1.7-.1,1.1.5,0,.4-.6,1.1-.4.1.8-.7,0-.8.6m-4.1-15.1s-.5-.1-.3-.4h.7l-.2,2.2c-.3.5.5.1.3.7-.1.1,0,.4-.1.5s-.3.1-.4.2.1.9-.4.7c-.1-1.2.6-2.9.4-3.9m4.7,23c-.2.6.6.2.3.7.2.4-.4.3-.4.4a6.245,6.245,0,0,1-.1,1.2c-.1.4.1,1.1-.5.9.2-1.2.3-2.3.4-3.5q-.3-.15-.3,0c0-.5.1-1,.1-1.4.6-.3.1.5.7.3,0,.3-.3.9.3.7.1.6-.6.2-.5.7m-2.3,12.4c0,.4-.1.7-.1,1.1-.2,0-.3,0-.4.2s.4.1.7.1a.37.37,0,0,1-.4.4c0,.3-.2.3-.4.4v.5c0,.2.4.1.7.2a1.48,1.48,0,0,0-.1.7c-.4.1-.2-.4-.5-.4s0-.2-.2-.3c0-.1-.2,0-.3,0s0-.5-.3-.4a4.48,4.48,0,0,1,.1-1.1c.3.1.3-.1.4-.3.2,0,.3,0,.3-.2-.2-.6-.3.4-.7.2,0-.4.4-.3.4-.5s-.4-.2-.3-.6c.3,0,.3.2.3.4.6.2.2-.6.8-.4m7.3-19.5c-.5-.2-.5.6,0,.4,0,.4-.4.2-.4.5s.3.1.3.2a5.541,5.541,0,0,1-.2,1.8l-.3.1c-.1.2,0,.4-.1.6.5.2.2-.6.7-.4,0-.3.2-.3.4-.3.2-.4-.3-.3-.3-.6a2.2,2.2,0,0,0,.1-.8h.4a15.007,15.007,0,0,1,.2-2.2h-1.1c-.2.6.6.2.3.7m3.8-8.8h-.7c-.3.5.5.1.2.7-.5,0-.4.6-1.1.3a4.335,4.335,0,0,0,.1-.5c0-.1-.3-.1-.3-.2-.1-.4.2-1,.1-1.7.4-.2.2.2.4.3s.4,0,.3.4c.5,0,.4-.6,1.1-.4a4.1,4.1,0,0,0-.1,1.1m-11.3,36.8c-.2.4.1.6-.1,1.1h-.7c0-.2.1-.5.1-.7.3.1.3-.1.4-.4s-.3-.2-.3-.3c-.2-.4.2-1,.1-1.6.1-.2-.3-.1-.3-.2-.2-.3.4-.9-.3-.7,0-.5.6-.3.5-1.1h.7c0,.6-.7.3-.5.9,0,.2.1.2.2.2s.2-.4.6-.4a.37.37,0,0,1-.4.4,13.664,13.664,0,0,0-.2,1.9l.3.4c.1.1.1.2.3.2.2.3-.3.2-.4.3m9.5-33.6c0-.1.5,0,.4-.2-.3-.2-.2-.2-.3-.7,0-.2-.4-.2-.3-.6.3.1.4-.1.4-.3H475c.1.5-.5.3-.8.3a2.77,2.77,0,0,1-.1.9c.2.2.5.4.3.9.5.2.2-.6.7-.3.1.4-.3.2-.4.5s-.3.1-.4.4c.2,0,.2.2.4.3,0,.1.1.2.3.2,0,.3-.1.7-.1,1-.4.2-.2-.3-.3-.3s-.6.1-.7,0,0-.5-.4-.4c.2-.5,0-1.3.2-1.7m-8.5,24.1c-.5.1-.2-.3-.3-.6s-.4-.1-.3-.5c-.6.2-.6-.2-.8-.4-.5.2-.2,1-.4,1.5-.7.2.2-1-.6-.7,0-.4.1-.8.1-1.1.5.3.3-.5.4-.7s.4,0,.4,0c.1-.3,0-.7.1-1.1.2.1.3,0,.4-.2s-.8,0-1.1-.1c-.1.5.6.3.3,1-.5.2-.2-.3-.3-.5s-.3-.1-.3-.4c-.2-.5.3-.4.4-.7-.2-.2-.5-.3-.3-.8.6-.2.3.3.3.7a4,4,0,0,1,1.1,0c-.1-.1.1.6.6.3-.2.6.6.2.3.7-.4.1-.2-.3-.5-.3s-.1,1-.3,1.4c-.3,0-.7-.1-.7.2s.4.1.7.1c-.2.4.2.3.3.4s-.1.5.3.3c-.3.9.5.6.2,1.5m43.1,15.2c0,.3-.2.3-.4.4-.3.5.6.1.3.7-.7-.1-.3.9-.5,1.4H507c0-.5.1-1,.1-1.4-.7-.1-.3,1.5-.6,2.1-.4.1-.2-.3-.4-.4-.5,0,.3-.6-.5-.7,0-.3.1-.7.1-1,.7-.3,0,.7.5.7.3,0,.1-.6.2-.9-.1-.2-.4-.2-.3-.5-.5-.3-.2.5-.7.3-.1-.6.2-.7.4-.9-.1-.2-.4-.2-.3-.5.4-.2.2.3.4.4,0,0,.2-.1.3,0s-.1.2,0,.3.3,0,.3,0c.1.2-.2.7.1.7s.2-.6.3-.9c-.2-.2-.5-.3-.3-.9h.9c.3-.2.4-.5.9-.3.1.3-.1.3-.3.3l-.2,1.1c.6.2.2-.6.8-.3,0,.3-.2.3-.4.3m-2.2-81.9c.1-.4-.3-.2-.3-.5-.2-.6.3-.4.4-.7-.1-.2-.4-.2-.3-.5.5.2.6-.6.1-.4-.1-.4.3-.2.4-.5s-.3-.1-.4-.2.5-1.2-.2-1.1c.2-.4-.1-1.1.1-1.4.1,0,.5.1.4-.2.1-.2-.3,0-.3-.1-.2-.5.3-1.3.1-1.8.6.2.4-.4.5-.7.5-.2.4,1,.2,1.4-.1.1-.6,0-.4.4-.2.3.2.2.3.3s0,.5.3.4c0,.5-.1,1-.1,1.6-.1.2.3.1.3.1.1.6-.3,2-.3,2.7,0,.2.2.1.4.2,0,.4-.4.2-.4.5-.4.7.4.3.2.9-.2,0-.3,0-.4.2s.3.1.4.1c.1.4-.3,1.1-.2,1.5-.7.2-.5-.4-1-.4,0-.3.2-.6.1-.9s-.3-.1-.3-.3c0-.4.1-.6.4-.6m5.1,26.6c-1.1.7.1-.4-.3-.7-.1-.1-.7.1-.7,0-.2-.2.2-.7-.1-.7-.5.3-.2.7-.3,1.1,0,0-.4,0-.4.1a1.486,1.486,0,0,1-.1.6c.6.2.2-.6.8-.4,0,.4-.1.7-.1,1.1-.6-.2-.9.1-.8.7-.3.1-.3-.1-.3-.4-.3.1-.3,0-.4-.1-.1-.3-.4-.3-.2-.9.6-.2.1.5.7.3,0-.3-.2-.3-.4-.3.1-.3-.1-.4-.3-.4l.2-1.6c.1-.2-.3-.1-.4-.2s.2-.7.2-1c.6-.2,0,.6.6.3a4.1,4.1,0,0,1-.1,1.1c.9.1-.1-1.9,1.2-1.4,0-.3.1-.5.1-.7-.5-.1-.4.6-1.1.3,0-.5.6-.3.5-1-.6-.2-.3.5-.5.7,0,0-.3-.1-.3,0-.2.1-.1.4-.4.3-.2-.5.6-.1.4-.7.3-.6-.5-.1-.3-.7a.19.19,0,0,1-.3,0l.4-3.9c.5,0,.3.6,1,.4.2-.6-.4-.3-.7-.4.1-.3-.1-.3-.3-.3a.37.37,0,0,1,.4-.4c0-.4.1-.7.1-1.1h.4c.1-.4-.3-.2-.3-.5s-.2-1.1.4-.9c.3-.6-.5-.1-.3-.7h.7l-.3,3.2c.5.2.4-.4.4-.7.6-.2.1.6.7.3l-.3,2.9c-.7,0,0-1.7-.1-2.3.1-.2,0-.2-.1-.2-.5.4-.3,1.8-.5,2.7.2.1.3.3.5.5.4.1-.1-1,.6-.7.2.8-.6.5-.5,1.2,0,.3.4.2.7.2,0,.3-.2.3-.4.4l-.2,1.6c0,.2.3,0,.4.1.1.3-.4.9.3.7a8.324,8.324,0,0,0-.2,1.3c0,.2.3,0,.4.2s-.3.7-.1,1m-40.3-18.4c.1-.4-.3-.3-.3-.5v-.6c.1-.3.3-.2.4-.5.1-.5-1,.2-.6-.5h.7c-.1-.4.4-1.3-.3-1.1,0-.4,1-.6.1-.7,0-.3.2-.3.4-.4.3-.5-.5-.1-.3-.7,0-.4.4-.2.4-.5a1.7,1.7,0,0,0,.1-.7c-.1-.2-.4-.2-.3-.5.7.1.3-.9.5-1.3-.1-.2-.4-.2-.3-.5-.2-.4.3-.3.4-.4.2-.3,0-.7.1-1.2s-1,.2-.6-.5c.7.2.6-.4,1.1-.4.1-.4-.4-.2-.3-.5v-.6c0-.4.4-.2.4-.5.4-.7-.4-.3-.2-.9.5.2.5-.6.4-.9s-.4-.1-.3-.5c.6.2.3-.5.5-.9-.1-.2-.4-.1-.4-.3s0-.5.1-.6.3.1.3,0c.2-.4-.1-1.1.4-1.4a.2.2,0,0,0,.2-.2c-.1-.1-.3-.1-.4-.3s.1-2,.6-1.6c.1-.5-.1-1.5.3-1.8.1,0,.2,0,.2-.2.3-.6-.4-.3-.2-.8,0-.1.3,0,.3,0a28.5,28.5,0,0,0,.3-2.9c.6.2.2-.6.7-.3,0,.1.1.3,0,.5s-.4.1-.4.2c-.5,1.5-.1,4.1-.6,5.6,0,.3,0,.3-.2.4s-.2,0-.2.2c.2.6.3-.4.8-.2.1.4-.4.2-.4.4-.2.2.1.8-.5.7.2.5-.6,2.1.2,2.1.1.3-.4.3-.4.3-.4,1-.2,2.9-.4,3.9-.1.3-.1.4-.4.4-.1.3.1.3.3.3.1.4-.4.3-.4.6.2.6.3-.4.7-.2-.1.5.6.3.3,1.1-.4.1-.2-.4-.5-.4s-.3.4-.3.5.4.2.4.4a12.252,12.252,0,0,0-.2,1.9c-.6-.3-.2.5-.5.8,0,0-.4-.1-.3.1-.2.5.8-.1.6.4.2.5-.3.4-.4.7-.3.7.5.3.3.9-.3-.1-.4.1-.4.3a.52.52,0,0,0-.4.2c-.3.6.2.4.3.7s-.1.6-.1.9-.4.3-.4.5c.2.7.3-.4.7-.1,0,.3-.2.3-.4.3.1.3-.2.4-.4.4.1.3-.2.9-.1,1.2s.3.1.3.4v.5c0,.3-.2.3-.4.4,0,.3-.4,1.2.2,1,.2.6-.6.2-.4.7-.3.6.6.2.3.7-.1.1-.4,0-.4,0-.4,1.4-.1,3.6-.5,5.2,0,.2.3.1.3.3v.6c-.8-.3-.7.5-1.5.3.3-.7-.3-.5-.2-1.1h.7c0-.3-.3-.2-.3-.5s.1-.7.1-1.2.4-.3.4-.6-.3,0-.3-.1c-.2-.3.3-.9-.3-.7-.2-.4.3-.3.4-.4a25.9,25.9,0,0,0,.4-4.1c0-.2-.4-.1-.3-.5.7.3.1-1,.8-.7m-2.3,46.1c-.4.1-.2-.4-.5-.4-.1-.1-.3.6-.2.7s.3,0,.3.4v.3c-.6.2-.1-.5-.7-.3l.2-2.5c-.5-.2-.2.6-.7.3,0-.3.2-.3.4-.3-.1-.3.1-.3.4-.4s-.2-1.1.1-1.4h.4c.2-.9,0-1.7.3-2.8-.7-.1-.4.8-.5,1.4s.1,1.5-.5,1.4c.2-.8,0-1.7.2-2.5v-.3c.1-.1.4,0,.4,0,.1-.2,0-.4.1-.5-.1-.3-.5-.2-.7-.2a25.838,25.838,0,0,1,.3-2.9c0-.2.1-.3.4-.3v-.7c-.5-.2-.2.5-.7.3,0-.4.1-.9.1-1.4h.7l.2-1.4c-.8-.3,0,1.3-.8,1.1.2-1.6.1-2.9.4-4.3v-.3c-.6,0-.2-1-.2-1.6a7.137,7.137,0,0,0,.2-2c0-.5-.2-.1-.2-.7.8.2,0-.5,0-.4.1-.3.3-.2.4-.5.3-.7-.4-.3-.3-.9h.8a3.4,3.4,0,0,1,.1-1c.2-.6-.6-.2-.3-.7.3.1.3-.3.4-.4s.8.2.7-.4c.5,0,.3.6,1,.4.2.5-.4.3-.7.4,0,.5-.6.3-.5,1,.8.3.1-1,.8-.7l-.7,7.3c0,.2.3.1.3.3-.2.4.2,1.4-.5,1.3-.1.4.3.2.3.5.1.7-.7.4-.5,1.2.7.1.2-1.1,1.2-.7.1.4-.3.3-.4.4s-.1.5-.4.3c-.1,1.3-.3,2.8-.5,4.3-.1,1.2-.7,4.2-.3,4.6.1.1.3,0,.2.2.2.5-.3.4-.4.7l.3.3c.1.1.1.3.3.2.1.4-.3.3-.4.5-.3.9,0,2.1-.3,3.1m-5.2-39c.6.1.9-.1.8-.7.5-.2.3.4.3.7.3,0,.3-.2.4-.4.2.1.3,0,.3-.2-.2-.2-.3-.6-1-.5,0-.4.4-.2.4-.5s-.7-.6.1-.5c.3-.6-.6-.2-.3-.8-.2-.3.4-.2.4-.3.3-.8,0-2,.3-2.8.6.1.3-.7.5-1.1.2,0,.3,0,.3-.2-.2-.6-.3.4-.7.2,0-.3.2-.3.4-.4.3-.5-.6-.1-.3-.7h1.1a3.4,3.4,0,0,1,.1-1c-.5-.2-.4.4-.4.7h-.8a2,2,0,0,0,.1-.7.37.37,0,0,0,.4-.4c.3,0,.4-.2.6-.3s.2,0,.2-.2c0-.4-.8-.1-1.1-.2.3-.6-.5-.1-.2-.7h1a4.1,4.1,0,0,0,.1-1.1c0-.4.4-.2.4-.5-.2-.6-.4.5-1,.2-.2-.6.4-.3.7-.4,0-.3.1-.7.1-1a.52.52,0,0,0,.4-.2l-.5-.6c-.4.2-.2,1-.3,1.5-.7.1-.1-1-.2-1.5.5.3.2-.5.7-.3-.1-.6.2-.7.5-.9-.3-.6-.3.4-.8.2-.1-.4.4-.3.4-.4.2-.3,0-.6.1-1-.5-.3-.2.5-.7.3-.1-.4.4-.2.4-.5s.5-.2.7-.2c.3-.6-.5-.1-.3-.7h.8c-.1-.4.2-.9.1-1.2s-.3-.2-.3-.4c-.2-.5.3-.4.4-.7-.1-.2-.4-.2-.3-.5.5.1.5-.6.4-.9s-.4-.2-.3-.5c.6.1.4-.6.5-.9-.1-.2-.4-.2-.3-.6h.7c-.2.6.1.7.3.9.2.6-1.1.8-.1.9,0,.4-.4.3-.4.5s.3.2.3.6c.5.2.1-.6.7-.4a1.7,1.7,0,0,1-.1.7h-1c-.3.4.2.3.3.4.1.3-.2.9-.2,1.4-.6-.3-.3,1.5-.5,2.1.5.2.2-.6.7-.3,0,.3-.2.3-.4.3-.2.2.1.9-.1,1.1,0,0-.3-.1-.3,0-.2.4,0,1.1-.4,1.4-.1.1-.2,0-.2.2.2.6.3-.4.8-.2.1.4-.4.3-.4.4-.3.4,0,1.3-.2,1.9-.1.2.2.1.3.2s-.1.4,0,.5c0,.3.5.2.2.9-.7.3,0-.8-.4-.7a1.31,1.31,0,0,0-.3,1.2c0,.2.4.2.2.6-.6-.2-.2.4-.4.7,0,0-.4-.1-.3.1s.3.2.3.6c.5.2.1-.6.7-.4.1.4-.4.3-.4.6-.1.1-.4.1-.4.3-.3.7.4.4.3.9h-.8a4.869,4.869,0,0,1-.1,1.2c0,.4.8.1,1.1.2.1.5-.5.3-.8.4,0,.3-.1.7-.1,1,.3.1.4-.1.4-.3.4-.1.2.3.5.3.5,0-.1-1.3.6-1a4.869,4.869,0,0,1-.1,1.2c-.1.2.3.1.3.2.1.4-.2.9-.1,1.2s.4.2.3.6c-.7-.3,0,.9-.8.7,0,.5.6.3.3,1h-.7c-.1-.4.3-.2.4-.5s-.4-.1-.3-.4c0-.1-.2-.1-.4-.1a.37.37,0,0,1,.4-.4c.2-.5,0-.7.1-1l.4-.2v-.4c0-.3-.4-.1-.7-.2-.1,0,.1-.3-.1-.3h-.3c-.5.4-.3,1.5-.4,2.1-.6-.2-.4.6-.5.9s.3.1.3.2c.2.2-.2.7.2.7s-.2-1.3.6-1.1c0,.3-.1.6-.1.9s.5.2.3.9h.8c.2-.1.3-.4.6-.4.1.3-.2.4-.4.4.1.3-.1.3-.4.3a3.749,3.749,0,0,1-.1,1.1c-.3.1-.3-.1-.3-.3-.5-.1-.4.6-1.1.3,0-.2.1-.5.1-.7h.7c0-.3.3-.9-.3-.7.1-.4-.2-.3-.5-.4s.1,1-.6.7c-.1.4.3.3.3.6s-.1.5-.4.5c-.1.5.6.4.2,1.1h-.7c.4-.9-.3-.8-1-.7.2-.4,0-.7.1-1-.1,0-.2-.2-.3-.1s0,.5-.4.4c-.2-.6.6-.2.4-.8.3-.5-.5-.1-.2-.7.4-.1.2.4.5.4.1,0,.1-.4.3-.4.3-.2.4-.5,1-.3v-.7c-.3-.2-.2.3-.4.3-.2.2-.8-.2-.7.4-.4.2-.2-.3-.3-.4-.5-.1-.1.3-.8.4a1.7,1.7,0,0,0,.1-.7M474,403.4c.1.8-.7.6-.5,1.4.7.3.1-.9.8-.7-.3.6.5.2.3.7.1.4-.4.3-.4.4-.3.5,0,1.5-.3,2.1-.6.2,0-.6-.6-.3-.1-.4.4-1.3-.3-1.1,0-.3.2-.3.4-.4.2-.3-.3-.2-.3-.3s.2-.7-.1-.7c-.4.2-.2.7-.3,1a24.5,24.5,0,0,0-.4,3.8c0,.2.5.1.3.5-.3-.1-.3.1-.4.4-.2-.1-.3,0-.3.1,0,.3.4.2.6.2l-.3,3.6c-.6-.3-.2.5-.8.3.1-.2,0-.4.1-.5a.76.76,0,0,1,.4-.2c.1-.4-.1-.6.1-1.1-.7-.2-.1,1-.8.7-.2-.6.4-.6.4-.8s-.4-.2-.3-.6c.3.1.4-.1.4-.3a.52.52,0,0,0,.4-.2c-.2-.7-.3.4-.7.2-.4-.4.8-.3.4-.7,0-.1-.3,0-.4,0,0-.3.4-1.4-.2-1.1,0-.5.6-.3.5-1.1-.8-.2-.1,1-.8.7-.3.6.5.2.3.8,0,.3-.4.2-.4.5-.4.7.4.3.2.9-.5-.2-.2.5-.7.3-.1-.4.3-.2.4-.5s-.4-.1-.3-.4c0-.1-.2-.1-.4-.1-.1-.6.6-.2.5-.7.2-.6-.6-.2-.3-.8,0,0,.3.1.3,0a15.211,15.211,0,0,0,.5-4.4c0-.2-.5-.2-.3-.5.6.1.3-.9.5-1.3,0-.1-.2-.1-.4-.1.3-.6-.1-2.2.6-2.2.3-.3-.3-.2-.3-.3-.1-.4.5-1.5-.2-1.4-.1-.4.3-.3.4-.6.3-.6-.5-.3-.3-.9.3.1.4-.1.4-.3.1-.4-.2-.3-.3-.5-.1-.6.3-.5.4-.7-.1-.2-.3-.2-.3-.6.9-.1-.1-.3.1-.7.6.2.3-.7.5-1-.7-.3-.1.9-.8.7,0-.3.1-.6.1-.9s-.4-.2-.3-.6c.4-.1.2.4.5.4s.2-.4.2-.7c.2,0,.4-.1.4-.2s-.3-.1-.3-.2.1-.6.1-.9-.6-.1-.3-.8h.7c0-.3.1-.5.1-.7-.6-.3-.2.5-.8.3a1.7,1.7,0,0,0,.1-.7c.2-.1.4.1.5,0s.2-.3.3-.4.6.2.7-.1-.8-.1-1.1-.2c-.1-.6.3-.7.5-.9-.1-.3-.6-.1-.3-.7-.1-.2-.4-.2-.3-.5-.4-.1-1.3.2-1-.4h.9c.2-.1.2-.4.5-.3a2.2,2.2,0,0,0,.1-.8c.6.2.9-.1.8-.7.7-.2.5.4,1,.4.1.6-.4,1.8,0,2.1.4-.4.1-.9.3-1.4h.3c.3-.3-.1-.8.2-1.1.5,0,.2.6,1,.4,0,.3-.2.3-.4.3,0,.4-.1.8-.1,1.1h-.7c-.3.6.5.1.3.7h.7c0,.1-.1.3-.1.4h-.7a.6.6,0,0,1,.1-.4c-.5,0-.5.6-1.1.4,0,.3-.3.9.2.7-.1.4.3.3.5.3s.2-.4.3-.7c.7-.3,0,.8.4.7.6,0-.1-1.3.7-1,0,1.4-.6,3.5-.5,4.8,0,.1.2.1.3.1.2.4-.3.3-.4.4-.2.4,0,1.2-.1,1.8h-.8c.2-.6,0-.9-.6-.7-.2-.4.3-.3.4-.4.2-.3,0-.6.1-1.1.7-.2,0,.8.5.7.1,0,.3-.5.2-.7,0,0-.5,0-.3-.3.4.1.4-.3.4-.6s-.6,0-.9-.1l-.3.3c-.1.1-.3.2-.3.4-.2,0-.3-.1-.3-.2s-.4-.2-.3-.5h.7c0-.3-.2-.4-.3-.6s-.4-.2-.3-.5c.3-.1,1,.2,1.1-.2-.1-.4-1.1.1-1.4-.3,0-.1,0-.2-.1-.2-.3,0-.6,1.3,0,1.1.1.2-.1.6-.1.8s.5.2.3.6c.3-.1.3.1.3.3.6.3.2-.5.8-.3.1.5-.2.7-.5.9.1.1.4.1.3.5-.6-.1-.3,1-.5,1.4-.3-.1-.3.2-.3.4,0,0,.2-.1.3,0,0,.4-.1.8-.1,1.2.1.2.4.2.3.5-.6.2-.7-.1-.9-.3-.3.2-.1,1-.9.7a2.768,2.768,0,0,0-.1.9c.1.2.4.2.3.5.6-.2.1.6.7.4,0-.3-.2-.4-.3-.6s-.3-.1-.4-.3c-.1-.6.4-.4.5-.7s.4-.2.7-.2c.1.4-.4,1.2.2,1.1.1.3-.1.3-.4.3a4.1,4.1,0,0,1-.1,1.1c-.4.2-.2-.3-.3-.4-.3-.1-.6.1-1,0-.3.6.3.3.6.4-.1.6-.4.1-.4.7,0,.3,0,.2.1.3s.3.5.1.7c0,.1-.4,0-.3.2s.3.2.5.2c.4-.2.2-1.2.3-1.8.6-.1.3.7.3,1.1a5.209,5.209,0,0,1-.2,1.4c-.5.2-.6-.1-.8-.3-.2,0-.2.3-.2.5s.4.1.6.2c-.3.7.4.5.3,1h1.1v-.7c-.5-.2-.2.6-.7.4a.37.37,0,0,1,.4-.4c.1-.3-.1-.8.1-1,0-.1.4,0,.4-.2s-.3-.1-.4-.2.1-.3.1-.4-.5,0-.4-.3c.4-.1.4.1.4.3h.7c-.3.6.5.2.3.8h-.8v.7c.4.1.3-.4.5-.4s.3-.4.6-.3c-.2.5.2,1.8-.5,1.7,0-.3.2-.9-.3-.7m-9.9-14.3c0-.3-.4-.2-.7-.2.1-.3-.1-.3-.3-.4.3-.8-.5-.6-.2-1.4-.5-.2-.2.6-.7.4-.1-.4.3-.3.4-.6-.1-.2-.4-.1-.3-.3s-.2-.2-.4-.2c0-.2.1-.5.1-.7.5-.1.2.3.3.5s.3.3.5.6c.2-.1.2-.5.2-.7.3-.1.3.1.3.3h1.1c-.1.3.1.3.3.4.2.3-.3.2-.4.3-.1.3.2.9-.4.7,0-.3.1-.7.1-1-.6-.2-.3.5-.4.8.1.3.4.4.2.9.6.3.2-.5.8-.3a4.1,4.1,0,0,1,.1-1.1c.6,0,.2.9.2,1.4a11.544,11.544,0,0,0-.2,1.6c.1.2.4.2.3.6.5,0,.4-.6,1.1-.4-.1-.2.4-1,0-1.1s-.1-.4-.1-1c-.6-.2-.2.6-.8.3a3.4,3.4,0,0,0,.1-1c.7.2.7-.4,1.1-.4.1.3-.2.9.3.7v.7c0,.4-.4.3-.5.6s.3.1.4.1c.1.3-.4,1,.3.8,0,.3-.4.2-.4.5s.3.1.3.3a1.268,1.268,0,0,1-.1.6c-.1.2-.2.2-.4.5s.3.1.3.2a3.67,3.67,0,0,1-.1,1.8s-.4-.1-.4,0a3.4,3.4,0,0,1-.1,1c0-.1-.7.2-.4.7-.6-.2-.2.6-.8.4-.1-.4.4-.3.4-.4.2-.2-.1-.9.4-.7l.3-2.8c-.7-.3-.6.4-1.1.3-.1-.5.6-.1.5-.7-.6-.2-.2.6-.8.4a2.771,2.771,0,0,1-.1.9c.2.2.5.3.3.9.1.5-.6.2-.5.8.1.2.4.2.6.2.4.1-.1-1,.6-.7a1.7,1.7,0,0,0-.1.7c-.5,0-.4.6-1.1.4-.1.4.3.2.3.5l-.2,1.6c.6.2.3-.5.5-.7,0-.1.3,0,.3,0,.1-.2.1-.5.4-.4.2.6-.6.2-.4.7.3.1.3-.1.4-.3.2,0,.3-.1.3-.2.4-.7-.4-.3-.2-.9.5.2.2-.6.7-.3l-.2,2.1c-.4-.1-.4.2-.4.5s.4.2.7.2c-.1.3.1.3.3.4,0,.3-.2.3-.4.3,0,.3-.2.3-.4.4,0,.4-.1.8-.1,1.2.1.2.4.2.3.5.3,0,.3.2.3.4-.4.1-.2-.3-.5-.4-.2.1-.2.5-.2.7-.6.3-.1-.5-.7-.3-.3.6.6.1.3.7-.7-.3-.1,1-.8.7,0-.4.1-.8.1-1.2-.1-.2-.4-.2-.3-.6.6.3.2-.5.8-.3-.1-.6.2-.7.4-.9,0-.2-.3-.1-.3-.4-.1-.1-.4-.1-.3-.5-.3.1-.3-.1-.3-.3h.7c.3-.8-1,0-.8-.7-.2,0-.5-.1-.9-.1-.2.6.3.4.7.4,0,.4-.5,1.2.2,1.1.1.4-.4.2-.4.5-.3.7.4.3.3.9-.6-.2-.2.6-.8.3.1.4-.4.3-.4.6s.7,0,1,.1a3.75,3.75,0,0,1-.1,1.1c-.6.2,0-.6-.6-.3-.1.3.1.3.3.3-.2.6.6.2.2.9.1.2.5.1.7.2.1.3-.2.2-.4.3s0,.5-.3.4l-.2,1h-.7v.8c.5.1.2-.7.9-.4.2-.1.2-.4.6-.4,0-.3-.1-.8.4-.7,0,.6-.2.9-.1,1.3,0,.2.5.2.2.9h-.7c-.1-.4.4-.3.4-.6l-.5-.5c-.4.3-.2,1.4-.3,1.9l.4.6c.5,0,0-1,.6-.7.1.5-.2.6-.4.9.2.1.3.3.5.5.2,0,.1.4.1.7-.4.2-.2-.3-.3-.4-.3-.1-.6.1-1.1,0-.1.5.6.4.2,1.1.5,0,.5-.6,1.1-.3v.7c-.3,0-.7-.1-.8.1.2.4,1.1.1.7.9.5.1.4-.6,1.1-.3-.1.1-.1.4-.4.3.1.6-.3.7-.5.9l.3.4c.1,0,.2.2.4.1l-.2,1.5c-.6.1-.1-.7-.2-1.1-.5,0-.4.6-1.1.4-.1-.6.4-.4.7-.4a1.7,1.7,0,0,0,.1-.7c-.5-.2-.2.6-.7.3,0-.1,0-.3-.2-.3s-.1.3-.2.3c-.2.2-.7-.1-.7.2s.4.2.7.2a4.1,4.1,0,0,0-.1,1.1h-.8a4.869,4.869,0,0,1-.1,1.2c0,.4.8.1,1.1.2.1.4-.3.2-.4.3s0,.4-.1.4a1.634,1.634,0,0,0-.7,0,.19.19,0,0,0,0,.3h-.7c.1-.3-.1-.3-.3-.3-.1-.4.2-.3.4-.4s0-.4.4-.3c-.2-.6.5-1.8-.2-1.8-.1-.4.3-.2.4-.5s-.4-.2-.7-.2c-.1-.6.2-.7.4-.9s-.3-.1-.3-.2c-.1-.6.4-2,.3-2.6,0-.2-.4-.1-.3-.4-.2-.5.3-.4.4-.7-.1-.2-.4-.2-.3-.5a.52.52,0,0,0,.4-.2c0-.2-.3-.1-.4-.2s.1-.4.1-.5-.3-.2-.3-.4c-.2-.5.3-.4.4-.7-.1-.1-.4-.2-.3-.5-.3.1-.3-.1-.3-.4.4-.1.2.4.5.4s.1-.3.2-.5-.4-.2-.7-.2c-.1-.4.4-.3.4-.5s-.3-.2-.3-.6c0,0,.5,0,.4-.1s-.3-.2-.3-.4v-.5c.1-.4.3-.3.4-.6s-.4-.1-.7-.1a.37.37,0,0,1,.4-.4c0-.3.2-.3.4-.4.3-.3-.3-.2-.3-.3a14.05,14.05,0,0,1,.2-1.8c.1-.2,0-.2.2-.3s.2,0,.2-.2c-.2-.7-.3.4-.7.2-.1-1.2.5-3.1.4-4.1,0-.2-.3-.1-.3-.4-.2-.5.3-.4.4-.7s0-.5-.3-.5c.1-.5.4-.3.4-.7s-.3-.2-.2-.7c.2,0,.3-.2.3-.4.2-.4-.3-.2-.3-.5s0-.4.1-.5c.1-.4.2-.3.4-.6,0-.2-.4-.1-.7-.1.2-.5-.2-1.6.5-1.5,0,.4-.1.7-.1,1.1.7.2.8-.3,1.1-.5m41,14.7c.8.2.1-1,.8-.7a9.847,9.847,0,0,1-.2,1.7c-.5-.1-.3.4-.4.7.6.3.2-.5.8-.3-.1.2,0,.3.1.3.3,0,.5-1.3-.1-1l.2-1.6c0-.3-.4-.2-.7-.2-.1-.5.4-1.5,0-1.8-.4.2-.2,1-.3,1.5-.8.2,0-.7-.5-.8-.3,0,0-1.1,0-1.7h.7v.7h.7c.3-.8-.6-.6-.2-1.4h-1.4c-.1-.4.3-.3.4-.6-.1-.1-.3-.1-.4-.3s.2-.6.1-.9c.4-.1.2.3.5.3.5-.2.1-.6.3-1-.5-.2-.2.6-.7.3a3.4,3.4,0,0,1,.1-1c.5.2.2-.6.7-.4.1-.3-.1-.9.4-.7.3-.3-.2-.2-.3-.3,0-.3.2-.7.1-.9s-.3-.2-.3-.4c-.1-.5.3-.4.4-.7-.2-.6-.3.4-.7.2.2-.5-.4-.3-.7-.4l.2-1.2c-.1-.2-.4-.2-.3-.5.5.2.2-.6.7-.4,0,.3-.1.7.1.7.5,0,.1-.8.3-1,0-.1.4,0,.4-.2s-.6-.3-.7-.2,0,.3-.4.4c-.1,0-.2-.1-.4,0,0-.4.4-.3.4-.6s-.2-.1-.3-.3a18.109,18.109,0,0,1,.3-2.3h1a2,2,0,0,0,.1-.7c-.6-.3-.2.5-.7.3,0-.2-.1-.3-.2-.3-.4-.1.1.9-.6.7,0-.4.1-.7.1-1.1h1.1c-.1-.4.2-1,.1-1.2s-.3-.2-.3-.4c-.2-.6.3-.4.4-.7-.1-.2-.4-.2-.3-.5-.5-.3-.2.5-.7.3-.1-.3.1-.6.1-.9s-.5-.1-.3-.5h.7c0,.3-.2.7.1.7a5,5,0,0,0,.4-2.3c0-.2-.2-.1-.3-.2-.2-.3.3-.2.3-.3.2-.3,0-.6.2-1.1-.6-.2-.2.6-.8.4,0-.4.4-.3.4-.6-.1-.1-.4-.1-.3-.5.4-.1.2.3.5.4a1.44,1.44,0,0,0,.3-1.3c0-.2-.4-.2-.3-.5.7.1.3-1,.5-1.4h-.7c-.3.5.6.1.3.7,0,.2-.1.3-.2.3s-.2.4-.6.4l.3-2.5c.8-.3.5.5.8.7.4-.2.2-1.2.3-1.8h-.7c-.2.6.6.2.3.7h-.7a17.843,17.843,0,0,0,.2-2.3c0-.1-.1-.1-.3-.1-.2-.4.3-.3.4-.4s0-.6.1-.9-.3-.1-.4-.1c-.1-.3.4-1-.2-.8-.2-.3.3-.2.4-.3.2-.6,0-1.6.2-2.3.1-.2-.3-.1-.3-.2-.2-.4.2-1.2.1-1.8.7.3.6-.3,1.1-.3v.9c-.2.2.3.1.3.1a30.823,30.823,0,0,1-.4,3.8l-.4,3.7c.8.2,0-1.3.8-1.1-.1,1.3-.2,2.6-.4,3.9.7.2.4-.7.5-1,.6-.3.1.5.7.3a4.1,4.1,0,0,0-.1,1.1c-.4.1-.3-.4-.5-.4-.3.3-.8.4-.7,1.1.7.2.6-.4,1.1-.4.1.3-.1.4-.4.4-.2.6.6.1.3.7-.5,0-.3-.6-1-.4-.2.4.3.3.3.4.1.3-.2.6-.1,1.1.3,0,.4-.3.6-.4s.2-.4.5-.4v.8c-.7-.3-.6.3-1.1.3-.3.6.5.1.2.7h.8l-.2,1.1c-.6.2,0-.6-.6-.4-.2.6.6.2.2.9.2.1.2.3.4.4a.22.22,0,0,0,.3.1c0,.4-.1.8-.1,1.1H507c0,.5-.4,1.5,0,1.8.4-.1.1-1,.3-1.4.6-.2.4,1.6-.2,1.4-.2.6.6.1.3.7-.5-.5-.6,1.7-.3,1.8.4-.2.1-1,.3-1.5.7,0,0,1.3.2,1.8-.4-.1-.3.4-.6.4s-.2.3-.2.5.3.2.5.2c.4,0-.1-1,.6-.7l-.3,2.8c-.4-.1-.3.3-.6.4s-.2.4-.2.7c.6,0,.3-.5.6-.7s.2-.4.5-.4c0,.5-.1,1-.1,1.4-.4.1-.2-.3-.5-.3s-.2.7-.3,1c.6.3.2-.5.8-.3l-.2,1.4c-.6.2-.1-.6-.7-.4-.2.6.6.2.3.8.1.3-.3.2-.4.5.2.6.3-.4.7-.2-.2.2.2.8-.1,1.1,0,0-.3-.1-.3,0a7.929,7.929,0,0,0-.2,1.7c.5.3.2-.5.7-.3.1.5-.2.9-.1,1.2s.4.2.3.6c-.7.2-.5-.4-1-.4-.3.6.5.1.3.7.2,0,.7-.1.7.2.1.6-.4.6-.8.5-.4.8,1,0,.6.7h-.7c0,.4-.1.9-.1,1.3,0,.2.4.1.7.1.1.4-.4,1.3.2,1.1,0,.5-.1,1-.1,1.4-.3,0-.7-.1-.7.2s.4.2.6.2c-.1.4.1,1.1-.1,1.4,0,.1-.4,0-.4.2s.4.2.3.5h.7c-.2.6.6.1.3.7-.3.1-.3-.1-.3-.3-.3-.1-.4.1-.4.3h-.3c0,.2-.4.9.2.7v.7c0,.4-.4.3-.4.6l.3.3c0,.1.1.2.3.2,0,.3-.2.3-.4.4a2,2,0,0,1-.1.7c-.2-.1-.3,0-.3.1l.3.4c.1.1.1.2.3.2.1.4-.3.2-.4.5.2.2.5.3.3.9h.3a4.48,4.48,0,0,1-.1,1.1h-.7a4.48,4.48,0,0,0,.1-1.1c-.6-.2-.3.8-.5,1.2.1.4.9.1,1.3.2s-.1-1,.6-.7a4.1,4.1,0,0,0-.1,1.1h-.7c-.3.8,0,2.7-.6,3.2,0,0-.2-.1-.2.1s.5.2.7.2c.1.4-.3.3-.4.5.1.3.5.2.7.2l-.3,2.8c.5.2.4-.3.5-.7.3-.2.2.4.3.4.4.1.1-.3.7-.4.1.6-.2.7-.4.9.1.2.4.2.3.6h-.4c-.1.3.1.3.3.3a4.1,4.1,0,0,1-.1,1.1c-.6.2,0-.6-.6-.4,0-.6.1-1.2.1-1.8-.4-.2-.4.6-.4,1.1s-.4,1.5.2,1.4l-.3,2.5h.7c.1-.5-.2-.1-.2-.7h.3c.3-.4-.3-.1-.3-.7h.7c.1.6-.2.7-.4.9.2.2.5.3.3.9H508v.9c.1.1.3.1.3.5.3,0,.9-.2.6.3-.6.2-.6-.1-.8-.3-.4,0-.2.7-.3,1a.37.37,0,0,0-.4.4c-.1.3.1.3.3.4-.1.3.1.3.3.3,0,.3-.2.9.3.7,0,.5-.6.4-.4,1.1-.6.2-.1-.6-.7-.4-.2.4.3.3.3.6l-.3,2.8c0,.2.4.1.7.2.1.8-.7.6-.5,1.4h-.7c.3-.8-.6-.6-.2-1.4-.5-.1-.4.6-1.1.3a3.4,3.4,0,0,1,.1-1c.1,0,.4-.1.5,0s0,.2.1.3.4,0,.4,0-.1.4.1.4.3-.4.3-.6a.6.6,0,0,0-.4-.1c-.1-.3.3-1-.2-.7-.1-.4.3-.3.4-.6-.2-.2-.4-.3-.5-.5-.4,0-.2.7-.3,1.1-.6-.1-.4-.7-.2-1.1-.1.1.7-.2.4-.7.7-.3,0,.7.4.7s.2-.6.3-.9c-.1-.2-.4-.2-.3-.5-.1.1-.4-.1-.5,0s-.1.2-.2.3-.3,0-.4,0,0,.5-.4.4c.1-.4.1-1.4.2-1.8s.1-.3.4-.3c.3-.6-.6-.2-.3-.8,0-.3.2-.3.4-.3,0-.3.2-.3.4-.4,0-.3.2-.3.4-.3.1-.3-.1-.4-.3-.4,0-.2,0-.3-.2-.3-.4-.1.1,1-.6.7.3-.8-.5-.6-.2-1.4h.7c0-.3.1-.5.1-.7-.6-.3-.2.5-.8.3.2-.6,0-.8-.6-.7-.1-.5.4-.3.8-.4,0-.3-.3-.2-.3-.5-.2-.6.2-1.4.2-2.1.1-.2-.3-.1-.4-.2-.1-.4.5-1.2-.2-1.1-.2-.5.6-.1.4-.7.3-.3-.3-.2-.3-.3-.1-.6.3-1.7.2-2.3,0-.2-.1-.2-.3-.2-.1-.4.4-.2.4-.5s-.3-.2-.3-.4c-.1-.4.2-1.1.1-1.4,0-.1-.5-.3-.3-.5a.277.277,0,0,1,.4,0c.2-.5-.7-.3-.3-.7h.7c.4-.8-1,0-.6-.7.3-.1,1,.2,1.1-.2-.1-.4-1-.1-1.4-.2,0-.3,0-.7.2-.7s.2-.4.6-.4c.1-.4-.3-.2-.3-.5v-.5c0-.4.4-.3.5-.6-.1-.1-.4-.1-.3-.5-.4.1-.4-.1-.4-.3h.7c.2-.4-.3-.3-.3-.6s-.3-.2-.3-.5c-.2-.7.8-.1.8-.5s-.7-.1-1-.2c.1-.3-.1-.4-.4-.4-.1-.7.5-.5.5-1,.6-.3.1.5.7.3.2-.4-.2-.2-.3-.3s0-.5-.4-.4c0-.4.5-1.2-.2-1.1,0-.3.1-.7.1-1,.3,0,.7.1.7-.2s-.4-.1-.7-.2l.2-1.4h.7c0,.5-.6.4-.5,1.1m9.1-60.3c-.1-.1-.4.1-.4-.2l.2-1.4c0-.2-.3-.1-.3-.3s.1-.6.1-.9h-.4c-.2-.2.3-.9.1-1.1h.7c.1-.3-.2-.3-.3-.5-.1-.4.2-.8.1-1.2.3-.1.5-.1.4-.4-.5.1-1.1-.1-1.6,0-.2.1-.2.4-.5.4l.3-3.2c-.5.1-.3-.4-.3-.7-.2-.1-.6,0-.7-.2l.2-1.3c-.2.1-.3-.1-.4-.1l-.3-.4c0-.3.1-.6.1-.9-.9.3-.5-.6-1.4-.3.3-.6-.3-.3-.7-.4.3-.6-.5-.1-.2-.7-.5-.1-1.6.3-1.4-.4-.4,0-.4.3-.6.4-.2-.1-.1-.3-.5-.4-.2,0-.3.1-.5,0-.3.1-.2.5-.6.4.1-.7-.4-.1-.5,0-.3-.1-.1-.6-.7-.4-.3.1-.2.5-.6.4.4-.8-1.3.1-.9-.7-.8.1-1.3-.1-1.8,0-.1,0-.1.3-.2.3H500c0,.3-.1.5-.4.4.1.3-.1.6,0,.9s.2.2.3.3a2.769,2.769,0,0,0-.1.9c.4-.1.2.3.3.4s.3-.1.4,0-.1.4.1.3c.2.1.2.3.3.4a.62.62,0,0,0,.5.3c.6.3.2-.5.8-.3h.7c0,.5-.3.7-.1,1.1,0,.1.5-.1.3.3,0,.6-.7.2-.5.9,0,.2.3.2.3.4s-.1.8-.1,1.2c.7-.2.2.4.3.7,0,.1.4,0,.3.2l-.3,2.8c0,.3.5.2.3.5v.6c-.1.3-.6.1-.4.7,0,.2.2.2.3.3s-.1.4-.1.6.4-.1.4.1-.5.2-.4.6a.9.9,0,0,0-.1.5c0,.2.3.2.3.4s-.2.7-.1.9c.1,0,.4-.1.4.1s-.2.2-.4.2c-.2.6.6.2.2.9,0,.3-.4.1-.4.5.2.1.4,0,.4.2.1.5-.3,1.6-.2,2.1-.1.3.2.2.3.4,0,.5-.3,1-.2,1.4s.4.2.3.5c-.7-.1-.3,1-.5,1.4.6-.1.2.5.3.8.1.1.6-.1.3.3.2.6-.6.1-.4.7-.3.6.6.2.3.7-.6-.1-.3.7-.5,1.1.3,0,.7-.1.7.2,0,.1-.1.1-.2.1-.5.4-.2,1.6-.4,2.2-.6-.3-.1.7-.6.7-.3-.3-.5.3-.7.3a5.581,5.581,0,0,1-1.3,0c-.3.5.8.5.1.7-.2.1-.1-.1-.1-.1-.3-.4-1.3-.1-1.8-.2,0,.2-.1.3-.2.3-.1.2-.3.3-.4.4-.5-.2-.4.3-.7.4h-1.3c.2.5-.4.3-.7.3.2,1-.9.7-1.5.7-.1.3,0,.7-.3.7s0-.5-.6-.3c-.2,0-.3.2-.4.3s-.4,0-.6,0,0,.6-.3.4c-.1-.3.2-.9-.3-.7-.1.2,0,.6-.3.7-.7.2-.3-.5-.8-.4,0,.2,0,.4.3.4-.1.2,0,.6-.3.7-.7.2-.3-.6-1-.4-.2.1-.2.3-.4.4s-.8-.1-1.2,0a.37.37,0,0,1-.2.3c-.1.2-.3.3-.4.4h-.9a.52.52,0,0,1-.2.4c-.1,0-.3.2-.4.3s-.4-.1-.5,0-.1.6-.4.4c-.1.2,0,.6-.3.7H483c.1.6-.5.2-.7.3s0,.3-.2.4-.4-.1-.6,0c0,.2,0,.6-.2.7-.6-.1-.5.2-.8.3-.1.1-.3,0-.5,0v.4c-.1.1-.5-.1-.6,0l-.4-.5c-.1-.2.1-.2.2-.2.3-.3.2-.8.3-1.3,0-.2-.3-.1-.4-.3.4-3.5.8-7,1.1-10.5.2,0,.4,0,.4-.3.3-.7-.2-.6-.3-.9a9.08,9.08,0,0,1,.3-2.3h.3c.1-.1,0-.4.1-.5,0-.3-.3-.2-.3-.4a4.33,4.33,0,0,1,.1-1.6c.1,0,.4.1.4,0v-.3c.2-1,0-2.3.4-3.2,0-.1.3,0,.3,0v-.4a18.7,18.7,0,0,0,.4-3.5,14.2,14.2,0,0,1,.4-3.6s.3.1.3,0a1.007,1.007,0,0,1,.1-.3,25.816,25.816,0,0,0,.3-2.9,8.609,8.609,0,0,1,.3-2.8h.3v-.4c.3-1.1,0-2.4.4-3.5,0-.1.6,0,.4-.4.3-.5-.6-.1-.3-.7-.1-.5.6-.1.4-.7-.7,0-.1-.9-.2-1.4,0,0-.3,0-.3-.2a4.321,4.321,0,0,0,.1-.5h-.8c.2-.4-.1-.2-.3-.3a2.27,2.27,0,0,1,.1-.4c-.2-.1-1,.2-.7-.4h-1.1c.3-.6-.4-.2-.6-.3s0-.6-.4-.4c-.5-.2-.2.6-.7.4.2-.5-.4-.3-.7-.4.3-.5-.5-.1-.3-.7h-1.9c-.3,0-.2.5-.6.4H476c-.2,0-.1-.1-.2-.2-.2-.4-.9-.1-1.4-.2.4-.7-1,.1-.6-.7H472c.4-.7-.8-.1-1-.3,0-.1.1-.4,0-.4-.3-.1-.7.1-1,0,.3-.6-.6-.2-.7-.3s.1-.4,0-.4c-.3-.1-.9.1-1.4,0,0,.5-.1.9-.1,1.4.2,0,.2.1.3.2s.2.3.3.3c-.2.6.3.5.3.8l-.6,5.4c-.2.1-.4.1-.3.4a2.769,2.769,0,0,0-.1.9c-.1.3.4.1.3.5-.3,0-.4.1-.4.4-.3.9,0,2.2-.4,3.2,0,0-.3-.1-.3,0v.3c-.3,1.1,0,2.3-.4,3.2,0,.1-.5,0-.4.4-.2.5.6.1.3.7-.2,0-.4,0-.4.3.2.1.4,0,.4.2s-.2.1-.2.2c-.6.4-.3,2.8-.6,3.7-.1.3-.4.2-.4.5.2.1.4.1.3.4.4.2.5-.8.7-.2.1.2-.1.1-.2.2-.4.3-.2,1.3-.3,1.8,0,0-.6,0-.4.3a.75.75,0,0,1-.1.5c.1.3.6.2.3.8-.1.2-.3.1-.4.5a13.6,13.6,0,0,1-.2,2.1c-.1.1-.6,0-.4.4a1.09,1.09,0,0,1-.1.5c0,.3.5.1.3.5-.7.1,0,.7-.6.7-.2,0-.2.3-.2.6-.2.5.9-.2.7.3s.2.5.3.7c-.3.2-.6.4-.5.9h-.7c-.1.4.2.4.3.6l-.2,2.1c0,.3.4.1.3.5-.6-.2-.3.5-.4.7s-.6,0-.4.4c-.2.5.1.6.2.9s-.4.1-.4.5c.4-.1.2.2.3.3s.5,0,.4.4c.1.6-.6.1-.5.7v.7c.2.2.3-.3.4-.3s.6,0,.6.1c0,.3-.4.2-.7.2a.37.37,0,0,1-.4.4c-.1.5,0,.7-.1,1,0,.1-.3,0-.3,0-.2.2,0,.7-.1.9s.3.2.3.4l-.3,2.3c-.5-.2-.3.4-.4.7.7.3.1-1,.8-.7,0,.3-.1.6-.1.9s-.5.1-.4.5c.1,0,.4,0,.3.2.1.2-.1.1-.2.2-.5.3-.2,1.9-.4,2.6,0,.3.4.1.3.5-.5-.1-.4.4-.4.7-.3.1-.5.1-.4.4.2,0,.6-.1.7.2-.2.5,0,.9-.2,1.2,0,.1-.5,0-.4.4.7-.4.2,2.6-.2,2.1-.3.6.6.1.3.7.2.6-.6.1-.4.7.4.3.5-.8.7-.2,0,.3-.5.2-.4.6a.9.9,0,0,1-.1.5c0,.3.5.1.3.5-.3,0-.3.3-.5.4s-.2.4-.3.7c.4.2.5-.8.8-.2,0,.2-.2.1-.2.2-.2.1-.2.1-.3.4a9.34,9.34,0,0,0-.2,2.3c0,.2.3.1.3.3s-.3.2-.4.5v.6c-.1.3.4.1.3.5-.3,0-.5.1-.4.4.5-.3.4.5-.1.3-.1.4.2.4.3.5,0,.3-.4.2-.4.6-.3.6.6.1.3.7-.2,0-.4,0-.4.3.7,0,.1,1.1.2,1.6,0,.3.3.2.3.4s-.4.1-.4.5c-.3.6.6.2.3.7-.2.1-.4.1-.4.4-.2,0-.4,0-.4.3.3.1.7,0,.7.2,0,.5-.2.9.1.9s.2.8-.1.7-.1-.4-.5-.3c-.2.5.1.6.3.8a6.152,6.152,0,0,0-.1,1.3c-.7-.2-.4.7-.5,1,.3,0,.3.3.5.4s.1.4.1.7c-.3.1-.9-.2-.8.4.8-.3.6.4,1.1.3l.3-3c0-.3-.1-.7.3-.9.3.3,0,.8,0,1.4l-.2,1.6c0,.3.3.2.3.4-.3,1.2,0,3-.4,4.1,0,0-.3-.1-.3,0-.2.5.6.2.2.9.1.1-.1.1-.2.1-.3.3-.3,1.1-.3,1.6s-.3,1.1.3.9c.1-.6-.1-1.8.3-2.1.4.1.1.7.1,1a6.619,6.619,0,0,1-.1,1.5c-.1,0-.6,0-.4.3.2,0,.2.1.3.2s.2.3.3.3a3.748,3.748,0,0,1-.1,1.1c0,.3.5.2.3.5-.3,0-.3.1-.4.4s0,1.4-.1,1.8c-.8-.1-.4,1.2-.6,1.7.7.4.9-.7,1.1-.1-.1.1-.2.2-.4.1,0,.3-.1.5-.4.4l-.2,2.5c.2,0,.6-.1.7.2s-1-.2-.8.5c-.1.3.3.3.3.5a5.83,5.83,0,0,1-.2,2.3c-.1.1-.4,0-.4,0-.2.2-.1,1.4-.2,1.6s-.3,1,.3.9c.2-.5-.1-1.5.4-1.8l.4.6c0,.2.1.5,0,.7s-.4.1-.4.5c.3.1,1-.2,1,.2,0,.2-.4.1-.7.2a3.4,3.4,0,0,0-.1,1c.7.3,0-1,.8-.7l-.2,1.1c-.6-.2-.3.8-.4,1.2s.4.2.3.5c-.3.1-.5.1-.4.4.7-.1.1,1,.2,1.4.7.3.1-1,.6-1s.1.4.1.7c.1.1.3,0,.4.1s-.1.4-.1.6h-.7l-.3,2.5c.3,0,.5,0,.4.3.7.3,0-1,.7-.7-.1.5.1,1.5-.3,1.8-.5,0,.3-1-.5-.7.1.6-.2.8-.8.7,0,.3.2.3.3.5.1.4-.4,1.4.3,1.2.1-.4-.1-1.2.3-1.4.4,0,0,.8.1,1.1.3,0,.9-.2.6.3H462c0,.5-.6.4-.4,1.1.5.2.2-.6.7-.3a2,2,0,0,1-.1.7c-.3-.1-.4.1-.4.5,0,.2.3.2.3.3s-.1.5,0,.6.4-.1.3.2a4.483,4.483,0,0,0-.1,1.2c-.7-.1-.3,1-.5,1.4.3,0,.7,0,.7.2a4.331,4.331,0,0,1-.1.5c0,.1.3,0,.4,0s-.1.3-.1.4c.2.1.8-.2.7.2a2.492,2.492,0,0,1-.1.8h1.1c-.3.8.3.6.3,1.1h.8c.3,0,.2-.4.6-.4.2.6-.6.2-.4.8.2,0,.4,0,.3.3.3.1.9-.2.7.4.3.1.3-.3.5-.4.5-.1,1.1.1,1.6,0a.52.52,0,0,0,.2.4l.3.3c.2,0,.1.1.2.2l.3.4.5.5h.1c.1,0-.1.3,0,.3.1.2.5,0,.3.4h1.1c-.3.6.5.3.8.3s.2-.3.4-.3h2c-.2-.5.4-.3.7-.4.1-.3-.1-.8.4-.7.2-.6,0-1.6.3-2.1,0-.1.5,0,.3-.4.3-.5-.5-.1-.2-.7v-.5c.1-.3.5-.1.4-.5-.7.1-.1-.7-.2-1.1,0-.1-.5,0-.4-.2l.2-1.2c.5.2.3-.5.4-.7s.5,0,.4-.4a.22.22,0,0,1-.3-.1c-.2-.1-.2-.3-.4-.4l.2-1.4c0-.2-.3-.2-.3-.4.3-3.7.7-7.4,1.1-11.1.4.1.3-.3.4-.4s.5,0,.4-.3c.3-.6-.6-.2-.3-.8a4.327,4.327,0,0,0,.1-.5c0-.3.4-.1.4-.5s-.3-.3-.3-.5c-.1-.4.2-.9.1-1.3,0-.1-.4,0-.3-.2,0-.4.1-.9.1-1.4,0-.2-.3-.1-.3-.3a8.638,8.638,0,0,0,.1-1.5c0-.2-.2-.1-.3-.3-.1-.4.2-.7.2-1.2-.6-.3-.2.5-.8.3-.1-.6.2-.8.8-.7.1-.4-.3-.3-.3-.5-.1-.4.2-1,.1-1.5,0-.2-.2-.1-.3-.3a13.546,13.546,0,0,0,.2-2c-.3-.1-1,.3-1-.1a2.769,2.769,0,0,1,.1-.9.52.52,0,0,1-.4-.2l-.3-.4c.1-.2,0-.4.1-.7s.4-.1.4-.5c-.3,0-.9.2-.7-.3h.7a2.771,2.771,0,0,0,.1-.9c0-.3-.2-.2-.3-.4-.1-.4.2-.9.1-1.2,0-.1-.4,0-.3-.2.3-1,0-2.2.3-3,0-.1.6,0,.4-.4v-.5c.1-.3-.4-.1-.2-.5h.3c.2-.6-.6-.2-.3-.9.1-.3.5-.2.5-.6-.7.2-.2-.4-.3-.7-.1-.1-.4.1-.4-.1a1.7,1.7,0,0,1,.1-.7c.1-.2.4-.2.4-.6-.5.2-.3-.4-.3-.7-.1,0-.3,0-.3-.2s.5-.1.4-.5a.9.9,0,0,1,.1-.5c0-.3-.5-.2-.3-.6.5.2.5-.8.4-1.2s-.3-.2-.3-.5h.8a.37.37,0,0,0-.4-.4c.1-.3-.2-.3-.3-.5.1-.3.5-.2.4-.5q-.45,0-.3-.6c0-.2.2-.1.2-.2.5-.3.2-1.2.4-1.7-.7.1-.2-.7-.2-1.1-.7.2-.2-.5-.3-.7s-.6,0-.3-.4c.6.3.6-.3,1.1-.3.3-.7-.8-.1-.7-.5s.5-.2.4-.6c0,0-.6,0-.3-.3.3,0,.4-.3.6-.4.5.2.4-.3.7-.3s.1.4.5.3c-.1-.6.5-.2.7-.3s.1-.5.3-.4h2.3c-.2-.6.4-.2.7-.3.1-.1,0-.5.2-.4h.9a.52.52,0,0,1,.2-.4c.1,0,.3-.2.4-.3s.5.1.6-.2.4,0,.7-.2c.1,0,0-.4.2-.3s.1.4.5.3c.3.1.4-.2.6-.3.2.1.1.5.6.3l1.2-1h.5c0-.2.2-.3.3-.4l1.1-1c.3,0,.1-.3.2-.4s.4.1.4,0-.1-.7.2-.7h.9c0-.2.2-.3.2-.4l.4-.3c.3-.3.5-.5,1-.4,0-.2,0-.6.2-.7s.5.1.6-.2.1,0,.2-.1.3-.3.3-.4c.2-.1.4.1.6,0s0-.3.2-.3h.5c.1-.3,0-.7.3-.8h.5c0-.3.3-.3.4-.5l.6-.5h.9c0-.3.2-.4.4-.5l.6-.6c.6.1.5-.2.7-.3s.4,0,.6,0,0-.3.2-.4.3.1.5,0c0-.2.1-.4.4-.3.1-.4-.1-1.1.3-1.1h.5l-.2,2.3c0,.2.3.2.3.4a16.413,16.413,0,0,0-.2,2.3c.2-.1.2.1.3.1l.3.4c0,.2-.1.1-.2.2a2.56,2.56,0,0,0-.3,1.6c0,.2.2.1.3.3-.1.3-.6.2-.4.7-.1.3.3.2.3.4.1.7-.3,2-.3,2.8,0,.2.3.2.3.4l-.3,3.2c0,.2.3.1.3.3a3.42,3.42,0,0,0-.1,1.1c0,.2.2.2.3.3-.1.3-.6.2-.4.7,0,.3.3.2.3.4.1.7-.3,2-.3,2.8,0,.3.3.2.3.4a5.721,5.721,0,0,0-.1,1.4c.1.4.4.1.3.5,0,.2-.1.4-.1.6s-.6.1-.4.7c0,.2.3.1.3.3l-.2,2.2c0,.2.4.1.3.5-.2,0-.4,0-.4.3.1.1.4,0,.3.2s-.4.2-.4.5c.2.1.4.1.4.2l-.2,1.4c0,.3.3.2.3.4.1.6-.3,1.6-.2,2.1.1.2.3.2.3.4s-.4.1-.4.5v.5c0,.3.3.2.3.4a5.213,5.213,0,0,0-.2,1.4c.1.2.3.2.4.4-.2.2-.4.1-.4.5a1.09,1.09,0,0,0-.1.5c0,.3.4.2.3.6-.2,0-.4,0-.4.3.7,0,.1,1.1.2,1.6,0,.3.4.2.3.5-.2.1-.4.1-.4.4.2,0,.3,0,.3.2.1.7-.3,2-.2,2.8-.1.2.2.2.3.4l-.5,4.2c0,.3.3.2.4.4l-.2,1.4c0,.2.3.2.3.3.1.3-.2.7-.1.9s.4,0,.4.2-.5.1-.4.5a1.27,1.27,0,0,0-.1.6c0,.2.3.1.3.3.1.7-.3,1.6-.2,2.2.1.2.4.1.3.5-.2,0-.4,0-.4.3.7,0,.1,1.1.2,1.6,0,.3.3.2.3.4l-.3,2.6c.3.1.5.1.4.4.2,0,.4.1.3.4-.6.2-.1-.6-.7-.4.1.5-.3,1.3-.2,1.8.1.1.5-.1.4.1l-.2,1.6c.3.1.7,0,.7.2s-.2.2-.4.2c0,.4-.1.7-.1,1.1-.2,0-.4,0-.4.3.7-.1.8.3,1,.5,0,.2-.1.3-.3.2-.1.2-.1.4-.4.4.1.5-.4,1.3-.2,1.8,0,0,.4-.1.3.1-.1.5.1,1.4-.3,1.6l-.8-.9c.1-.2.6-.1.4-.7-.2-.2-.5-.3-.3-.9-.5-.2-.2.6-.7.4,0,.6.2.2.3.7,0,.2-.1.5-.1.7-.3,0-.4.3-.6.4s-.1-.5-.5-.4c0,.2-.1.4-.3.4-.2.3.2.2.3.3s-.1.3-.1.4.4-.1.4.2-.5.1-.4.5c.3-.1.2.2.3.3s.3,0,.3,0-.1.3,0,.4.3-.1.4,0a1,1,0,0,1-.1.3c.1.1.3,0,.4,0a2.27,2.27,0,0,1-.1.4c.2.1.6-.1.7,0-.3.7.4.6.3,1.1h1a3.4,3.4,0,0,1-.1,1c.3.1.7,0,.7.2s-.1.6-.1.9c0,0,.3,0,.4.2a4.328,4.328,0,0,0-.1.5h1.8c-.2.5.4.3.7.4l.2-2.5c.3.1,1.1-.2,1.1.2a1.48,1.48,0,0,0-.1.7c-.2.2-.5.3-.5.8.6.3.2-.5.8-.3-.4.7.8.1.6.5,0,.2-.2.3-.3.4a.82.82,0,0,0-.5.5c.9-.3.5.5,1.2.4.3-.1.2-.5.6-.4.2-.5-.1-1.5.4-1.8.3.1.1.5.5.4.2-.7-.2-.6-.3-.9,0-.1.1-.4.1-.5s-.4,0-.4-.2c-.1-.4.3-1,.2-1.2s-.5,0-.4-.2l.2-1.8c0-.2-.3-.2-.3-.3a11,11,0,0,1,.2-1.8c0-.3-.3-.2-.4-.4l.3-2.8c0-.2-.2-.2-.3-.4s.2-1,.2-1.4c0-.2-.3-.1-.3-.3a16.352,16.352,0,0,1,.2-2.2c0-.2-.3-.1-.3-.3l.3-3.2c0-.2-.3-.2-.3-.4a19.532,19.532,0,0,1,.2-2.3.22.22,0,0,1-.3-.1c-.1-.1-.2-.3-.4-.4,0-.2.2-.1.2-.2.4-.2.2-.8.3-1.2s-.4-.1-.3-.5c.3-.1.5-.1.4-.4-.7.1,0-1.1-.2-1.6.1-.2-.2-.2-.3-.3a18,18,0,0,0,.2-2.2c.1-.2-.2-.1-.3-.3a12.376,12.376,0,0,0,.2-1.8c0-.3-.4-.2-.3-.5-.1-.6.6-.2.4-.7-.7,0,0-1.1-.1-1.6,0-.3-.3-.2-.4-.4l.3-2.1c0-.3-.5-.2-.3-.5-.1-.6.6-.3.4-.9,0-.3-.4-.2-.3-.6v-.5c.1-.3.5-.1.5-.5-.7.1-.2-.5-.3-.7s-.4,0-.4-.2.2-.2.4-.2c.2-.5-.6-.2-.2-.9,0-.3.4-.1.4-.5-.6-.2-.2.6-.8.3,0-.2.1-.4.1-.7.3,0,.3,0,.4-.3a6.171,6.171,0,0,0,.2-2c-.1-.2-.3-.1-.3-.3.2-.2.5-.3.4-.9-.4-.2-.5.8-.7.2.2-.2.5-.3.4-.9-.5-.2-.2.6-.7.3,0-.4.1-.9.1-1.4.7.3.1-1,.8-.7.1-.3-.2-.3-.3-.5-.1-.4.2-.8.1-1.1s-.2-.2-.3-.3c.2-.3.5-.4.4-.9-.2,0-.4,0-.3.3-.3,0-.7.1-.7-.1s.4-.2.7-.2l.2-2.1c-.5-.3-.2.5-.7.3.1-.3-.2-.3-.3-.5a4.1,4.1,0,0,1,.1-1.1c0-.3-.5-.1-.3-.5.3,0,.4-.3.5-.4.3,0,.2-.4.6-.3,0,.3-.3.9.3.7l.2-1.8c-.2,0-.4,0-.4-.2l.3-3c-.5.2,0-.6-.6-.3-.2.3.1,1-.3,1h-.5c0-.4.1-.9.1-1.4.7.3.1-.8.6-.7.5-.1-.3,1,.5.7.3-.7-.4-.6-.3-1.1-.2.1-.4.1-.4.4-.2,0-.6.1-.7-.2.4-.2.5-.7,1.2-.5.1-.4-.1-1.3.3-1.4l.5.5c-.1.3-.5.1-.4.5.8.1-.2.4-.1.7.8.1-.2,1.4.4,1.5s-.4.9.4.7a2.77,2.77,0,0,0,.1-.9c0-.3-.4-.2-.3-.5.3,0,.3-.1.4-.4a11,11,0,0,1,.2-1.8s.6,0,.4-.3c.3-.6-.6-.2-.3-.7a1.27,1.27,0,0,1,.1-.6c0-.2.4-.1.4-.5-.7.1-.2-.8-.3-1.2s-.4-.2-.3-.6c.6-.2.1.6.7.4l.2-1.4c-.2-.1-.4,0-.4-.2a4.315,4.315,0,0,1,.1-.5c-.2-.1-.4,0-.4-.2s.5-.2.4-.6c-.2,0-.6.1-.6-.1s0-.6.4-.6v-.7c.3,0,.5,0,.4-.3-.2-.1-.6,0-.7-.2l.2-1.2h.7c.1-.4-.3-.4-.3-.6a9.853,9.853,0,0,1,.2-1.7c0-.3-.3-.2-.4-.4l.2-1.2c.2-.1.4-.1.4-.4.2-.6-.1-2.4.5-2.1.3-.6-.5-.2-.3-.7a2,2,0,0,0,.1-.7c.6.1.3-.5.4-.7s.6,0,.4-.4c.1-.6-.4-.2-.2-.7,0-.1.5,0,.3-.4-.6-.2-.6.4-1.1.4-.3-1,.9-.4.9-1.1-.3,0-.7.1-.7-.2-.2-.6.5-.3.4-.8-.1-.1-.3,0-.3,0,.1-.4-.2-1.3.4-1.1.2-.5-.6-.2-.2-.9.1-.3.5-.1.4-.7.2-.5-.9.1-.7-.3,0-.5,1,.1.8-.6-.3,0-.7.1-.7-.2.1-1.1.2-2.3.4-3.5,0-.2-.3-.2-.4-.4.3-.4-.1-1.6.6-1.6.1-.3-.3-.3-.3-.5a16.437,16.437,0,0,1,.4-4.2c.2-1.5.3-3.2.5-4.5-.7.2-.2-.4-.3-.7M402.3,394.7h.3v.3h-.3Zm-5.4,3.8h.3v-.3h-.3Zm50-14.4h.3v-.3h-.3Zm-44.2,28.5h.3v.3h-.3Zm38.5-25h-.3v-.3h.3Zm-1.5,7.4h.3v-.3h-.3Zm-12,3.5h-.3v-.3h.4a.37.37,0,0,0-.1.3m-12-3.5h.3a.37.37,0,0,1,.1-.3h-.4Zm-18.1-7.7h-.3a.37.37,0,0,1-.1.3h.4Zm9.4-7v.3h-.4a.37.37,0,0,0,.1-.3Zm6,39.3v.3h-.4c0-.1.1-.2.1-.3Zm10.1-21.1h-.3v-.3h.4a.37.37,0,0,1-.1.3m-19.4-60.7v-.3h.4a.37.37,0,0,1-.1.3Zm11.7,47.1a.37.37,0,0,0-.4.4c.2,0,.4,0,.4-.4m-4.3,42c-.2-.3.3-.3.4-.3-.1.1-.1.5-.4.3m11.1-72.3h-.3v-.4h.3Zm-15.9,59.9h.3v-.4h-.3Zm6.5,10.9h-.3V425h.3Zm-12.1-33.1h-.3v.4h.3Zm-1,1.2h-.3v-.4h.3Zm-.6-13.6h-.3v-.4h.3Zm18.6,13.6h-.3v-.4h.3Zm-14.5,12.8c-.3.1-.3-.1-.3-.4.1.1.4,0,.3.4m46.7-35h-.3v-.4h.3Zm-52.5,21.4h-.3v.4h.3Zm4.2,23.7h.3v.4h-.3Zm45-32.6h-.4v.3h.4Zm-45.9,40h-.3v-.4h.3ZM414.3,388H414v-.4h.3Zm-15.2-17.1h.3v.4h-.3Zm43.4,17.5h-.3V388h.3Zm-34.9-16.7h.3v.4h-.3Zm-5.1,5.1h-.3v-.4h.3Zm-1.4,56h.3v.4h-.3ZM414.5,381h-.3v-.4h.3ZM455,440.6h.3v-.4H455Zm-8.7-58.8H446v.4h.3Zm-30.1-24.1h.3v.4h-.3Zm-13.3,59.5h-.3v-.4h.3Zm-4.8-4.3h.3v.4h-.3Zm7.8-18.6h-.3v-.4h.3Zm17.6-39.7h-.3v-.4h.3ZM406,369.71h.3v.4H406Zm6.4,15.2h-.3v-.4h.3Zm17,12.5h-.3V397h.3Zm14.4-9.8h.3v.4h-.3Zm-45.7-17.5h-.3v.4h.3Zm3.2,23.8h.3v.4h-.3Zm12.4-7.8h.3v.4h-.3Zm-6.4-4.7H407V381h.3Zm42.2-17.1h.3v.4h-.3Zm-7.7,24.1h-.3V388h.3Zm-42.7-7h-.3V381h.3Zm-.5,46.7h-.3v-.4h.3Zm-1-41.6h-.3v.4h.3Zm5.3-2h-.3v-.4h.3Zm-6.3,34.7h.3v-.4h-.3Zm58.3,24.5h.3v-.4h-.3ZM415,375.61h-.3v-.4h.3Zm3.1,17.1h-.3v-.4h.3Zm-18.2,36.2h-.3v-.4h.3Zm-1.9-24.5h-.3v.4h.3Zm4.9-29.6h.3v.4h-.3Zm-3.4,3.9h-.3v-.4h.3Zm2.1,16.3h.3v.4h-.3Zm1.6-17.9h-.4v-.3h.4Zm.2,54.1h-.3v-.4h.3Zm-3,1.6h-.3v-.4h.3Zm-2.3-61.9h-.3v.4h.3Zm49.2,10.5h.3V381h-.3Zm-46.1-26.1h.3v.4h-.3Zm45.7,27.7h-.3v.4h.3Zm-43.2,28.4h-.3V411h.3Zm2-32.3h.3v.4h-.3Zm-7.3,14h.3v.4h-.3Zm14.2,39.3c-.2,0-.4,0-.4.4.1-.1.6,0,.4-.4m-13.9-26.9h.3v.4h-.4c.1-.1.1-.2.1-.4m13.5-1.5c-.1.1-.1.2-.1.4h-.3V404Zm1.2-9.7h-.3v-.4h.4c-.1.1-.1.2-.1.4m-13.7-23h.4a.6.6,0,0,0-.1.4h-.3Zm3.4-14.4h.4a.6.6,0,0,0-.1.4h-.3Zm5.2,22.2H408v-.4h.4a.6.6,0,0,0-.1.4m-5.6-7.4h.3v.4h-.4a.6.6,0,0,0,.1-.4m44,9.3h-.4v.4h.3a.76.76,0,0,1,.1-.4m-9.8-1.5h.3v.4h-.4a.76.76,0,0,0,.1-.4m-37.4,29.2h.4v-.4h-.3a.76.76,0,0,1-.1.4m-2.8-3.9h.3c0-.2.1-.3.1-.4h-.4Zm9.2-20.3h-.4c0-.1.1-.2.1-.4h.3Zm6.1,45.9v.4h-.4c0-.1.1-.2.1-.4Zm.2-8.1h-.3v-.4h.4c0,.1-.1.2-.1.4m-6-6.6h.3c0-.2.1-.3.1-.4h-.4Zm34.8-22.2h.3c0-.1.1-.3.1-.4H441Zm5.9-11.3h.4v-.4H447c0,.1-.1.3-.1.4m-32.5.8h-.3v-.4h.4a.76.76,0,0,1-.1.4m26.1,7h-.4a.6.6,0,0,1,.1-.4h.3Zm-8.8,6.2h-.3v-.4h.4a.6.6,0,0,1-.1.4m-30.4,18.7v-.4h.4a.6.6,0,0,1-.1.4Zm5.1-37.8h.4c0,.2,0,.3-.1.4h-.3Zm40.1,8.2h.3c.1-.1.1-.2.1-.4h-.4Zm-48.4,36.6h.4v.4h-.4Zm1.2-3.9h-.4v-.4h.4Zm12.7,13.6h-.4v-.4h.4Zm-10.5-42.8h-.4v.4h.4Zm3,6.6h.4v.4h-.4Zm-3.2-44.7h.4v.4h-.4Zm.6,1.9h.4v.4h-.4Zm41.6,36.2h-.4v-.4h.4Zm-37.3-13.2h-.4v-.4h.4Zm4.9,29.2h.4v.4h-.4Zm-11-36.6h.4v.4h-.4Zm2.7,0h-.4v.4h.4Zm1.5,12.8h.4v.4h-.4Zm6.9,41.7h.4v.4h-.4Zm38.1-54.1h.4v.4h-.4Zm-47.6,66.9h-.4v-.4h.4Zm2.7-36.6h.4v.4h-.4Zm2.2,5.5h-.4v.4h.4Zm.9-9.4h-.6v-.3h.6Zm-7-32.3c.2-.1.2-.4.5-.3,0,.3-.2.3-.4.3.1.4-.1.4-.3.4a.52.52,0,0,1,.2-.4m-1.4,60.5c-.1-.2-.4-.2-.3-.5.3-.1.3.1.3.4.3-.1.3.1.3.3-.2.1-.3,0-.3-.2m48.7-46.1h.3v-.7h-.3Zm-48.9-.3h.3v.7h-.3Zm15.2,28.7h.3v-.7h-.3Zm-11.9-39.3c0,.4-.2.4-.4.4.1.4-.1.4-.3.4,0-.2,0-.3.2-.4s.2-.4.5-.4m.7,61.1v-.7h.4a1.7,1.7,0,0,0-.1.7Zm-1.4-49.8v-.7h.4a1.7,1.7,0,0,0-.1.7Zm41.1,14c-.2.1-.2.2-.2.4.2,0,.4,0,.3-.4.2,0,.4,0,.4-.4-.4,0-.4.3-.5.4m-40.2,19.9c0-.2.1-.4.2-.4s.2-.5.5-.4c0,.3-.1.4-.3.4a.37.37,0,0,1-.4.4m37.7-20.6h-.6v-.4h.6Zm-40.2,26.8h-.3v-.8h.3Zm1.9-17.5h-.3v-.8h.3Zm-3.5-3.1h.6v.4h-.6Zm2.1,5h-.3v.8h.3Zm4.7,8.2h.3v.8h-.3Zm-1.8,15.6H403V425h.3Zm8.1-19.1h-.3v-.8h.3Zm-11.7-24.5h-.6v-.4h.6Zm3.1,6.2h-.3v-.8h.3Zm11.2,19.9h.3v-.8H414Zm-.9,8.1h.3v.8h-.3Zm-5.4-27.6h-.3V388h.3Zm-1.6,41.3h-.3v-.8h.3Zm-3.2-66.6h-.6v-.4h.6Zm-2.3.4h.3v.8h-.3Zm.2,68.1h.6v.4h-.6Zm1.6-31.5h-.3v-.8h.3Zm45.1-26.9h-.3v-.7h.4c0,.2-.1.5-.1.7m-48.9,53.7h-.3v-.7h.4c0,.2-.1.5-.1.7m29.5-30.1c-.1-.2-.4-.2-.3-.6.3-.1.3.1.3.4.3-.1.3.1.3.4-.2,0-.3-.1-.3-.2m-11.7-4.1h-.3v-.8h.4a2.2,2.2,0,0,0-.1.8m-10.8-11.3h.4a2.2,2.2,0,0,0-.1.8h-.3Zm-2.8-5.4a2.49,2.49,0,0,0,.1-.8h.3v.8Zm-1.6,54.4a2.489,2.489,0,0,0-.1.8h-.3v-.8Zm-2.5-6.6h-.3v-.8h.4a2.489,2.489,0,0,0-.1.8m16.3-47.1h-.4a1.7,1.7,0,0,1,.1-.7h.3Zm-2.6,7h-.3v-.7h.4a1.7,1.7,0,0,1-.1.7m1.6,22.6h.4v-.8h-.3c0,.3-.1.6-.1.8m-10.3-35.4c0,.3-.1.5-.1.8h-.3v-.8Zm-4.9,17.9h.7v.4h-.7Zm13.6,17.5c-.6-.2-.2.6-.4.8.5.2.3-.4.4-.8m34.8-23.3h.4v-.8h-.3c0,.2-.1.5-.1.8m4.4-14.4h.3a2.2,2.2,0,0,0,.1-.8h-.4Zm-2.6-.8v-.8h.4a2.2,2.2,0,0,1-.1.8Zm-48.8,21h.3v.8h-.4a2.2,2.2,0,0,1,.1-.8m5.5-18.7h.3v.8h-.4a2.2,2.2,0,0,1,.1-.8m-3,51.8a2.2,2.2,0,0,1,.1-.8h.3v.8Zm3.7-56.1h.4a2,2,0,0,1-.1.8h-.3Zm41.3,12.5v-.8c-.5.3-.1-.6-.6-.4-.1.4.2.4.3.6s0,.7.3.6m-44.5-14h-.6v-.8c.3-.1.3.2.3.4.3-.1.3.2.3.4m36.2,27.2h-.6c-.2-.6.5-.1.3-.8.5-.1.3.5.3.8m-38.5-15.1c.5-.2.2.4.3.7h-.7c-.2-.6.5-.1.4-.7m-3,12h.6c0-.3.2-1-.3-.8.2.7-.5.2-.3.8m14,3.9a.37.37,0,0,1-.4.4v-.8h.7c0,.3-.2.4-.3.4m12.5,6.2h-.9v-.4h1c0,.2,0,.3-.1.4m-23.3,12.5c-.2-.6.5-.2.4-.8-.4-.1-.4.3-.6.4s-.5,0-.5.4Zm15.5-44c-.6.2-.2-.8-.3-1.2.6-.1.2.8.3,1.2m-1.7,12.5c-.6.1-.2-.8-.3-1.2.6-.2.2.8.3,1.2m-12.2,2.3c.6-.2.2.8.3,1.2-.6.1-.2-.8-.3-1.2m-1.7,42a2.489,2.489,0,0,1,.1-.8h.6c.1.4-.1.4-.3.4,0,.4-.2.4-.4.4m32-26.4c-.6-.3-.5.4-1,.4-.2-.7.5-.2.4-.8.3,0,.8-.2.6.4m-31-5.5v-.8h.7c.1.4-.1.4-.3.4,0,.4-.2.4-.4.4m-3.3-8.9c-.1.3.1.9-.4.7a3.749,3.749,0,0,0,.1-1.1h.6c.1.3-.1.3-.3.4m4-14c.6-.2.2.7.3,1.1h-.6c0-.5.5-.4.3-1.1m18.9,26.4c0,.3-.1.4-.3.4.2-.8-.4-.6-.3-1.2.4,0,.3.7.9.4.1.4-.1.4-.3.4M408.27,381H408c.1-.5-.3-1.6.3-1.5Zm20.7,17.9h-.6c-.2-.6.5-.1.3-.7h.7c.2.6-.5.1-.4.7m-28.9,11.7c-.6-.2-.2.9-.3,1.4-.1.2.2.1.3.2-.1-.5.1-.9,0-1.6m8.1-27.6h-.3c.1-.5-.3-1.7.4-1.6a8.6,8.6,0,0,0-.1,1.6m-6.5,10.5v-.8c.3-.1.2.4.5.4.1-.1.1-.5.5-.4.1.6-.6.2-.4.8Zm3,6.2v1.6h-.3c.1-.5-.3-1.7.3-1.6m.3-19.8h.7v.7c-.6.2-.8-.1-.7-.7m11.2-10.2h-.4c.2-.4-.2-1.6.4-1.5Zm-14.3,6.7c-.3,0-.3-.2-.4-.4-.2,0-.3-.2-.3-.4-.1-.4.3-.3.4-.4-.1.5.5.4.3,1.2m3.4,6.6h.6v.8h-.7c.1-.1,0-.6.1-.8m-2.9,7.4c.2-.5-.3-1.7.4-1.6a8.6,8.6,0,0,1-.1,1.6Zm46-14.4a4.869,4.869,0,0,0,.1-1.2c.2,0,.4-.1.3-.4-.5-.2-.1.6-.6.4,0,.4-.4,1.4.2,1.2m-49.7-3.9c.7-.3-.1,1.1.6.8V374c-.8.3.2-1.4-.6-1.1Zm5.6,31.9h.6v1.2c-.5.2-.1-.7-.6-.4Zm34-8.2c.1.4-.2.3-.3.4s0,.3,0,.4-.5,0-.4.4c.5,0,.4-.7,1-.4-.2-.6.6-.2.4-.8Zm-37.2,27.3v-1.6c.6-.2.3.6.3,1,.1.2.4.2.3.6Zm3.3-21.4h.6c-.2.5.3,1.9-.4,1.9-.1-.6.2-1.2.1-1.6-.1,0-.5,0-.3-.3M405,381h.7c0,.4-.2.4-.4.4v1.2c-.7.1-.2-1.1-.3-1.6m43-.2c0,.3-.1.7.3.6v-1.5h-.6c-.2.6.1.7.3.9m-9.1,11.9c-.2.2-.2.5-.8.4v-1.2c.5,0,.3.7,1,.4,0,.3-.1.3-.2.4m7.4-12.1h.7c.1-.2-.1-.5,0-.7s.3,0,.3,0c.2-.3.1-1.2-.3-.8.2.3-.3.3-.3.4a2.078,2.078,0,0,1,0,.8c-.1.1-.5-.1-.4.3m-41.1-7.3c.5.1.3-.5.4-.8.7-.1.1,1.3.3,1.9-.4.1-.3-.3-.4-.6s-.3-.2-.3-.5m-.7,25.2v-1.9h.7c-.1.3.1,1-.4.8-.1.4.2,1.3-.3,1.1m7.3,28.1q-.3-.15-.3,0a11.288,11.288,0,0,0,0-2.6c0-.2-.1-.1-.3-.2.1-.9.3.2.7,0a25.288,25.288,0,0,0-.1,2.8m-11.5-41.3c.3-.1.2.4.5.4.1-.1.1-.4.5-.4.1.4-.3.3-.4.4s0,.5-.3.4c-.1.4.2,1.3-.4,1.2,0-.7.1-1.3.1-2M414,408.7c0,.3-.1,1-.1,1.5s-.2,1.3.3,1.2c0-.9.1-1.7.1-2.5,0-.2-.1-.3-.3-.2m-11.3-48.3h.6c.2.9-.5.7-.3,1.6-.6.2-.1-.7-.7-.4,0-.6.6-.4.4-1.2M411,411a8.08,8.08,0,0,0-.1,1.6c-.7,0-.1-1.4-.3-2h1c.2.6-.4.3-.6.4m2.9-21.4c-.5-.2-.1.6-.7.4a13.4,13.4,0,0,0,.1-2c.5-.2.1.7.7.4a4.868,4.868,0,0,0-.1,1.2m-6.4,4.7h-.3c0-1.1.1-2.1.1-3.2h.3c0,1.1,0,2.1-.1,3.2m41.2-16.2c-.1-.2.1-.7-.3-.6-.1.2,0,.4,0,.6a1.422,1.422,0,0,1-.4.2c-.1.4.1.6,0,1.2.3,0,.4-.3.5-.4s.2-.4.5-.4c.1-.4-.2-.4-.3-.6m-35.2,13.8c-.1.3,0,.4-.3.4-.1.3.1.4.3.4v.8c-.5.1-.2-.4-.3-.6s-.4-.2-.4-.6c.7,0,.3-1.3.4-1.9.5-.3.4,1,.3,1.5m-10.2,13.6h-.4c-.1.2-.1.4,0,.4-.3.1-.3-.1-.3-.4.6.3.2-1.9.4-2.7.4-.1.2.4.3.6s.4.2.3.6c-.6-.1-.2,1.1-.3,1.5m29.2-11.2c0-.1-.1-.4,0-.4h.3c.1,0,0-.4,0-.4h.5c.1,0,.2-.6.8-.4.1.4-.3.3-.3.6s-.5.2-.4.6h-.8c-.1.1-.2.4-.5.4-.1-.5.3-.3.4-.4m-31.9-20.7c.6.3.2-.6.7-.3.1.3-.1.3-.3.3-.3.7.5.2.3.8-.7,0-.2,1.4-.4,2-.6.1-.3-.7-.3-1.2Zm37.5,20.3a.37.37,0,0,1-.4-.4c-.5-.2-.2.5-.3.8-.1,0-.5,0-.4.4-.5-.3-.1.6-.6.3v-.7c.5.2.1-.7.7-.4,0-.3-.1-.6,0-.8s.3,0,.3,0c.1-.2,0-.5.4-.4-.3.8.3.6.3,1.2m-37.2,23.3c-.5-.2-.1.6-.6.4v-1.5c.2,0,.3-.1.3-.2.1-.3-.2-.1-.3-.2s0-.6-.3-.4c-.1-.4.1-.4.3-.4a.37.37,0,0,1,.4-.4c0,.3-.1.7-.1,1s.4.1.4.4-.1.6-.4.5c-.2.7.5.2.3.8m21.2-28.4c-.5.2-.2-.4-.3-.8-.3,0-.8.2-.6-.4h-.7c.3-.6-.5-.1-.3-.7.5,0,.7-.1,1,0-.1-.1.2.7.7.4-.1.3.1.3.3.3,0,.4-.1.8-.1,1.2m-10.6,5.5c.2-.1.3,0,.3.2-.1,1,0,2.4-.1,3.7-.1.2.1.9-.4.7Zm-6.7-18.7c.7-.2.7.3,1,.6.2.6-.3.4-.3.7s.2.1.3.2c.1.4-.2,1.1-.1,1.6-.5.2-.1-.6-.6-.4-.1-.4.3-.3.3-.6s-.3-.1-.3-.2a7.567,7.567,0,0,1,.1-1.5c-.1-.1-.6-.1-.4-.4m1.7,52.9c-.6-.2-.2.6-.7.4,0-.5.4-.3.4-.8s-.3-.3-.4-.6c-.1-.6.3-.4.4-.7-.2-.8-.3.4-.7.1,0-.3.2-.3.4-.3-.1-.4.1-.4.3-.4.1-.4-.2-1.4.4-1.2-.1,1.2-.1,2.3-.1,3.5m13.4-40.1c-.7.3-.6-.4-1-.4v-1.5c-.2.1-.3-.2-.3-.4h.7c-.2.4.2.2.3.4s0,.5.3.4c.1.3-.1.3-.3.4-.1.5.5.3.3,1.1m-8,12.5c-.2-.1-.3,0-.3.2a13.429,13.429,0,0,1-.1,1.9c0,.5.2,1.5-.3,1.4-.1-.7.1-2.1,0-2.7,0-.4,0-.4-.3-.4,0-.4.3-.3.4-.6s-.1-.8,0-1.4c.6-.1.2.7.3,1s.4.2.3.6m37.6-27.3c0,.3-.1.5-.3.4a8.6,8.6,0,0,0-.1,1.6c-.6-.1-.2,1.1-.4,1.5.6-.2.1.7.7.4a24.378,24.378,0,0,1,.1-2.7c.3.1.2-.3.3-.4s.5,0,.3-.4c-.5.3-.1-.6-.6-.4m-13.8,22.2c-.4-.1-.6.1-.8.4-.1.1-.2,0-.2.2,0,.4-.4.1-.8.2s-.2.6-.9.4c-.1-.4.3-.3.4-.4s-.1-.4,0-.4.3.1.5,0,.1-.5.2-.8h.8l.3-.4c.1-.1.2-.1.2-.3h.7c0,.5-.6.3-.4,1.1m-34.1-10.9c-.2-.6.5-.1.3-.8-.2,0-.3.3-.5.4s-.2.5-.5.4a17.706,17.706,0,0,0,.1-2.3h.7c0,.4-.4.3-.4.6.3.7.3-.5.7-.2,0,.3-.2,1,.3.8a7.572,7.572,0,0,1-.1,1.5c-.5-.2-.1.6-.6.4-.1-.4.8-.7,0-.8m-1.1,2.7c.6.3.2-.6.7-.3v-.4c.4-.3.5.8.3,1.1,0,.1-.4,0-.3.2s.4.2.6.2c-.1.4.1.4.3.4.1.4-.3.3-.3.6s-.3.1-.5.2-.2.5-.5.4v-1.8c-.1-.2-.3-.2-.3-.6m2.1,49.8c-.8.3.2-1.4-.6-1.1-.1-.3.1-.4.3-.4.2-.4-.3-.3-.3-.4-.1-.3.1-.6,0-1.2-.5-.2-.1.7-.6.4-.1-.3.1-.3.3-.4-.1-.9.2-2,.1-2.9-.1-.2-.4-.2-.3-.6.5-.2.1.7.6.4a27.149,27.149,0,0,1-.1,2.9c0,.3.3.1.4.2.1.3-.3,1,.3.8a18.472,18.472,0,0,0-.1,2.3m4.5-39.8c-.3.7.4.3.3.9-.6-.1-.2,1-.4,1.4.1.2.4.2.3.6-.3-.6-.4,1.4-.3,1.7s.4.2.3.6c-.6-.2-.2.7-.7.4-.1-.4.3-1.3-.3-1.2-.1-.4.3-.2.4-.5.2-.8-.5-.4-.3-1h.3c.2-1.1-.1-3,.1-4.3h.7v.8c0,.4-.4.3-.4.6m-7.2,29.7c.1-.2,0-.6.1-.7s.2,0,.3-.2c.1-.5,0-.8.1-1.4-.7-.3,0,1.1-.7.8,0-1.2,0-2.4.1-3.5.7-.1.1,1.6.2,2.3.6.3.2-.6.7-.4-.1.4.1.4.3.4a24.363,24.363,0,0,1-.1,2.7Zm24.3-31.9v1.2c-.5.2-.3-.4-.3-.8h-1.7a17.7,17.7,0,0,0,.1-2.3h.7v.8c.2-.1.3.1.3.4.3,0,.8-.2.6.3h1c.1.6-.4.4-.7.4m-23.1-25.7h.6c.2.4-.3.3-.3.4-.2.5.1,1.4-.1,2,.7.3,0-1.1.7-.8.2-.6-.5-.1-.3-.8.4-.1.2.3.3.4s.5,0,.3.4c-.8.1.2.3,0,.8-.6-.1-.2,1.2-.4,1.7.1.3.4.2.7.2.2.8-.7.1-.7.6.1.3.4.2.7.2a2.2,2.2,0,0,1-.1.8c-.4,0-.3-.7-.9-.4.1-.3-.2-1,.3-.8.2-.4-.3-.3-.3-.4a2.7,2.7,0,0,0,0-.9c-.1-.2-.4-.2-.6-.2,0-1.1.1-2.1.1-3.2m43.5-27.2c-.5-.1-.7.1-1,0,.1,0-.2-.7-.7-.4.3-.6-.5-.1-.3-.8-.2,0-.6.1-.6-.1,0-.6-.9.1-.6-.6h-1c.2-.7-.6-.2-.3-.8.1.2.7-.2.9,0,.1,0,0,.4,0,.4.3.1,1.2-.3,1,.4h1.3v.7c.2.1.5-.1.7,0a2.273,2.273,0,0,1-.1.4c.2.2.4,0,.4.2s.2.3.3.4,0,.3.1.2.2.2.2.4c-.3.1-.3-.2-.3-.4m-31.9,63.4c.1.3-.2,1.2.2,1.2s0,1.1.1,1.9c-.3,0-.3.3-.5.4s-.2.5-.5.4v-.9c0-.3-.3-.2-.3-.4s-.2-.1-.3-.2,0-.6-.4-.4c.3-.7-.5-.2-.3-.8h.7v.8c.5-.2.6.1.8.4.6-.3-.4-.3-.2-.8a.19.19,0,0,1-.3,0c-.2-.9.6-.7.4-1.6Zm-12.5,24.2a1.06,1.06,0,0,1,.3-1c0-.2-.3-.2-.3-.6h.7c.2-.6-.5-.1-.3-.8h.6c.1-1,.1-2.1.1-3.1.5-.1.2.4.4.6,0,.2.3.2.3.6-.7-.2-.3.9-.4,1.3,0,.2.2.2.3.2v1.8c-.1.5.2,1.4-.4,1.3-.1-.5.3-1.6-.1-1.9-.4,0-.1.8-.2,1.2-.5-.1-.4.6-1,.4m-.7-9c-.1-.5.4-1.7-.3-1.5-.2-.4.3-.3.3-.4.2-.4-.2-1.3.4-1.2v1.7c-.1.5.5.1.8.2s.1-.4.2-.7c.1,0,.3-.1.3-.2,0-.3-.3-.2-.5-.2-.4-.1.1,1.1-.5.8V418c.3-.1.3.1.4.4.4,0,.3-.7,1-.4.1.4-.2.9-.1,1.4l.3.2c0,.4-.2.2-.3.5-.3.8.4.4.3,1h-.7c-.1-.3.3-1.1-.1-1.2-.2,0-.1.4-.2.4-.2.2-.7-.1-1,0-.1.8.3.9.5,1.2.4.1-.1-1.1.5-.8a19.269,19.269,0,0,1-.1,2.4c-.7.1.2-1.8-.9-1.2,0-.4.2-1-.3-.8m1.6-53.3c.6.2.2-.6.7-.4,0,.3-.1.8.2.8s-.2-1.5.5-1.2c-.1-.3.1-.7,0-.9s-.4-.2-.3-.6c.5.2.1-.7.7-.4a2.49,2.49,0,0,1-.1.8c.7.3,0-1.1.7-.8a23.476,23.476,0,0,1-.1,2.7h-.3a4.74,4.74,0,0,0,0,1.2c-.1,0-.3-.1-.4,0s.1.4-.1.4c-.5-.1.1,1.1-.5.7v-1.5c-.7-.3,0,1.1-.7.8,0-.3.1-.7.1-1s-.5-.2-.4-.6m3.7,21c0-.1.4.1.3-.2.2-.6-.3-.5-.3-.8v-.5c-.1-.5.3-.3.3-.6s-.2-.2-.3-.4c-.1-.6.2-1.8.1-2.5a.19.19,0,0,0,.3,0v1.5c.5.3.1-.6.7-.4a13.405,13.405,0,0,0-.1,2h-.7c-.1.6.4.3.7.4.2.7-.7,0-.7.5.1.3.4.2.7.2-.1.6-.4.4-.4.8s.3.3.3.8c-.4-.6-.6,2.3,0,1.9.1.4-.4.3-.4.4-.2.6.1,1.6-.1,2.4-.5-.3-.1.6-.6.4-.1-.7.1-.8.3-1-.1-.2-.3-.2-.3-.6s.3-.3.4-.6c.2-.7-.5-.4-.3-1,.5.2.2-.6.3-.9s-.2-.2-.3-.2c.1-.5-.1-1.2.1-1.6m-4-10.5c0,1,0,2.1-.1,3.1.6.1.4-.9.4-1.3v-1.8c.4.1.3-.4.5-.4s.5,0,.5.2.4.2.3.6c-.2-.1-.3.1-.3.4-.4.1-.2-.4-.5-.4s-.4,1.8.1,1.6c.1.4-.3.2-.3.5a2.649,2.649,0,0,0,.5.6c.3.1.1-.7.2-1-.1-.2-.4-.2-.3-.5.6.3,0-1.1.6-.8,0,1,0,2.1-.1,3.1-.4-.1-1,.2-1.3-.2,0-.1,0-.2-.1-.2-.3.3-.2.9-.2,1.6a7.567,7.567,0,0,0-.1,1.5c-.6,0-.3-1-.3-1.5,0-1.1,0-2.4.1-3.7.1-.5-.2-1.4.4-1.4m11.8,31.5c-.3,1.3.4,4.8-.3,5.5-.1,0-.2,0-.2.2.2.3.5.4.7.7-.1.2,0,.5-.1.6s-.3,0-.3,0c-.1.3.2,1-.3.8l-.2,3.9c-.5-.2-.1.6-.6.4.1-.2-.1-.6,0-.8s.3.1.3-.2a8.08,8.08,0,0,0,.1-1.5c-.1-.3-.3-.2-.3-.4s-.1-.6,0-.8.3-.2.3-.4c.3-.7-.4-.4-.3-1,.2.1.3,0,.4-.2a32.331,32.331,0,0,0,.1-4.4c-.1-.6-.2-.2-.3-.8h.7c.2-.6-.6-.2-.4-.8.5.2.4-.4.4-.8.3.1.3-.1.3-.4.5-.2.5.7,0,.4m-7.7,15.6c-.1.4.3,1.3-.3,1.2v-1.8c0-.2-.3-.1-.3-.4a3.33,3.33,0,0,0,0-1c.1-.5.3-.1.4-.7s-.3-.3-.3-.6v-1c0-.3.1-.4.3-.4a4.48,4.48,0,0,0,.1-1.1c-.7-.3,0,1-.7.7.3-1-.3-3.7.3-4.2.1-.1.2,0,.2-.2s-.4-.2-.3-.4c.1-.6-.2-1.5.2-1.8,0,0,.2,0,.1-.2s-.4-.1-.6-.2c0-.5.6-.4.4-1.1.1-.5-.3-.3-.4-.6.1-.3,0-.6.1-.8s.3-.1.3-.4c-.2-.2-.4-.3-.3-1-.1-.4.3-.2.4-.5v-1c.1-.5-.3-.3-.3-.6,0-.7-.2-1.7.7-1.4a.88.88,0,0,1-.4,1c.1.2.3.2.3.4a9.631,9.631,0,0,1,0,1.7c-.1.3-.1.4-.4.4-.1.5.3.3.4.6a19.269,19.269,0,0,0-.1,2.4c0,.2.3.1.3.3,0,1.5-.1,2.9-.1,4.3,0,.2.3.2.3.4-.1.5.1,1.1-.2,1.4-.1,0-.2,0-.2.2-.2.6.2.4.3.7-.1.8,0,2.2-.1,3,0,.3,0,.3-.3.4-.1.4.2.3.3.5.1.5-.4,1.5.3,1.4.1.4-.3.3-.4.4m2.2-15.6c0,.5-.4.3-.4.6s.3.2.3.4a14.647,14.647,0,0,1,0,2.1c-.1.3-.1.4-.4.4-.1.5.3.3.3.6a27.149,27.149,0,0,1-.1,2.9c-.3-.1-.2.4-.5.4s-.1.5-.2.8c.7.3,0-1.1.7-.8v1.2h-.7v.8c-.1.4.3.2.3.5v.6c0,.4-.1.4-.3.4,0,.3-.1.5-.1.8.7.3,0-1.1.7-.8,0,.2.1.4,0,.6s-.2,0-.3.2,0,.3-.1.4-.3-.1-.3.2.8.3.7,0,0-.6.3-.6c.2.8-.4.6-.3,1.2H406v.5c0,.5.7.1,1,.2,0,.6-.6.4-.4,1.2-.7.3,0-.8-.5-.8s.2,1.8-.5,1.6c0-1.6.1-3.3.1-5.1a26.77,26.77,0,0,0,.2-4.8c0-.2-.2-.2-.3-.2-.2-.7.5-.2.3-.8,0-.3-.2-.4-.3-.6s-.3-.2-.3-.4c-.2-.6.3-.5.4-.8v-.5c.2-.7-.6-.2-.3-.8.6.1.2-.9.3-1.4,0-.2-.3-.1-.3-.4v-.9c0-.4.2-.4.4-.4-.1-.6.2-1.3,0-1.8,0-.2-.4-.2-.3-.6-.1-.6.4-.3.7-.4.2-.4-.3-.2-.3-.3s.1-.5,0-.6-.3-.2-.3-.4v-.6c-.1-.4.3-.3.4-.6s-.3-.1-.4-.2c-.1-.3,0-1.4.4-1.1.1.4-.3,1.3.3,1.1.1.5-.3.3-.4.6s.7.1,1,.2c.1,1.4-.3,3.6-.1,4.9,0,.1.1.1.3.2,0,.3-.2.3-.4.3-.2.7.6.2.4.8m-8.3-9.7h.7v-1c0-.2-.4-.1-.6-.2-.1-.3.1-.3.3-.4,0-.3.1-.3.3-.3,0-.4.2-.4.4-.4v-1.2c.2,0,.3,0,.4-.2-.3-.7-.3.5-.7.2-.2-.4.3-.3.3-.4.4-1.4-.1-3.8.2-5.4h.7c.1.6-.6.1-.4.7.4.1.3-.3.5-.4s.2-.5.2-.7h.7a1.7,1.7,0,0,0-.1.7h-.6a27.161,27.161,0,0,0-.1,2.8c-.7.3,0-.9-.5-.8-.1,0-.2.5-.2.8.1,0,.5,0,.4.4-.2-.1-.3,0-.4.2v.5c.5.3.1-.6.7-.3.1.6-.2.9-.7.7-.2.6.3.4.6.4.1.4-.3.3-.3.6s-.4.2-.4.6c.3.1.4-.2.4-.4.3.1.3-.2.3-.4.3,0,.8.2.7-.4.3-.1.3.2.3.4.5.2.1-.6.7-.4a.37.37,0,0,1-.4.4c.1.3-.1.4-.3.4-.2.6.5.1.3.8h-.7c0-.3.1-.5.1-.8-.5-.2-.6.2-.9.4l-.5.6c.3.7.3-.5.7-.2.2,1.1-.9.8-.7,1.9.5.3.1-.6.6-.4v2c-.8.2,0-1.2-.5-1.2s-.1,1-.2,1.4c.1.2.4.1.7.2a14.771,14.771,0,0,0-.1,2.1.8.8,0,0,1,.3,1c-.5,0-.3-.7-1-.4-.2-.6.6-.2.4-.8-.3-.1-.3.2-.4.4-.2,0-.3,0-.3.2.3.3.3.7,1,.6.2.9-.5.6-.7,1,0,.4.7,0,1,.1.1.9-.7.1-.7.6,0,.3-.6.2-.4,1h.5c.4.1-.1-1.1.5-.8v.8c-.3-.1-.3.2-.3.4-.3,0-.7-.1-.7.2s.7.1,1,.2v.8c-.7-.3-.6.4-1,.3a4.869,4.869,0,0,0-.1,1.2h.7c.2-.6-.5-.1-.3-.8.5.3.1-.6.6-.4v1.6c.8.3-.1-1.4.7-1.2.2-.6-.5-.1-.3-.7.5.2.1-.7.7-.4-.1-.5.2-1.4-.2-1.6-.3.2-.1,1.1-.2,1.6-.5.1-.3-.8-.3-1.2a21,21,0,0,1,.2-4.3c0,.1.3-.1.3-.2V402c-.5-.2-.1.7-.6.4-.1-.3.1-.3.3-.4v-1.1c.4-.1.3.3.3.6s.4.1.7.2c.1.6-.2.7-.4.9-.2.8.5.4.3,1-.5-.2-.3.4-.3.8-.2-.1-.3,0-.4.2.3.7.3-.5.7-.2-.1.3.1.9,0,1.1s-.4,0-.4.2.3.1.4.2c.1.7-.2,2-.1,2.8h-.7c-.2.5.4.3.7.3a4.869,4.869,0,0,0-.1,1.2c-.5.3-.1-.6-.6-.4-.2.7.5.2.3.8,0,.6-.6.4-.4,1.2.7.3,0-1.1.7-.8-.1.4.2,1.3-.4,1.2v1.9c-.6.2-.1-.6-.7-.4,0-.4.4-.3.4-.6s-.4-.2-.3-.5c-.6-.3-.2.6-.7.3,0-.1.1-.4,0-.5a1.439,1.439,0,0,0-.3-.2c.1.2-.2.7.1.7.1,0,.3.4.3.4.1.2.2.2.2.4v.4c-.5.2-.3-.4-.3-.8-.5-.2-.2.7-.7.4-.2.6.5.2.3.8-.4-.1-.4.6-.3,1,0,.2.4.2.3.6-.6-.3-.2.6-.7.3v-1.3c.1-.2-.3-.1-.3-.2-.1-.7.2-1.8.1-2.5,0-.3-.4-.2-.3-.6h.6c.1-.5-.2-.3-.3-.6a37.472,37.472,0,0,1,.2-5.7c0,.1.3-.1.3-.1.1-.2,0-.5.1-.6-.6-.3-.2.6-.7.4-.2-.7.5-.2.4-.8.2-.7-.6-.2-.4-.8.2,0,.3,0,.4-.2-.1-.2-.3-.1-.3-.4v-1c.6.2.2-.9.4-1.3,0-.5-1,.2-.7-.6m16.5-13.6c-.2,0-.4,0-.3.4-.3-.1-.6,0-.7-.2.2-.3.5-.4.4-1,.2,0,.4-.1.3-.4-.2,0-.6.1-.6-.2s.4-.2.6-.2c.2-.5-.1-1.1.1-1.5,0-.1.3,0,.3,0a7.083,7.083,0,0,0,.1-1.4c-.1-.2-.3-.2-.4-.4.2-.3.3-.2.4-.6v-.6c0-.3-.4-.1-.3-.5.2-.1.4-.1.3-.4-.6.1-.1-1.1-.2-1.6-.4-.2-.5.9-.7.2,0-.3.4-.1.3-.6.6.3.2-.6.7-.4.2-.6-.5-.1-.3-.7.6.1.2-1,.4-1.4-.1-.3-.5-.2-.3-.8,0-.3.4-.1.3-.6a2.77,2.77,0,0,1,.1-.9c-.1-.3-.5-.2-.4-.6-.1-.4.4-.3.4-.4.1-.4-.1-.7,0-1.2.7.3.5-.4,1-.4a7.57,7.57,0,0,1,.1-1.5c.6,0,.2-1.4.4-2,.5.3.1-.6.6-.4,0-.6.1-1.3.1-1.9.3.1.2-.2.3-.4.1,0,.3.1.3,0a2.814,2.814,0,0,1,.1-.8h.6c.1-.3-.1-.9.4-.7v-1.2a.37.37,0,0,0,.4-.4c.1,0,.2-.1.3-.2l.3-.4c.1,0,0-.1,0-.2s.3.1.4,0,0-.5.3-.4c-.2-.9.6-.6.4-1.5.5.2.1-.7.6-.4v1.5c.3.1.3-.2.5-.3.2-.4.7-.5.5-1.2.6.2.2-.6.7-.4v-.8c.3.1.4-.2.5-.4l.7-.8c.1,0,.3-.3.4-.3s.1-.5.5-.4v-.8c.2,0,.4-.1.3-.4.3,0,.4-.2.5-.4s.2-.4.5-.4v-.8c.2.1.3-.1.4-.1s.3-.4.3-.4c0-.3.1-.1.2-.2s.3-.3.3-.4h.5c0-.4.1-.8.1-1.2.9.3.7-1,1.6-.8.1-.2.1-.4.4-.4,0-.2-.1-.7.2-.7.6.2.3-.6.8-.4a.52.52,0,0,1,.2-.4,8.116,8.116,0,0,1,.6-.8c.3-.3.5-.5.9-.4-.1-.2.1-.3.2-.4a1.38,1.38,0,0,0,.3-.4c.6.2.4-.6,1.2-.3-.1-.3.1-.3.1-.4.2-.3.5-.6.9-.4-.2-.7.4-.3.6-.4s0-.6.4-.4c-.1.4.2.4.3.6s-.1.4,0,.6.2,0,.3.2-.1.4,0,.5.2.2.3.2l.3.4v1.4c.1-.1.2.1.3.2l.3.4c0,.8-.1,1.5-.1,2.3,0,.3.3.2.3.4.2.4-.1,1,0,1.4,0,0,.3,0,.3.2.2.5-.1,1.1,0,1.7.1.1.3,0,.3.2,0,1-.1,2.3-.1,3.5a21.571,21.571,0,0,1-.1,3.7c-.1.1-.6,0-.4.4v.6c0,.3.4.1.3.6.2.6-.5.1-.3.7-.2.6.5.3.3,1,0,.2-.1.1-.2.2-.4.4,0,1-.2,1.6,0,0-.3-.1-.3,0-.4.4,0,2.1-.1,2.7h-.4c-.1.5.2,1.4,0,1.9-.1.1-.5,0-.4.4v1.6c-.2,0-.4,0-.4.4-.2,0-.3,0-.3.4.4.2.4-1,.7-.2a.52.52,0,0,1-.4.2c0,.2,0,.4-.3.3-.1.4.1,1-.4.8V376h-.7c0,.3.2.9-.3.8v1.1c-.6-.2-.2.6-.7.4a4.869,4.869,0,0,1-.1,1.2h-.6c0,.2,0,.7-.2.8s-.1.2-.2.3-.3,0-.3,0c-.1.2.1.7,0,.8s-.3,0-.4,0c0,.2.1.6,0,.8-.6-.3-.2.6-.3.8-.1,0-.3-.1-.4,0s.1.5,0,.8c0,0-.3-.1-.3,0s.1.6,0,.7h-.7c0,.4-.2.4-.3.6a2.648,2.648,0,0,0-.5.6c-.3.3-.5.6-.9.4.1.2-.1.3-.2.4-.2.3-.4.5-.8.4a.52.52,0,0,1-.2.4.45.45,0,0,1-.3.3c-.1.1-.4,0-.5,0s0,.5-.2.4h-.8c.2.7-.4.2-.7.4,0,.1.1.5-.1.4s-.2.4-.4.4h-.8c.4,1-.7.6-.7,1,0,.2-.3.2-.3.4s-.8.3-.7,0a1.147,1.147,0,0,0,0-.6c0-.1.3,0,.4,0,.2-.3-.2-1.1,0-1.6h.7c.1-.4-.3-.3-.3-.6-.1-.1,0-.4,0-.5s-.3,0-.3-.2v-.6h-.7c0-.3,0-.5-.3-.4.2-.6-.5-.2-.3-.8-.7.3-.5-.4-1-.4h-.5c-.2,0-.1.5-.5.4.2-.7-1-.3-1.3-.4,0,0,.1-.4,0-.4-.5-.1-1,.1-1.6,0-.1.2.1.7,0,.8h-.3c-.2.4,0,.9-.1,1.2,0,0-.3-.1-.3,0-.3.3.2,1.4-.1,1.9-.2,0-.4.1-.3.4-.2.8.2.7.3,1,.1.5-.3.9.1,1s.2.8,0,.7c-.4.1.2-1.1-.5-.7v.7c-.3,0-.3.3-.5.4h-.8c0-.5-.6-.4-.3-1.1-.2-.1-.4-.1-.3-.4-.5-.3-.2.6-.7.4v-1.2h1c.1-.4-.2-.4-.3-.6s-.4-.2-.3-.8c.1-.1.2-.2.3-.2.1-.2.1-.4.4-.4.2-.6-.5-.1-.3-.7.2-.1.4-.1.3-.4m36.5-23.4c-.1,0-.3,0-.3-.2-.3-1.8.3-4.8.2-7,0-.2-.3-.2-.3-.4-.1-.4.1-.9,0-1.3,0-.1-.4,0-.3-.2v-1.6c0-.2-.2-.2-.3-.4-.1-.5.3-.9-.1-.9s-.1-.9-.1-1.2c-.1-.1-.4,0-.4-.2a6.149,6.149,0,0,0,.1-1.4.22.22,0,0,1-.3-.1l-.3-.4c-.1-.6.1-1-.2-1s0-.9-.1-1.2c0-.1-.3,0-.3-.2s.1-.4,0-.6-.3.1-.3-.2c-.1-.1,0-.4,0-.5-.2-.1-.4-.1-.3-.4-1,.2-.7-1.1-1.6-.8.2-.8-.4-.6-.3-1.2h-1V341c-.3-.1-.8.2-.6-.4-.6.3-.8-.5-.7-.4-.1-.1-.8.1-1,0,0-.1.1-.4,0-.4s-.8.1-.9,0,0-.4,0-.4c-.4-.1-1.1.2-1.3,0-.1,0,0-.4,0-.4-.5-.1-.9.1-1.3,0-.1,0,0-.4,0-.4-.2-.2-.9.2-1,0-.1.3,0,.7-.2.8s-.5,0-.5-.2.4-.1.4-.6h-2.3c.3-.6-1.6-.4-1.7-.4s.1.5-.1.4c-.6.1-1.2-.2-1.2.2s-1,.1-1.3.2c.2.7-.4.2-.7.4-.1.1,0,.5-.2.4h-.8c.1.4-.2.2-.3.4s0,.4-.2.4-.2.3-.3.4-.2-.1-.2,0v.3c-.1.2-.3,0-.3.2-.1.4-.5.1-.7.2s0,.3-.2.4-.3,0-.5,0c0,.3.1.7-.2.8-.1,0-.4,0-.5.2s-.1.1-.1.2l-.4.4-.6.8c-.1,0-.2-.1-.2,0v.3h-.4c-.1,0,.1.4,0,.4h-.3c-.1,0,.1.4,0,.4h-.3c-.1.2,0,.4-.2.4s-.1.1-.2.2l-.3.4-.7.8v.2c-.1,0-.3-.1-.3,0v.4c0,.1-.3-.1-.4,0s.1.3,0,.3h-.3v.4h-.4c-.1.2.1.6,0,.8-.6-.3-.5.4-1,.4v.8c-.3-.1-.2.2-.3.4-.1,0-.3-.1-.4,0s.1.5,0,.7c-.5-.2-.1.7-.7.4v1.2c-.5,0-.3.7-1,.4-.1.1.1.7,0,.8s-.3-.1-.3,0,0,.6-.1.7-.3,0-.3,0c-.1.2.1.7,0,.8s-.3,0-.4.2,0,.1-.1.2-.2.4-.5.4c0-.4-.2-.4-.3-.6.1-.4-.3-1.5.3-1.3.4-2.3-.2-4.4.2-6.3h.2c.4,0,0-3.5.4-3.5s.2-3.2.3-3.9c-.2.1-.2-.1-.3-.1a4.011,4.011,0,0,1-.3-.4v-.6c-.2-.2-.7.1-.7-.2.3-.8-.4-.4-.3-1-.4.1-.8-.1-1.1,0s-.2.5-.5.4c.1-.4-.2-.3-.3-.4s0-.3,0-.4c-.2-.1-.7.2-.7-.2s-.4-.1-.3-.6h-1c.3-.6-.5-.1-.3-.7-.1-.4.4-.4.4-.4.1-.4-.3-1.3.3-1.2.1-.4-.2-.4-.3-.6s.1-.6.1-.9a3.329,3.329,0,0,0-1,0c0-.6-.6-.4-.3-1.2-.6.1-.8-.1-.6-.8h-1.4c.2-.6-.3-.3-.6-.4,0-.2-.1-.3-.1-.4s-.3-.2-.4-.4c0,0-.1.1-.1,0v-.4c0-.1-.5.1-.3-.3h-.7c0-.3,0-.5-.3-.4.2-.7-.5-.2-.3-.8H405c.2-.6-.4-.4-.7-.4.1.6-.2,1.2,0,1.6,0,.1.5,0,.3.3v.6c0,.2-.1.2-.2.2-.4.4-.1,1.4-.2,2-.6-.2-.3.9-.4,1.1s-.3,0-.3,0c-.3.3.1,1.7-.1,2,0,0-.3-.1-.3,0-.3.3.1,1.6-.1,1.9,0,.1-.5,0-.3.4-.2.8.3.6.3,1.2h-.7c-.2.6.6.1.3.8-.6-.3,0,1-.6.7-.2.6.1,1.2-.1,1.6,0,.1-.5,0-.3.4.4.2.4-.9.6-.2,0,.1-.1.2-.3.2,0,.3.1,1-.3.8-.1.5.5.3.2,1.1-.5-.1-.7.1-.6.8.5.3.1-.6.6-.4v2c-.5-.2-.3.4-.4.7-.2.1-.4.1-.3.4.4.3.4-.9.6-.2,0,.2-.1.3-.3.2,0,.4.1,1-.3.8-.2.7.2,2.7-.4,2.3-.2.6.5.3.3,1-.1.2-.2.2-.4.2,0,.4.2,1-.3.8-.1.9.1,3.5-.3,3.5s0,3.1-.4,3.1-.2,2.9-.3,3.5H399c-.3.6.5.2.3.8-.2,0-.4,0-.4.4.5-.3.5.6,0,.4-.1.6.6.2.3.9-.1.3-.3.2-.3.6a19.276,19.276,0,0,1-.1,2.4s-.3,0-.3.2a.749.749,0,0,1-.1.5c.5.3.5-.9.7-.2,0,.2-.1.3-.3.2-.1.3-.1.5-.4.4,0,2.5-.1,5-.2,7.4-.2,0-.4.1-.3.4.2,0,.6-.1.6.2s-.1.1-.2.2-.1.1-.1.4c-.5,2.5.1,6.2-.3,8.9.5.2.2-.5.3-.7s.5,0,.4-.4.1-.7,0-1-.4-.2-.3-.6h.7c-.1,1.2-.1,2.3-.1,3.5-.7-.1-.3,1.1-.4,1.6.1,0,.3,0,.3.2-.1.4.2,1.2-.2,1.3s-.1-.5-.5-.4c-.2.8.3.7.3,1.2-.3-.1-.2.3-.3.4s-.5,0-.4.4c.3-.1.4.2.5.4l.5.6c-.2.4.2,1.5-.4,1.3,0-.6.2-1.1-.1-1.1-.5-.1.2-1-.5-.8,0,1.3-.1,2.7-.1,4.1,0,.3.4.1.3.5-.1.2,0,.5,0,.6a1.419,1.419,0,0,1-.4.2c-.1.5.1,1.2,0,2h.6c0-.3.1-.6.1-.8a.37.37,0,0,1-.4-.4c.9,0,0-2,.6-2.3l.5.5c-.1.4-.5.2-.4.8.1.3.3.2.3.6s-.3.3-.3.8c-.2.6.5.1.3.8-.2,0-.6-.1-.7.2,0,.5-.8-.3-.6.5.6.4.7-.8.9-.2,0,.4-.5.2-.3.8,0,.3.4.2.3.6.2.6-.5.2-.3.8.5.2.1-.6.6-.4-.1.4.1.8,0,1.2,0,0-.3-.1-.3,0-.4.3.1,1.4-.1,1.9-.5-.2-.3.4-.4.8.6.2.2-.6.7-.4v.8h-.7c-.1.4.3.3.3.6s0,2.6-.4,2.1c.1.5.4.3.3.8s-.3.2-.3.8c.3,0,.8-.2.6.4h-.6v.9c0,.3.4.2.3.6-.9.1.2.4-.1,1,0,.3-.4.1-.3.6.6,0,.2.9.3,1.3s.2.1.3.2-.1.6,0,.8h-.7c-.2.8.4.6.3,1.2-.2,0-.4,0-.3.4.6-.2.1.7.3,1.1,0,.1.4,0,.3.2s-.1.1-.2.2c-.3.3-.1,1.1-.2,1.6.7-.1.1,1.3.3,1.9h-.7c-.1.4.3.4.3.6.1.5-.1,1.3,0,1.9,0,.3.2.2.3.4a7.08,7.08,0,0,1-.1,1.4c.2-.1.3.1.4.2l.3.4c-.1.3-.5.1-.4.6.6-.2.2.7.3,1.1.6-.2.2.6.3.8s.4,0,.3.2-.5.2-.3.8a.78.78,0,0,1,.3.9c.2.1.4.1.3.4.2.7-.5.2-.4.8.3.1.9-.2.7.4H399v1.2c.2,0,.6-.1.7.2-.3.6.2.4.3.7a3.749,3.749,0,0,0-.1,1c.3,0,.4.3.5.4l.5.6c.2.2.4.3.3,1,.2-.1.2.1.3.2l.3.3c0,.4.4.2.3.6h.7c0,.3,0,.5.3.4,0,.4.2.4.3.6s.3.3.3.6c.5.1.7-.1,1,0v.4c.1.1.4-.1.5,0s.1-.5.5-.4h.5c.1-.1.1.4.1.4.4.1,1-.2,1.3,0,.1,0,0,.3,0,.4h.4c.7.1,1.7-.1,2.6,0a19.275,19.275,0,0,1,.1-2.4c.6.1.2-1.3.3-1.9.7.1.3-1.2.4-1.6,0,0,.3.1.3,0,.5-.5-.4-2.7.3-2.7.3,0,.2-2.4.2-2.7-.2-.1-.6.1-.6-.2s.4-.2.3-.6a.37.37,0,0,0,.4-.4c.2,0,.4,0,.3-.4.2-.6-.5-.1-.3-.8.3.1.3,0,.4-.3.1-.5-.1-1.5,0-2-.8-.3.1,1.5-.7,1.2-.1-.4.3-.8.1-1.2-.1-.1-.3.1-.4-.2,0-.1.2-.2.4-.2.2-.6-.6-.1-.3-.8.2.1.4.1.3.4.5.3.1-.6.7-.4,0,.4-.4,1.4.2,1.2.3-1.3-.1-3.2.2-4.3,0-.1.5,0,.3-.4-.6.2-.2-.7-.3-1.1-.2,0-.4-.1-.3-.4.3-.1.8.2.7-.4.2-.6-.5-.2-.3-.8.7.1.1-.4,0-.6s.1-.1.2-.2c.6-.6,0-4.4.3-5.4,0-.1.5,0,.3-.4-.2-.1-.4.1-.6,0s0-.3,0-.4c-.2-.1-.7.2-.7-.2a1.07,1.07,0,0,1,.2-.6c.3-.4.7-.4,1.2-.3v-.8c-.7-.3-.6.6-1.3.4,0-.2-.1-.5,0-.6s.3-.1.3-.2a2.485,2.485,0,0,1,.1-.8c.1-.2.5,0,.3-.4.1-.4-.2-.4-.3-.6.1-.3.5-.1.3-.7,0-.4-.4-.2-.3-.6s-.1-1,.4-.8c.2-.6-.5-.2-.3-.8.6.1.2-1.2.4-1.7,0-.3-.4-.2-.3-.6-.2-.4.3-.3.3-.4.1-.4-.1-.7,0-1.2h.7c.3-.7-.7,0-.7-.6a2.771,2.771,0,0,0,.1-.9h.6c.3-.8-.7-.1-.6-.6,0-.3.4-.2.3-.6.5.2.3-.4.4-.8-.6-.1-.1,1.2-1,.8v-1.9h.7V397h-.9c-.1-.4.2-1-.3-.8-.1,1.8-.2,3.6-.2,5.5.1,0,.3,0,.3.1-.1.5.3,1.6-.4,1.4.1.6.3.3.3.8.1.2,0,.5,0,.8-.6-.3-.1.8-.5.7-.2,0-.5.1-.5-.1,0-.4.4-.2.4-.6v-1.2c-.2,0-.6.1-.7-.2.1-.3.4-.2.7-.2.3-2.1-.2-5.1.2-7h.4c-.1-.2-.1-.5-.4-.4,0-.2.1-.5.1-.8h.6v1.2c.7-.3.5.4,1,.4-.1-.2-.1-.5-.4-.4.1-.3,0-.7.2-.8s.1.5.5.4c.1-.5-.1-.8,0-1.1s.5,0,.4-.4c-.2-.1-.4-.1-.3-.4-.6-.3-.2.6-.7.4-.2-.9.6-.7.4-1.6h.6c.1-.3-.1-1,.4-.8.2.8-.4.6-.4,1.2.4-.1.2.3.3.4s.3-.1.4,0a2.271,2.271,0,0,0-.1.4c.2.1.5-.1.7,0-.2.6.1.7.3.9a10.591,10.591,0,0,0,1,1.2c.2.3.4.5.2,1h.7c-.1.4.2.2.3.4.1,0,0,.3,0,.4.2.1.7-.2.7.2,0,.2.2,0,.3.2,0,0-.1.3,0,.3h.6c-.2.8.4.7.3,1.2h1c-.3.8.9,0,.6.8.6.2.2-.6.7-.4.2.6-.5.1-.4.8.3,0,.9-.2.7.4h1.3c-.1.7.9.2,1.3.4,0-.2,0-.4.2-.4h2.1c0-.8,1.2-.2,1.7-.4,0,.3-.2.9.3.8.1-.4-.2-1.2.2-1.2h1.1c-.1-.8.7-.2,1-.4.1,0,0-.5.2-.4h1.1c.2-.3-.3-.3-.3-.4a1.08,1.08,0,0,1,.2-.8c.4,0-.2,1.1.5.8.3.1.3-.3.5-.4.5-.2.4,0,.6-.4.6.3.5-.3.7-.3h.8c-.2-.8.4-.7.4-1.2-.3-.1-.3.3-.5.4s-.4-.1-.5,0,0,.3-.2.4-.3-.1-.5,0c.1.3-.2.3-.3.5s-.4.2-.7.2c.3-.7-.3-.6-.3-1.1.3-.1.7,0,.7-.2s.1-.1.2-.2l.3-.4c.3,0,.1.5.5.4a.52.52,0,0,1,.2-.4l.3-.4c.6.2.4-.4.7-.4s.1-.1.1-.2l.6-.6c.2-.2.3-.5.8-.3a.68.68,0,0,1,.3-.6,2.649,2.649,0,0,0,.5-.6c.2-.2.4-.6.9-.4v-1.6c.5.3.2-.6.7-.4v.8c.2,0,.4,0,.3-.4.3.1.3-.2.5-.4s.3-.5.8-.3c.3-.7-.5-.2-.3-.8a.37.37,0,0,0,.4-.4c.5.2.1-.6.6-.4v.8c.6-.3.1.6.7.4.2-.8-.4-.6-.3-1.2h.6c.1-.2.1-.5.4-.4V388c.2,0,.4,0,.3-.4.3.1.4-.2.5-.3l.2-.2v-.2h-.3v-.4h.3v.4c0-.1.3,0,.3,0,.1-.2,0-.6.1-.8.2,0,.4-.1.3-.4-.3-.1-.3.3-.5.4s-.4-.1-.5,0,0,.3-.2.4-.3-.1-.5,0c.1.2-.1.3-.1.4s-.3.2-.4.4c-.2-.3-.3-.6-.8-.4.1-.6-.5-.4-.3-1.2h1c0,.2,0,.5.3.4.1-.4-.2-.4-.3-.6s-.3-.2-.3-.6.3-.3.3-.4c.2-.2-.1-.9.4-.7v-1.2c.4.1.3-.2.4-.4s.3.1.3,0-.1-.8.2-.8.1-.5.5-.4v-1.5c.7.1.3-1.1.4-1.6.7.3,0-1.1.7-.8a12.1,12.1,0,0,1,.1-1.9c.3,0,.3-.2.5-.4s.2-.4.5-.4v-1.9c.1-.1.3,0,.4,0,.1-.7-.1-2,0-2.8.2,0,.4,0,.4-.3.2,0,.6-.1.6.2.1.1-.1.1-.1.1-.4.3-.1.8-.2,1.2-.1.1-.3,0-.4,0-.2.3.2,1,0,1.2.3-.2.2.2.3.4s.5-.1.3.4c-.5.2-.1-.7-.6-.4,0,.5-.6.4-.4,1.1.3.1.4-.2.5-.3h.8c-.1-.7.6-.2.4-.8.2-.7-.5-.2-.3-.8.7.3,0-1.1.7-.8v-1.5c.5.2.2-.7.7-.4v-1c0-.3-.4-.2-.3-.6.2,0,.4,0,.4-.4-.2,0-.4,0-.4-.2.2-.3.3-.1.4-.6.1-.8-.2-2,.1-2.7,0-.1.5,0,.3-.4" transform="translate(-381.6 -311.17)"/>
    </g>
    <g class="cls-5" transform="matrix(1, 0, 0, 1, -14.97, -10.02)">
      <path id="Path_10-2" data-name="Path 10" class="cls-2" d="M965.18,434.38,969,417h-4.21l-1.43,6.58h-5.07l1.46-6.58h-4.21l-3.82,17.34h4.21l1.56-7.07h5L961,434.38Zm-20.66.31a7.43,7.43,0,0,0,6.47-4l-3.32-1.77a3.63,3.63,0,0,1-2.91,2c-1.72,0-2.78-1.25-2.78-3.22,0-3.33,1.81-7.28,4.44-7.28,1.4,0,2.29,1.12,2.55,2.71l4-1c-.49-2.63-2.26-5.38-6.31-5.38-5.59,0-9,5.51-9,11.09a6.46,6.46,0,0,0,6.86,6.84m-16.24-9.93.88-4.05h2.08a1.5,1.5,0,0,1,1.56,1.63,2.3,2.3,0,0,1-2.34,2.42Zm6.39,9.62-1.4-6.48a6.31,6.31,0,0,0,3.92-6,4.84,4.84,0,0,0-5-4.86H925.8l-3.82,17.34h4.21l1.3-6h1.71l1,6Zm-18.39-6.32H913l3.09-6.65Zm4.46,6.32L919.45,417h-5.07l-8.94,17.34h4.7l1.22-2.66h4.94l.05,2.66Zm-16,0,.8-3.67h-6.23l.72-3.3H906l.8-3.66h-6l.65-3h6.21l.84-3.67H898.06l-3.82,17.34Zm-17.54.31a6.05,6.05,0,0,0,6.42-6.08c0-4.37-6.22-4.89-6.22-6.76a1.5,1.5,0,0,1,1.62-1.43,5.12,5.12,0,0,1,3.79,1.69l2.39-3a8,8,0,0,0-5.79-2.34c-4,0-6.45,2.83-6.45,5.92,0,4.39,6.24,4.84,6.24,6.73a1.67,1.67,0,0,1-1.9,1.59,5.48,5.48,0,0,1-4.31-2.08l-2.44,3c1.24,1.62,3.76,2.71,6.6,2.71m-8.5-.31.81-3.67h-6.24l.73-3.3h6l.81-3.66h-6l.65-3h6.21l.83-3.67H872l-3.82,17.34Zm-19-9.62.89-4.05h2.08a1.51,1.51,0,0,1,1.56,1.63,2.3,2.3,0,0,1-2.34,2.42Zm6.4,9.62-1.41-6.48a6.32,6.32,0,0,0,3.93-6,4.84,4.84,0,0,0-5-4.86h-6.4l-3.82,17.34h4.21l1.3-6h1.72l1,6Zm-20.89,0L849,417h-4.19l-2,8.94-3-8.94h-4.29l-3.82,17.34h4.21L838,425l3.2,9.39Zm-16.19,0L832.79,417h-4.21l-3.82,17.34Zm-16.69.31a6,6,0,0,0,6.42-6.08c0-4.37-6.21-4.89-6.21-6.76a1.5,1.5,0,0,1,1.61-1.43,5.13,5.13,0,0,1,3.8,1.69l2.39-3a8,8,0,0,0-5.8-2.34c-4,0-6.44,2.83-6.44,5.92,0,4.39,6.24,4.84,6.24,6.73a1.67,1.67,0,0,1-1.85,1.61,5.48,5.48,0,0,1-4.31-2.08l-2.45,3a8.42,8.42,0,0,0,6.6,2.71m-9-.31L807.14,417H803l-2,9-3-9h-4.28l-3.82,17.34h4.2l2.06-9.39,3.19,9.39Zm-22-3.41c-1.71,0-2.78-1.3-2.78-3.22,0-3.35,1.79-7.28,4.39-7.28,1.72,0,2.81,1.33,2.81,3.25,0,3.33-1.82,7.25-4.42,7.25m-.23,3.72c5.71,0,9-5.72,9-11.1a6.5,6.5,0,0,0-6.86-6.83c-5.69,0-9,5.71-9,11.09a6.49,6.49,0,0,0,6.86,6.84m-10.45-.31L774.5,417h-4.21l-3.82,17.34Zm-9.79,0,3-13.67h3.72l.81-3.67H756.78l-.81,3.67h3.72l-3,13.67Zm-11.23-6.32h-3.25l3.09-6.65Zm4.47,6.32L752.83,417h-5.07l-8.94,17.34h4.71l1.22-2.66h4.94v2.66Zm-19.46,0L743.61,417H738.9l-5.84,12.4-.37-12.4H728.3l1.3,17.34ZM718.24,431c-1.71,0-2.78-1.3-2.78-3.22,0-3.35,1.8-7.28,4.39-7.28,1.72,0,2.81,1.33,2.81,3.25,0,3.33-1.82,7.25-4.42,7.25m-.23,3.72c5.72,0,9-5.72,9-11.1a6.5,6.5,0,0,0-6.86-6.83c-5.69,0-9,5.71-9,11.09a6.49,6.49,0,0,0,6.86,6.84m-10.47-.31L711.36,417h-4.19l-2,8.94-3-8.94h-4.29l-3.82,17.34h4.21l2.06-9.39,3.19,9.39Zm-16.22,0L695.14,417H691l-2,9-3-9h-4.29l-3.82,17.34h4.21l2-9.39,3.2,9.39Zm-16.19,0L679,417h-4.21l-3.82,17.34Zm-16.47-12.45c0-1.43.73-2.47,1.45-2.47.55,0,.91.31.91,1.12,0,1.14-1,1.84-2.26,2.44a5.739,5.739,0,0,1-.1-1.09m-2,9.82a1.74,1.74,0,0,1-1.71-1.92,3.33,3.33,0,0,1,1.38-2.68c.26.65.52,1.33.8,2s.63,1.37,1,2.13a2.919,2.919,0,0,1-1.49.49m7.28,2.63c-.65-1.07-1.19-2-1.69-3a23.19,23.19,0,0,0,3-4l-2.62-1.64a21.446,21.446,0,0,1-1.74,2.8c-.26-.52-.5-1.09-.76-1.68s-.41-.94-.59-1.41c2.36-1.06,4.75-2.21,4.75-5.09,0-2.37-1.84-3.59-4.1-3.59a5,5,0,0,0-5,5.15,9.857,9.857,0,0,0,.34,2.49c-2.31,1.09-4.47,2.63-4.47,5.93,0,3,2.08,4.34,4.89,4.34a7.06,7.06,0,0,0,3.58-1c.16.24.29.5.42.71Zm-25.44.31a6,6,0,0,0,6.42-6.08c0-4.37-6.21-4.89-6.21-6.76a1.49,1.49,0,0,1,1.61-1.43,5.11,5.11,0,0,1,3.79,1.69l2.4-3a8,8,0,0,0-5.8-2.34c-4,0-6.44,2.83-6.44,5.92,0,4.39,6.23,4.84,6.23,6.73a1.66,1.66,0,0,1-1.84,1.61,5.5,5.5,0,0,1-4.32-2.08l-2.44,3a8.42,8.42,0,0,0,6.6,2.71m-8.5-.31.81-3.67h-6.24l.73-3.3h6.06l.8-3.66h-6l.65-3H633l.83-3.67H623.4l-3.82,17.34Zm-17.64.31a7.43,7.43,0,0,0,6.47-4l-3.33-1.77a3.6,3.6,0,0,1-2.91,2c-1.71,0-2.78-1.25-2.78-3.22,0-3.33,1.82-7.28,4.45-7.28,1.4,0,2.28,1.12,2.54,2.71l4-1c-.49-2.63-2.26-5.38-6.31-5.38-5.59,0-9,5.51-9,11.09a6.46,6.46,0,0,0,6.86,6.84m-10.47-.31L605.73,417h-4.18l-2,8.94-3-8.94h-4.29l-3.82,17.34h4.21l2.06-9.39,3.19,9.39Zm-19.1-6.32h-3.25l3.09-6.65Zm4.47,6.32L586,417h-5.07L572,434.38h4.71l1.22-2.66h4.94v2.66Zm-19.46,0L576.76,417h-4.71l-5.84,12.4-.37-12.4h-4.39l1.3,17.34ZM549,430.71l2.21-10H553c1.56,0,2.7,1.22,2.7,3.19,0,3.07-1.64,6.81-4.88,6.81Zm1.07,3.67c7.51,0,9.92-6,9.92-10.68a6.32,6.32,0,0,0-6.23-6.66h-6L544,434.38Zm-11.75-6.32h-3.25l3.1-6.65Zm4.47,6.32L541.49,417h-5.06l-8.94,17.34h4.7l1.22-2.66h4.94v2.66Z" transform="translate(-381.6 -311.17)"/>
    </g>
    <g class="cls-4" transform="matrix(1, 0, 0, 1, -14.97, -10.02)">
      <path id="Path_11-2" data-name="Path 11" class="cls-1" d="M948.59,394.43c-4.94,0-6.54-5.7-6.54-15.35s1.6-15.28,6.54-15.28,6.46,5.55,6.46,15.28-1.6,15.35-6.46,15.35m0,10.87c13,0,18.92-12.77,18.92-26.22s-5.93-26.15-18.92-26.15-19,12.7-19,26.15,6,26.22,19,26.22m-23.41-.91V393.67H908.31c12-11.32,16.49-17.33,16.49-24.62,0-9.73-7.45-16.12-18.16-16.12a23,23,0,0,0-18.24,8.44l7.14,7.83c3-3.5,6.46-5.4,10.87-5.4,3.49,0,6,2.21,6,5.4,0,4.86-3,7.83-22.42,25.31v9.88Zm-59-10c-4.94,0-6.54-5.7-6.54-15.35s1.6-15.28,6.54-15.28,6.46,5.55,6.46,15.28-1.6,15.35-6.46,15.35m0,10.87c13,0,18.92-12.77,18.92-26.22s-5.93-26.15-18.92-26.15-19,12.7-19,26.15,6,26.22,19,26.22m-23.41-.91V393.67H825.85c12-11.32,16.49-17.33,16.49-24.62,0-9.73-7.45-16.12-18.16-16.12a23,23,0,0,0-18.24,8.44l7.14,7.83c3-3.5,6.46-5.4,10.87-5.4,3.49,0,6,2.21,6,5.4,0,4.86-3,7.83-22.42,25.31v9.88Zm-66.27,0v-40h10.79V353.69h-34v10.72h10.87v40Zm-28.73-50.7H735.41v50.7h12.31Zm-20.36,50.7v-50.7H711.17L702.5,379l-8.58-25.31H677.58v50.7h12.31v-30.1l10.18,30.1h4.79l10.26-30.1v30.1Zm-57.84,0v-50.7H653.33L644.67,379l-8.59-25.31H619.74v50.7h12.31v-30.1l10.19,30.1H647l10.26-30.1v30.1Zm-77.67.91c12.08,0,19.83-6.92,19.83-18.93V353.69H599.3v32.76c0,5.09-2.66,8.06-7.45,8.06s-7.53-3-7.53-8.06V353.69H571.94v32.68c0,12,7.82,18.93,19.91,18.93m-43.7,0c11.48,0,18.16-6.54,18.16-16.19,0-17-22.42-15-22.42-21.66,0-2.28,1.68-3.88,4.79-3.88a16.16,16.16,0,0,1,11,4.18l5.7-9.12a24.16,24.16,0,0,0-16.26-5.77c-11.48,0-17.79,7.45-17.79,15.58,0,17.63,22.5,14.59,22.5,21.89,0,2.5-2.2,4.33-5.78,4.33a17,17,0,0,1-12.38-5.4l-5.86,9.43c4.26,4.1,10.11,6.61,18.32,6.61" transform="translate(-381.6 -311.17)"/>
    </g>
    <rect id="Rectangle_51" data-name="Rectangle 51" class="cls-3" width="572.67" height="126.24"/>
  </g>
</svg>
