<svg xmlns="http://www.w3.org/2000/svg" viewBox="0 0 177.22 49.92"><defs><style>.a{fill:#231f20;}</style></defs><path class="a" d="M26.88,27.41c-.24-.2-.24.43-.24.57v.29c-.19.77-.24,1.63-.38,2.4h-.05v.82l-.14.09-.1.24h-.1V33c-.28-.09-.28.34-.28.53h-.05a12.16,12.16,0,0,1,0,1.35h-.15a2.54,2.54,0,0,0-.19,1v.2H25l-.05.52h-.09a1.19,1.19,0,0,1-.2.82V38l-.14.09-.1.24h-.09A4.49,4.49,0,0,0,24,39.7l-.09-.05A3.09,3.09,0,0,0,23.52,41v.19a.23.23,0,0,0-.29.24v.1h-.09c0,1.15-.77,1.34-.91,2.26l-.1-.05v.53l-.48.52v.48l-.38.34-.05.38h-.1v.48c-.48,1-1.34,1.68-1.34,2.84v.24l-.29.19-.1,0-.14.38v.48h-.34c-.81,1.59-2.2,2.84-3.07,4.42v.1a9.7,9.7,0,0,0-1.68,2l-1.15,0-.24-.24a18.53,18.53,0,0,1-2.88-.14l-.34-.19L9.36,56l-.48-.19H8.21v-.34c-.34.09-.77-.53-1.06-.67H6.82c.14-.39-.44-.67-.68-.87v-.53c-.91,0-2.49-2.83-2.88-3.55l.15-.57a11.82,11.82,0,0,1-1.54-2.5c.1-.48-.43-1.15-.67-1.54v-.57l-.14-.19c0-.58-.44-1-.53-1.49s.19-.82-.15-1.3l0-.48.19-.38v-.34H.48l-.29.19V39.5c.34,0,0-.86,0-1A11.13,11.13,0,0,0,0,35.42c.24-.19.19-.72.19-1,.19-.1.1-.48,0-.63a4.18,4.18,0,0,1,.19-1.73.48.48,0,0,1-.19-.57h0l.29.19v.48a1.38,1.38,0,0,0,.09-.43c0-.68-.24-1.3.1-1.92a3.47,3.47,0,0,1,.14-1.73,4.27,4.27,0,0,1,0-1c.24.14.29-.19.24-.34h.1l-.14-.67.14-.53.19-.19.1-.48h.05v-.67h.33l-.14-.67.19-.39,0-.48h.19v-.52c.24.14.29-.2.29-.34h0v-.67h.19v-.67h.15l.09-.53h.1v-.67c.24.14.24-.2.24-.34h.09a1.4,1.4,0,0,1,0-.86l.15-.1.09-.24h.1v-.48l.14-.1.1-.24h.1v-.72c.24.15.24-.19.24-.33h.09c-.09-.29.39-.58.53-.82a11.21,11.21,0,0,0,.67-1.63l-.38-.14,0-.1h.33l.15-.38v-.34l.19-.14v-.2h.05l.28.2L6,11.76l.53-.15v-.53c.34.1.48-.62.53-.86h.33c-.19-.53,1.11-1.44,1.49-1.68l.29.1L9,8.21c.48-.05.77-.53,1.21-.68s1.34,0,1.87-.38h1.53l.34.19.19.29v0H15l.14.19.39.09V8a3.66,3.66,0,0,1,1.87.53h1.53v.34a1.14,1.14,0,0,1,.87.14.68.68,0,0,1,.67.38h.14v.34h.53l.34.67h.33l.2.44a1.57,1.57,0,0,1,.48.62l.19-.05,1,1.2a.41.41,0,0,0,.19.53v0A7.64,7.64,0,0,0,25,14.83l.1.38.09,0,.34.67c-.15.57.33,1,.43,1.53h.1a6.63,6.63,0,0,0,.33,1.73,6.75,6.75,0,0,1,.24,1.39c0,.53-.24,1.16.1,1.64,0,1.24.19,2.44.19,3.69a2.76,2.76,0,0,1-.19,1.25ZM.53,33.55v-.19H.38v.19Zm.19,3.89H.38V38h.1l.05-.34ZM.53,39.65H.38v.19H.53Zm0-4.08v.19H.72v-.19Zm.33-2.69v-.19H.72v.19Zm0-.87h.2v-.19H.86Zm0,4.42v.19h.2v-.19Zm.2,6.29H.86v.19h.2Zm0,.53H.86v.14h.2Zm0-14.31H1.2V28.8H1.06Zm0,.34H1.2v-.15H1.06Zm.14,13H1.06v.14H1.2Zm0-10.56v.14h.19v-.14Zm0,4.61v.14h.19v-.14Zm.19,3.36V39.5H1.2v.15Zm.15-11.24v-.14H1.39v.14Zm0,16.37H1.39v.15h.15Zm0-7.15h.33v-.19H1.54ZM1.73,41v-.19H1.54V41Zm.14-5.47H1.73v.19h.14Zm-.14,2.21v.38h.14v-.38Zm.09,1.72.05-.09-.14.09Zm.05,2.55H1.73v.19h.14Zm0-5.09H2l.19-.19h.1v-.34h0l-.15.19v.15Zm.29,2.69h.1v-.48L2,39.31h0ZM2.06,24h.2v-.15h-.2Zm0,2.06h.2v-.19h-.2Zm0,16.18v.14h.2v-.14Zm.34.82.05-.24-.15-.24h0a.4.4,0,0,1-.2.48Zm-.14,3.26h-.2v.14h.2Zm0-23H2.4v-.15H2.26Zm.33,20.59v-.19H2.4v.19Zm0-2.4v.19h.15v-.19Zm.15,6.14H2.59V48h.15ZM2.74,21h.19v-.19H2.74Zm0,2.69h.33v-.14H2.74Zm0,2.55h.19v-.15H2.74Zm.19,17.52v-.15H2.74v.15Zm.14.38v-.19H2.93v.19Zm0-24.53h.19v-.14H3.07Zm0,25v.19h.19v-.19Zm.34.34H3.07l.19.43Zm-.15,1.39H3.07v.34h.19Zm.34,1.15H3.41v.39H3.6Zm0,2.07H3.41v.14H3.6Zm0-31.16h.14v-.14H3.6Zm.34,28.76,0-.2-.29.2Zm1.68-.77a19.8,19.8,0,0,0-.68-3.75l.2-.57c-.34.05,0-1.15,0-1.35H5L4.85,41h0c0-.19-.14-1.06-.19-1.1A3.77,3.77,0,0,1,4.8,38.5c.1-.39-.34-.82-.34-1.2,0-.68.15-1.4.15-2.07l.33-.14L4.46,35a12.88,12.88,0,0,1,.68-5v-.48l-.1,0a.23.23,0,0,1-.24.24l-.19-.05a2,2,0,0,1-.15,1.2A34.17,34.17,0,0,0,4,37.44c0,.62,0,1.25.1,1.87.19.1.14.39,0,.53a4.09,4.09,0,0,0,.28,2.26l-.19.28c.24,0,.43,1.49.53,1.78s-.14.58-.19.77l.53.77v.62a4.66,4.66,0,0,1,.52,1.34,1.08,1.08,0,0,0,.68,1A8,8,0,0,1,5.62,46.37ZM4.13,47.76v-.29A.3.3,0,0,0,4.13,47.76Zm.14-29.52h.19V17.9H4.27ZM4.46,49H4.27v.19h.19Zm0-32.5h.15v-.14H4.46Zm.15,32.16v-.14H4.46v.14Zm0-32.83H4.8v-.15H4.61Zm0,18.38v.2H4.8v-.2ZM4.8,49.34H4.61v.2H4.8Zm0-15.45V34h.34v-.14Zm.14,2.21H4.8v.19h.14ZM4.8,37.78V38h.14v-.19Zm0,2.06h.14v-.19H4.8Zm.34,9.7h0l-.19.38,0,.29h.2Zm0-20.79L4.94,29v.14Zm.19,3.07H4.94l.2.19Zm-.14,1.06v-.19h-.2v.19Zm-.2,5.42v.2h.2v-.2Zm0,2.07h.34v-.19H4.94Zm.34-10.08v-.15H5.14v.15Zm0,9.69v-.14H5.14V40Zm-.14,1.2v.2h.14v-.2ZM5.47,28.8v-.19H5.28v.19Zm.15,21.74H5.28v.15l.19.24.15,0ZM5.47,26.4l.15-.34.19-.19v-.14H5.47Zm0,.53h.15v-.2H5.47Zm0,.33h.15v-.19H5.47Zm.15,5.28H5.47v.15h.15Zm0,1.49v-.34H5.47V34Zm-.15,1.73v.14h.15v-.14Zm0,2.21v.33h.15V38Zm.15,4.61v-.2H5.47v.2Zm.19-3.94H5.62v.19h.19Zm-.19.53h.19V39H5.62Zm.19-13v.19H6v-.19ZM6,32.16H5.81v.38H6Zm-.14.72V33H6v-.14Zm0,6.43v.19h.33v-.19Zm0,2.74H6v-.19H5.81ZM6,51.55v-.14H5.81v.14ZM6,34h.72v-.14C6.53,33.84,5.9,33.79,6,34Zm0-6.77v.15h.19v-.15Zm.19,3.22H6v.19h.19ZM6,30.81V31h.19v-.2Zm.19,4.28H6v.33h.19ZM6,36.48l.15.29h0l.05-.24L6,36.29H6Zm.39.82H6v.33ZM6,38h.19v-.19H6Zm.58,2-.19-.33L6,40l.1.05a.2.2,0,0,1,.19-.19h.1l.14.34Zm-.39.53v-.14H6v.14ZM6,41v.34h.19V41Zm0,.48v.19h.39v-.19Zm.19,1.73v-.19H6v.19ZM6,46.8h.19v-.14H6Zm.19-34.18h.2v-.19h-.2Zm0,.87h.2v-.2h-.2Zm.2,16.27c0-.05-.2-.39-.2-.15v.2h.15l-.15.48c.2-.1.48-.39.68-.39,0-.62.19-1.2.19-1.82v-.15h-.1l-.14.34h-.1c0,.34-.14.67-.53.67v.53h.05l.29-.19-.14.38Zm-.2,2.78v.15h.2v-.15Zm0,1v.14h.2v-.14Zm.34,1v-.14H6.14v.14Zm-.34,9h.2v-.19h-.2Zm.2,6h-.2v.14h.2Zm0-21.37,0,.24.14.2h.05v-.53Zm0,1.64,0,0v0Zm0-2.21v.14h.14V27.6Zm.14,4.22v-.33H6.34v.33Zm0,4.28v-.2H6.34v.2Zm-.14,11h.14V47H6.34Zm.14-33.65h.19v-.2H6.48Zm0,9.5h.19v-.34H6.48Zm0,4.08h.19v-.14H6.48Zm.19,11.76v-.19H6.48v.19ZM6.67,49v-.15H6.48V49Zm.15-14.59v-.2H6.67v.2Zm-.15,1.15v.33h.15v-.33Zm0,.53v.19h.15V36.1Zm0,3.4v.34h.15V39.5ZM6.82,46v-.19H6.67V46Zm-.15,2.36h.15v-.15H6.67Zm.15,1H6.67v.2h.15Zm0,3.41H6.67v.19h.15Zm.14-22a.35.35,0,0,1-.24,0v.14ZM7.06,45l-.2-.24h0L6.77,45l.19.24H7ZM6.82,21.45H7v-.14H6.82Zm0,4.42h.09l.19-.24.05.24h.1c-.1-.29-.43-1.15.09-1.15V24H7.25l-.1.72L7,24.81l-.15.24h0Zm0,1.06H7v-.2H6.82Zm0,.48H7v-.15H6.82ZM7,41.86,6.82,40.7v.68Zm-.19.72h.33v-.53ZM7,43.73H6.82v.19H7Zm0,.53v-.15H6.82v.15Zm0,4.6H6.82V49H7Zm.14-3.07V45.6H7v.19Zm0,1.54V47H7v.34Zm0-27.08h.19v-.33H7.15Zm0,.53h.19v-.19H7.15Zm.19,7.15V27.6H7.15v.33ZM7.15,43.58v.68h0Zm.19,4.28H7.15v.33h.19Zm0-24.68v.15h.15v-.15ZM7.82,48V45.46L7.49,45a1.14,1.14,0,0,0-.15.44V46h.15l-.15.48.15.34-.15.53.2-.1,0,.24ZM7.49,23.66h.33l0-.24-.14-.24H7.68A.39.39,0,0,1,7.49,23.66Zm.19.34v-.15H7.49V24Zm-.19.19v.14h.19v-.14Zm0,17.52v.15h.19v-.15Zm.33,8H7.49v.19h.33Zm0-6.77v.15H8v-.15ZM8,20.59h.19v-.14H8ZM8,40.51h.19v-.14H8Zm.19,7.83v-.15H8v.15Zm0,1.34H8v.19h.19Zm0-8.64v.14h.14V41Zm0,5.76V47h.14V46.8Zm0,2.06h.14v-.33H8.21ZM21,35.23l.38-.29c0,.1.24.34.24,0h-.19l.19-.68h0l-.33.2v-.15a.66.66,0,0,0,0-.58l.33-.38s.29,0,.24-.05l-.19-.19a2.05,2.05,0,0,1,.14-.53c0-.33-.09-.81.2-1.05v-.82l.14-.14.1-.39h.09v-.86l.19-.24,0-.77.19-.24a1.64,1.64,0,0,1,.14-1l.05-2.45c0-1.29-.38-2.59-.38-3.84a8.3,8.3,0,0,0-.34-3.41L22,17.28V16.7c-.44.15-.34-.86-.34-1l-.72-.86c.1-.38-.77-1.34-1-1.63l-.14-.48a12.83,12.83,0,0,1-1.87-2.5h-.39l-.33-.14-.1-.2-.24-.09v0h-.67L16,9.55h-.19l-.09,1H15.7v.72l-.34.14h0c.15.53-.67.43-.67,1.39V13a1.7,1.7,0,0,1-.48.53,6.53,6.53,0,0,0-.38,1.24l.05.77h-.2c-.05.72-.19,1.39-.19,2.11,0,1.06.24,2.12.19,3.17l.24.39,0,.28a5.48,5.48,0,0,1,.67,2.31l.14.19A16.92,16.92,0,0,0,16,27.07c.39-.14.58.48.82.67-.05.24.24.58.53.87h-.15l-.19.52h-1.2l-.09.05c-2.12,0-4.13-5.23-5.33-6.72V23h-.19c0,.34.09.77-.15,1l-.1.57-.09,0v.86c-.24-.1-.19.53-.19.67H9.55a4,4,0,0,1-.19,1.68l-.14.15-.15.38H9l0,2c0,.28.09,1.29-.29,1.39,0,1.34-.15,2.74-.15,4.08-.33-.1-.14.86-.09,1a.82.82,0,0,0-.1.48,1.8,1.8,0,0,0,.1.72l-.1,1.2.24.53-.05.48-.24.38a1.88,1.88,0,0,0,.39.91,7.89,7.89,0,0,0,.05,1.06l-.05.29c.29,1.24.19,2.78.86,3.88a14.8,14.8,0,0,0,0,1.49h0l.19-.33h.1V48l-.19.39c.43-.15.38.67.38.86.43.82.24,1.68.48,2.54l.53.24c-.19.2.19.72.33.87a2.2,2.2,0,0,0,.15,1c.38,0,.62-.39.72-.72.58.24,2-1.92,2.35-2.35v-.53l.19-.15v-.19a1.84,1.84,0,0,1,.48-.53v-.48l.34-.19h0l.14-.33v-.48a13,13,0,0,1,1-1.73V45.6l.19-.14v-.2l.34-.48.29-.19h0v-.05l-.19-.28.34-.2.19,0c-.1-.24.14-.29.34-.29v-.09h-.1l-.38.19-.05-.14a5,5,0,0,1,.72-1.06h-.15a6.81,6.81,0,0,0,.48-.86l.1.52h0L19.15,41h.1v-.53h.14V40l.39-.81.14-.1.1-.24h.09V38.3l.15-.09.09-.24h.1V37.1C20.83,37.3,21,35.47,21,35.23ZM8.35,17h.19v-.15H8.35Zm.19,28.08H8.35v.14h.19Zm-.19,4.94v.34h.19v-.34Zm.05.58.14.19v.39h.34v-.48Zm.14-2.11v.14h.15v-.14Zm.34-1.87v-.2H8.69v.2Zm0,5.28s.14,0,.14,0v.14H8.93l.14.19h.15v-.43l-.53-.1.19.24ZM9,45.46H8.88v.14H9Zm-.14,6.62h0l0-.1ZM9,15.5h.2v-.14H9Zm0,1v.19h.2v-.19Zm.2,32.83V49H9v.33ZM9,51.07v.15h.2v-.15Zm.34,2v.53l.43.19h.1A2,2,0,0,1,9.36,53.09Zm.53.86H9.7v.2h.19Zm.34-2.21v-.33H9.89Zm.33,2.55V54h-.48v.1l.24.1h.1Zm.19.33h-.19v.2h.19Zm.1-32.83c-.19,0,0,.38.05.43v-.43Zm.24,1.06V23h.14v-.14Zm2.35,2.88v-.2H13.3v.2Zm3.41,3.55H17v.19h-.19Zm.53-.67a1.14,1.14,0,0,0,.33.33h-.33Zm.14,23.66h-.14v.15h.14Zm.53-43.92h-.14V8.21h.14Zm.67,36.43h-.14v.15h.14Zm.19-2.06h-.19v.19h.19Zm.34-31.3h.14v-.14h-.14Zm.34,30.29h-.34v.15h.34Zm-.2,2.55h-.14v.19h.14Zm.92-3.89s0-.24-.15-.24l-.14.29v.09l-.43-.14v.09l.52.24ZM19.78,12h.14v-.19h-.14Zm.33,27.55v.15h.15V39.5Zm.15-26.21h.19v-.14h-.19Zm.19,28.42h-.19v.15h.19Zm.14-3.21h-.14v.14h.14Zm0,1h-.14v.15h.14Zm.2-1.72v-.34h-.2v.34Zm.14.19h-.14v.19h.14Zm0,3.21h-.14v.2h.14Zm0-28h.19V13h-.19Zm0,1.15h.19v-.14h-.19Zm.19,22.13v-.14h-.19v.14Zm0,4.08-.05.29.15.24h.05Zm0-27.22v.2h.15v-.2Zm0,23.33v.15h.15v-.15ZM23.62,19a1.4,1.4,0,0,0,.24.57v.19c-.29-.09-.34.2-.29.39h-.05l.34.29v.33h-.34l-.05.1a.22.22,0,0,1,.24.24l0,.19a4.08,4.08,0,0,1,.48,1c-.29-.15-.34.91-.34,1.05,0,1.88.1,3.7.05,5.57h-.19a2.49,2.49,0,0,1-.1,1h-.05v.86a1.74,1.74,0,0,0-.19,1.2l-.19.34.19.34c-.19-.1-.24.14-.24.29v0H23l-.14.53H22.8l.19.87h0l-.29-.2-.05.15a.4.4,0,0,1-.14.53l0,.19.38.29v0h-.14l-.34-.19.34.77-.29.19.1.24-.68,1.73v.48h-.14v.67l-.24.34.05.33h-.05l-.19.29.05.24h.19V40h.09l.2-.33h0v-.48L22,39s.09-.28.14-.19V38.3c.19.1.24,0,.24-.24V38h.1l.14-.67h.05v-.68l.29-.19h0l-.19-.33c.34.14.34-.34.29-.53h.05l.05-.39-.05-.62h.19v-.87c.19.1.19-.38.19-.48v-.33l.15-.15.09-.38h.1v-1h.33a.52.52,0,0,1,.15-.67l.19-.72c-.1-.1-.24-.34,0-.34A55.66,55.66,0,0,1,24.67,24l-.14-.34.19-.14c0-.43-.29-.82-.29-1.25a10.11,10.11,0,0,0-.91-4.9l-.14.39.29.38-.1.29-.14-.24-.1,0v1h.05Zm-2-4.71h.14V14h-.14Zm0,22.47h.14v-.15h-.14ZM21.79,41h-.14v.14h.14Zm.2-6.62V34h-.2v.39Zm0,2.35V37h.14v-.19ZM22.32,31v.14h.15V31Zm.15-13v.19h.19v-.19ZM23,16.89V16.7h-.33v.19Zm-.33.15v.19h.14V17Zm.14,21.6h-.14v.19h.14ZM23.14,23v-.14H22.8V23Zm-.34,5.42v.2H23v-.2Zm.53-10.84L23,17l.34.62Zm-.19,1.68V19.1H23v.15ZM23,25.73v.14h.15v-.14Zm.15-9,.19.39v.14l.24-.19Zm.38,9.36v-.19h-.19v.19Zm-.19,2v.19h.19v-.19Zm.34-8.5v-.14h-.15v.14Zm0,16.18h-.15v.14h.15ZM23.62,19l-.05-.29A.61.61,0,0,0,23.62,19Zm.24,3v-.19h-.19V22Zm-.19.15v.19h.19v-.19ZM24,34.22h-.33v.2H24Zm0,2.55h-.14V37H24Zm.34-3.08h-.15v.2h.15ZM25,35.42h-.14v.15H25ZM26.07,31h-.2v.14h.2Z" transform="translate(0 -7.15)"/><path class="a" d="M48.91,19.05l0,.15L48.34,19l.19.48v.62h-.38l.19.43V21h-.43l-.15.39-.14-.05v.53l-.29.19h0l-.09.33h-.1V23c-.19-.1-.29.1-.29.24v.1h-.09v.72l-.15.09-.09.29h-.1V25h-.19a3.13,3.13,0,0,1-.34,1.34c-.43.19-.86,1-1.1,1.35v.52l-.34.48c0,.29,0,.68-.24.87.19.09.1.33.05.48v.53H44l-.1.52h-.05c.05.24.1.77-.19.92v.53h-.19V33l-.53.92h-.19V34a2.79,2.79,0,0,0-.34,1.35v.19l-.28.19-.1,0v.58l-.24.19-.1,0v.72l-.33.19h-.05v0l.19.34-.29.19h0l0-.05v.05l.19.34c-.39-.2.05.48.09.52l.1-.52s.15,0,.15.09a3.25,3.25,0,0,0-.15,1l-.33.19h0v.72c-.24-.14-.29.24-.29.39H40.8a2,2,0,0,0-.19,1l-.34.2h-.19V42c.24,0,.05.34,0,.43v.72h-.19v.72l-.19.1-.05.24h-.1l-.38,1.54.14.19-.14.33.09.1.44-.53c0,.15-.05.39,0,.53l-.39.58h-.14c0,.24.19.86-.24.86v.53l-.24.24-.1-.05a1.92,1.92,0,0,1-.34,1.25,3,3,0,0,1-2.11.72l-.29.14-.33-.14H34.32l-.19-.29v0L33.79,50v-.1h-.53l-.52-.34V49.1l-.39-.62h-.53l-.09-.34h-.1c-.05-.67,0-1.39,0-2.06l-.19-.48c.38,0-.1-1.1-.14-1.25l.33-.43-.14-.14L31.3,44l-.05-.2c0-.52.24-1,.24-1.58,0-.14,0-.43-.19-.38v-.63l-.24-.29,0-.19a.3.3,0,0,1,.2,0l.14-.29-.1-.09.1-.29L31.3,40l-.2.24V39.5l.29-.19h.05l-.05-.24-.24.24h0L31,38.06h-.1l-.05-.38c0-.19,0-.53.24-.53.1-.29-.28,0,0-.43l-.19-.62.19-.2,0-.57c0-1.64-.24-3.17-.24-4.8l.53-.82-.53-.1a8.83,8.83,0,0,0,0-1.15v-.29H31l.09-.43c-.09-.09-.24-.29,0-.29a2.84,2.84,0,0,1,0-1.53c-.28.09-.24-.39-.19-.53a2.4,2.4,0,0,1-.19-.82,3.79,3.79,0,0,1,.19-1.44l-.19-.33c.29.14.19-.72.19-.82,0-.77-.19-1.58-.19-2.35a10.31,10.31,0,0,0-.14-2.93v-.57L29.47,16l-.19-1a.21.21,0,0,0,.19-.28,16.51,16.51,0,0,0,2.11,0l.24.14v.05l.34.09v.1l.62-.19a8.48,8.48,0,0,0,1,.33v0c.53-.09,1.54.77,2,1.06,0,1.49.19,2.93.19,4.41a1.65,1.65,0,0,1-.19,1V24a3.43,3.43,0,0,0-.24,1.73,4.13,4.13,0,0,0,.24,1.53l.05,1.49c0,1.06-.39,5.48.14,6.15l0,.57v.34l-.19.34h-.05c.24.09.05.48,0,.62a1.24,1.24,0,0,0,.14.58,4.45,4.45,0,0,1-.24.76h-.09a43.17,43.17,0,0,1-.19-6.14l0-7.87h0l-.34.43-.19-.05c.24.1.09.38,0,.53V36.29c0,1.05,0,5.23.38,5.9-.09,0-.09.1-.14.15a10,10,0,0,0,.14,1.72,3.09,3.09,0,0,0,.19,1.73V46.9l.72-.92c.48.2.24-.43.58-.43l.14.05a.59.59,0,0,1,.2-.53L37,44.88l.38-.53h.19l.1-.38,0,.05V43.3c.24.09.29-.15.29-.29v-.1h.09v-.53h.19v-.52l.15-.1.09-.29h.1v-.53l.19-.19v-.14l.24-.24.1.05.14-.39h0V40l-.19-.28a3.27,3.27,0,0,1,.72-1.11l.09-.33h.1v-.92h.34v-.72l.19-.19c-.1-.09,0-.19.14-.19s.15.24.15,0l.24-.48c0-.24-.1-.77.19-.91v-.72a4,4,0,0,0,.91-2.07L42,31.87l.1-.29c-.1-.24.19-.48.38-.62l0-.1.23-.43-.19-.29c.19.1.24-.09.24-.24v-.09h.1a2.24,2.24,0,0,0,.38-1.44l.29-.2h.05v-.52l.19-.2v-.14l.24-.24.1.05V26.4c.24.09.29-.15.29-.29V26h.09v-.52h.19V25l.15-.1.09-.29h.1c.24-.72.48-1.44.67-2.16h0v-.72l.19-.14c0-.05.1-.29.15-.19a2,2,0,0,0,.19-.91V20.3c.19.05.29-.14.29-.29v-.09h.09l.15-.72.91-1.44a.74.74,0,0,1,.38.53l.72.19A.65.65,0,0,0,48.91,19.05ZM31.2,29.47l-.1-.38v.33Zm.24,3v-.2H31.1v.2Zm-.14,1.1v-.19h-.2v.19Zm.14-14.93v-.19H31.3v.19Zm0,16v-.34H31.3v.34Zm0,2H31.3v.2h.14Zm.19-7.73V28.7h-.19v.19Zm0,7.54v-.14h-.19v.14Zm0,3.46V39.7h-.19v.19Zm0-7V33h.19v-.14Zm.19,8.4v-.14h-.19v.14Zm.2,2.35h-.2v.19H32Zm.14-19.78H32v.2h.14Zm0,15.85H32V40h.14Zm.29-3.6.14-.1-.05-.24a.41.41,0,0,1-.19.34Zm.29-2.69V33h-.2v.39Zm0,.33V33.6h-.2v.14Zm0,.72v-.14h-.2v.14Zm0,.53v-.33h-.2V35Zm-.2.19v.2h.2v-.2Zm.2,1.11h-.2v.14h.2Zm0,.53v-.2h-.2v.2Zm-.05,4.65.14.19h.05l0-.28-.15-.24h0Zm.05-14.54h.14v-.2h-.14Zm.14,3.6v-.2h-.14v.2Zm-.14.52v.2h.14v-.2Zm0,6v.14h.14V37ZM33,44.88l.09-.1L32.74,44v.19a3.2,3.2,0,0,0,.14.67Zm.09-15.07h-.19V30h.19Zm-.19,5.37h.38V35h-.38Zm.53,6.72-.15-.14.15-.48h-.34v.58h-.19v.38l.38.58.1.48h0l.19-.72-.53-.1v-.1l.19-.24.15,0Zm-.53,1.4v.14h.19V43.3Zm.19-13v.2h.19v-.2Zm.19,3.61V33.6h-.19v.34Zm-.19,2v.2h.19v-.2ZM33.26,39h-.19v.19h.19Zm.15-2v-.19h-.15V37Zm-.15.33v.2h.15v-.2Zm0,2.88v.2h.15v-.2Zm0,.39v.14h.15v-.14Zm.39,5.47-.19-.29h-.05l0,.24.19.29h.05Zm.14,1.15h-.38v.19h.38Zm0,.39H33.6V48h.19Zm.34-2H34v.19h.15Zm0-11.14h.19v-.14h-.19Zm.19,10.08v-.19h-.19v.19Zm.19,3.22h-.19V48h.19Zm0-6.1h.19v-.19h-.19Zm0,.92h.19v-.39h-.19Zm0,.33h.19v-.19h-.19Zm0,.91h.34v-.19h-.34Zm.19,1.44h.15v-.19H34.7Zm.34.53h-.19V46H35Zm.19-21.94h.19v-.33h-.19Zm.67,15.08a3.78,3.78,0,0,0,.05.67v.1H35.9l-.33-.39V38.26H36Zm-.09,2.73L36,42l0,.24H35.9l-.19-.29,0-.24Zm.14-.91h-.19v-.14H36Zm-.19.39H36v.14h-.19Zm.19,3h-.19V42.72H36Zm0,.38h-.19v-.19H36Zm-.19.2H36v.14h-.19Zm2.35-.39h-.19v.19h.19Zm.34-.91H38.3v.19h.15Zm.53.72h-.15v.19H39Zm.57-2.69h-.09l-.48.72.57.19L39.36,42h.1Zm-.19,1.11H39v.14h.38Zm-.19.52H39v.2h.19Zm.91-2.35.05-.29-.19-.24h0a.41.41,0,0,1-.19.53Zm-.19,1.44H39.7v.19h.19ZM40.08,39h.19v-.2h-.19Zm0,1.05h.19v-.14h-.19Zm.19,1.11h-.19v.33h.19Zm0-2.64,0,.09h.34v-.14l-.15-.19h0C40.51,38.4,40.37,38.5,40.23,38.5Zm.62,1.1-.29-.24s0-.29-.05-.24,0,.24-.14.24l-.1,0v.39h.53Zm-.43,1h-.15v.33h.15Zm0-3.07v.19h.19v-.19Zm.57-.2H40.8v.39H41Zm0,.92H40.8v.19H41Zm0,.91-.1.09.2-.09Zm.29-5.57h-.19v-.19h.19Zm0,2.69h-.19v.14h.19Zm.19-.91v-.2h-.19v.2Zm.34.19h-.34v.14h.34Zm-.15.33h-.19v.39h.19Zm.53-1.44h-.19v.39h.19Zm.34-3.21h-.1l-.14.19h-.1v.14l.15.19h0A.38.38,0,0,1,42.58,31.25Zm-.15,2.35h-.19v.34h.19Zm.34-2.74h-.19v.19h.19Zm.1-.33.19-.2h.09V30h-.09l-.29.53ZM43.15,33H43v.19h.19Zm.34-1.39-.14-.19H43.3c.09.14,0,.24-.2.24l0,.09h.34Zm.19-2.74h-.1l-.43.92h.05l.29-.2.19-.33ZM43.3,32.5h-.15v.19h.15Zm-.15,2.16h.15V35h-.15ZM44,33.07l-.1,0a15.3,15.3,0,0,0-.48,1.49l-.09,0a11.29,11.29,0,0,1,.43-1.63l.14.05a2.37,2.37,0,0,0,.15-.82v-.29h.38A3,3,0,0,0,44,33.07Zm-.1-2.35h-.19v.14h.19Zm1.25-4.9h-.19c-.24,0-.29.34-.29.53v0h0v.72l-.72.86-.14.43.29.15c-.1-.29.38-.48.57-.58l-.19-.53.24-.19.1,0a3.82,3.82,0,0,0,.57-1.3ZM44,30.14h-.15v.19H44Zm.86-4.56.19.15-.14-.24Zm.58-.81h-.15V25h.15ZM46,26.59h.19v.14H46Zm2.88-8.3h-.15v-.15h.15Z" transform="translate(0 -7.15)"/><path class="a" d="M58.66,41.71v.15h.14v-.2h-.14l.52-.52v-.72h.34c-.1-.44.38-.44.38-.77V39.5H60l.29.2,0-.1-.19-.29.28-.19h0l.19-.53a3.66,3.66,0,0,0,1.06-1.05l.1,0,.28.19c0-.72.92-1.54,1.44-2l.1-.33h.1l0,.52.1-.72.72-.72v-.33l.34-.19h0a2.9,2.9,0,0,0,.72-1.16c0-.05,0-.14.1-.14l.24.19a1.18,1.18,0,0,1,.38-.86v-.39c.39-.33,1-.72,1.2-1.2l.48.15v-.39l-.24-.24,0-.14.19-.29.57.14v-.09l-.28-.19.43-.48c.09.09.67-.77.91-1l-.19.33h.09c0-.24.39,0,.48,0a.66.66,0,0,1,.2-.57l-.05-.15-.53.39v-.39a5,5,0,0,0,1.15-.33h.1l-.34.14V28h-.38a2.13,2.13,0,0,1-.34,1.44l-.33.19h0a8.88,8.88,0,0,0-.87,1.78l-.38.24L68,31.58a7.11,7.11,0,0,0-1.06,1.59v-.34h-.19v.38h.14a6.86,6.86,0,0,1-1.58,2h-.34c.1.53-.72.63-.72,1.06v.1l-.52.81h-.39l-.09.39h-.1c-.43.57-.86,1.15-1.25,1.77v.53l-.29.19h0v.72h-.1l-.19-.29v-.09l-.29.57v.53c-.43.15-.86.91-1.1,1.25l0,.19-.52.19a1.93,1.93,0,0,0-.2.72c-1,.15-2,1.92-2.49,2.69v.72l-.34.19H56.3V48a4.16,4.16,0,0,1-.52.77v.14l-.72.34H53.62V49H52.7c-.19-.15-.43-.29-.52-.53h-.53a3.52,3.52,0,0,0-1.11-1.25H50l-.2-.48-.72-.62c0-.67-1.2-1.73-1.34-2.55l-.1.05,0-.53-.29-.57,0-2a2.38,2.38,0,0,1,.24-1.15v-.34l-.19-.29h.19c-.05-.67.19-1.34.19-2l-.19-.34.29-.19h0l.25-.62-.25-.24h.39v-.72h.14V33.21c.24.15.29-.19.29-.33v-.05h.1v-.72l.24-.19.09,0v-.72c.24.14.29-.2.29-.34v-.05h.1a7.44,7.44,0,0,0,.33-1.73v-.24l.39-.19h.19v-.53l.29-.19h.05v-.05l-.2-.28c.24.14.29-.24.29-.39h.1a.65.65,0,0,1,.19-.57v-.15h.34a8.44,8.44,0,0,1,2.88-3.6h.81a.32.32,0,0,0,.43-.14c.53,0,1.06.19,1.64.14-.15.29.38.34.52.39a4.52,4.52,0,0,1,1.64,1.05l.09.58.24.24.15-.05,0,.43-.24.43c0,4.37-2.64,4.52-5.08,6.68a.43.43,0,0,0-.53.29,2.77,2.77,0,0,0-1.06.14A3,3,0,0,1,52.56,35h-.1l-.19.53.19,1h-.19l-.09.53h-.1c-.19,1.2-.19,2.4-.43,3.6h-.19a6,6,0,0,1-.2,2.07c.63,1.29.05,1.92,1.11,3.5v.53H53L54,46l.58-.19.19-.33,0-.2.58-.19v-.38C55.54,44.78,57.65,42.72,58.66,41.71ZM52.94,31.34c1.3-.24,2.55-.67,2.84-2.11L56,29l.09.05.1-.39h.09v-.53a6.35,6.35,0,0,1,.77-1.39v-.05a2.75,2.75,0,0,0,.48-1.44c-.33-.52-.67-1.1-1-1.63C55.15,25,52.94,29.47,52.94,31.34Zm3-1.53h-.19V30H56Zm.33,14.54h-.19v.19h.19Zm.29-15.79H56.4v.14h.19ZM57,44.35l-.14-.19h-.05c.1.14,0,.29-.19.29l0,.09H57Zm.39-.38h-.19v.19h.19Zm.14-.34h-.14v.19h.14ZM57.74,26h.2v-.19h-.2Zm.2,16.9h-.2v.19h.2Zm.33,1.25h-.14v.19h.14Zm.39-2.45v0ZM59,43.25H58.8v.19H59Zm.19-1.78H59v.39h.19Zm.34,0h-.14v.19h.14Zm.58-.72h-.2v.19h.2Zm.72-1.63h-.2v.19h.2Zm.33.72H61V40h.19Zm.19-1.44h.2v-.14h-.2Zm.2,1.1h-.2v.2h.2Zm.14-.91h-.14v.19h.14Zm.38-.72h-.19v.19h.19Zm0,.53h-.19v.19h.19Zm1.35-1.78-.1-.38h-.05l-.28.19,0,.1c0,.33.24.19,0,.53L63,37h.29ZM64,36.1h-.19v.14H64Zm.19-.53H64v.14h.19Zm.92-1.63H65l-.19.19h-.1v.33h0l.14-.19v-.14ZM66,33h-.19v.19H66Zm0,.72h-.19v.2H66Zm.53-1.05h-.15v.14h.15Zm.38.52h0s0,0,0,0ZM67.1,32h-.19v.14h.19Zm.72-.92h-.19v.2h.19Zm.72-.52h-.19v.14h.19Z" transform="translate(0 -7.15)"/><path class="a" d="M77.52,43.58h.19a6.29,6.29,0,0,1-.57,2v.1l-.2.48c0,.62-.38,1.1-.38,1.72s.19,1.83.91,1.83l.43-.24V49h.34l.1-.34h.09v-.38l.15-.34,1.48-1.24-.19-.2.34-.24.19.05a.7.7,0,0,1,.19-.62v-.1h.34l.19-.53h.34c-.1-.38.38-.43.38-.91h.34a.92.92,0,0,1,.38-.72c-.14-.43.34-.29.34-.91l.57-.14-.19-.58.19,0s0-.05,0-.09c.43-.24.72-.68,1.15-.92l.1-.33h.1l.43-.39.09-.72.53-.52v-.1l.53-.43c.19-.58.58-2,1.15-2.21a.85.85,0,0,1,.53-.38l.19-.53h.34A1.11,1.11,0,0,1,89.23,34c.15-.29.43-1.25.77-1.25a.12.12,0,0,0,.14-.14l-.24-.39.72-.33c0-.34.15-.48.39-.72a.53.53,0,0,1,.19-.63v-.09l.29-.19h.05l.52-.72c.29-1.16.63-1.25,1.64-1.73l.72.09v.39h-.63l-.09.53a2.29,2.29,0,0,1,.76-.39c-.71.43-1,1.39-1.68,1.83v.52l.1.05.29-.77,1.34-1.48a4.09,4.09,0,0,1-2.06,2.92v-.09a2.19,2.19,0,0,0-1,.48h-.1v.53c-.62-.29-.76,1.24-.91,1.58h-.38l.19.34-.19.24v.14l-.24.19-.1,0v.52l.1,0,.62-.72a.65.65,0,0,1,.19-.57l0-.15.28-.24.1.05.58-1.06-.39,1.4a1.34,1.34,0,0,0-.72.72v.52l-.38.39-.15.38,0,0a7.72,7.72,0,0,1-1,1.59v.14l-.34.19h-.19l.19.48-.34.2H88v0l.19.29c-.38.1-.72.29-.72.72-.43-.09-.57.24-.72.58V41c-.62-.14-1.15,1.39-1.34,1.82h-.19v.53a.9.9,0,0,1-.53.39c-.38.48-.77,1-1.1,1.44v.52a.67.67,0,0,0-.58.2H82.9v.52l-.15.34h-.38l-.15.53h0v.14a.31.31,0,0,0,.19.24l-.19.34v.19l-.58.19h-.14v.1c.24,0,0,.38,0,.43l-.1.53h0v.72a6.08,6.08,0,0,1-.77,1.15l0,.14-.29.2-.09-.05c.09.33-.72,1.1-.91,1.44a4.35,4.35,0,0,1-1.35.24c-.48,0-.86-.34-1.49-.24l-.57-.53h-.1l-.62-.72a.68.68,0,0,1-.58-.19h-.14l-.19-.39-.15.05c-.09-.72-.81-1.34-1-2l0,0-.15-.72a2.51,2.51,0,0,1-.43-1.53v-.43h0l.29.19,0-.1a1.55,1.55,0,0,0-.38-.43v-.1l.19-.38-.14-.14-.24.24v-.53h.38l-.19-.53a2.75,2.75,0,0,0,.24-1.1l.19-.34H73v-.72l-.1,0-.24.19,0-.19.23-.33.34.19v-.1c0-.09-.19,0-.19-.24l.19-.38h-.09l-.25.38h0l.19-.67-.15-.38.53-.24v-.24c0-.15,0-.68-.24-.68L73,40l.19-.57h.34v-.53h.19a4.25,4.25,0,0,0,.14-2.21l-.14-.14.19-.15v-.38h-.05l-.14.38h-.05l-.14-.38h.19a.16.16,0,0,0-.14-.15h-.05l.62-.76V35a.21.21,0,0,1-.19-.29c.38.19.38-1.25.38-1.39l.34-.48-.1-.63v-.19l0,.19h-.1v-.19h0l.38-.14-.14-.29a4.33,4.33,0,0,0,.19-.77l0-.57H75l.34-.92-.62.53a1.6,1.6,0,0,0,0-.81l0-.24.24-.29,0-1,.29-.19s.09-.1.09-.1l-.24-.24c.24.1.15-.62.15-.72h0l0-.77-.29.39s.19,0,.24-.1l-.1.62-.43.2v.38H74.3l-.09.34h-.1v0l.19.29a.54.54,0,0,0-.57.24l-.15-.05L73.2,29c-.39-.15-.58.43-.91.53A10.85,10.85,0,0,1,69.5,30l-.43-.05v-.14H67.82v-.39h-.53l-.19-.28V29a3.42,3.42,0,0,1-1.92-3.27,20.74,20.74,0,0,1,.1-2.49h.19a1.87,1.87,0,0,1,0-.91c.24.09.29-.2.29-.34v-.19h.09A3.46,3.46,0,0,0,66,20.4h.38l.15-.58c0,.05.28.05.24-.05l-.2-.28.72-.87c-.09-.33.68-1.1.87-1.44a2.94,2.94,0,0,1,.62-.19H69l.29.14v.05a3.86,3.86,0,0,0,1.25.15l.24.24.15-.05c-.1.33.48.86.67,1.1l.09.34h.1A8,8,0,0,1,72,21.6c0,1.58-.62,3.26-.43,4.75l-.24.14h.19a.82.82,0,0,0,.77-.33,11.07,11.07,0,0,0,2.21-1.78l-.2-.19.2-.05.24.39.09-.72h.34l0-.1-.2-.24.53-.19v-.39l.39-.19,0-.14.72,0,1.29,0,.15.19s.29.1.19.14h1.63c-.14.29.58.2.72.39l2,.29v1.24c0,.05-.1.29-.19.2l-.15.52h0a23.69,23.69,0,0,1-.67,3.27h0c0,.14.2,1.1-.14,1.05l-.43,1.49.24.34c-.39,0-.43,1-.48,1.25h0l-.19,2h-.19a1.46,1.46,0,0,1-.2.91,5.12,5.12,0,0,1-.76,2A2.13,2.13,0,0,1,79,39.12a2.1,2.1,0,0,1-.15,1.1,3.08,3.08,0,0,1-.81,1.83V43h-.19l-.15.62v-.19h-.19ZM70.85,20.49c0-.52-.15-1.1-.15-1.63l-.19-.33v-.1l-.29-.19h0v.91h-.38a5,5,0,0,1-.72,1.34v.1l-.24.19-.1-.05v.92c-.33,0-.57,1.29-.72,1.63h-.19v.53c-.33-.15-.33.33-.29.52h-.09v.05l.19.34-.29.19h0v.29c0,.81.34,1.53.34,2.3v.24l.53.1.38-.1.19-.33v-.72l.24-.2v-.14h.49L69.6,26v-.72l.34-.2h0v-.52h.34a10.43,10.43,0,0,1,0-1.25h.19A1.63,1.63,0,0,1,70.7,22V20.59Zm-2.84.1h.15V20.4H68Zm2.31,6.82-.1-.2h0a.23.23,0,0,1-.23.29l0,.1h.34ZM73.2,26H73v.19h.19Zm0,12.77h.19v.38h-.19Zm.19,4h-.19v.34h.19Zm.15-5c0,.14.05.24.19.24V38c-.19-.05-.24.09-.24.24v.14h-.1v-.72Zm.05-.53.19.29c0,.1,0,.24-.19.24h-.05v-.53Zm.33,3h.19V40h-.19Zm1,8.06-1-.14v.19l1,.14Zm-.53-14h.15V34H74.3Zm0,.53h.15v-.14H74.3Zm.24-3.94H74.4v-.33h.14Zm.53,13.11a10.53,10.53,0,0,1,.1-1.25h-.1l-.24.53v.29l.19.43-.43-.19v1.44h0l.19-.43v-.1l.24-.19.05,0h0v-.1C74.93,44.35,75,44.06,75.07,43.92Zm-.38,1.44v.19l.09.19h0Zm.14-6.43v.14h.43l.2-.72h-.2C75.12,38.54,74.83,38.69,74.83,38.93Zm.39-1.49-.15.38h.05l.34-.19-.2-.33h.2l-.2-.72-.28-.2h0C74.93,36.77,75.22,37.06,75.22,37.44Zm.43,3.46h.09c-.43-.2-.14-.63,0-.92h-.38v.92l-.24.19L75,41l.24,1.1h.1l.14-.52h0v-.1l-.19-.29C75.6,41.33,75.65,41.09,75.65,40.9ZM75,40v.2h.15V40Zm.44-4.32v-.52h-.39Zm0-1.34-.2.43h0l.15-.33.43-.15L75.36,34h-.1Zm-.2,1.54v.19h.2v-.19Zm0,3.26.63.53c0-.15,0-.72.14-.72h0v0A5.08,5.08,0,0,0,75.26,39.12Zm.63,6.82h-.15v.14h.15Zm.72-2-.15-.34.2-.14-.2-.24.15-.34h-.34l-.19.72c.1.29,0,.48-.19.72h.38ZM76,25.77h.39v-.14H76Zm0,7.59h.2v-.19H76ZM76,34h.2v-.14H76Zm.1,6.34v.14h.19v-.14ZM76.27,45h-.19v.2h.19Zm.1-14h.09l.15-.2h.09v-.33h0A1.26,1.26,0,0,1,76.37,31Zm0,.91s0,.09,0,.14v.19h.14v-.33Zm0,7h.09l.15-.19h.09v-.39h0A1.44,1.44,0,0,1,76.37,38.93Zm.43,3.21h-.19v.2h.19Zm0-2.92.19.14.15-.34Zm.38,1a.21.21,0,0,1-.28-.2h-.1l.19.39ZM77,41.42H76.8v.2H77Zm-.09-5.56h.19v-.2H76.9ZM78.29,40h.38v-.19h-.38ZM79.87,49h-.09l-.29.53.09,0a.21.21,0,0,1,.2-.24l.09,0Zm.87-2.16h-.15V47h.15Zm1.29.72h-.19v.19H82Zm.34-1.58h-.19v.14h.19Zm1.29-4.28.77-.43v0h-.05Zm2.93-2.73h-.33v.14h.33Zm-.19.33h-.14v.2h.14ZM86.78,38h-.19v.19h.19Zm2.36-3.65h.19v-.19h-.19Zm.43,1.53-.19-.28h0l0,.24.19.28h0Zm.67-2.25h-.19v.19h.19Zm.38-1.4h-.33v.2h.33Zm.39-.72h-.19v.2H91Zm.53-.33h-.2v.14h.2Zm.19,1.39-.1.19h-.09v-.14l.09-.24.1.05Zm.53-2.83h-.2v.14h.2Z" transform="translate(0 -7.15)"/><path class="a" d="M109.78,19.05l0,.15L109.2,19l.19.48v.62H109l.19.43V21h-.43l-.15.39-.14-.05v.53l-.29.19h0l-.09.33H108V23c-.19-.1-.29.1-.29.24v.1h-.09v.72l-.15.09-.09.29h-.1V25H107a3.13,3.13,0,0,1-.34,1.34c-.43.19-.86,1-1.1,1.35v.52l-.34.48c0,.29,0,.68-.24.87.2.09.1.33,0,.48v.53h-.19l-.1.52h0c0,.24.09.77-.2.92v.53h-.19V33l-.53.92h-.19V34a2.78,2.78,0,0,0-.33,1.35v.19l-.29.19-.1,0v.58l-.24.19-.09,0v.72l-.34.19h0v0l.19.34-.28.19h0l0-.05v.05l.19.34c-.38-.2,0,.48.1.52l.09-.52c.05,0,.15,0,.15.09a3.25,3.25,0,0,0-.15,1l-.33.19h0v.72c-.24-.14-.29.24-.29.39h0a2,2,0,0,0-.19,1l-.33.2h-.2V42c.24,0,0,.34,0,.43v.72h-.19v.72l-.19.1,0,.24h-.09L100,45.7l.15.19-.15.33.1.1.43-.53c0,.15,0,.39,0,.53l-.39.58h-.14c0,.24.19.86-.24.86v.53l-.24.24-.1-.05a2,2,0,0,1-.33,1.25,3,3,0,0,1-2.12.72l-.28.14-.34-.14H95.18L95,50.16v0L94.65,50v-.1h-.52l-.53-.34V49.1l-.39-.62h-.52l-.1-.34h-.1c0-.67,0-1.39,0-2.06l-.19-.48c.39,0-.09-1.1-.14-1.25l.33-.43-.14-.14-.19.24,0-.2c0-.52.24-1,.24-1.58,0-.14,0-.43-.19-.38v-.63l-.24-.29,0-.19a.29.29,0,0,1,.19,0l.14-.29-.09-.09.09-.29L92.16,40l-.19.24V39.5l.28-.19h0l0-.24-.24.24h0l-.1-1.25h-.1l0-.38c0-.19,0-.53.24-.53.09-.29-.29,0,0-.43l-.2-.62.2-.2,0-.57c0-1.64-.24-3.17-.24-4.8l.53-.82-.53-.1a8.83,8.83,0,0,0,0-1.15v-.29h.1l.1-.43c-.1-.09-.24-.29,0-.29a2.66,2.66,0,0,1,0-1.53c-.29.09-.24-.39-.2-.53a2.4,2.4,0,0,1-.19-.82,3.79,3.79,0,0,1,.19-1.44l-.19-.33c.29.14.19-.72.19-.82,0-.77-.19-1.58-.19-2.35a10,10,0,0,0-.14-2.93v-.57L90.33,16l-.19-1a.2.2,0,0,0,.19-.28,16.66,16.66,0,0,0,2.12,0l.24.14v.05L93,15v.1l.63-.19a7.79,7.79,0,0,0,1,.33v0c.53-.09,1.54.77,2,1.06-.05,1.49.19,2.93.19,4.41a1.65,1.65,0,0,1-.19,1V24a3.43,3.43,0,0,0-.24,1.73,4.13,4.13,0,0,0,.24,1.53l0,1.49c0,1.06-.38,5.48.14,6.15l0,.57v.34l-.19.34h0c.24.09,0,.48,0,.62a1.14,1.14,0,0,0,.15.58c0,.24-.2.52-.24.76h-.1a43.17,43.17,0,0,1-.19-6.14l.05-7.87h-.05l-.34.43-.19-.05c.24.1.1.38,0,.53V36.29c0,1.05,0,5.23.38,5.9-.09,0-.09.1-.14.15a10,10,0,0,0,.14,1.72,3,3,0,0,0,.2,1.73V46.9L97,46c.48.2.24-.43.57-.43l.15.05a.56.56,0,0,1,.19-.53l0-.19.38-.53h.2l.09-.38,0,.05V43.3c.24.09.29-.15.29-.29v-.1H99v-.53h.19v-.52l.14-.1.1-.29h.09v-.53l.2-.19v-.14l.24-.24.09.05.15-.39h0V40L100,39.7a3.43,3.43,0,0,1,.72-1.11l.1-.33h.09v-.92h.34v-.72l.19-.19c-.09-.09,0-.19.15-.19s.14.24.14,0l.24-.48c0-.24-.1-.77.19-.91v-.72a4,4,0,0,0,.91-2.07l-.28-.19.09-.29c-.09-.24.19-.48.39-.62l0-.1.24-.43-.19-.29c.19.1.24-.09.24-.24v-.09h.09a2.32,2.32,0,0,0,.39-1.44l.28-.2h0v-.52l.19-.2v-.14l.24-.24.1.05V26.4c.24.09.29-.15.29-.29V26h.09v-.52h.2V25l.14-.1.1-.29h.09c.24-.72.48-1.44.67-2.16h.05v-.72l.19-.14c0-.05.1-.29.15-.19a2,2,0,0,0,.19-.91V20.3c.19.05.29-.14.29-.29v-.09h.09l.15-.72.91-1.44a.72.72,0,0,1,.38.53l.72.19A.66.66,0,0,0,109.78,19.05ZM92.06,29.47,92,29.09v.33Zm.24,3v-.2H92v.2Zm-.14,1.1v-.19H92v.19Zm.14-14.93v-.19h-.14v.19Zm0,16v-.34h-.14v.34Zm0,2h-.14v.2h.14Zm.19-7.73V28.7H92.3v.19Zm0,7.54v-.14H92.3v.14Zm0,3.46V39.7H92.3v.19Zm0-7V33h.2v-.14Zm.2,8.4v-.14h-.2v.14Zm.19,2.35h-.19v.19h.19ZM93,23.85h-.14v.2H93ZM93,39.7h-.14V40H93Zm.29-3.6.14-.1,0-.24a.42.42,0,0,1-.2.34Zm.29-2.69V33h-.19v.39Zm0,.33V33.6h-.19v.14Zm0,.72v-.14h-.19v.14Zm0,.53v-.33h-.19V35Zm-.19.19v.2h.19v-.2Zm.19,1.11h-.19v.14h.19Zm0,.53v-.2h-.19v.2Zm0,4.65.14.19h0l.05-.28-.14-.24H93.6Zm0-14.54h.14v-.2H93.6Zm.14,3.6v-.2H93.6v.2Zm-.14.52v.2h.14v-.2Zm0,6v.14h.14V37Zm.24,7.87.09-.1L93.6,44v.19a3.2,3.2,0,0,0,.14.67Zm.09-15.07h-.19V30h.19Zm-.19,5.37h.39V35h-.39Zm.53,6.72-.14-.14.14-.48h-.34v.58h-.19v.38l.39.58.09.48h0l.19-.72-.53-.1v-.1l.2-.24.14,0Zm-.53,1.4v.14h.19V43.3Zm.19-13v.2h.2v-.2Zm.2,3.61V33.6h-.2v.34Zm-.2,2v.2h.2v-.2Zm.2,3.08h-.2v.19h.2Zm.14-2v-.19h-.14V37Zm-.14.33v.2h.14v-.2Zm0,2.88v.2h.14v-.2Zm0,.39v.14h.14v-.14Zm.38,5.47-.19-.29h0l0,.24.19.29h0Zm.14,1.15h-.38v.19h.38Zm0,.39h-.19V48h.19Zm.34-2h-.14v.19H95Zm0-11.14h.19v-.14H95Zm.19,10.08v-.19H95v.19Zm.19,3.22h-.19V48h.19Zm0-6.1h.2v-.19h-.2Zm0,.92h.2v-.39h-.2Zm0,.33h.2v-.19h-.2Zm0,.91h.34v-.19h-.34Zm.2,1.44h.14v-.19h-.14Zm.33.53h-.19V46h.19Zm.19-21.94h.2v-.33h-.2Zm.68,15.08a3,3,0,0,0,0,.67v.1h0l-.34-.39V38.26h.38Zm-.1,2.73.19.29,0,.24h0l-.2-.29.05-.24Zm.14-.91h-.19v-.14h.19Zm-.19.39h.19v.14h-.19Zm.19,3h-.19V42.72h.19Zm0,.38h-.19v-.19h.19Zm-.19.2h.19v.14h-.19ZM99,44.35h-.2v.19H99Zm.33-.91h-.14v.19h.14Zm.53.72H99.7v.19h.14Zm.58-2.69h-.1l-.48.72.58.19-.2-.38h.1Zm-.2,1.11h-.38v.14h.38Zm-.19.52h-.19v.2H100Zm.91-2.35,0-.29-.19-.24h0a.4.4,0,0,1-.19.53Zm-.19,1.44h-.19v.19h.19Zm.19-3.21h.2v-.2h-.2Zm0,1.05h.2v-.14h-.2Zm.2,1.11h-.2v.33h.2Zm0-2.64,0,.09h.33v-.14l-.14-.19h0C101.38,38.4,101.23,38.5,101.09,38.5Zm.62,1.1-.29-.24s0-.29,0-.24,0,.24-.15.24l-.09,0v.39h.52Zm-.43,1h-.14v.33h.14Zm0-3.07v.19h.19v-.19Zm.58-.2h-.2v.39h.2Zm0,.92h-.2v.19h.2Zm0,.91-.09.09.19-.09Zm.29-5.57H102v-.19h.19Zm0,2.69H102v.14h.19Zm.19-.91v-.2h-.19v.2Zm.34.19h-.34v.14h.34Zm-.14.33h-.2v.39h.2Zm.52-1.44h-.19v.39h.19Zm.34-3.21h-.1l-.14.19h-.1v.14l.15.19h0A.37.37,0,0,1,103.44,31.25Zm-.14,2.35h-.2v.34h.2Zm.33-2.74h-.19v.19h.19Zm.1-.33.19-.2h.1V30h-.1l-.29.53ZM104,33h-.2v.19h.2Zm.33-1.39-.14-.19h0c.1.14,0,.24-.19.24l0,.09h.33Zm.19-2.74h-.09l-.43.92h0l.29-.2.19-.33Zm-.38,3.61H104v.19h.14ZM104,34.66h.14V35H104Zm.81-1.59-.09,0a11.29,11.29,0,0,0-.48,1.49l-.1,0a12.76,12.76,0,0,1,.43-1.63l.15.05a2.62,2.62,0,0,0,.14-.82v-.29h.38A3,3,0,0,0,104.83,33.07Zm-.09-2.35h-.2v.14h.2Zm1.24-4.9h-.19c-.24,0-.29.34-.29.53v0h0v.72l-.72.86-.15.43.29.15c-.1-.29.38-.48.58-.58l-.2-.53.24-.19.1,0a4,4,0,0,0,.58-1.3Zm-1.1,4.32h-.14v.19h.14Zm.86-4.56.2.15-.15-.24Zm.58-.81h-.14V25h.14Zm.53,1.82H107v.14h-.19Zm2.88-8.3h-.15v-.15h.15Z" transform="translate(0 -7.15)"/><path class="a" d="M114.67,34.94l.14-.43,0,.53-.1-.1c0,.24,0,.87-.14,1.06l.19.34c-.48-.1.09.86-.29.86h-.05v.1c.24,0,.05.38,0,.48a5,5,0,0,1-.19,2.06v.34c.29,0,0,.62-.1.81H114v.1c.24,0-.19,1.15-.19,1.25a.36.36,0,0,0,.19.28l-.19.2-.1.52h0c-.14.34.19.87-.19,1.06v.53l.1,0,.43-.92.33-.19h0v-.53l.19-.38.29-.19h0l.1-.34h.09V41.9a13,13,0,0,1,1.25-1.82v-.53l.72-.91.1-.34h.09v.15a.65.65,0,0,0-.19.57l-.19.2h.38c.43-.68.77-1.4,1.25-2v-.38a.28.28,0,0,1-.19-.34l.29-.19.09.05V36l.72-.53.53-.91c-.14-.43.34-.29.34-.86h.38c-.1-.44.72-.92.91-1.3.39-.77.87-1.54,1.25-2.3L123,30l.34.19v-.1c-.24,0,0-.62.1-.76h.09l.15-.39v-.53a.26.26,0,0,0,.33-.19h0l.1-.33h.09l.15-.53.57.14v.19h.87v.53l-.29.19h0c-.34.48-.72,1-1.1,1.44.09.39-.68,1-.87,1.25a.68.68,0,0,1-.19.58v.14a4.42,4.42,0,0,0-1.63,1.64v.33l-.29.19h0l-.53.72v.39l-.29.19-.09-.05a7.6,7.6,0,0,0-1.06,1.63v.34H119v.58l-.24.19-.1,0v.58l-.19.14v.19l-.29.19h-.09a.67.67,0,0,1-.2.58l0,.14L117.07,41l-.1.39-.09-.05v.91c-.15.19-.77,1.1-.34,1.25-.09,0-.19,0-.19.14s.1.19.14.24l-.28.19h0l-.15.34v.53c-.24-.1-.52.53-.57.72a13.83,13.83,0,0,1,0,1.44c-.24-.1-.43.29-.53.48l.19.43h-.19c.1.34-1.54,1.44-1.87,1.63H111.5l-1.63-1.25c.14-.38-.48-.72-.72-.91a4.29,4.29,0,0,1,0-1.92,6.61,6.61,0,0,1-.19-1.68,9.06,9.06,0,0,1,.19-1.63l.58-.24-.1-.1c-.38,0-.34-.43-.34-.76a1.71,1.71,0,0,0,.24-1.2l.34.14v-.72l.19-.43-.33-.29v-.72c.24.14.24-.19.24-.34h.09a2.16,2.16,0,0,1-.19-1.1h.38l-.38-.14.14-.63c.15-.29-.19-.33,0-.62l.1-.39h.09v0c-.19-.24-.19-.87-.28-1.2h-.1V32l.19-.19c-.14-.43.15-.77.39-1.1l0-.19v0l-.1-.14.15-.62,0,0,.14.09a4.09,4.09,0,0,0,.15-.76,18,18,0,0,1,0-2.84l-.39-1c.39.09.87-1,1-1.25l.15.24c.86,0,1.68.38,2.4.38a.36.36,0,0,0,.24-.14c0,.14.09.19.24.19h.14v.1l1.1.72.15.38a5.78,5.78,0,0,1-.19,1.82,7.53,7.53,0,0,1,0,1.06l.09-.34a7.58,7.58,0,0,1-.09,1.06l0-.34,0,.53h0l0,.48,0-.33a21.52,21.52,0,0,1,0,2.54l-.24.43,0,.87-.19.24-.1.53v-.05h-.09l-.15.14v.19h.15ZM109.34,46h-.19v.19h.19Zm.53-5.23h-.14V41h.14Zm0,4.85h-.14v.19h.14Zm.14-9.94s-.19-.09,0-.09Zm.24-3.7h-.19v.2h.19Zm0,.34h-.19v.19h.19Zm0,5.95h-.19v.34h.19Zm0,2.5h.15v-.14h-.15Zm.53,5.57h-.19v.38h.19ZM111,32.21V32h-.19v.2Zm0-6.48-.19-.1.19.29Zm.1,17.61H111v.15h.15Zm0,.53H111v.34h.15Zm.19-3.93h.19v-.39h-.19Zm.38.72h-.38v.14h.38Zm0-.58h-.19v.38h.19Zm0,8.3h-.19v.15h.19Zm1.44-33.55a.81.81,0,0,1,.44.53l.19-.24.53.48.14.05.29-.2v.34l.57.14V16H116v.53h.53V18l-.29.19h-.09a1.62,1.62,0,0,1-.34.77l.15.19a3.23,3.23,0,0,1-.53,1.73l-.34.05-.38-.19c-.15.28-1.39-.39-1.63-.53v-.05l-1.25-.19V19h0l-.1-.29.1.1-.15-.24V18l.29.33v-.48a2.09,2.09,0,0,0-.14-.91l.33-.48-.19-.57h-.34l.53-.39.15-.43-.05-.24.09-.1.29.34ZM112,41h-.19v.19H112Zm.53-13.3h-.15v.2h.15Zm1.1,19.25h-.19v.15h.19Zm1.06-17.09h.19v-.19h-.19Zm0,2.69h.19v-.19h-.19Zm.09,1.88v.09l0-.09Zm.1-6.34h.19v-.19h-.19Zm.38,2.73,0-.67-.1.63,0,.14Zm0-1a.18.18,0,0,1,0-.15Zm0,14.78h.15V44.4h-.15Zm.15.72h-.15v.19h.15Zm.19-.53h-.19v.15h.19Zm.91-4.51h-.19v.19h.19Zm.19-.53h-.19v.2h.19ZM117.6,38c0,.05,0,.09,0,.14h-.1l.15-.33Zm.38-.58v-.33c.15,0,.24-.05.24-.2h.1v0l-.19.39v.09Z" transform="translate(0 -7.15)"/><path class="a" d="M132.29,41.71v.15h.14v-.2h-.14l.52-.52v-.72h.34c-.1-.44.38-.44.38-.77V39.5h.05l.29.2,0-.1-.19-.29.28-.19h.05l.19-.53a3.66,3.66,0,0,0,1.06-1.05l.1,0,.28.19c0-.72.92-1.54,1.44-2l.1-.33h.1l0,.52.09-.72.72-.72v-.33l.34-.19h0a2.9,2.9,0,0,0,.72-1.16c0-.05.05-.14.1-.14l.24.19A1.16,1.16,0,0,1,140,32v-.39c.38-.33,1-.72,1.19-1.2l.49.15v-.39l-.24-.24-.05-.14.19-.29.58.14v-.09l-.29-.19.43-.48c.1.09.67-.77.91-1l-.19.33h.1c0-.24.38,0,.48,0a.62.62,0,0,1,.19-.57l-.05-.15-.53.39v-.39a4.84,4.84,0,0,0,1.15-.33h.1l-.34.14V28h-.38a2.13,2.13,0,0,1-.34,1.44l-.33.19H143a8.34,8.34,0,0,0-.86,1.78l-.39.24-.19-.05a7.11,7.11,0,0,0-1.06,1.59v-.34h-.19v.38h.15a7.07,7.07,0,0,1-1.59,2h-.34c.1.53-.72.63-.72,1.06v.1l-.52.81h-.39l-.09.39h-.1c-.43.57-.86,1.15-1.25,1.77v.53l-.29.19h0v.72h-.1l-.19-.29v-.09l-.29.57v.53c-.43.15-.86.91-1.1,1.25l0,.19-.52.19a1.93,1.93,0,0,0-.2.72c-1,.15-2,1.92-2.49,2.69v.72l-.34.19h0V48a4.16,4.16,0,0,1-.52.77v.14l-.72.34h-1.44V49h-.92c-.19-.15-.43-.29-.52-.53h-.53a3.52,3.52,0,0,0-1.11-1.25h-.52l-.2-.48-.72-.62c0-.67-1.2-1.73-1.34-2.55l-.1.05,0-.53-.29-.57,0-2a2.38,2.38,0,0,1,.24-1.15v-.34l-.19-.29h.19c-.05-.67.19-1.34.19-2l-.19-.34.29-.19h0l.24-.62-.24-.24h.38v-.72H122V33.21c.24.15.29-.19.29-.33v-.05h.1v-.72l.24-.19.09,0v-.72c.24.14.29-.2.29-.34v-.05h.1a7.44,7.44,0,0,0,.33-1.73v-.24l.39-.19H124v-.53l.29-.19h.05v-.05l-.2-.28c.24.14.29-.24.29-.39h.1a.65.65,0,0,1,.19-.57v-.15h.34a8.44,8.44,0,0,1,2.88-3.6h.81a.32.32,0,0,0,.43-.14c.53,0,1.06.19,1.64.14-.15.29.38.34.52.39A4.52,4.52,0,0,1,133,24.38l.09.58.24.24.15-.05,0,.43-.24.43c0,4.37-2.64,4.52-5.08,6.68a.43.43,0,0,0-.53.29,2.77,2.77,0,0,0-1.06.14,3,3,0,0,1-.43,1.92h-.1l-.19.53.19,1h-.19l-.09.53h-.1c-.19,1.2-.19,2.4-.43,3.6h-.19a6,6,0,0,1-.2,2.07c.63,1.29,0,1.92,1.11,3.5v.53h.62l1-.87.58-.19.19-.33,0-.2.58-.19v-.38C129.17,44.78,131.28,42.72,132.29,41.71Zm-5.72-10.37c1.3-.24,2.55-.67,2.84-2.11l.24-.19.09.05.1-.39h.09v-.53a6.35,6.35,0,0,1,.77-1.39v-.05a2.75,2.75,0,0,0,.48-1.44c-.33-.52-.67-1.1-1.05-1.63C128.78,25,126.57,29.47,126.57,31.34Zm3-1.53h-.19V30h.19Zm.33,14.54h-.19v.19h.19Zm.29-15.79H130v.14h.19Zm.43,15.79-.14-.19h0c.1.14-.05.29-.19.29l0,.09h.33ZM131,44h-.19v.19H131Zm.14-.34H131v.19h.14ZM131.37,26h.2v-.19h-.2Zm.2,16.9h-.2v.19h.2Zm.33,1.25h-.14v.19h.14Zm.39-2.45v0Zm.33,1.54h-.19v.19h.19Zm.19-1.78h-.19v.39h.19Zm.34,0H133v.19h.14Zm.58-.72h-.2v.19h.2Zm.72-1.63h-.2v.19h.2Zm.33.72h-.19V40h.19ZM135,38.4h.2v-.14H135Zm.2,1.1H135v.2h.2Zm.14-.91h-.14v.19h.14Zm.38-.72h-.19v.19h.19Zm0,.53h-.19v.19h.19ZM137,36.62l-.1-.38h-.05l-.28.19-.05.1c0,.33.24.19,0,.53l.09-.1h.29Zm.62-.52h-.19v.14h.19Zm.19-.53h-.19v.14h.19Zm.92-1.63h-.1l-.19.19h-.1v.33h.05l.14-.19v-.14Zm.86-.92h-.19v.19h.19Zm0,.72h-.19v.2h.19Zm.53-1.05H140v.14h.14Zm.38.52h0s0,0,0,0Zm.19-1.24h-.19v.14h.19Zm.73-.92h-.2v.2h.2Zm.72-.52H142v.14h.2Z" transform="translate(0 -7.15)"/><path class="a" d="M149.61,34.27l.2.34v0l.28-.2h0l0-.52c.24.14.29-.25.24-.39h.1v0l-.19-.29c.24.15.29-.23.24-.38h.09l0-.72.33-.19h.19l0-.67h.52v.14a7.07,7.07,0,0,1,.87-.86c-.1-.34.19-.53.38-.72l.24,0,0-.14,0-.62.53-.2a.5.5,0,0,1,.14-.52l0-.2c.24.1.33-.38.33-.52l.39-.15-.05-.24h.05l.33.19-.19-.38c.24.1.19-.43.14-.53l-.52.19c0,.53-.63,1.25-1,1.64-.15-.1-.29,0-.29.19l-.1,0a.65.65,0,0,1-.14.58l.05.14h-.39c0,.43-.38,1-.62,1.3v.33l-.29.19h0l-.05-.19a.46.46,0,0,0,.2-.53A.84.84,0,0,1,152,30l-.24-.34v-.19l.87-.72a1.37,1.37,0,0,1,.48-1.1l-.05-.15h.53v-.52l-.24-.39h.57v-.09l-.24-.24L154,26l.19,0v-.52l.67-.39v-.33l.34-.1v-.1l.86-.19.15-.53h1.44v-.14l.86-.14.24.24v0c.39-.09.48.44.77.53s.77-.05,1.06,0v.19a1.93,1.93,0,0,1,1.1.34l.19.58h0c0,1.39.19,2.73.24,4.12h-.14c.14,2.21.24,4.42.43,6.63l.05.1c-.48.62.09,1.48.09,2.2a4.16,4.16,0,0,1-.14.77l.24.24v.1c-.43-.19,0,1.15.05,1.29a2.19,2.19,0,0,0,.09,1.25c-.38-.19,0,.87.1,1l-.19.48c0,.34.29,2.31.62,2.31h.1l-.05-.53c.43.14.53-1.2.62-1.44l0-.53c.28.14.28-.14.23-.34h.1l0-.72a.21.21,0,0,0,.29-.19h.1V42.1l-.24-.29.67-.87-.05-.91.19-.09.1-.29h0l.05.72.09.05.19-.77a.2.2,0,0,0,.29-.19l.1,0,0-.72h.34a15.9,15.9,0,0,1,.48-2.59h.33l0-1.1h0l.34.19v0c-.63,1-.34,2.93-1.15,3.84l0,.14-.28.19h-.05l-.1.34h-.09l.48.38.09-.24v-.14h.34v-.05l-.19-.29.14-.57.19-.19-.05-.15a1.37,1.37,0,0,1,.53-.38l.29-2.21a.38.38,0,0,0,.43-.29c-.05-.05.15-.09.15-.09l.24.38,0-.43-.19-.48H168l-.14.38h-.1a8.93,8.93,0,0,1-.29-1.1l.24.38H168a1.89,1.89,0,0,1,.24-1v-.09l-.19-.34.48-.19a1.7,1.7,0,0,1,.14-1l-.09-.19a8.19,8.19,0,0,1,1.25-3.51l0-.33h.1l0-.58.19-.1.05-.24h.1v-.52a3.07,3.07,0,0,1,.72-1.06v-.34l.14,0,.29.38a2.67,2.67,0,0,0,.1-.62c0-.2-.15-.72.14-.72l.05-.29h.09l0-.53.19-.14,0-.2.29-.19h.05c.19-.57.38-1.15.62-1.73h-.1c.48-.72.72-1.58,1.16-2.35h.33l.48-.72a14.6,14.6,0,0,0,2.55.19l-.15.53-.43.15.1.24h-.44c0,.19,0,.57-.28.57l-.15-.05c0,.34-.33.58-.33.92h0c-1.1,2.68-2.88,5-3.88,7.77-1.64,4.42-2,9.27-4.13,13.54v-.19h0c0,.53.29,1,.29,1.53v.1c-.39,0-.53,1.34-.58,1.63h0l.1.87h-.38l0,.72c-.38-.15.1.57-.33.57a10.51,10.51,0,0,1,.09,1.25,5.06,5.06,0,0,1-.48,1l.1,1.54H166l.05.91a.65.65,0,0,0-.57.19h-.15c.05.43-1.2,1.06-1.54,1.25-.19.05-.81-.24-1.05-.29v-.1a8.19,8.19,0,0,1-1.49-.72c0-.48-.91-.91-1.2-1.24l-.1-.34s-.14,0-.14-.1c0-.72-.29-1.44-.29-2.16.19-.14-.05-.62-.14-.81h-.1l.19-.39-.24-.43c0-.57-.09-1.15-.09-1.73a9.86,9.86,0,0,1,.24-1.68l-.1-.09-.33.19-.15.38h-.09a8.65,8.65,0,0,1,0-2.54l-.24-.53h.09A27.11,27.11,0,0,1,158,35.9c.33.2.09-.91.09-1a25.2,25.2,0,0,0-.43-3.85c.34.15.14-.72.14-.81-.09-.91,0-3.17-.43-3.89l-.19-.14a2.43,2.43,0,0,0-1.25.52c.1.34-.19.63-.29.92h0l-.34-.2a1.9,1.9,0,0,1-.82,1.44h-.33l.19.34c-.29,0-.14.77-.1.91l-.67.91h-.05l-.24-.09c.1.09,0,.33,0,.43l0,.72-.19.14,0,.25-.34.52h-.19l0,.39-.09,0a.68.68,0,0,1-.19.58l0,.14c-.48.14-.28.24-.38.72h-.1a.65.65,0,0,1-.19.58l0,.14-.67.72,0,.58-.24.19-.1,0a3,3,0,0,1-.1,1.63h-.14l-.1.53h0l-.24,1.25H150l-.1.72h-.05l.1,1.1c-.82-.29-.72,1.35-.72,1.78h0c0,1,.43,2.21-.19,3.07-.58.19-1.44.05-1.92.34h-.91l-.39-.15-.19-.33v0l-.33.19-.39-.19c-.09-.48-.72-.53-1.1-.53.09-.48-.48-.72-.82-.91a2.71,2.71,0,0,0-.43-1.59l.29-.09.09.05-.24-.29-.19.14.14-.24-.14-.14a3,3,0,0,1-.29-1.44l.53-.1-.53-.24.2-.91.09-.1c-.19-.09-.14-.38-.05-.52-.29-.1-.43-.15-.57-.44l.14-.62-.38-.29.14-.53c-.09-.33-.29-1.15.19-1.24l-.19-1.3-.19-.29v0h.19c-.14-2.11-.48-4.17-.62-6.29l.19-.28c.05-1-.05-2-.05-3l.19-.1.1-.62h0c0-.77.05-1.39.05-2.06v-.1l-.24-.34c.43.2,0-.62,0-.72a1.49,1.49,0,0,0-.44-1.05L140.49,19l.39-.1,0-.1.29,0,.24.19V19c1.2.09,2.25.19,3.45.19l.72.33.24.44v.09h.53l.19.34v.05h.92l.19.28v.05h.91V21l.91-.19.19.34v.05c.87-.39.77,1.39.82,1.63l-.34.33,0,.39H150a5.53,5.53,0,0,0-.29,1.25c0,.62-.24,1.2-.24,1.77l.05.53c-.24-.14-.29.24-.24.38s-.14.05-.1.05l.2.29-.24.34c0,.19,0,1.44,0,1.48s-.34,0-.24.2a2.56,2.56,0,0,0,.28,1.05,2,2,0,0,0,0,1.06l-.34.24h-.05l-.14,0v0l.19.34c.1-.29.38.23.05.43l.19.43a1.62,1.62,0,0,0-.34.58v0l.15.29c-.34-.19.09.82.14.91l-.14.2h-.05l.19.67v-.34l.19-.09.05-.24.34.24v.09l-.34.34v.19l.39.19,0-.53h.19a3.57,3.57,0,0,0,.1-.72v-.52l-.34.33-.05-.33.15-.39Zm-8-6.29v-.19l-.15.19Zm.05,3.41h.19v-.34h-.19Zm.09-1.58V30h.19v-.14Zm.15,2.49h-.15v.2Zm0-2v-.19l-.14.19Zm-.14.34v.19H142v-.19Zm.05-5v.19l.14-.19Zm.24,12.05v-.14h-.19v.14Zm0-2.5h-.15v.2ZM142,31.39v.19h.19v-.19Zm.19,6v-.19l-.14.19Zm-.1-9.89v.2h.53v-.2Zm.29,5.19h-.29l.2.19Zm-.19-3.75v.34l.19-.14Zm0,5v.14h.15v-.14Zm.19-7.21h-.14v.2h.19Zm.1,1.25v-.19h-.19V28Zm0,2.16V30l-.14.19Zm-.09-4.65h.14V25.1Zm.19.14h-.19v.19h.19Zm-.19,2.74v.14h.19v-.14Zm.14,2.49v-.19l-.14.19Zm-.1,1.06v.19h.19v-.19Zm.05-7.35v.2h.19v-.2Zm.19,2.5h-.19v.19h.19Zm-.14,5.23c0,.05,0,.1,0,.15v.14l.14-.29Zm.09,5.38h-.14v.19ZM142.51,33v.19l.14-.19Zm.19,2.88h-.19v.2h.19Zm0,5.19h-.14v.19Zm0-10h-.14v.2h.19Zm-.14,5.38v.19l.14-.19Zm.19.72h-.15v.19Zm.34-3.41v-.19h-.39v.19Zm-.34-5.23v.19l.14-.19ZM143,35V34.8h-.19V35Zm-.1-1.63a.29.29,0,0,1,.29,0l-.05-.15Zm.29,2v-.2H143v.2ZM143,30.53v.14h.19v-.14Zm0,2.3h.14v-.19Zm.19,3.27v-.2H143v.2Zm.05-4.52h-.15v.19h.2Zm-.1-4.51v.19h.19v-.19Zm.19.58h-.14v.14h.19Zm0,6v.09h0Zm.24.29h-.14v.14h.19Zm.1,1.05V34.8h-.19V35Zm-.14-4.66v.2h.19v-.2Zm.24,5.91h-.2v.19h.2Zm-.05,5.23v-.19l-.15.19Zm.09-4.51h-.19v.19h.19Zm.1,2h-.14v.19ZM146,40.22h-.14v.15Zm.24-7.2h-.14v.19Zm.1-1.44v.19h.19v-.19Zm0,7.92.14-.19h-.14Zm.24,1.25v-.19l-.14.19Zm2.45-3.6h-.15v.19Zm.38-2.11v.24l-.14-.29Zm.48-1.49h.19v.19h-.19Zm.29,2h-.14v.19Zm.1,1.44h-.15v.38Zm.19-2.5v-.19l-.15.19Zm.48-1.25V33h-.19v.19Zm.14-.38v-.19h-.19v.19Zm.29-1.15c.1.24-.14.24-.14.43l.09,0,.15-.24h.09Zm1.34-1.15v-.2l-.14.2Zm.1.86H153v-.14h-.19Zm.19.53v-.15h-.19v.15Zm.24-1.59v-.19l-.14.19ZM154.89,28v-.19l-.14.19Zm.29-1.25h.19v-.19h-.19Zm.39.34v-.14l-.34.14Zm3.93,18.34v-.19h-.19v.19Zm.1-8.88c0,.19.05.29.24.29H160v-.39h-.38Zm.24,8.88h-.15v.19Zm-.1-10h.15v-.2ZM159.89,49l.19.38h0V49.2l-.2-.38h0Zm.19-8.45v.38h.19v-.38Zm.24,6.48v-.19h-.19V47Zm0-5.23h-.15V42Zm.19-13.11h-.14v.19Zm0,14.74h.15v-.19h-.2Zm0,.38h.19v-.19h-.19Zm.24.72v-.19h-.19v.19Zm.05-2v-.15h-.19v.15Zm1.54-14.74.19.19h-.19Zm0,1.1h.2v.2h-.2Zm1.25,18.87v-.19l-.14.19Zm.24.53V48.1h-.19v.19Zm.2-2.35v-.15l-.34.15Zm-.29.91.14-.19h-.14Zm.19.53v-.15l-.15.15Zm.33-3v-.19l-.14.19Zm.39,2.5V46.8c0-.1,0-.29-.19-.29h0c.1.15-.05.24-.19.24l0,.1Zm-.34-2v.19h.2v-.19Zm.63,1.25v-.19h-.19v.19Zm.14-.72v-.19h-.19v.19Zm.15-3.22V42H165v.19Zm.33,2.35v-.19h-.38v.19Zm-.09,1.25V45.6h-.2v.19Zm-.05,2.31h-.15v.19Zm.19-2.69v-.19h-.19v.19Zm.05.91v-.19l-.15.19Zm-.1-7.2v-.19l.19.19Zm.29,1.82v-.19h-.19v.19Zm0-2.54v-.19H166v.19Zm.19,5.23v-.19h-.19v.19Zm.82-1.25v-.19h-.19v.19Zm-.1-1.63h.15v-.38Zm.19,3.41v-.34l-.14.34Zm.2-1.25a.2.2,0,0,1,.19-.19h.09v0l-.19-.29-.24.34,0,.19Zm0-.91v.19h.2V42Zm.29,1.63v-.19h-.19v.19Zm-.09-4.32v.19l.14-.19Zm1-.91c-.24,0-.14.19-.48-.19l0,1.58A6.42,6.42,0,0,0,168.38,38.4Zm-.09-2.93h-.19v-.19h.19Zm3.26-7.73h.15v-.19h-.1c.1-.53.24-1,.38-1.49l-.48.43.53-.67v.1c.58-.82,1.78-1.68,1.78-2.79l-.1.34-.05-.19.63-1.68c-.43.38-.63,1-1,1.34l-.14.53-.72.19-.29.91h0l-.34-.19c-.09.29.15.63,0,.91l-.19.2.05.33h-.34c-.14.53-.24,1.2-.33,1.73a21.46,21.46,0,0,0-2.07,5.38h0l.2-.82h-.15l-.24.82h.19v.57l-.48.24.05.1v1.25l.43-.15h-.09l-.05-1.1.34-.34s0-.29.09-.24l.19.24.24-.38.2-1.15a8.85,8.85,0,0,0,.91-3.12l.19.14a33.75,33.75,0,0,0-1.1,4.32C170.78,32.25,171.17,29.18,171.55,27.74ZM169,36l-.1-.24a8.92,8.92,0,0,0-.53,2.69A24.49,24.49,0,0,1,169,36Zm-.19-.57v0Zm.19-.63-.15.19.29-.09Zm.29-.09.09-.72-.14-.1h-.15V34h.2Zm0,0a1.6,1.6,0,0,0,0,.43Zm.09-.82.05-.19C169.39,33.69,169.39,33.79,169.39,33.84Zm.91-5.57v-.14h-.19v.14Zm.34,0h.19v.19Zm.48-2.45h-.19l-.19.67h.14Zm-.19,1v-.14h-.19v.14Zm.57.72.05.19h-.05Zm.87-2.26h-.19l.14-.72h.14Zm0-1.82v-.19h-.2v.19Zm.19-2a.11.11,0,0,1-.1.1h0l.15-.24Zm.09-.29-.09.15,0-.15ZM174.1,20v-.2h-.39V20Zm.72,1.63v-.15a8.54,8.54,0,0,0-.63,1.49C174.38,22.51,174.58,22,174.82,21.6Zm-.39-.19v-.2h-.19v.2Zm-.05-2.69h.15v-.19Zm.44,1.25h-.2l-.24.52h.2Zm-.24-.92v.2h.19v-.2Zm.91.53h-.15v.19Zm.09,1.11,0-.05v.05Zm.29-1.11v-.14h-.19v.14Z" transform="translate(0 -7.15)"/></svg>