<?xml version="1.0" encoding="utf-8"?>
<!-- Generator: Adobe Illustrator 24.1.3, SVG Export Plug-In . SVG Version: 6.00 Build 0)  -->
<svg version="1.1" id="Layer_1" xmlns="http://www.w3.org/2000/svg" xmlns:xlink="http://www.w3.org/1999/xlink" x="0px" y="0px"
	 width="151px" height="86.8px" viewBox="0 0 151 86.8" style="enable-background:new 0 0 151 86.8;" xml:space="preserve">
<g>
	<path d="M11.7,58.9l0,0.6c-0.1,0.5,0.2,1,0.1,1.5c0,0.7-0.2,1.3-0.2,1.9c0,0.2,0,0.7,0.2,0.8c-0.3,0,0,0.7,0,0.9c0,1,0,2.1,0.2,3.1
		l-1.4,0.9v-0.4c-0.5,0.2-1.3-0.7-1.7-1H8.9c0,0.2-0.4,0-0.4,0l-0.3,0V67H7.5L7,66.6c0-0.2,0-0.4-0.1-0.6v-0.1H5.3l-0.1-0.3H5.1
		c0-0.3-0.1-0.7-0.1-1c0-1,0.4-2,0.4-3l-0.2-0.2c0.3,0.1,0.2-1.1,0.2-1.2L5.4,60c0-0.1,0-1.1,0-1.1c0,0,0.1,0.1,0.1,0.2l0.3-0.2h0
		v-0.7l0.3-0.2h0c0-0.2,0-0.6-0.1-0.8l0.2,0c0.1,0,0.1-0.2,0.1-0.3H6.1c-0.1-0.1,0.2-0.2,0.3-0.2c0-0.2,0-0.4,0.2-0.6l0-0.1H6.4
		l-0.1,0.4c-0.1,0-0.1-0.2-0.1-0.2l0-0.5c0.3,0,0.6-0.4,0.7-0.7v-0.9H6.6l-0.1,0.7l-0.2-0.2L6.5,54l0.1,0l0.2-0.4V53H6.7l-0.4,0.3
		v-2h0.1l0.2,0.3h0v0.9c0.2-0.2,0.3-0.7,0.3-1l-0.1-0.1l-0.2,0.2l0.2-0.4v-0.4c-0.1-0.1-0.3,0.5-0.3,0.5h0l-0.6-1.2l0.6-0.3l0.3-0.9
		h0l-0.1,0.3l-0.1-0.1c0-0.4,0-0.9-0.2-1.2h0.3v0.5H7v-0.1l-0.3-0.5H7L6.5,47c0-0.5,0-1.1,0-1.6l0-0.9h0.3c-0.1,0.3,0,0.6,0.1,0.9
		l0-0.5l0.2-0.2l0-0.2l-0.5-0.3c0-0.5,0-1.1,0.2-1.5V43c0.1,0,0.2,0,0.2,0l-0.2-0.5L7,42.2c-0.4,0-0.8-0.1-1.1-0.2
		c-1,1-1.5,1.2-2.9,1.2L2.7,43v0c-0.5,0-0.8,0-1-0.5V41l-0.2-0.3v-0.1l-0.4,0.2l-0.9-0.5l0-0.5v-1.2c0.3-0.4,0.7-0.9,1.2-1.2
		c0.5,0.1,3.9-1.8,4.6-2.2h1L7,35l-0.2-0.2l0.3-0.2h0c-0.1-0.3-0.2-0.7,0-1h0.3c-0.1-0.3,0-0.5,0.2-0.8l-0.1-0.1l-0.3,0.3l-0.4,0.2
		C7,32.9,7,32.5,7,32.1h0.2c0-1.4,0.1-2.8,0.1-4.2l0.1,0L7.7,28v0l-0.2-0.3l-0.2,0.2v-1.7c0.4,0.1,0-0.5,0.4-0.5l0-0.3l-0.2-0.8
		L8,23.7l-0.1-0.1l-0.2,0.2l0-0.7c0-0.5,0-2.7,0.3-2.7l0.1,0c0-0.6-0.1-1.2,0-1.9l0.2-0.1L8,18.1l0.1-2.1h0.2c0-0.5-0.1-1.1,0.1-1.5
		c0-0.4-0.1-0.8-0.4-1c0-0.2,0.1-0.7,0.1-0.9c0.3,0.1,0.7,0,1,0l0.4,0.2L9.9,12l0.8,0.3l0.3,0.3h1.2v-0.2l-0.3-0.5v-0.1
		c0.3,0,0.6,0,1,0h0.2V12h0.7c-0.1,0.3,0.6,0.3,0.8,0.3h0.2v0.3c0.3,0.1,0.1-0.3,0.4,0l1,0c1.3,0,2.6,0,4-0.2l0.2-0.1
		c0.2,0.1,0.9,0.3,0.9,0c1.6,0,3.2-0.1,4.8-0.3l0.5,0.1l0.7-0.3l0.7,0l0.5,0l1.1,0.4l1.4,1.8l0.1,0.4H31l-0.4-0.5l-0.2,0.5
		c0,0.4,0.3,0.8,0.5,1l-0.2,0.3c-0.6,0-1.2,0.1-1.8,0.1c-0.2,0-0.4-0.1-0.6-0.1c-0.3,0.2-0.7,0.3-1.1,0.3c-0.3,0-0.7,0-1,0.2
		c-0.6,0-1.5-0.1-2.1,0.1c-0.7-0.1-5.5,0.2-6,0.5h-1.9v0.7L16,17.8c0,0.3,0.1,0.9-0.1,1.2c-0.1,0.7-0.6,4.5-0.9,4.8v0.9h-0.2v1.7
		l-0.2,0.5l0,0.7l-0.2,0.2l0,0.3h-0.1v2.2l-0.5,0.2l0.2,0.1l-0.1,0.1l-0.2,0.8l0.4,0.1l0,0.1h-0.5l0.3,0.7l-0.3,0.2v0.7
		c0.7,0,1.4,0,2.1-0.2c0.5,0,0.9-0.2,1.3-0.5h0.7v0l-0.1,0.2c0.4,0,0.9,0,1.2,0.2l0.2-0.1c0.3,0,0.7,0.1,1,0.3l0.1-0.1l-0.2-0.2
		c0.6-0.1,1.2-0.2,1.8-0.2l0.4,0.2h1.7c0.1,0.6,0.6,1,0.8,1.5c-0.1,1,0.5,1.2,0.8,2l-0.3,0.3c-0.4,0-1,0-1.4-0.1v1L23,38.4
		c-0.3-0.1-0.7,0-1,0.2c-1.1,0.3-3.6-0.7-4.8,0c-0.7,0-3.4,0.1-3.9,0.3h-0.7v0.2l0.2,0.3c-0.3-0.1,0,0.2,0,0.2v1.2l-0.3,0.8l0.1,0.8
		l-0.2,0.3l0,0.1c0,0,0,0,0,0s-0.5,0-0.3-0.2l-0.3,0l-0.1-0.2l0.1-0.4L11.4,42v0.8h0l-0.1-0.2c0-0.3,0.1-0.6,0.2-1h0.3
		c0-0.3-0.1-1.1,0.1-1.3c0.1-0.1,0-0.3-0.1-0.4l0.2-0.3l0-0.4h-0.2l-0.1,0.7l-0.1-0.3c-0.2,0.6-0.4,1.2-0.5,1.8l0.4,0.3l0,0.1
		l-0.5-0.1l-0.1-1.2h0.3v-0.2l-0.2-0.3v-0.5h-0.5c-0.1,0.6,0.2,2-0.2,2.4c-0.1,0.2,0.1,0.2,0,0.5c0,0.8,0.3,0.9,0,1.6
		c0,0.4,0,1.1,0.2,1.5l0-0.5c0-0.3,0-0.6-0.1-0.9l0.3-0.3v-0.7c0.1,0.4,0.2,0.9,0.2,1.3l0,1h0L11,45h0c-0.1,0.8,0,0.8-0.7,1.4
		l-0.2-0.7l-0.2,0.6l0.1,0.4l0.2-0.1c0.1,0.2,0.3,0.4,0.5,0.5l0.2-0.2c0,1.1-0.3,2.2-0.3,3.4l-0.2,0.4c0.1,1.3,0,2.7,0,4.1
		c0,0.4,0.1,0.7,0.2,1.1c-0.4,0-0.1,0.8,0,1c0,1.3,0.2,2.6,0.2,3.9c0,0.8-0.1,1.4,0,2.2c0.2-1.7,0.2-3.5,0.2-5.1
		c0.2,0.2,0.2-0.3,0-0.1c0-1.2,0.2-2.4,0.2-3.7l-0.2-0.2c0.2,0.1,0-0.5,0-0.6l0.4-0.7c-0.4-0.6,0-3.3,0-4.3l0-0.8h0L11,47.6l0.3-0.3
		c0,0,0.1,0,0.1,0c0-0.8,0.1-1.6,0.1-2.4c-0.2-0.1-0.1-0.4,0-0.6v-1h0.1l0.2,0.2l0.2-0.4c0,0.1,0,0.2,0,0.3c0,0,0,0.1,0,0.1l0.3,0.5
		c-0.1,0.9,0,1.9-0.3,2.8h0c0,0.5,0,1,0.1,1.4c-0.2,0.5-0.1,1.1,0,1.7h-0.1L12,50.6l0.2,0.8c-0.3,0-0.1,0.2,0,0.3h-0.3
		c0,0.3,0,0.7,0.2,1.1c-0.2-0.1-0.2,0.3-0.2,0.4c0,0.4,0,0.9,0.2,1.3c-0.1,0.2-0.3,1.8-0.3,3.1v-0.3h-0.2v0.3h0.2
		C11.7,58.2,11.7,58.7,11.7,58.9z M4.8,36H4.4v0.1h0.3V36z M5.6,58.6l-0.2-1.5l0.2-0.1l0.2,0.1c-0.1,0.4,0,0.9,0,1.3L5.6,58.6z
		 M5.6,60.1h0.2V60H5.6V60.1z M6,54.8C6,55.3,6,56,5.8,56.5v-1.9L6,54.8z M6,60.7H5.8v0.1H6V60.7z M6.1,51.5H6v-0.1h0.2V51.5z M6,53
		h0.2v0.2H6V53z M6,53.9h0.2V54H6V53.9z M6.3,35.5H6.1v0.2h0.1V35.5z M6.6,35.3H6.5v0.2h0.1V35.3z M6.8,46.2V46H6.6v0.1H6.8z
		 M6.8,55.7H6.6v0.1h0.2V55.7z M7,46.7H6.8v0.1H7V46.7z M7,41.6h0.2v-0.2H7V41.6z M7,42h0.2v-0.2H7V42z M7.2,49.2v-0.1H7v0.1H7.2z
		 M7,43c0,0.1,0,0.2,0,0.3h0.1L7,43z M8.3,45.4L8,45.2c0-1.2,0.1-2.3,0.1-3.4l0.2-0.5l-0.2-0.9l-0.5,0.3c-0.1,0.8,0.2,1.6-0.2,2.4
		l0.3,0.7l-0.3,0.3v2.7H7.2l0,0.1l0.3,0.1h0.1c0.1,0.3,0,1.5,0,2c0,0.7,0.1,1.7-0.2,2.4v0.3h0.4c0-0.4-0.1-0.9,0.1-1.2
		c0-1,0.2-2,0.2-2.9l-0.2-0.2c0.3,0,0-0.6,0-0.7l0.3-1l-0.3-0.2L8.3,45.4L8.3,45.4z M7.3,48.2V48H7.2v0.2H7.3z M7.2,54.2v0.1h0.1
		v-0.1H7.2z M7.3,55.1v-0.2H7.2v0.2H7.3z M7.3,30.2h0.2V30H7.3V30.2z M7.4,31.9l0.3-0.2v-0.9H7.6l-0.3,0.2L7.4,31.9L7.4,31.9z
		 M7.5,32.4H7.3v0.2h0.2V32.4z M7.3,34.3l0.1,0.3h0l0-0.2l-0.2-0.2h0V34.3z M7.3,42.1v0.2h0.2v-0.2H7.3z M7.3,43.3v0.2h0.2v-0.2H7.3
		z M7.5,52.7v-0.3H7.3v0.3H7.5z M7.5,53.8l-0.2-0.2h0v0.2L7.4,54h0L7.5,53.8z M7.5,55.4H7.3v0.1h0.2V55.4z M7.7,27.3H7.5v0.1h0.2
		V27.3z M7.5,29.3h0.2V29H7.5V29.3z M7.7,52H7.5v0.1h0.2V52z M7.7,28.5h0.1v-0.2H7.7V28.5z M7.8,25.7L8,26h0l0-0.2l-0.2-0.3h0
		L7.8,25.7z M7.8,32.9v0.1H8v-0.1H7.8z M8.2,21.7h0.2v-0.2H8.2V21.7z M8.2,22.7h0.2v-0.1H8.2V22.7z M8.2,25.8h0.2v-0.2H8.2V25.8z
		 M8.2,34.6l0.2-0.3h0.3l0.1-1h0c-0.2-0.1-0.1-0.5,0-0.7c0-0.8-0.2-2.3,0.2-2.9l-0.1-0.1L8.5,30c0.3-0.1,0,0.4,0,0.5
		c0,0.3,0,0.6-0.1,0.9c0,0.2-0.2,0.6-0.2,0.9V34.6z M8.8,44.3v-0.7l-0.1-0.1l-0.4,0.6h0l0.2-0.3h0.1V44c-0.2,0.1-0.2,0.4,0,0.5
		L8.8,44.3z M8.5,21.4h0.2V21H8.5V21.4z M9,42.1V42l-0.2-0.3H8.5v0.7L9,42.1z M8.7,28.7c0,0.2,0,0.4,0.1,0.6v-0.6H8.7z M8.8,40.4
		v-0.2H8.7v0.2H8.8z M8.8,40.7L8.8,40.7l-0.1-0.1l0.1,0.3V40.7z M8.7,43.1v0.2h0.1v-0.2H8.7z M9,28.5L8.8,27c0,0.6,0,1.1,0,1.7
		L9,28.5z M9,44.6H8.8v0.2H9V44.6z M9.2,40.4v-0.3H9v0.3H9.2z M9.2,44.3H9v0.2h0.1V44.3z M9.9,29.7c0-0.1-0.1-0.4-0.2-0.5l-0.3,2.2
		v0l0.2,0.3c0,0.3,0.1,0.6,0,0.9c-0.2-0.1-0.3,0.1-0.3,0.3H9.2v0.7l0.4,0.5l-0.4,0l0.5,0.2v-0.9c0-0.3-0.1-1.8,0.2-1.7V29.7z
		 M9.4,40.8H9.2v0.1h0.2V40.8z M10.2,51.6v-0.1H9.9v0.7l0.1-0.3L10.2,51.6z M9.9,50.6L9.9,50.6l0.3,0.5v-0.9L9.9,50.6L9.9,50.6z
		 M10.2,48c0-0.2,0.1-1.1-0.2-1v0.7L10.2,48z M10,48.6c0,0.3,0.1,0.8,0,1.2l0.3,0C10.2,49.4,10.1,49,10,48.6z M10.4,42.4h0.5L11,43
		h-0.7V42.4z M10.7,33.9h-0.1v0.2h0.1V33.9z M10.8,42l0-0.2h0l0.2,0.2l0,0.3h-0.3C10.7,42.2,10.8,42.1,10.8,42z M10.7,53.2h-0.1V53
		h0.1V53.2z M10.9,55.2h-0.2l0-0.3l0.2-0.4h0V55.2z M10.9,54.2h-0.2V54h0.2V54.2z M10.7,56.1v-0.2h0.2v0.2H10.7z M10.7,67.1v0.2h0.2
		v-0.2H10.7z M11,43.3h-0.1v-0.2H11V43.3z M10.9,44.5H11v0.1h-0.1V44.5z M11,48.4h-0.1v-0.1H11V48.4z M11,48.7h-0.1v-0.1H11V48.7z
		 M11,49.2h-0.1v-0.1H11V49.2z M11,49.6h-0.1v-0.1H11V49.6z M11,49.9h-0.1v-0.1H11V49.9z M10.9,50.4H11v0.1h-0.1V50.4z M10.9,52
		v-0.2H11V52H10.9z M11.9,32.4l-0.2,0.1c0-0.5,0.1-1-0.1-1.4c0.2-0.5,0.3-1,0.3-1.5l0.2-0.2c0-0.3,0-0.7,0.2-1L12.1,28h0.3v0
		l-0.3-0.2v0h0.3c0-0.8,0-3.1,0.3-3.7h-0.1l-0.4,0.2v0.8h-0.1l0,0.3c0,1-0.1,2.5-0.4,3.4c-0.1,0.1-0.1,0.2-0.1,0.4
		c0,0.3,0.1,0.7,0,1l-0.2,0.1l-0.1,0.4h0c0,0.4,0.1,1-0.2,1.4l0,0.9c0,0.4,0.1,1,0.6,1l0.1-1.1L11.9,32.4z M11.2,43.8H11v-0.2h0.2
		V43.8z M11,46h0.2v0.1H11V46z M11,60h0.4v-0.1H11V60z M11.2,59.4l0.2,0.2h0v-0.2l-0.1-0.3h0L11.2,59.4z M11.4,39.2h-0.2v0.2h0.2
		V39.2z M11.2,43.3h0.2v0.2h-0.2V43.3z M11.3,58.4L11.3,58.4L11.3,58.4L11.3,58.4z M11.4,60.8v-0.3h-0.2v0.3H11.4z M11.4,64.8v-0.2
		h-0.2v0.2H11.4z M11.6,41.3v0.1h-0.1v-0.1H11.6z M11.4,51.1h0.1V51h-0.1V51.1z M11.4,58.1h0.1v-0.1h-0.1V58.1z M11.4,62.5v0.1h0.1
		v-0.1H11.4z M11.6,67.4h-0.1v0.2h0.1V67.4z M11.6,47.4h0.2v-0.1h-0.2V47.4z M11.8,48.9v-0.2h-0.2v0.2H11.8z M12,49.6l-0.4-0.5v0.5
		c0.1,0,0.2,0,0.2,0.2h0.1L12,49.6z M11.6,56.9v0.1h0.2v-0.1H11.6z M11.6,64.8v0.1h0.2v-0.1H11.6z M11.8,65.2h-0.2v0.2h0.2V65.2z
		 M11.8,25.8h0.1v-0.2h-0.1V25.8z M12.1,33.3v-0.2h-0.3v0.2H12.1z M11.8,44.8h0.1v-0.2h-0.1V44.8z M11.8,46h0.1v-0.2h-0.1V46z
		 M11.8,47h0.1v-0.3h-0.1V47z M11.9,21.8h0.2v-0.1h-0.2V21.8z M11.9,44.3h0.2v-0.1h-0.2V44.3z M12.1,22v0.2h0.1V22H12.1z M12.1,39.2
		v0.2h0.1v-0.2H12.1z M12.2,41.6h-0.1v0.1h0.1V41.6z M12.1,43.4c0,0,0,0.1,0,0.1c0,0,0.1,0,0.1-0.1l-0.1-0.2
		C12.1,43.3,12.1,43.4,12.1,43.4z M12.4,39.7h-0.2v0.1h0.2V39.7z M12.4,40.8h-0.2v0.1h0.2V40.8z M12.2,52h0.2v0.1h-0.2V52z
		 M12.6,32.3L12.6,32.3l-0.1,0l0.1,0.3V32.3z M12.6,33.3h-0.1v0.1h0.1V33.3z M12.4,45.4h0.1v0.1h-0.1V45.4z M12.6,23h0.2v-0.1h-0.2
		V23z M12.8,30.5h-0.2v0.3h0.2V30.5z M12.8,31.2h-0.2v0.2h0.2V31.2z M12.6,44.2h0.2v0.1h-0.2V44.2z M12.6,44.5h0.2v0.1h-0.2V44.5z
		 M12.8,21.7h0.1v-0.2h-0.1V21.7z M12.9,30h-0.1v0.1h0.1V30z M13.1,28.7h-0.2v0.2h0.2V28.7z M13.6,33.6v0.2h0.1v-0.2H13.6z
		 M13.8,26.3H14v-0.2h-0.2V26.3z M17.9,32.4h0.3v0.2h-0.3V32.4z M18.7,14.4h-0.2v0.1h0.2V14.4z M18.5,32.6v-0.2h0.2v0.2H18.5z
		 M18.9,13.9h-0.1V14h0.1V13.9z M19.6,14.5h-0.2v0.2h0.2V14.5z M19.4,33.6h0.3v-0.2h-0.3V33.6z M19.7,14h0.2v-0.1h-0.2V14z
		 M28.6,13.5l-0.3-0.1v-0.1h-0.9l-0.6,0.3l-0.7-0.3c-0.2,0.1-0.5,0.2-0.7,0.2l-0.1,0.2L25,13.3h-1.9c0,0.3-1.1,0.2-1.3,0.3h-0.7
		c0.1,0.3-1,0.5-1.2,0.5c0.1,0.4,1.2,0.3,1.5,0.3c0.7,0,1,0,1.6-0.4l-0.4-0.2h1.1L23.3,14v0.4l0.5,0c1.2,0,2.4-0.2,3.7-0.2l0.7-0.3
		l0.4,0.2l0.5,0L28.6,13.5z M19.9,33.8h0.1v-0.2h-0.1V33.8z M20.3,13.9h0.1v-0.2h-0.1V13.9z M20.4,33.6h0.5l0.3-0.2l-0.3-0.1h-0.5
		V33.6z M20.7,13.5h0.2v-0.2h-0.2V13.5z M21.6,13.3h0.2v-0.1h-0.2V13.3z M21.8,33.6h0.1v-0.2h-0.1V33.6z M22.1,33.6h0.1v-0.2h-0.1
		V33.6z M24,12.9h0.1v-0.2H24V12.9z M24.3,15.1h-0.2v0.1h0.2V15.1z M24.5,13.7l0.6,0.1c-0.2,0.1-0.5,0.2-0.7,0.2v-0.3H24.5z
		 M25.2,13.7l-0.1,0l0.1,0.1V13.7z M25.5,15.4h-0.2v0.1h0.2V15.4z M25.5,13h0.3v-0.1h-0.3V13z M26,14.9h-0.1v0.2H26V14.9z M26,13.2
		h0.2V13H26V13.2z M26.4,13l0.2,0c0.1-0.1,0.4-0.1,0.5,0v-0.1l-0.7-0.2V13z M26.7,14.7h-0.2v0.1h0.2V14.7z M26.7,15.4h-0.2v0.1h0.2
		V15.4z M27.6,12.1h0.2V12h-0.2V12.1z M27.9,12.7h0.2v-0.1h-0.2V12.7z M28.1,14.5h-0.2v0.2h0.2V14.5z M28.9,15.5h-0.2v0.2h0.2V15.5z
		"/>
	<path d="M37.3,30.2L37,29.9c0.6,0,1.2-0.1,1.8-0.3h0c0.6,0.3,1.7,0.9,2.2,1.4l-0.1-0.3l0.7,0.6c0,0.4,0.1,0.7,0.1,1.1
		c0,0.3-0.4,0.7-0.7,0.7l-0.6-0.3c-0.4,0-0.7-0.3-0.8-0.7h-0.5c0,0.5-0.6,1.2-1,1.5c-0.1,0.4-0.4,0.8-0.8,1l0.5,0.2l-0.5,0.3
		c0,0,0,0.1,0,0.1L37,35.8c-1.2,1-1.6,1.6-2.3,3L34.5,39l0,0.1c-0.3,0.5-0.5,1.2-1.1,1.6l-0.1,0.4h-0.1c-0.1,0.3-0.2,0.7-0.2,1.1
		h-0.3v0l0.1,0.3c-0.2-0.1,0,0.5,0,0.5c0,0.3-0.1,0.6,0,0.9c-0.2-0.1-0.3,0.1-0.3,0.3h-0.1v0.6h0l0.3-0.2c0-0.2,0-0.4,0.2-0.6l0-0.1
		c0.6-0.6,2.4-2.5,2.4-3.3h0.2c0.3-0.7,0.9-1.2,1.4-1.8h0l0.5-0.5v-0.2h0.1c1-1.2,2-2.4,3.1-3.4l0-0.1l0.3-0.3v0l0,0l1.2-1.3
		l0.6-0.3c0-0.4,0.2-0.8,0.4-1.1c0.4,0,0.8,0.1,1.1,0.4l0.2,0.5h0.3v0.4c0.6-0.2,0.7,0.5,0.9,0.9c0.4,0.2,0.8,0.4,1.1,0.8
		c0,0.8-0.4,1.6-0.4,2.4l0,0.3c-0.2-0.1-0.3,0.2-0.3,0.4h0v0.5l-0.2,0l0,0.3h-0.1c0,0.4,0,0.8-0.2,1.1c0.1,0.3-0.2,0.6-0.3,0.8
		l0,0.1l0.2,0.3h-0.3c0,0.4,0.1,0.8,0,1.2C45.1,42.3,45,42.9,45,43l0.2,0.2V44c0,0.3,0.1,0.8-0.2,0.9l0,0.4h-0.1
		c-0.1,1.3-0.1,2.8-0.6,4.1h-0.1c-0.2,1.7-0.3,3.4-0.6,5l0.1,0l0.3-0.8l0.5-0.5v-0.5c0.4,0.1,0.5-0.8,0.7-1.1v0l0.3-0.2h0L45.4,51
		l0.3-0.2h0c0-0.4,0.2-0.9,0.4-1.2h0l0.3,0.2l0-0.1c-0.2,0-0.1-0.4,0-0.5v-0.3l0.3-0.2h0v-0.5l0.4-0.2h0.1v0l-0.2-0.3
		c0.2,0.1,0.3-0.2,0.3-0.4h0.1c0-0.2,0-0.4,0.2-0.6v-0.1l0.3-0.2h0c0-0.2,0-0.4,0.2-0.5v-0.1l0.2-0.2l0.1,0V46l-0.1,0.3H48
		c0,0.2,0,0.4-0.2,0.6V47H48l0.4-0.5l0.4-0.2c0-0.3,0-0.8,0.2-1.1h0l-0.3,0.2v-0.9l1.1-1.8l0.1,0l0.2,0.2l0-0.1l-0.2-0.2
		c0.4,0.1,0.5-0.7,0.6-0.9l0.3-0.2h0v-0.5C51,41,51,40.8,51,40.7v0h0.1c0-0.3,0-0.6,0.1-0.9c0.4-0.3,0.8-0.8,1.1-1.2v-0.4l0.2-0.2
		l0.1,0c0-0.2,0-0.4,0.2-0.6l0-0.1l0.3-0.2h0v-0.5l0.3-0.2h0v-0.5c0.1-0.2,0.3-0.3,0.5-0.4v-0.5l0.6-0.2v-0.3l0.3-0.2h0v-0.7
		c0.6,0.1,0.7,0.5,0.7,1.1v0.4L55.5,35h-0.1v0.3l-0.3,0.2h0c0.1,0.3-0.3,0.6-0.3,0.9h-0.1l-0.3-0.2v0.1l0.1,0.2l-0.1,0.2v0.4
		l-0.2,0.2l-0.1,0v0.6l-0.7,0.9h0.1v0.6h-0.1c-0.1-0.2-0.4-0.3-0.6-0.2l-0.1-0.2l-0.1,0l0.2,0.3v0.1c-0.1,0.2-0.2,0.5-0.2,0.8
		l0.4-0.7l0.4,0.2c0,0.8-0.5,1.3-0.9,2H52c0,0.5-0.2,0.8-0.5,1.2c0.1,0.2,0,0.4-0.2,0.6v0.1c-0.1,0.2-0.3,0.3-0.5,0.4l-0.2,0.5h-0.3
		c0,0.4,0,0.7,0,1.1c-0.4-0.2-0.4,1.2-0.4,1.4l-0.1,0.1l-0.1,0.3h-0.1v0.7l-0.2,0.1v0.2H49l0,0.1l0.2,0.3c-0.2-0.1-0.2,0.2-0.2,0.3
		v0h-0.1v0.7c-0.2-0.1-0.3,1.2-0.4,1.4h-0.1v0.6L48,52.1l-0.1,0.4h0V54h-0.3l0,0.2l0.2,0.4h-0.4v0.7c-0.7,1.1-1.2,2.2-2,3.2
		c0.1,0.4-0.4,0.4-0.4,0.9h-0.3c0.1,0.4-1.4,0.8-1.8,0.9h0c-0.5-0.5-1.2-1-1.8-1.4c0.1-0.3-0.3-0.6-0.3-0.9h-0.4l-0.1-0.4h-0.1
		l-0.5-1.5c0-0.1,0.1-0.7-0.2-0.7c0-1.4-0.2-2.9-0.2-4.4c0-0.4,0-0.9,0.2-1.2c0-0.3,0-1.2,0.2-1.4c0-0.1,0.2-0.8,0.2-0.9l-0.2-0.3
		c0.2,0,0.2-0.6,0.2-0.7v-0.4c0.2,0.2,0.2-0.6,0.2-0.7h0.1l0-0.7l0-0.7h0.2c0.1-0.3,0.2-0.7,0.2-1.1v-0.3h0.2l0.1-0.7h0v-0.9h0.4
		l-0.1-0.3c0.1-0.3,0.2-0.7,0.1-1h0l0.3,0.2l0-0.1c-0.2,0-0.1-0.3,0-0.4l0.3-1.3h0v-0.7l0.2,0l0-0.3h0.1v-0.7l0.2-0.2v-0.1l0.3-0.6
		l0-0.6c-2.4,2.1-4.3,4.6-6,7.1c-0.1,0.2-0.3,0.5-0.5,0.9l0.6-1c-0.4,1-1.7,3.8-2.4,4.4v0.4h-0.3c0,1.2-1.3,2.3-1.3,3.1
		c0,0,0.1,0.2,0.2,0.1l-0.3,0.7l-1.2,0.6l-1.1-0.5c-0.4,0.2-0.9-0.6-1.1-0.9c0.1-0.4-0.4-0.5-0.6-0.7c0-0.4-0.1-0.9-0.2-1.3h-0.1
		c0-0.5-0.2-1-0.2-1.4c0-1.3,0.1-2.6,0.2-3.9h0.2c0.1-0.4,0.1-0.8,0.1-1.2v-0.4c0.2,0.1,0.3-0.1,0.3-0.3v0h0.1
		c0.3-0.7,0.2-1.5,0.7-2.2l0.1-0.4l0.1,0v-0.6l0.2-0.2l0.1,0l0.1-0.4h0.1v-0.7l0.4-0.2h0.1c0-0.1,0.2-0.5,0.2-0.7l0.2-0.2l0.1,0
		l0.2-0.6h0.4l0.7-1.2v-0.3c0.1-0.2,0.3-0.3,0.5-0.4c0.3-0.5,0.8-0.9,1.2-1.2h0.1c0.5-0.4,1-0.8,1.6-1l-0.2,0.5l0.2-0.3l-0.2,0.4
		h0.2l0.5-0.3l-0.5,0.3l0.3-0.8L37.3,30.2z M30.1,45.6h-0.2v0.1h0.2V45.6z M30.8,43.7L30.8,43.7l-0.6,0v0.6h0l0.1-0.4L30.8,43.7z
		 M31,40.9h-0.1v0.2H31V40.9z M31,46.2h-0.1v0.1H31V46.2z M32.4,45.3l-0.6,0v0.9H32l0.4-0.5L32.4,45.3z M32.6,43.5h0.2v-0.2h-0.2
		V43.5z M33.1,42.6h0.2v0.2h-0.2V42.6z M36.1,42.9c-0.2,0.4-0.6,0.8-0.9,0.8c0.1,0.3,0,0.7-0.1,1l0.4-0.6l-0.3,0.6l0.3-0.6l0,0
		l0.1-0.3v0.1L36.1,42.9z M37.2,39.7c-0.6,0.6-1.2,1.2-1.6,1.9h-0.1l0.1,0.1C36.1,41.1,36.7,40.4,37.2,39.7z M36.2,30.8l-0.5,0.7h0
		l0.3-0.3v0L36.2,30.8z M36,42.1l-0.2,0v0.2L36,42.1z M37.2,40.4l-0.1,0.3H37c-0.2,0.4-0.3,0.8-0.5,1.2l0.2-0.1
		c0.3-0.4,0.7-0.9,0.8-1.4H37.2z M37.2,39.6l0.5-0.5C37.4,39.1,37.3,39.4,37.2,39.6z M39.4,37.7h-0.1l-1.6,2.2V40l0.5-0.4
		C38.2,38.9,39.2,38.4,39.4,37.7z M39,31.4l-0.1-0.1h-0.1L39,31.4L39,31.4z M43.2,34.2L43.2,34.2l-0.7,0.2v0.1l-0.6,0.2l0,0.1
		c0,0,0,0,0,0h-0.2v-0.1c-0.8,0.9-1.5,1.9-2.4,2.8v0.2C40,36.7,42.2,34.9,43.2,34.2z M42.9,33.5l0.1,0v-0.1L42.9,33.5z M43.5,35h0.2
		v-0.2h-0.2V35z M45,52.8h-0.1V53H45V52.8z M45,53.2h-0.1v0.2H45V53.2z M45.4,52.5h-0.2v0.2h0.2V52.5z M45.6,51.4l0,0.7
		C45.6,51.8,45.6,51.6,45.6,51.4z M46.3,50.8v-0.2h-0.2v0.2H46.3z M46.4,51.6h-0.1v0.4h0.1V51.6z M46.6,49.9h-0.2v0.2h0.2V49.9z
		 M47.3,48.3h-0.2v0.1h0.2V48.3z M47.9,47.4h-0.1v0.2h0.1V47.4z M47.9,47.8h-0.1V48h0.1V47.8z M47.9,51.7h-0.1v0.2h0.1V51.7z
		 M48.2,47.4v-0.2H48v0.2H48.2z M48.6,49c-0.4,0-0.1-0.5,0-0.6l-0.1,0c0,0.1,0,0.2-0.1,0.2l-0.1,0v0.4c0.1,0,0.2,0,0.2,0.2L48.6,49
		L48.6,49z M49,47.6L49,47.6l-0.4,0.5h0.1l0.2-0.2H49V47.6z M48.8,50.1H49v0.2h-0.2V50.1z M49,49.8h0.1v0.1H49V49.8z M50.5,43.8
		L50.5,43.8l-0.1-0.3L50.5,43.8L50.5,43.8z M51.6,41.8l0.2-0.4l-0.2,0l-0.5,0.4v0.7c-0.2-0.1-0.4,0.8-0.4,0.9h0l0.3-0.2l0.3-1.1h0.4
		L51.6,41.8z M50.7,41.9h0.2v-0.2h-0.2V41.9z M52.9,38.3h-0.2v0.4h0.2V38.3z M53.2,39c0,0,0-0.1,0-0.2L53.2,39L53.2,39z M54.5,35.4
		v-0.2h-0.2v0.2H54.5z M54.7,35.6h-0.2v0.2h0.2V35.6z M55.2,34.8h-0.2V35h0.2V34.8z M55.6,34.1h-0.2v0.3h0.2V34.1z"/>
	<path d="M72.8,34.9L72.8,34.9l0.1-0.2l0.9-0.8l0.4-0.7c0.3,0,0.7,0.6,0.9,0.9c-0.3-0.1-0.5,0.3-0.9,0.4v0.3
		c-0.4-0.1-0.6,0.5-0.7,0.8l0.2-0.2l0,0.3l-0.3,0.1c-0.1,0.4-0.2,1-0.7,1v0.3l-0.5,0.2c0.1,0.3-0.3,0.5-0.4,0.7
		c-0.5,0-2.1,2.1-2.3,2.5L69,40.4l-0.7,1.3v0.4H68c0.1,0.4-0.4,0.3-0.4,0.9l-0.3,0.2l-0.2,0l-0.1,0.6c-0.6-0.2-0.6,0.3-0.7,0.7h0
		l-0.3-0.2c-0.3,0.6-1.2,0.9-1.8,1.4l-0.2,0.6c0.1,0.3,0.1,0.7-0.3,0.7l-0.2,0C63,48,63,48.1,62,48.7v0.1h-0.3c0,0.2,0,0.5-0.2,0.6
		v0.1l-0.3,0.2h0v0.5h-0.4l-0.1,0.4c0,0.3,0,0.7,0,1l0,0.1h-0.4v0.7L60,52.6h0v0.7h-0.2v0.5c-0.4,0.3-0.8,0.7-1.2,0.9
		c-0.4,0.6-1.2,0.9-1.9,0.9c0.1-0.3-1.1-0.1-1.2-0.2l-0.2-0.3v0h-0.5l-0.9-0.5l-0.2-0.2l-0.1,0c-0.4-0.6-1.8-2.5-1.7-2.9l-0.1,0
		c-0.1-0.9-0.2-1.9-0.5-2.8c0-0.1,0.2-0.4,0.2-0.6c0-0.2,0-0.3-0.2-0.4h0.2c0-0.5-0.2-1.9,0.2-2.3v-0.1c-0.2-0.1,0.1-0.9,0.1-1.1h0
		c0-0.4,0-0.8,0.2-1.1v-0.7c0.2,0.1,0.3-0.1,0.3-0.2v-0.1h0.1l0.1-0.5h0v-0.7l0.3-0.2h0c0.1-0.3,0.3-1.2,0.4-1.3l-0.2-0.3
		c0.2,0.1,0.2-0.1,0.2-0.2v-0.1h0.1v-0.7l0.2-0.2v-0.1h0.3v-0.5L54,37v-0.2l0.3-0.2h0c0.3-0.4,0.4-1.6,0.6-2.2h0.3
		c-0.4-0.1-0.1-0.5,0-0.7l0.3-0.2h0l0.5-0.9v-0.4l0.3-0.2h0c0.2-0.3,0.5-0.7,0.7-1.1v-0.4c0.5,0.2,0.2-0.4,0.6-0.4l0.1,0l0.7-1.1
		c0.4,0,0.7-0.4,0.9-0.7c0.7,0,1.3,0,2,0c0.1,0.1,0.3,0.2,0.5,0.3l0.2-0.2l0,0.2c0.6,0.5,1.4,0.8,1.9,1.4h0.4v0l-0.2-0.3l0.1,0
		l0.3,0.3l-0.2,0.3l0.5,0.1l0.3,1.1h0.1c-0.1,0.8,0,1.3-0.2,2.2l-0.5,0.2v0.3l-0.4,0.2l-0.2,0c-0.1,0.2-0.6,0.9-0.9,0.9h-0.2
		c0-0.4,0-0.9,0.2-1.3c-0.1-1.1,0.2-1.9,0.1-3l0.2-0.2l0-0.3l-0.4-0.4c-0.1,0.6-0.2,1.2-0.6,1.6h-0.4v0.7L62,32.8L61.5,33
		c0.1,0.2-0.2,0.4-0.2,0.6v0.1l-0.1,0.1l-0.1,0.2H61v0.6c-0.3-0.2-0.3,0.4-0.3,0.6v0.3h-0.4v0.7L60,36.6l-0.5,0.2v0.7l-0.2,0.2
		l-0.1,0c0,0.2,0,0.5-0.2,0.6l0,0.1L58.5,39v0.5l-0.2,0.2c-0.1,0.6-0.1,1.2-0.4,1.7h-0.1l-0.1,0.4l-0.1,0v1.3l-0.2,0.1v0.2l-0.3,0.2
		h0v0.7h-0.2v0.7c-0.2-0.1-0.3,0.1-0.3,0.2v0.1h-0.1V46l-0.2,0.2l0.1,0.8c-0.5,0.1-0.4,0.1-0.4,0.7l-0.1,0l0.1,0.5h0l-0.4-0.2
		c-0.1,0.6-0.1,1.3-0.1,1.9c0,1,0,1.8,0.3,2.8l0.7-0.4c0.5,0.1,0.3-0.3,0.9-0.3c0.5-0.6,1-1.3,1.4-2l0.5,0.1v0l-0.4-0.3l0-0.2h0.5
		c0-0.5,0.2-0.6,0.5-0.9l0.1-0.3h0.1V48c0.3-0.2,0.6-0.3,0.9-0.4c0.2-0.6,0.8-1.2,1.2-1.6l0.5-0.2v0l-0.2-0.3l0.5-0.1l1-1l0.2,0
		c0.5-1.1,1.5-2.2,2.5-2.7v0l-0.2-0.3l0.2-0.3h0.3c0.4-0.9,1.2-1.3,2.1-1.6l0.4-0.6c0-0.3,0.3-0.7,0.6-0.9v-0.4
		c0.3,0.1,1.5-1.3,1.8-1.6v0l0.3,0.2l0.1-0.2l-0.1,0l0.1-0.1h-0.1c0,0,0,0.1,0,0.1c0,0.1-0.1,0,0,0l-0.2-0.1l0-0.2l0.3,0v-0.1
		L72.8,34.9z M52.5,46.3h0.2V46h-0.2V46.3z M52.7,49h-0.2v0.2h0.2V49z M52.9,46.8h-0.2V47h0.2V46.8z M55,40.4h0.2v-0.2H55V40.4z
		 M55.2,51.9H55v0.4h0.2V51.9z M56.6,43.6h0.2v-0.4h-0.2V43.6z M57,41.3h0.1v-0.2H57V41.3z M57.2,42.7v0.2h0.2v-0.2H57.2z
		 M59.3,52.1h-0.1v0.2h0.1V52.1z M59.7,51h-0.2v0.2h0.2V51z M61.9,48.5h-0.2v0.2h0.2V48.5z M63.6,45.3h-0.2v0.1h0.2V45.3z
		 M64.8,44.5h-0.2v0.1h0.2V44.5z M66.5,43.4h-0.2v0.2h0.2V43.4z M66.7,42h-0.2v0.2h0.2V42z M67.2,42.9h-0.2v0.2h0.2V42.9z
		 M67.5,40.8l-0.1,0.2L67.5,40.8L67.5,40.8z M67.8,42h-0.2v0.2h0.2V42z M69.4,40h-0.2v0.1h0.2V40z M70.3,38.7h-0.1v0.2h0.1V38.7z
		 M72.8,35.4L72.8,35.4c0-0.1,0-0.3,0-0.4l-0.3,0.3L72.8,35.4z M72.8,35.8v-0.1h-0.1l-0.1,0.1H72.8z"/>
	<path d="M100,34.2h-0.2v0.1l-0.5,1.2l-0.1,0l-0.3-0.2l0.2,0.3l-0.2,0.2V36l-0.2,0.2l-0.1,0v0.6h0.2l0.3-0.4l0.2,0.2l0,0.3l-0.5,0.9
		L98.5,38l0,0.1l-0.3,0.2l-0.1,0c0,0.2,0,0.5-0.2,0.6l0,0.1l-0.3,0.2h0l-0.2,0.9c-0.1,0-0.2,0-0.2,0.1v0.2h-0.1L97,40.9h-0.1v0.5
		c-0.4,0.1-0.7,0.6-0.9,0.9v0.5l-0.4,0.2h-0.1c0.1,0.3,0,0.6-0.2,0.9h-0.3c-0.1,0.3-0.2,0.8-0.2,1.1l-0.3,0.2h0l-0.1,0.3h-0.1v0.5
		l-0.3,0.2h0v1.1c-0.2,0.2-0.5,0.5-0.7,0.7l0.1,0.8l-0.1,0L93,48.6l0.2,0.3L93,49.3h-0.4v0.5c-1-0.4-0.4,2.1-0.9,2.3
		c0,0.4-0.3,0.7-0.6,0.9v0.5L91,54c-0.3-0.1-0.6,0.3-0.7,0.5l-0.4,0.1v0.1c-0.3,0-0.7,0-1.1,0h-0.2l-0.2-0.2h-0.5
		c-0.3-0.1-0.5-0.3-0.8-0.5l0-0.2h-0.5l-0.4-0.5c0.2-0.6-0.9-1-1.2-1.2l-0.7-1.1l0-0.4l-0.1,0h0c0-0.4,0-0.9,0.2-1.2
		c-0.5-1.1-0.1-3.2-0.3-4.5h0.1l0.1-0.5h0c0-0.2-0.1-1.5,0.1-1.5l0.1,0c0-0.4,0.2-0.8,0.2-1.2l-0.1-0.2c0.1-0.2,0.2-0.9,0.2-1.1
		l-0.5-0.4l-0.2,0l-0.5,0.7V41l-0.3,0.2h0c-0.2,0.3-0.5,0.7-0.7,1.1v0.3l-0.9,0.9c-0.3-0.1-0.5,0.2-0.7,0.3v0.4
		c-0.3-0.1-0.5,0.1-0.5,0.4l-0.2,0c0.1,0.4-0.4,0.8-0.5,1.1l-0.4,0.2V46c-0.4,0.1-1.1,0.4-1.5,0.4c-4.1,0-5-0.8-5.5-4.8l0.2-0.3
		c-0.1-0.6,0.4-1.9,0.4-1.9l-0.2-0.4c0.3,0.1,0-0.8,0-0.9c0.3,0,0-0.9,0-1.1c0.4,0.1,0-0.7,0.2-0.8c0-0.7,0.1-0.8,0.2-1.4
		c-0.2-0.1-0.1-0.4,0-0.6c-0.1-0.6-0.3-1.4,0-2.1c0-1.1,0-2,0.1-3h0c-0.1-0.6-0.4-1.2-0.4-1.9l0.2-0.2c0.6,0,1.8,0,2.4,0.3
		c-0.1,0.3,1.2,1.9,1.4,2.3l0,3.7c0,0.1-0.2,0.7-0.3,0.9c0.2,0.1,0.1,0.3,0,0.5c-0.2,0.9,0.3,1.8-0.2,2.7c0.2,0.8-0.2,1.4-0.2,2.2
		c0,0.6,0.1,1.2,0.1,1.7l-0.2,0.2c0,0.2,0.1,0.8-0.2,0.9l0.2,0.1l0.7-0.3v-0.4h0.3c-0.1-0.5,0.6-0.9,0.9-1.1c0-0.4,0.6-0.8,0.7-1.1
		v-0.3l1.2-1.1v-0.5l0.3-0.2l0.1,0l0.7-0.7L81,36.7l-0.2,0.1l0.4-0.8l0.5,0.1c-0.1-0.4,0-0.6,0.2-0.9v-0.4l0.6-0.7l0.6-0.3v-0.1
		c-0.2,0,0-0.4,0-0.5V33l0.4-0.2h0.1v0l-0.2-0.3l0.6-0.2l-0.2-0.3h0.3l0-0.1C84.1,31.4,84,31,84.5,31l0.2,0v-0.5
		c0.5-0.1,0.9-0.4,1.2-0.7h0.5v-0.6l0.1,0c-0.1-0.4-0.2-0.8-0.5-1.2v-0.2l1.1-0.3v0.2c0.3,0,1.9,0.2,2,0l0.3,0.2l0.8,0l0.2,0.4
		l0,0.2l1.1,0.5c-0.1,0.2,0,0.4,0.2,0.6v0l0.3,0.3v1.1h-0.2l-0.1,0.5h0l0,0.2c0,0.2,0.1,0.6-0.1,0.7v0.5h-0.4v0.1
		c0,0,0.3,0.4,0.2,0.5c0,0-0.1,0.2-0.2,0.1v0.7H91c-0.1,0.3-0.2,0.7-0.2,1.1v0.3h-0.2c0,0.3-0.1,0.6-0.3,0.8c0.1,0.2,0.3,1,0,1v1.1
		h-0.2c-0.1,0.4,0,0.8,0,1.2L89.9,40c0,0.2,0.1,0.8-0.2,0.9c0,0.5,0,1-0.1,1.4c0-1.1,0.1-2,0.1-3.1h0.2c0-0.4-0.1-0.8,0-1.2l0.2-0.2
		C90,37.5,90,37.2,90,36.9l-0.3,0.6V38l-0.1,0.1l-0.1,0.2h-0.1v0.7c-0.3-0.1-0.2,0.6-0.2,0.7l-0.1,0.3l0.1,0.3L89,41
		c0,0.2,0.1,0.9-0.1,1.1c0,0.3,0.1,1.3-0.2,1.4c0,0.1,0.1,0.8-0.2,0.7l0,6.2c0,0.1,0,0.4,0.2,0.4l-0.2,0.3v0h0
		c0.6-0.6,1.1-1.4,1.8-2V49c0.7-1.2,1.3-2.4,2-3.6l0.2-0.1v-0.4c0.1-0.3,0.5-1,0.8-1.2l0-0.1l0.3-0.2h0c0-0.4,0.2-0.8,0.4-1.1
		c0,0,0.1,0,0.2,0L94,42c0.1-0.2,0.3-0.3,0.5-0.3V41c0.1,0.1,0.3,0,0.3-0.2l0.1,0l0.1-0.4h0.1l0.5-0.9v-0.5l0.3-0.2h0v-0.5l0.3-0.2
		h0c0.1-0.3,0.1-0.7,0.5-0.7c0.1,0,0.5-1.1,0.6-1.4h0.1v-0.6H98l0.1-0.3v-0.4l0.3-0.2l0.1,0v-0.4c0.1-0.2,0.3-0.4,0.5-0.5l0.1-0.4
		h0.1c0-0.2,0-0.4,0.2-0.6v-0.1h0.5c-0.1,0.1,0,0.3,0.2,0.3v0h0.3l0.2,0.5L100,34.2z M72.7,41.8h-0.2V42h0.2V41.8z M73.2,33.2H73
		v0.1h0.2V33.2z M73.2,35.3H73v0.1h0.2V35.3z M73.4,31.3h-0.2v0.2h0.2V31.3z M79.3,39.3h-0.1v0.2h0.1V39.3z M79.3,42.5h-0.1v0.2h0.1
		V42.5z M80.4,40.5h-0.2v0.2h0.2V40.5z M81.1,37.8h-0.2V38h0.2V37.8z M81.6,37L81.6,37c0-0.1-0.1-0.4-0.1-0.6l-0.2,0.4
		C81.4,36.7,81.6,36.8,81.6,37z M81.8,36.4h-0.2v0.2h0.2V36.4z M82.2,36.4v-0.2H82v0.2H82.2z M82.4,37.5h-0.2v0.1h0.2V37.5z
		 M82.7,36.9h-0.1v0.4h0.1V36.9z M83.1,37.5h-0.2v0.1h0.2V37.5z M83.3,35.7h-0.2v0.2h0.2V35.7z M83.4,34.2v0.2h0.2v-0.2H83.4z
		 M83.6,36.6h-0.2v0.2h0.2V36.6z M83.6,37.1h-0.2v0.2h0.2V37.1z M83.6,35.8l0.2,0.2l0.1-0.2C83.9,35.7,83.8,35.7,83.6,35.8
		L83.6,35.8L83.6,35.8z M83.8,34.6h0.3v-0.2h-0.3V34.6z M84,35.6L84,35.6C84,35.5,84,35.5,84,35.6z M84,34.2h0.1V34H84V34.2z
		 M84.5,33.2h-0.2v0.1h0.2V33.2z M85.1,48.9l-0.2-0.3h0l0,0.2l0.2,0.3h0L85.1,48.9z M84.9,46.8h0.2v-0.2h-0.2V46.8z M87.7,36.8h-0.1
		v0.1h0.1V36.8z M89,46.5h-0.1v-0.2H89V46.5z M89.2,45.7H89v-0.2h0.2V45.7z M89.2,47.7H89v-0.2h0.2V47.7z M89.2,48H89v-0.1h0.2V48z
		 M89.2,43.9h0.2v0.4h-0.2V43.9z M89.6,42.3v0.5h0l-0.2-0.3l0-0.2H89.6z M89.9,36.6h0.2v-0.2h-0.2V36.6z M90.4,34.2v0.2h0.4v-0.2
		H90.4z M90.6,33.2h0.2V33h-0.2V33.2z M92.4,47h-0.2v0.2h0.2V47z M93.5,44.6v-0.1h-0.2v0.1H93.5z M96,40.9l-0.7,0.5l0,0.5l-0.1,0
		l-0.3-0.2l0.2,0.6l-0.2,0.3l0,0.2l-0.3,0.2h0l-0.1,0.3h-0.1c0.1,0.6-0.6,1.2-0.7,1.8h0.4l0.3-0.4l0.2,0l-0.2-0.5h0.3
		c0.4-0.3,0.5-1.1,0.5-1.6h0l0.7-1.6L96,40.9z M93.9,45.4h-0.2v0.2h0.2V45.4z M94,43.2h0.2v-0.1H94V43.2z M94.5,43.4L94.5,43.4
		l-0.3,0.7V44c0.1-0.1,0.2-0.3,0.2-0.4L94.5,43.4L94.5,43.4z M94.9,41.4h0.2v-0.2h-0.2V41.4z M96.2,40.2H96v0.1h0.2V40.2z
		 M96.4,39.1h-0.2v0.2h0.2V39.1z M96.7,38.5v-0.2h-0.1v0.2H96.7z M96.7,38.2h0.2V38h-0.2V38.2z M97.1,38.9v-0.1h-0.4v0.1H97.1z
		 M97.1,37.6l-0.2,0.9h0.4l0.1-0.2l0.4,0C97.5,38.2,97.3,37.9,97.1,37.6z M97.3,39.3h-0.2v0.2h0.2V39.3z M97.4,38.7h-0.1v0.1h0.1
		V38.7z M97.6,36.8h0.2v-0.2h-0.2V36.8z M98.4,36.6L98.4,36.6L98,36.8c0,0.2-0.1,0.4-0.2,0.5l0,0.2C98,37.1,98.2,36.9,98.4,36.6z
		 M97.8,36H98v-0.2h-0.2V36z M98.5,37.3h-0.4v0.2h0.4V37.3z M98.7,34.8L98.7,34.8c-0.1,0.1-0.2,0.2-0.3,0.2h-0.1l0,0.2l0.2,0.3h0
		v-0.5L98.7,34.8z M98.7,35.7h-0.2v0.2h0.2V35.7z M99.1,34.9h-0.2v0.2h0.2V34.9z M99.5,34h-0.2v0.2h0.2V34z"/>
	<path d="M98,37.2l0,0.4l0.2,0.4v0.3c0.1,0,0.1,0.1,0.1,0.2c0,0.1,0,0.2-0.1,0.3c0,0.3,0,0.7-0.2,0.9l0,0.2l0.2,0.2h-0.4l-0.2,0.9
		c-0.1,0.1-0.1-0.1-0.1-0.2l0-0.5l0.2-0.2l0-0.8l0.1,0l0.1,0l-0.2-0.6H98v-0.5h-0.1l-0.2,0.4h0c0-0.6,0.1-1.2,0.1-1.8h0.4v-0.1
		L98,36.6h-0.1c0.1-0.2,0.4-1,0.4-1.2c0-0.7,0-1.3,0-2h0.3c0-0.5,0-1.1,0-1.6l0-0.1l-0.2-0.2c0.4-1.3,0.1-2.1,0.3-3.3l0.2-0.1
		c0-0.6-0.2-3.2,0.2-3.5c0-0.3-0.2-0.6,0-0.9v-0.4l-0.2-0.4c0-0.4,0.1-1.6,0.3-2c-0.1-0.2-0.1-0.6-0.1-0.9h-0.3l0,0.4
		c0.1,0.2,0.2,0.6,0.1,0.8l-0.1,0L98.5,21v0.1c0.2,0,0,0.5,0,0.5c0,0.3,0.1,0.9-0.1,1.2l-0.2-0.1c0.3-0.8,0.2-2,0.2-2.9
		c0-0.1-0.2-0.8,0.1-0.8c0-0.8,0-1.5,0.2-2.3c0-0.8,0.2-1.5,0.4-2.3h0.5v0l-0.2-0.3c0-0.3,0.2-0.6,0.4-0.9c0-0.3-0.1-0.8,0.1-1v-0.4
		l0.3-0.2h0V9.6c-0.2-0.3-0.4-0.7-0.4-1.1l0.2-0.4c0-2.1,0.3-4.2,0.3-6.3c0-0.3,0-0.6-0.1-0.9c0.2,0,0.5-0.1,0.8-0.1
		c0.2,0,0.5,0,0.7,0.1V0.5l-0.2-0.3c0.4-0.1,0.8-0.1,1.2-0.2v0.3l0.1,0l0.3-0.2c-0.1,0.2,0.2,0.2,0.3,0.2v0.1
		c0.3-0.1,0.8,0.6,1.1,0.7l2.3,1.1c0,0.4,0.2,0.8,0.2,1.2L107,3.9c0.1,0.9-0.2,1.7-0.2,2.5v0.4h-0.3c0.3,0.2,0,0.5-0.2,0.6
		c-0.1,0.2-0.3,0.8-0.3,1.1v0.6c0.2,0.3,0.3,0.7,0.3,1.1v0c-0.2,0.5-0.2,1.1-0.2,1.6h-0.3l0.2,0.9l-0.2,0.3c0,0.2,0.1,0.3,0.2,0.5
		c0,0-0.1,0.1-0.1,0.1c-0.1-0.1-0.4-0.2-0.6-0.2c0,0.3,0.2,1.8-0.2,2l0,0.7l0,0.7l-0.2,0.1c0,0.4,0,0.9-0.1,1.3
		c0,0.8-0.2,1.5-0.2,2.2c0,0.3,0.1,0.7,0,1l-0.2,0.2c0,0.2-0.1,0.5-0.1,0.7c0,0.5,0.1,1,0.1,1.4l-0.2,0.1c0,0.5,0,3.1-0.3,3.4
		c0,0.3,0.1,0.6,0,0.9c0,1,0.2,3.2-0.2,4c0,0.1,0.4,1,0,1h0c0.2,0.1,0.1,0.5,0,0.6c0,1.1-0.1,5.9-0.3,6.4c-0.2,1.7,0.1,3.5-0.1,5.2
		h0.1l-0.2,0.3c0,0.2,0.1,0.3,0.2,0.5v0h-0.2c-0.1,0.2,0.2,0.2,0,0.7c0,0.7-0.2,1.4-0.2,2.1c0.2,0,0.1,0.3,0,0.4
		c0,0.9,0.2,1.9-0.2,2.7c0.3,0,0.4,1,0.4,1.2v0.1l-0.3,0.2h0c0,0.7-0.1,1-0.2,1.5l0.2,0.2l-0.3,1.2c0.1,0.3,0.2,0.7,0.2,1.1l0.5,0.5
		c0,0.9,0.1,1.8-0.2,2.6c0.2,0.3,0.2,0.7,0.2,1v0.3c-0.5-0.2-0.2,0.4-0.4,0.6v0.7l0.5,0.3h0.1c0.4,1,0.5,2,0.5,3.1
		c-0.1,0-0.2,0.2-0.2,0.3v0.1l-0.5-0.1l0.2,0.5h-1.4c0.2-0.4-1,0.1-1.1,0.2l-0.2,0.5c-0.3,0-0.7,0-1.1-0.2h-0.7l-0.2-0.3v-0.2
		c-0.2,0-0.6,0-0.8-0.2l-0.3,0.2l-0.2-0.3v0l-0.5-0.2l-0.4-0.4c-0.3,0-0.6-0.2-0.9-0.4l0-0.4l0.2-0.3v-1.9l-0.4-0.3h-0.1
		c0-0.7-0.5-2.8,0-3.3c0-0.2-0.1-0.5-0.2-0.8v0c0.3,0.1,0.2-1.3,0.4-1.5l0.1-0.6h0l-0.1-0.3c0.1-0.3,0.2-0.6,0.2-1h0V55H96l0-0.2
		c0-0.2-0.1-0.6,0.1-0.7c0-0.3-0.1-0.6,0-0.9l0.2-0.1l0-0.2c0.3-0.7,0.3-1.4,0.2-2.2l0.2-0.1c0-0.2,0-1,0.2-1.1l0-0.7l0-2.2l0.3-0.2
		h0c0,0.7-0.2,1.3-0.2,2h0.3l0.1-0.7l0.2,0.7l0.1-0.2c0-0.5-0.2-1-0.3-1.4l0.3-0.2h0c0.1-0.5,0.1-1.1,0.3-1.6h0V44
		c0.1,0.3,0.2,0.6,0.2,0.9v0.3c0.2-0.5,0.3-1.4,0.3-2h-0.1l-0.1,0.3h-0.1v-0.9l0.1,0l0.1,0.1c-0.1-0.4-0.1-0.8-0.1-1.2h0.4
		c0-0.2-0.4-1.2-0.1-1.2h0.1v-0.3c0-0.8-0.2-1.7,0.2-2.5L98.9,37c0.4,0.1,0-0.8,0.2-1v-0.6H99l-0.2,0.4h-0.1L98.6,35l0,0.5
		c0,0.2,0.1,0.5,0.1,0.7l-0.3,0.5l-0.1,0.8l0,0.4h0l0.1-0.4L98,37.2z M95.9,56.6h-0.2v0.2h0.2V56.6z M95.9,60h-0.2v0.2h0.2V60z
		 M97,53.5h-0.2v0.2H97V53.5z M97.1,49.8v-0.2H97v0.2H97.1z M97.2,44.4l-0.2-0.2c0-0.1,0-0.3,0.2-0.3h0l-0.1-0.5
		c0.3,0.1,0.2-0.4,0.2-0.6h0.1c-0.1,0.3,0,0.7,0,1.1h-0.2L97.2,44.4L97.2,44.4z M97.3,48.5h-0.2v0.4h0.2V48.5z M97.3,50.5h-0.2v0.1
		h0.2V50.5z M97.3,61.4h-0.2v0.2h0.2V61.4z M97.3,41.7l0.2-0.3h0l0.1,0.2c0,0.3-0.1,0.6,0,0.9h-0.1L97.5,42L97.3,41.7z M97.5,57.8
		c0,0.2-0.1,1.6,0.2,1.6C97.7,58.9,97.6,58.4,97.5,57.8z M97.7,34.8h-0.2v-0.2h0.2V34.8z M98.4,48.1l-0.2,0.2c-0.2,1-0.3,2-0.3,3
		c-0.4-0.1,0.1,0.6-0.3,0.6l0.1,0.3c0,0.2-0.1,0.4-0.1,0.5c0.2-0.1,0.2,0.1,0.2,0.2v0.1h0.1l0.1-0.4H98l-0.1-0.5
		c0.2-0.2-0.1-0.9,0.3-0.9l-0.1-0.2c0.2-0.3,0.1-0.7,0.1-1.1c0-0.6-0.1-1.2,0.2-1.7C98.4,48.3,98.4,48.2,98.4,48.1z M97.9,56.7
		l-0.1-0.3h0v0.5l-0.2,0.2v0.2h0.1l0.2-0.2L97.9,56.7z M97.6,55.7l0,0.3v0.1h0.1v-0.7L97.6,55.7z M97.8,30.5h-0.1v-0.3h0.1V30.5z
		 M97.8,31.2h-0.1v-0.2h0.1V31.2z M97.8,31.8h-0.1v-0.1h0.1V31.8z M97.8,33.2h-0.1v-0.3h0.1V33.2z M97.8,33.7h-0.1v-0.1h0.1V33.7z
		 M97.8,53.7v-0.3h-0.1v0.3H97.8z M98,28.4h-0.2v-0.2H98V28.4z M98,30h-0.2v-0.4H98V30z M98,43.7c0,0,0,0.1,0,0.1h-0.1L98,43.7z
		 M97.8,44H98v0.2h-0.2V44z M98,43.7L98,43.7l0.2-0.4h0v0.3C98.1,43.6,98,43.6,98,43.7z M98,27.8c0-0.6,0-1.2,0.1-1.7
		c0,0.5,0,1,0,1.4L98,27.8z M98.2,25.3H98v-0.2h0.2V25.3z M98.2,43.1H98v-0.3h0.2V43.1z M98.4,23.5h-0.2v-0.3h0.2V23.5z M98.2,23.9
		h0.2v0.3h-0.2V23.9z M98.2,32.9h0.2v0.3h-0.2V32.9z M98.4,41.5h-0.2v-0.1h0.2V41.5z M98.2,46.7h0.2v-0.2h-0.2V46.7z M98.2,47.2h0.2
		V47h-0.2V47.2z M98.4,45.8h0.1v-0.1h-0.1V45.8z M98.5,46.2V46h-0.1v0.2H98.5z M98.7,46.3h-0.2v0.2h0.2V46.3z M98.8,34.7l0.3-0.2
		c0.2-0.3,0.3-1,0.3-1.3c-0.1,0.3-0.2-0.8-0.2-0.9c0-0.5-0.1-1.2-0.1-1.7l-0.2,0.5c0,0-0.3,0-0.2,0l0.3,0.2
		C99,32.5,98.8,33.5,98.8,34.7L98.8,34.7z M98.7,44.3l0.2,0.3h0l0-0.2L98.8,44h0L98.7,44.3z M98.9,19.4h-0.2v0.2h0.2V19.4z
		 M98.9,42.2V42h-0.2v0.1H98.9z M98.9,29.5h0.2v-0.2h-0.2V29.5z M99.3,35v-0.2h-0.3V35H99.3z M98.9,42.8v0.1h0.2v-0.1H98.9z
		 M98.9,43.1v0.2h0.2v-0.2H98.9z M98.9,44.9h0.2v-0.2h-0.2V44.9z M99.1,40.9L99,41.6c0,0.1,0,0.5,0.2,0.5l0-0.2c0-0.3-0.1-0.6,0-0.9
		H99.1z M99.3,17.8h-0.1v0.2h0.1V17.8z M99.3,18.9h-0.1v0.2h0.1V18.9z M99.3,19.4h-0.1v0.2h0.1V19.4z M99.1,29.8h0.3l0-0.3l-0.2-0.2
		h0C99.4,29.5,99.3,29.7,99.1,29.8z M99.1,39.4c0,0,0.1,0,0.2-0.1l0.3,0.1v0l-0.2-0.2l-0.2,0L99.1,39.4z M99.3,45.5h-0.1v0.2h0.1
		V45.5z M99.3,23.5h0.2v-0.2h-0.2V23.5z M99.3,26.8h0.2v-0.4h-0.2V26.8z M99.5,35.8v-0.4h-0.2v0.4H99.5z M99.3,36.8h0.2v-0.2h-0.2
		V36.8z M99.4,12.4l0.6-0.9c0,0.1,0,0.2,0,0.3h-0.1l-0.2,0.3v0.6l-0.2,0v0L99.4,12.4z M99.7,27.1l-0.3,0.2l0,0.4l0.2,0.4
		C99.6,27.8,99.6,27.4,99.7,27.1L99.7,27.1z M99.5,37.3v0.4h0.2v-0.4H99.5z M99.6,40.2h-0.2v0.2h0.2V40.2z M99.8,38.3h-0.2v0.2h0.2
		V38.3z M99.8,39.5h-0.2v0.2h0.2V39.5z M99.8,14.6l0.2,0.3l0.2,0v-0.1c0-0.2-0.2-0.4-0.2-0.7l0.2-0.4v-0.1h-0.3L99.8,14.6z
		 M100,35.6h-0.1v0.2h0.1V35.6z M100,36.8h-0.1V37h0.1V36.8z M100,36.1L100,36.1v0.4V36.1z M99.9,13l0.2,0.3h0l0-0.2l-0.2-0.3h0
		L99.9,13z M100,11.6l0.1-0.2C100,11.4,100,11.5,100,11.6z M100.2,11.3C100.1,11.4,100.1,11.4,100.2,11.3L100.2,11.3L100.2,11.3z
		 M100.3,42.4l-0.2,0.4l0,0.2v0.1h0.2L100.3,42.4L100.3,42.4z M100.2,31.4v0.2h0.2v-0.2H100.2z M100.4,35.6v-0.2h-0.2v0.2H100.4z
		 M100.5,41.3h-0.3v0.3L100.5,41.3z M100.4,42h-0.2v0.1h0.2V42z M100.4,45.1h-0.2v0.2h0.2V45.1z M100.5,37.9L100.5,37.9l-0.1,0.2
		l0,1.3h0l0.3-0.9L100.5,37.9z M100.5,6.6h-0.1v0.2h0.1V6.6z M100.4,40.1h0.1v-0.4h-0.1V40.1z M100.4,43.5v0.1h0.1L100.4,43.5z
		 M100.4,37l0,0.8L100.4,37L100.4,37z M100.5,33.1l0.1,0.1l0.2-0.4l-0.1-0.3h0L100.5,33.1z M100.7,36.6v-0.3h-0.2v0.3H100.7z
		 M100.7,43.1h-0.2v0.2h0.2V43.1z M100.7,30.7h0.2v-0.2h-0.2V30.7z M100.7,31.4h0.4v-0.3h-0.2L100.7,31.4z M100.7,34.3l0.2,0v-0.4
		l0.2-0.2v-0.1h-0.4c0.1,0.1,0.2,0.3,0,0.3V34.3z M101.1,39.7v-0.2h-0.4v0.2H101.1z M101.1,38.8h0.1v-0.1h-0.1V38.8z M101.2,40.2
		h-0.1v0.4h0.1V40.2z M101.2,10.2h0.2V9.9h-0.2V10.2z M101.4,38.1h-0.2v0.2h0.2V38.1z M101.4,39.2h-0.2v0.2h0.2V39.2z M101.4,39.7
		h-0.2v0.2h0.2V39.7z M101.4,31.1v0.2h0.2v-0.2H101.4z M101.6,34.1h-0.2v0.2h0.2V34.1z M101.6,29.5h0.2v-0.2h-0.2V29.5z M101.8,33.7
		h-0.2v0.2h0.2V33.7z M102.1,22.5H102v0.1h0.2V22.5z M102.5,32.7h-0.2v0.4h0.2V32.7z M102.9,18.3h-0.2v0.1h0.2V18.3z M102.7,61.8
		h0.2v-0.3h-0.2V61.8z M102.9,57.3h0.2v0.2h-0.2V57.3z M102.9,62.7h0.4v0.2h-0.4V62.7z M103.6,26.8h-0.2v0.1h0.2V26.8z M105.7,11.3
		v0.1h0.2v-0.1H105.7z M106.3,8.8h0.2v0.4h-0.2V8.8z"/>
	<path d="M111.3,19.4l0.3-0.1L111.3,19.4L111.3,19.4l-0.4,0.1v0l0.1,0l-1.1,0.2v0c-0.2,0-0.7,0.2-0.9,0.2h-1.1l-0.4-0.2
		c0.1-0.3-0.8-1.5-1.1-1.8c0.8-0.1,1.4-0.3,2.2-0.5v0l0.9-0.2l0-0.1c0.4,0,0.8-0.1,1.1-0.3l-0.5,0c0.7-0.2,1.4-0.3,2.2-0.5v0
		c0.2,0,0.6-0.2,0.9-0.2c0.4,0,0.8-0.1,1.2-0.3h0.6c0.1-0.5,0.1-1,0.1-1.5c0-0.1-0.1-0.9,0.2-0.8l0-0.1c0-0.4-0.1-1.2,0.1-1.5
		c0.1-0.6,0-2.3,0.3-2.7l0-0.3c0-0.8-0.6-1.4-0.6-2.1V6.1l0.4-0.1c0.5,0,1.1,0,1.6,0c0.7,0,1,0.5,1.8,0l0.5,0.2l0.7,0v0.4l0.9-0.7
		c0.4,0,0.7,0,1.1,0.2l0.9,0.2v0.1c0.3-0.1,0.8,0.6,1.1,0.7l0.1,0.4h0.1v0.7h-0.3c-0.1,0.3-0.2,0.7-0.2,1.1s0.1,0.7,0,1.1
		c-0.2,0-0.4,0.3-0.4,0.6v0l0.2,0.3l-0.3,0.2l-0.2-0.2v-0.1h0l-0.3,0.2l0.2,0.7h-0.3l-0.2,0.7h-0.2c0,0.1-0.2,0.4-0.2,0.5v0.7h0.6
		c0.2,0,0.5,0,0.7-0.1c0.2,0,1.1,0.2,1.1-0.1l-0.2-0.2c0.5-0.2,1.1-0.3,1.6-0.4l0.4,0.2l0.3-0.4c0.1,0,0.3,0.1,0.3,0.2h0.6v-0.1
		l-0.4-0.2v-0.1h0.5l0.2,0.3l0,0.1c0.3,0.1,0.7,0.2,1.1,0.2c0.2,0,0.7-0.1,0.9-0.2l-0.2-0.2l0.4-0.1l-0.3-0.2v0
		c-0.5,0-0.8,0.4-1.2,0.6h-0.4l-0.1-0.3l0.1-0.3c0.6-0.1,1.2-0.3,1.8-0.3v0l-0.2-0.3l0.4,0.3l0.4,0.1c0-0.4,0.9-0.4,1.2-0.4v-0.1
		h0.5l0.1,0.7c0-0.8,0.9-1.1,1.5-1.3l0.2,0.6h0.1l-0.2-0.6h0.1c0.1,0.1,0.4,0.2,0.6,0.2l0-0.1l-0.2-0.2l0.4,0.1l0,0.1l-0.4,0.5
		l0.6,0v0l-0.2-0.3l0.9-0.5l0.2,0.2l0,0.1l0.6-0.1l-0.6-0.1v-0.3c0.3,0,0.7,0,0.9,0.2v0l-0.2-0.3l0.6,0.4l0.1-0.6l0.6,0.2l-0.1,0.2
		l0.2,0.1l0.2-0.5l1.3-0.1c0.4,0.4,1.3,1.2,1.5,1.8l0.6,0.4c-0.2,0.1-0.1,0.4,0,0.6l-0.9-0.1l-0.2-0.3l0-0.1l-0.5-0.2l-0.2,0.2
		c0.1-0.3-0.4-0.6-0.5-0.9l-0.1,0.1c0.2,0,0.3,0.2,0.2,0.4c-0.3-0.1-0.5,0-0.7,0.1l0.4-0.1c-0.1,0.2,0.4,0.2,0.5,0.2v0
		c-0.2,0-0.4,0.1-0.4,0.3l0,0.2h0l-0.1-0.2v-0.1l-0.4,0.2c-1,0-1.9,0.2-2.9,0.4c0.1-0.2-0.2-0.3-0.4-0.4l-0.2,0.4h-0.2l0.1-0.6
		c-0.1-0.1-0.3,0.5-0.3,0.6l-0.6,0.3l-0.5-0.2c-0.2,0.2-0.6,0.5-1,0.5v0c-0.5,0-1,0.1-1.4,0.1c-0.3,0-0.8-0.1-1.1,0.2l-0.4,0.1v0.1
		l-0.5,0.1v0c-0.8,0.1-1.8,0-2.5,0.5c-0.5,0.1-0.8,0.1-1.1,0.5h-0.1c0-0.3-0.7,0.1-0.8,0.1v0c-1,0.3-1.7,0.3-2.7,0.9h-0.6l-0.3,0.2
		h-0.1v0.7c0,0-0.1,0-0.1,0.1c-0.2,0.3-0.3,1.5-0.3,1.9c0,0.2,0.1,0.8-0.2,0.9v1.1h0.1l-0.1,0.2v-0.2h-0.4v1.2l-0.3,0.2h0
		c0.1,0.6,0.2,1.3,0.1,1.9l-0.1,0l-0.1-0.4l-0.1,1.1h0.1l0.2-0.3h0.1v0.7h-0.2c0,0.7,0,1.4-0.3,2c0,0,0.2,0,0.2,0.1v0.1l-0.2,0.4
		c0.1,0.3,0.2,0.6,0.3,0.9h0.1l0,0.2l-0.2,0.3h0v-0.5l-0.9-0.1l0.1-2.9l0.2-0.2c0-0.2-0.5-1.6,0-1.6c0-0.7,0-1.4,0-2.2h0.3l-0.3-0.2
		l0.2-0.4l-0.1-0.2l0,0l0-0.1V21h-0.1l0.1-0.3h-0.4v0.1h0.2V21h0l0,0.6l-0.1-0.6l-0.2,0.4l0,0.6l-0.2,0.1l0.2,0.2
		c0,1.9-0.4,3.6-0.4,5.5c0,1.6-0.2,3.4,0,4.9c-0.2,0.2-0.4,3.3-0.4,3.7c0,0.4,0.3,0.9,0,1.2c0.1,0.9-0.2,1.6,0,2.5
		c-0.2,0.6-0.2,1,0,1.5l-0.2,0.4l0,0.4l0.1,0l0.3-0.2c0-0.7-0.1-3.1,0.1-3.6h0.1c0,1.5,0,3,0,4.5l0.1-0.7h0l0.2,0.3l0,0.2l0.1,0
		l0.2-0.2l-0.1-0.5l0.1,0l0.2,0.2v0.7l-0.7,0.2l0,0.2l0.2,0.3h0c0.2,1,0.4,2.1,0.4,3.1v0.5l-0.1,0l-0.2-0.2l0,0.4l0.1,0l0.4-0.2
		c0,1.1,0,3.7,0.3,4.7c0,0.3-0.1,1,0,1.2c0.3,1.9,0.4,11.6,1,12.3c0,0.4-0.1,1.2,0.2,1.6c0.1,1.2,0.3,2.4,0.6,3.6h0.1
		c0.1,0.5,0.2,1,0.3,1.4h0c0,0.2-0.1,1.1,0.2,1.1c0.3,0.4,0.6,0.8,0.6,1.3l-0.2,0.3v0.3c0.2,0.1,0,0.7-0.1,0.9h-0.1v1l0.4,0.1
		c0,0.1-0.2,0.1-0.2,0.1l-0.3-0.2v-0.4h0l-0.3,0.4l-0.2,0l0,0.3l0.2,0.4l-0.2,0.6l-0.2,0l-0.3-0.2v0c-0.5-0.1-1-0.2-1.4-0.2v-0.3
		l-1,0l-0.3,0.1v0l-1.9-0.7l-0.1,0.5l-0.1-0.4l-1.4-0.9h-0.4l-0.1-1.4h-0.1c0.2-1.2,0-2.3,0-3.5c-0.2-0.1-0.1-0.5,0-0.6
		c0-0.2,0-0.4-0.1-0.5c0.3-0.7-0.3-2.7,0.3-3.2l-0.2-0.4l0-0.1c0-0.3-0.1-1.1,0.2-1.3l-0.1-0.1l-0.2,0.2c0-1.2-0.4-2.3-0.4-3.5
		c0-0.3,0-0.7,0.2-1l-0.1-0.1l-0.2,0.2c-0.1-1.1-0.4-2.1-0.4-3.2c0.2,0,0-0.5,0-0.5c0-1.5-0.2-3.1-0.2-4.6c0-0.2,0.1-0.4,0.1-0.6
		l-0.1-0.1l-0.2,0.2l0-1c0-0.4,0-0.8,0.1-1.2h0c0-0.3,0-0.4,0.2-0.7l-0.1-0.1l-0.2,0.2v-0.2l0.1-0.2c0-0.7,0.2-1.4,0.2-2.1l-0.2-0.3
		c0.4-0.6,0.2-1.3,0.1-2c0,0,0.2-1.1,0.2-1.1v-0.1c-0.2,0,0-0.4,0-0.4c0-0.7-0.1-1.5,0.2-2.2v-2.4l-0.1-0.3h0l0.2-0.3l-0.2-0.4
		c0.5,0-0.1-1.1,0.2-1.3c0-1.5,0.4-3.2,0.4-4.5c0-0.1-0.4-0.5,0-0.5c-0.2-0.1,0-0.4,0-0.5c0-1.9,0.4-3.7,0.4-5.6l-0.2-0.3
		c0.4,0,0.1-0.6,0.5-0.7l0.2-0.3l-0.1-0.1l-0.2,0.2l0-0.9l0-0.9l0,0c0,0,0-0.1,0-0.1v0c0-0.1-0.1-0.1-0.1-0.2v0h0.1v0.2l0.1-0.2
		h-0.1v-0.3c0,0,0,0.1,0,0.1h0c0,0,0-0.1,0-0.2c0,0,0,0.1,0,0.1c0-0.4,0-0.8,0-1.2l0.1,0.2l-0.1,0v0.7c0-0.4,0.2-0.9,0.4-1.2h0
		l0.3,0.2l0-0.1l-0.2-0.3h-0.4v-1.6c-0.3,0-0.8,0.1-1.1,0.3c-0.3,0-0.7,0-0.9,0.2l-0.7,0.2c-0.1,0-0.2,0.1-0.3,0.1v0
		C111.5,19.4,111.4,19.4,111.3,19.4z M110.8,17.6h-0.4v0.2h0.4V17.6z M110.8,16.7L110.8,16.7c0.2,0,0.2,0,0.3-0.1h0L110.8,16.7z
		 M113.3,51.2h-0.2v0.2h0.2V51.2z M113.7,17.1h-0.2v0.1h0.2V17.1z M113.5,47h0.1c0-0.6,0-1.2,0.1-1.8h-0.1
		C113.6,45.8,113.5,46.4,113.5,47z M113.7,49.8v-0.2h-0.1v0.2H113.7z M113.8,59.9h-0.1V60h0.1V59.9z M113.7,35.3h0.1v-0.2h-0.1V35.3
		z M113.8,35.7v-0.1h-0.1v0.1H113.8z M113.7,37.8h0.1v-0.3h-0.1V37.8z M113.9,49.2h-0.2v0.2h0.2V49.2z M114.1,60.2V60H114v0.1H114.1
		z M114,31h0.2v-0.2H114V31z M114.2,37.3v-0.2H114v0.2H114.2z M114,52.3v0.2h0.1v-0.2H114z M114.3,62h-0.2v0.2h0.2V62z M114.3,34.2
		v-0.1h-0.1v0.1H114.3z M114.3,39.6v-0.2h-0.1v0.2H114.3z M114.3,25.1h0.1v-0.2h-0.1V25.1z M114.3,26.3h0.1v-0.2h-0.1V26.3z
		 M114.5,35.3h-0.2v0.2h0.2V35.3z M114.4,21.9l0,0.2h0.4v0c0-0.1-0.2-0.2-0.3-0.2C114.6,21.8,114.5,21.9,114.4,21.9z M114.7,68.3
		v-0.2h-0.2v0.2H114.7z M114.6,50.5h0.2v-0.2h-0.2V50.5z M114.7,69.7h0.2v-0.2h-0.2V69.7z M114.9,69.3h0.1v-0.1h-0.1V69.3z
		 M115.6,72.3c0-0.7-0.3-1.9-0.6-2.6c0,0.3,0,0.6-0.1,0.9c0.2,0.8,0.2,2,0.7,2.7V72.3z M114.9,47.8h0.2v-0.1h-0.2V47.8z M115.1,18.3
		H115v0.3h0.1V18.3z M115,68.1v0.2h0.2v-0.2H115z M115.3,52.8l-0.2-0.3h0l0,0.2l0.2,0.3h0L115.3,52.8z M115.3,50.3v-0.2h-0.2v0.2
		H115.3z M115.6,57.9c-0.1-1.4-0.1-2.9-0.3-4.4h-0.2c0.1,1.4,0.1,2.9,0.3,4.4H115.6z M115.4,67.3v-0.2h-0.2v0.2H115.4z M115.2,21.4
		h0.2V21h-0.2V21.4z M115.3,14.9h0.2v-0.2h-0.2V14.9z M115.6,58h-0.2v0.2h0.2V58z M115.6,69.7h-0.2v0.2h0.2V69.7z M116,42.8
		c0,0.3,0,0.7-0.2,1l-0.1,4.4l-0.1,0.3h0.1l0.2-0.3c-0.1-1,0.3-2.2,0.3-3.2v-1.2C116.2,43.5,116.1,43.1,116,42.8z M115.6,48.9
		c0,0.5,0,1.2,0.2,1.7C115.8,50,115.9,49.4,115.6,48.9z M115.6,41.1c0,0.3,0,0.7,0.1,1.1c0-0.2-0.1-0.9,0.2-0.9v-1.1h0.2
		c0.1-0.6,0.2-1.3,0.2-1.9c0-0.4,0-0.8-0.2-1.2l0.6-0.3c-0.3-0.1-0.3-0.7-0.2-1l-0.2-0.3l0-0.4h0.5V35c-0.6-0.1-0.4-1.2-0.4-1.7
		l-0.1,0c0,0.2-0.2,0.5-0.4,0.6c0,0.5,0.1,1.3-0.2,1.8c0.1,0.7,0,1.3,0,2.1c0,0.3,0.1,0.7,0.2,1h-0.3v1.3
		C115.8,40.2,115.6,40.8,115.6,41.1z M116,51.7h-0.4v0.1h0.4V51.7z M115.8,30.1l0.2,0.4l0.7-0.2c0-1.1,0.1-2.2,0.1-3.3
		c0-0.2-0.1-0.4-0.1-0.6c-0.1,0.7-0.1,1.4-0.1,2.2c-0.2-0.1-0.3,0.2-0.2,0.3h-0.1v0.1c0.1,0,0.2,0.1,0.2,0.3H116v0.6L115.8,30.1z
		 M116.3,61.6v-0.3h-0.2v0.3H116.3z M116.2,22.1h0.2v-0.2h-0.2V22.1z M116.5,31.2l0.2-0.3l-0.4-0.3h-0.1v0.9h0.1l0.2-0.2v1.3
		C116.6,32.3,116.8,31.5,116.5,31.2z M116.4,34.2h-0.2v-0.1h0.2V34.2z M116.2,42.1v0.2h0.2v-0.2H116.2z M116.3,25.8v0.3h0.2v-0.3
		H116.3z M116.3,39.6l0.2,0.2l0.1,0v-0.3h-0.3L116.3,39.6z M116.6,65.7c0-1-0.2-1.9-0.2-2.8h-0.1c0.1,1,0,1.9,0.1,2.8H116.6z
		 M116.4,30.1v-0.2c0,0,0-0.1,0-0.1h0.1v0.3H116.4z M116.4,33v0.2h0.1V33H116.4z M116.8,25.2l-0.2,0l0.3,0.8l0,0L116.8,25.2z
		 M116.8,66.4h-0.2v0.2h0.2V66.4z M116.7,36v0.1h0.2V36H116.7z M116.9,22C116.9,22,116.8,22.1,116.9,22c0,0.1,0.2,0.1,0.2,0.1v0
		c0,0,0,0.1,0.1,0.2h-0.1v0.4h0.2v-0.7h0.2v-0.5h-0.1l0-0.4h-0.1c-0.1,0.3-0.3,0.7-0.2,1.1v-0.1L116.9,22l0.1-0.8l-0.2-0.2
		c0,0.4,0,0.8,0,1.2L116.9,22z M116.9,20.9c0,0.1,0.1,0.1,0.1,0.1L116.9,20.9L116.9,20.9z M117.1,22.9v-0.1h-0.2v0.1H117.1z
		 M117.2,24.4H117v0.2h0.2V24.4z M117.3,22.3L117.3,22.3L117.3,22.3C117.2,22.3,117.2,22.3,117.3,22.3z M117.5,20.6l-0.2-0.3h0
		l0,0.2l0.2,0.3h0L117.5,20.6z M117.4,31.9h-0.2v0.1h0.2V31.9z M117.3,21.4L117.3,21.4l0,0.1h0V21.4z M117.3,21.7L117.3,21.7v0.2
		V21.7z M117.6,49.6h-0.2v0.2h0.2V49.6z M117.7,48.1l0,1.1h0.1l0.1-0.3h0.1c0,0.1-0.1,0.8,0.2,0.7l0.2-0.4c-0.4-1-0.1-3.7,0-4.9
		l-0.3-0.2h0c0,0.4,0,0.8,0.2,1.1c0,0.7,0,1.4-0.3,2L117.7,48.1L117.7,48.1z M118.4,49.8H118v0.1l0.2,0.2h0.1V49.8z M118.1,30.5v0.1
		h0.2v-0.1H118.1z M118.3,31h-0.2v0.2h0.2V31z M118.3,31.5h-0.2v0.2h0.2V31.5z M118.1,43.9h0.2v-0.1h-0.2V43.9z M119.6,32.2
		l-0.5,0.2h0V33h0l0.1-0.3l0.1,0.1c0,0.6,0,1.2,0,1.8h0l-0.1-0.5h-0.3c0,0.1-0.1,0.4-0.1,0.5v0.9c0.1,0.4,0.4,0.7,0.4,1.2l-0.2,0.3
		h0c0,0.2,0.1,0.9-0.2,0.9c0,0.3,0.4,1.8,0,1.8c-0.2-1-0.1-2.2-0.5-3.1h0.3v0.9h0l0.1-0.6l0.2-0.2v-0.1l-0.4-0.4
		c0-0.4,0.1-2.7,0-2.8l0.2-0.8c0,0,0-0.7-0.2-0.6v0c0.5,0.1,0-0.7,0.3-0.7h0v1.1l0.5-0.2V32.2z M118.5,24.7v0.2h0.2v-0.2H118.5z
		 M118.8,40.5h-0.2v-0.3h0.2V40.5z M118.7,40.7h0.2v0.2h-0.2V40.7z M118.7,41.8h0.4V42h-0.4V41.8z M119.6,31.3h-0.2l-0.1,0.6l-0.2-1
		l-0.2,0v-1.4l0.2,0.2v0.7h0.1l0.2-0.2v-0.5h0c0.1,0.3,0.2,0.6,0.3,0.9h-0.5v0l0.2,0.2l0.3,0L119.6,31.3z M118.8,48.5
		c0,0.1,0,0.2,0,0.4h0.2v-0.7L118.8,48.5z M119.3,26.5L119.3,26.5c-0.2,0.6-0.2,1.1-0.2,1.6h0.1l0.2-0.2l0-0.8
		C119.4,26.9,119.3,26.7,119.3,26.5z M119,33.2v0.2h0.2v-0.2H119z M119.2,33.5H119v0.2h0.2V33.5z M119.2,35.5v0.1H119v-0.1H119.2z
		 M119,44.5h0.3l-0.1,0.1L119,44.5z M119.1,19.4h0.2v-0.1h-0.2V19.4z M119.2,20.7L119.2,20.7L119.2,20.7L119.2,20.7L119.2,20.7z
		 M119.4,19.8h-0.1V20h0.1V19.8z M119.3,60.9h0.2v-0.1h-0.2V60.9z M119.5,25.3h-0.1v0.3h0.1V25.3z M119.8,22.8h-0.2l0,1.4h0.2
		L119.8,22.8z M119.5,77.6v0.1h0.2v-0.1H119.5z M120,36.2h-0.2V36h0.2V36.2z M120.1,33H120v-0.3h0.1V33z M120.1,34.2H120v-0.3h0.1
		V34.2z M120,34.6h0.1v0.2H120V34.6z M120.2,30.3c0,0.6,0.1,1.2-0.1,1.7C120,31.5,120.1,30.9,120.2,30.3z M120.3,27.9h-0.2v-0.1h0.2
		V27.9z M120.1,28.5h0.2v0.3h-0.2V28.5z M120.7,22.9h-0.2l0-0.4l0.2-0.3V22.9z M120.6,24.7h-0.2v-0.1h0.2V24.7z M120.7,22.1h-0.2
		v-0.2h0.2V22.1z M120.8,21.4l0.1-0.2L120.8,21.4L120.8,21.4z M122.1,16.2l0.2-0.2v0h-0.7L122.1,16.2z M121.8,15.6h0.2v-0.2h-0.2
		V15.6z M122.1,15.8h0.2v-0.2h-0.2V15.8z M122.5,13.5v0.2h-0.2v-0.2H122.5z M122.8,15.8l0.2-0.1v0c-0.1,0-0.4,0-0.5-0.2v0.1
		L122.8,15.8L122.8,15.8L122.8,15.8z M122.7,13.5h0.1v0.2h-0.1V13.5z M122.8,12.2V12h0.2v0.2H122.8z M123.2,10.6h0.2v-0.2h-0.2V10.6
		z M123.7,14h-0.2v0.2h0.2V14z M124.7,13.8h-0.2V14h0.2V13.8z M124.8,13.5h-0.2v0.2h0.2V13.5z M125.4,13.8h-0.2V14h0.2V13.8z
		 M125.9,13.5h-0.2v0.2h0.2V13.5z M125.9,13.8h-0.2V14h0.2V13.8z M126.1,13.7h0.2v-0.4h-0.2V13.7z M126.4,14.2h-0.1v0.2h0.1V14.2z
		 M127.7,13.7h-0.1v0.1h0.1V13.7z M127.7,14.2h-0.1v0.2h0.1V14.2z M128.4,12.2h-0.1V12h0.1V12.2z M128.6,13.7h-0.2v0.1h0.2V13.7z
		 M129,13.8h-0.2V14h0.2V13.8z M129.3,13.3h-0.2v0.2h0.2V13.3z M130,13.3h-0.3v0.2h0.3V13.3z M130.4,13.5h-0.2v0.2h0.2V13.5z
		 M130.4,12.6l0.6,0.2c0-0.3-0.3-0.4-0.6-0.5L130.4,12.6z M131.1,13.5h-0.4v0.2h0.4V13.5z M131.3,14.2h0.2v0.2h-0.2V14.2z
		 M133.8,11.7h-0.3l-0.1,0.2h-0.6V12l0.2,0.3h-0.5v0.1l0.1,0.1l0.6-0.2v-0.1l-0.2-0.2h0.2c0.2,0,0.5,0.1,0.7,0.2V11.7z M133.1,12.8
		h-0.2V13h0.2V12.8z M133.4,12.6h-0.1v0.2h0.1V12.6z M133.4,13h-0.1v0.1h0.1V13z M133.8,12.4h-0.2v0.4h0.2V12.4z M135.6,10.8h-0.2
		v-0.2h0.2V10.8z M136.5,11.7L136.5,11.7l-0.7-0.3h-0.2v0.3H136.5z M136,13.5v0.2h-0.2v-0.2H136z M136.7,13.3h0.1v0.2h-0.1V13.3z
		 M138,12.1l-0.2-0.2c-0.1,0.3-0.7,0-0.9,0v0.5h0.1l0.2-0.3h0.1l0.4,0.2L138,12.1L138,12.1z M137.2,11.7h0.2v-0.3h-0.2V11.7z
		 M137.4,13.1h0.3v0.2h-0.3V13.1z M137.5,11.4l0.2,0.3h0l0-0.2l-0.2-0.3h0L137.5,11.4z M138.5,11.9h-0.2v0.4h0.2V11.9z M139.8,10.7
		l-0.1-0.2h0l0,0.3l0.1,0.2h0L139.8,10.7z M140.1,12.8h0.2V13h-0.2V12.8z"/>
	<path d="M134.3,52.9l-0.2-0.1h-0.2l0.2-0.5h0.3l-0.1-0.5l0.1,0l0.1,0.2V52l0.1-0.7l0.1,0l0.1,0l0-0.1v-0.1L135,51l0.7-0.2
		c-0.1-0.3,0.5-1.2,0.5-1.6l0.2-0.2c0-0.6,0-1.3,0.3-1.9c-0.1-0.1-0.2-0.3-0.3-0.4c0.2-1,0.3-1.9,0.3-2.9l0.2-0.1l0.1-0.4h0.1
		c0-1.1,0.2-2.1,0.2-3.2l-0.2-0.2l0.3-0.2h0v0l-0.2-0.3l0.4-1.7c-0.3,0,0-0.6,0.1-0.8h0.1l-0.2-0.3c0.2,0,0.1-0.3,0-0.4l0.2-0.3
		c0-0.1-0.2-1.2,0.1-1.2v-1.1l0.1-0.1l0-0.2c-0.2,0.5-0.9,1.6-1.3,1.9l0,0.2h0.1l0.1,0.9h-0.4c0.1,0.4,0,0.8-0.1,1.2v1l-0.6,0.5
		h-0.1v0.5l-0.2,0.3v0.4l-0.1,0l-0.3-0.2v0.1c0.2,0,0,0.4,0,0.5l0,0.3H135c-0.6,0.6-0.7,0.8-0.7,1.6c-0.3,0.1-0.5,0.5-0.6,0.7
		c-0.5-0.2-0.7,0.6-0.9,0.9h-0.3l-0.7,0.5h-1.7c0.1-0.2-0.1-0.3-0.3-0.3h-0.1v-0.1l-0.7-0.3H129l-0.4-0.5h-0.4
		c0.1-0.2-0.2-0.6-0.3-0.7h-0.4c0-0.1-0.8-1.6-0.9-2.2c0.1-0.3,0-0.6,0-0.9c0-0.1,0-0.3,0-0.5c0.2-0.1,0.1-0.5,0-0.6v-4.2h0.3v-0.6
		h0l-0.2,0.4h-0.1v-0.2l0.2-0.3c0-0.4,0-0.9,0.1-1.2l0-3.2l0-0.9c0.3-0.1,0.7-0.4,0.8-0.7c-0.3,0.1-0.2,0.3-0.5,0.1v-0.5l1.6-0.2
		l0.3,0.2v0c1.1,0,1,0.1,2,0.5h0.4l0.1,0.4h0v0.4l0.5,0.6v0.7h-0.2c0.2,0.8,0,1.5,0,2.4l0,0.8v0.3c0,0,0,0.1,0,0.1h0l-0.2-0.1
		c0.2,0.2,0,0.8-0.1,0.9c0.2,0.1,0.1,0.5,0,0.7l-0.2,0.1l0.2,0.2h-0.2v1.3c-0.1,0.2-0.2,0.4-0.2,0.7l0,0.8h-0.3l0.3,0.3
		c0.1,0.1-0.2,0.2-0.3,0.2l0.1,0.3c0,0.2-0.2,0.5-0.2,0.7l0,0.9h0c0.3-0.2,0.7-0.4,1-0.5l-0.2-0.3c0.1-0.2,0.3-0.3,0.6-0.3v0
		l-0.2-0.3h0.3c0-0.2,0.1-0.4,0.2-0.5l0-0.2l0.3-0.2h0l0,0v0l-0.2-0.3c0.1-0.2,0.3-0.3,0.5-0.3v-0.4c0.2,0.1,0.4,0,0.5-0.2
		c0.2,0.1,0.3-0.1,0.3-0.3h0.1v0.5c0,0,0.1,0,0.1-0.1c-0.1-0.2-0.2-0.6-0.1-0.8l0.4-0.2l0-0.3h0l0.3,0.2l0.1-0.4l0.2-0.1h0.2v0
		l-0.2-0.3h0l0.8-0.6v0.4h0.1c0.2-0.3,0.4-0.8,0.4-1.2l-0.5,0.8v-0.3H136l-0.1,0.4h-0.2c0.9-1.3,1.3-2.9,2.3-4.1h-0.2v-0.4h0.2
		l0.1-0.2v0.1l0.4-0.2h0l0.1-0.7l-0.2,0.4v0l-0.1,0.3c0.3-0.9,0.7-3.3,0.7-4.2l-0.2-0.3c0.2,0.1,0.2-0.9,0.2-1.1
		c0-1,0.1-2.7,0.5-3.6h1.1l0.2,0.2l0,0.1h0.9l0.6,0.3h0.5c-0.1,0.2,0.1,0.3,0.2,0.3h0.1v0.1h0.4l0.2,0.2l0,0.1c0.2,0,0.4,0,0.6,0.2
		l0.1,0c0,0.1,0.2,0.4,0.2,0.5c0,1.3-0.4,2.5-0.6,3.8c0-0.5,0.1-1.1,0.1-1.6c-0.1,0.8-0.1,1.6-0.2,2.4h0.1l-0.1,1.1l-0.1,0.1
		l-0.1,0.3h0c-0.1,0.7-0.1,1.4-0.2,2.2l-0.2,0.2l-0.1,0.5h0c0,1.4-0.6,2.9-0.6,4.3l0.1,0.3l-0.1,1.1c-0.3-0.1-0.3,0.9-0.3,1.1
		c0,0.2,0.4,1.3,0,1.3h0v0.3c0,0.7,0.1,1.3-0.2,2c0.1,0.3,0,0.4-0.2,0.6c0.2,0,0.5,0.1,0.7,0.3h0l-0.1-0.3l0.1-0.4
		c0.3,0.1,1.4-1.2,1.6-1.4V40l0.4-0.1h0.5c0-0.5,0.4-0.9,0.7-1.2c-0.1-0.5,0.3-0.4,0.3-0.9l0.7-0.5c-0.1-0.5,0.3-0.6,0.7-0.7l0-0.1
		L147,36c0.4,0,1-0.6,1.3-0.9v-0.3l0.3-0.1v-0.1h0l0.3,0.2l-0.2-0.5h0.3l0.2-0.6h0l0.3,0.2c-0.1-0.3,0-0.6,0.1-0.9l0.2,0l0.3,0.2v0
		h0.5l-0.4,0.8l-0.5,0.4v0.4l-1.1,1.1h-0.6v0l0.4,0.2v0.1c-0.3,0.1-0.8,0.1-0.8,0.5l0,0.2h-0.4v0l0.2,0.3c-0.6,0.8-1.4,1.5-2.2,2.2
		v0.4c-0.3,0-0.9,0.2-0.9,0.7l0,0.2l-0.6,0.2v0.7c-0.4,0-0.6,0.5-0.9,0.7l-0.6-0.2c0,0.4,0,0.6-0.3,0.9v0.4l-0.3,0.2l-0.1,0
		l-0.5,0.7V45l-0.5,0.2c0,0.4,0.1,1.2-0.2,1.5c0,0.6-0.2,1.2-0.2,1.9l0.2,0.4c-0.4-0.1-0.2,0.5-0.2,0.6v1.9h-0.1l0,0.9l0,1.8h-0.2
		c0,0.6,0,1.2-0.2,1.8l0.3,0.7l-0.1,0.6c-0.3,0-0.1,1.3-0.2,1.6c-0.1,0-0.1,0.1-0.1,0.2c0,0.1,0,0.2,0.1,0.3l-0.1,0.9h0
		c0,1,0,2.1-0.3,3.1h-0.1c0,0.3,0.1,0.6,0.2,0.9c-0.2,0.3-0.3,1.1-0.3,1.4h0c0,0.5,0.2,1.3-0.1,1.8V68l-0.3,0.2h0v0.1
		c0.2,0,0,0.3,0,0.4c-0.1,0.8-0.2,1.6-0.2,2.4h-0.1l-0.1,0.7h0v1.1c-0.2-0.1-0.3,0.1-0.3,0.2v0.1H138c-0.1,0.2-0.1,0.5-0.1,0.8v0.2
		c-0.2-0.1-0.3,0.2-0.3,0.4h-0.1v0.1c0.2,0,0,0.3,0,0.4h0l-0.3-0.2c0,0.3-0.1,0.4-0.4,0.6l0.5,0.1l-1.1,1.1V77h-0.2l-0.1,0.1
		l-0.1,0.6l-0.1,0.1l-0.1,0.2h-0.1c0,0.2,0,0.4-0.2,0.6v0.1h0l-0.3-0.2c0,0.3-0.1,0.5-0.4,0.7c-0.5,0.2-1.1,0.2-1.5,0.2l-0.8,0.3
		h-0.1l-0.6,0.3l-0.7-0.1l-0.6-0.4l-0.3,0.2c-0.5-0.3-1.1-0.7-1.6-0.8v0h-0.5l-0.7-0.7c-0.2,0-0.4,0-0.6-0.2h-0.1
		c-0.2-0.1-0.3-0.3-0.3-0.5l-1.6-1.2c0.1-0.4-0.2-0.8-0.4-1.1l0.2-0.3l-0.2-0.4c0.3-0.4,0.1-0.9,0.4-1.2c0-0.3,0-0.7,0.2-0.9
		c0-0.4,0.1-0.8,0.3-1.1h-0.1l-0.1,0.3h-0.1l0.1-0.3v-0.7l0.6,0.2l-0.4-0.2V70l0.1,0c0.1,0.1,0.4,0.2,0.6,0.2l-0.3-0.8l0.3-1h0v-0.7
		c0.4,0.1,0.8-0.7,1.1-0.9V66l0.2-0.2l0-0.3h0.2V65l0.3-0.5h0.4l-0.2-0.4l0.2-0.3l0-0.2h0.3c0-0.3,0.1-0.7,0.3-0.9h0.1v-0.7l0.5,0.2
		V62l-0.2-0.3c0.1-0.3,0.2-0.7,0.2-1.1h0l-0.3,0.2l0.1-0.5l0.6,0.1l0-0.1c-0.2,0-0.4-0.2-0.4-0.4h0.2c0-0.3,0-0.6,0.2-0.9h0.3
		l0.4-0.9h0.5v-0.1l-0.4-0.2v-0.1h0.6v-0.5h0l0.3,0.2c-0.1-0.5,0.2-0.8,0.5-1.2l0.2,0.1v-0.2h-0.1l0.5-0.5v0l-0.2-0.3l-0.1,0
		l-0.3,0.2l0.2-0.4l0.5-0.4l0.7-1.3h0.4v0l-0.2-0.3l0.3-0.2h0.2c0.1,0.1,0,0.3-0.2,0.3v0.1l0.4-0.2H134.3L134.3,52.9z M124.7,75.7
		h-0.1v0.2h0.1V75.7z M124.9,72.9h-0.2v0.1h0.2V72.9z M125.4,72.2c-0.1-0.1,0-0.4-0.1-0.4h-0.1v0.4H125.4z M134.4,69.1h0.4l0-0.1
		l-0.1-0.3c0.1-0.1,0.2-0.4,0.2-0.5h0v0l-0.2-0.3l0.3-0.2l0.2,0V67l0.2-0.4c0,0,0-0.2-0.1-0.2l-0.4,0.1l0.5-0.5l-0.4-0.1l0-0.7
		l0-0.6c0.2,0.1,0.4-0.7,0.6-0.9l-0.1,0l-0.3,0.2l0.6-0.6l-0.2-0.2l-0.1,0l-0.3,0.2l0.1-0.5l0.4,0.2l0-0.1c-0.2-0.1-0.3-0.4-0.4-0.6
		l-0.2,0l0.2-0.2c0-0.4-0.2-1.1,0.2-1.4v0l-0.2-0.3c0.1,0,0.2,0,0.2-0.2c0-0.2-0.1-0.5,0.1-0.5v-0.7l0.3-0.2h0V58l-0.1,0l-0.3,0.2
		c0-0.4,0.1-0.9,0.2-1.3h0.4l-0.2-0.4l0.2-1.2l-0.2-0.2c0.2-0.6,0.6-1.1,0.7-1.6l-0.5,0.2l0-0.9c0-0.4,0-0.9,0.2-1.3l-0.2-0.1
		l-0.3,0.1c0,0.2,0,0.5-0.2,0.6v0.1l-0.3,0.2h0l-0.1,0.3h-0.1v0l0.2,0.3c-0.4-0.1-0.1,0.9-0.7,0.9l-0.2,0v0.6
		c-0.5,0.4-1.2,1-1.8,1.2l0,0.1l0.2,0.2c-0.3-0.1-0.5,0.1-0.5,0.4h0c0.2,0.2-0.7,1.2-0.9,1.4v0.7h-0.4c0,0.2,0.1,0.8-0.2,0.8l-0.1,0
		v0.3l0.3,0.1V60h-0.3l-0.2,0.5c0.1,0.3-0.5,0.8-0.7,0.9v0.7c-0.1,0.2-0.3,0.3-0.5,0.3V63c-0.2,0.2-0.8,0.9-0.9,1.2h0l0.2,0.9h0
		l-0.3-0.2l-0.1,0.3h-0.1l-0.5,1.8v0l0.2,0.3l-0.1,0c0-0.2-0.3-0.1-0.4,0v0.7h-0.2l0.1,0.7l-0.2-0.1h-0.1c-0.1,0.3-0.2,0.8-0.1,1.1
		c-0.1,0-0.3,0-0.3,0.2h-0.1l-0.1,0.7h0l0.2,0.3c-0.2-0.1-0.3,0.1-0.3,0.2l0,0.3H126v0.9l-0.2,0.1l-0.1,0.4h-0.1l-0.1,1.2
		c0,0,0,0,0,0.1l0.2,0.3h-0.2l0,0.7l0.2,0.8l-0.2,0.4h0l0.3-0.2c-0.1,0.2,0,0.5,0.2,0.6v0.1l1.2,0.6l0.2,0.2l0,0.1
		c0.4,0.2,0.9,0.2,1.3,0.2v0.2c0.3,0,0.6,0.1,0.9,0.1h0.4v-0.7l0.5-0.1v0.5c0.2-0.3,0.9-0.5,1.2-0.5l0-0.1l-0.2-0.3l0.2-0.2V77h0.6
		l0.1-0.4h0c-0.2-0.2,0.2-0.5,0.4-0.5l-0.2-0.4h0.3c0,0,0-0.1-0.1-0.2l-0.2,0v-0.1h0.5v-0.1l-0.3-0.2V75h0.3v-0.9l0.4-0.2
		c0,0,0.2,0,0.2,0c-0.3,0-0.2-0.4-0.1-0.6l0.3,0.2l-0.2-0.4l0.2-0.3l-0.1,0c0,0.1,0,0.2-0.2,0.2h-0.1v-0.1c0.2-0.4,0.4-0.9,0.8-1.2
		c0,0-0.1-0.1-0.1-0.1l-0.2,0.2l0-0.1l0.4-0.6l-0.2-0.2c0-0.2,0.1-0.5,0.2-0.6c0,0,0-0.4-0.1-0.4h0l0.1-0.2V69.1z M125.7,68.7h0.2
		v-0.1h-0.2V68.7z M125.8,67.9L125.8,67.9c0.1,0,0.4,0,0.6,0v0l-0.2-0.1H126C126.1,67.8,125.9,67.9,125.8,67.9z M126,68.4v0.2h0.1
		v-0.2H126z M126.9,34.8h-0.1V35h0.1V34.8z M127.1,33v-0.1h-0.2V33H127.1z M126.9,69.6h0.2v0.2h-0.2V69.6z M127.3,39.5v-0.1h-0.2
		v0.1H127.3z M127.4,39.6h-0.1v0.2h0.1V39.6z M127.3,67l0.1-0.2h-0.1V67z M127.4,68.6h-0.1v-0.2L127.4,68.6z M127.5,67.9h0.1V68
		h-0.2L127.5,67.9z M127.6,35.7v-0.2l-0.1,0.2H127.6z M127.8,40.7h-0.2v0.2h0.2V40.7z M128,64.6h0.1v-0.1H128V64.6z M128.3,62.1
		h-0.2v-0.2h0.2V62.1z M128.3,63.6h0.2v-0.2h-0.2V63.6z M128.3,65.5h0.2v0.2h-0.2V65.5z M128.7,61.2h-0.2V61h0.2V61.2z M129.6,59.6
		h0.2v-0.1h-0.2V59.6z M130.5,59v-0.3c-0.1,0-0.2,0-0.2-0.2h-0.1L130.5,59z M130.3,78.1h-0.1v0.2h0.1V78.1z M130.5,77.7L130.5,77.7
		l-0.2-0.2l0.1-0.1l0.3,0.3L130.5,77.7z M130.7,37.7h-0.2v0.2h0.2V37.7z M130.5,60v0.3h0.2V60H130.5z M130.5,77h0.2v0.1h-0.2V77z
		 M130.9,57.1h-0.2v-0.2h0.2V57.1z M130.9,34.6h0.1v-0.2h-0.1V34.6z M130.9,77.4h0.3v0.2h-0.3V77.4z M131,33.4v0.2h0.2v-0.2H131z
		 M131.2,35H131v0.1h0.2V35z M131.2,35.5H131v0.3h0.2V35.5z M131.4,32.8h0.2v-0.2h-0.2V32.8z M131.4,56v-0.4l0.2,0.2L131.4,56z
		 M131.8,78.5h-0.1v0.1h0.1V78.5z M131.8,56.2L131.8,56.2L131.8,56.2L131.8,56.2z M132.1,77.2h-0.2v0.2h0.2V77.2z M132.6,55.5
		L132.6,55.5c0-0.1-0.1-0.4-0.1-0.6l-0.1,0.4C132.5,55.2,132.6,55.3,132.6,55.5z M132.9,39.6h-0.2v0.2h0.2V39.6z M133.1,54.2h0.1V54
		h-0.1V54.2z M133.2,76.8h-0.1V77h0.1V76.8z M133.2,77.9h-0.1v0.2h0.1V77.9z M133.4,37.7h-0.2v0.2h0.2V37.7z M133.7,36.4h-0.1v-0.2
		h0.1V36.4z M133.7,77.2h-0.1v0.2h0.1V77.2z M134.1,37.1h-0.2v0.1h0.2V37.1z M134.1,41.1h-0.2v0.2h0.2V41.1z M133.9,54.4h0.2v-0.2
		h-0.2V54.4z M134.3,76.5h-0.2v0.2h0.2V76.5z M134.3,72.5v0.2h0.1v-0.2H134.3z M134.6,74.5h-0.3l0.1,0.2L134.6,74.5z M134.8,37h-0.2
		v0.2h0.2V37z M134.8,40.6h-0.2v0.1h0.2V40.6z M135.2,69.6l-0.4-0.2v0.4h0.3L135.2,69.6z M135.2,37.3H135v0.2h0.1V37.3z M135.2,68.6
		H135v0.1h0.1V68.6z M135,70.2v0.2h0.1v-0.2H135z M135.2,71.6v-0.1H135v0.1H135.2z M135.2,34.7L135.2,34.7l0.1-0.1L135.2,34.7
		L135.2,34.7L135.2,34.7z M135.4,37.1v-0.4h-0.2v0.4H135.4z M135.4,50.4v0.1h-0.2v-0.1H135.4z M135.2,51.3h0.2v-0.1h-0.2V51.3z
		 M135.9,67.7l-0.1-0.5c0,0-0.1,0-0.2,0.1l0.2,0.5l-0.6,0.1V68c0.2,0,0.5,0.2,0.6,0.4v-0.5L135.9,67.7z M135.4,74.7L135.4,74.7V75
		V74.7z M135.5,35.3h-0.2v0.2h0.2V35.3z M135.5,38.2h-0.2v0.2h0.2V38.2z M135.4,51.9V52h0.2v-0.1H135.4z M135.9,65.8l-0.5-0.3v0.4
		L135.9,65.8L135.9,65.8z M135.5,73.6v-0.1h-0.2v0.1H135.5z M135.7,59.2h-0.2V59h0.2V59.2z M135.7,64.8v-0.3h-0.2v0.3H135.7z
		 M135.7,75.7h-0.2v0.2h0.2V75.7z M136.1,61.4c0-0.1,0-0.3,0.2-0.3V61h-0.4c0.1,0.1,0,0.3-0.2,0.3l0,0.1H136.1z M135.9,66.7
		l-0.1-0.2h0l0,0.3l0.1,0.2h0L135.9,66.7z M135.9,36h-0.1v0.2h0.1V36z M135.9,36.4h-0.1v0.3h0.1V36.4z M135.9,37h-0.1v0.2h0.1V37z
		 M135.9,61.7h-0.1v0.2h0.1V61.7z M135.9,62.1h-0.1v0.2h0.1V62.1z M135.8,34.8l0.2,0.3h0l0-0.2l-0.2-0.3h0L135.8,34.8z M135.9,60
		h0.2v-0.4h-0.2V60z M135.9,64.6v0.2h0.4v-0.2H135.9z M136.1,67.5v-0.2h-0.2v0.2H136.1z M136.3,37h-0.2v0.2h0.2V37z M136.3,59.4
		v-0.2h-0.2v0.2H136.3z M136.3,62.4v-0.1h-0.2v0.1H136.3z M136.1,63.6v0.2h0.2v-0.2H136.1z M136.1,64.5h0.2v-0.2h-0.2V64.5z
		 M136.1,67.7v0.2h0.2v-0.2H136.1z M136.1,68v0.4h0.2V68H136.1z M136.5,32.4h-0.2v-0.1h0.2V32.4z M136.5,60.1V60h-0.2v0.2H136.5z
		 M136.5,70.6v-0.2h-0.2v0.2H136.5z M136.3,71.3h0.2v-0.4h-0.2V71.3z M136.5,72v-0.2h-0.2V72H136.5z M136.6,34.6h-0.1v0.2h0.1V34.6z
		 M136.5,50.3h0.1v-0.2h-0.1V50.3z M136.6,58.5v-0.2h-0.1v0.2H136.6z M136.6,68.2h-0.1v0.2h0.1V68.2z M136.6,75h-0.1v0.2h0.1V75z
		 M137,33.4c0,0,0.2-0.3,0-0.2v-0.5l-0.4,0.5l0.3,0.7h0.2L137,33.4z M136.8,48.1v-0.2h-0.2v0.2H136.8z M136.6,52.9v0.2h0.4v-0.2
		H136.6z M136.8,56h-0.2v0.1h0.2V56z M136.6,67.3h0.2v-0.1h-0.2V67.3z M137,55.3h-0.2v0.1h0.2V55.3z M136.8,58.7V59h0.2v-0.3H136.8z
		 M137,68.4V68h-0.2v0.1L137,68.4z M137.4,32.5L137.4,32.5c0-0.3,0-0.7,0.1-1l0.1,0V31c-0.3,0.2-0.4,0.6-0.4,1l-0.3,0.7l0.2,0.2
		l0,0.3l0.6-0.7h0l0-0.1L137.4,32.5z M137.2,37.1H137V37h0.2V37.1z M137,46.5h0.3v-0.2H137V46.5z M137,52.8h0.2v-0.1H137V52.8z
		 M137.2,54v-0.1H137V54H137.2z M137,57.1v0.4h0.2v-0.4H137z M137.5,62.9l-0.5-0.3V63L137.5,62.9L137.5,62.9z M137.2,64.6v-0.3H137
		v0.3H137.2z M137.2,70.2V70H137v0.1H137.2z M137.2,52.2v-0.5C137.1,51.9,137.1,52,137.2,52.2z M137.3,30.7h-0.1v-0.2h0.1V30.7z
		 M137.3,63.9v-0.1h-0.1v0.1H137.3z M137.3,68.2h-0.1v0.2h0.1V68.2z M137.3,68.6h-0.1v0.1h0.1V68.6z M137.3,73.8h-0.1V74h0.1V73.8z
		 M137.3,42.9h0.2v-0.1h-0.2V42.9z M137.3,47.9v0.2h0.2v-0.2H137.3z M137.3,53.5h0.2v-0.2h-0.2V53.5z M137.5,62.3h-0.2v0.1h0.2V62.3
		z M137.3,65.2h0.2V65h-0.2V65.2z M137.5,65.9h-0.2V66h0.2V65.9z M137.5,67.5h-0.2v0.2h0.2V67.5z M137.5,44.7v0.2h0.4v-0.2H137.5z
		 M137.7,45.4V45h-0.2v0.4H137.7z M137.9,45.7v-0.1h-0.4v0.1H137.9z M137.5,55.8h0.2v-0.2h-0.2V55.8z M138,58.3l-0.2-0.3h0l-0.2,0.7
		h0.1c0-0.1,0.1-0.2,0.2-0.2h0.1L138,58.3z M137.7,62.1v-0.2h-0.2v0.2H137.7z M137.5,64.3v0.2h0.2v-0.2H137.5z M137.7,65.5h-0.2v0.2
		h0.2V65.5z M138,31L138,31l0.1-0.1l-0.1-0.2v0l-0.3,0.4H138z M137.7,42.5h0.2v-0.2h-0.2V42.5z M137.7,42.9h0.2v-0.1h-0.2V42.9z
		 M137.7,43.2h0.2v-0.2h-0.2V43.2z M137.7,44.3h0.2V44h-0.2V44.3z M137.7,56.2h0.2V56h-0.2V56.2z M138,57.5h-0.3v0.1h0.3V57.5z
		 M137.9,59.4h-0.2v0.1h0.2V59.4z M137.9,64.8h-0.2V65h0.2V64.8z M137.8,32.4l0.1,0.7l0.1-0.3v-0.7l-0.1,0L137.8,32.4z M137.9,31.4
		l0,0.5h0.1C137.9,31.8,137.9,31.6,137.9,31.4z M138,40.2V40h-0.1v0.2H138z M138,37.7v0.2h0.2v-0.2H138z M138,40.7v0.2h0.2v-0.2H138
		z M138.2,46.3v-0.1H138v0.1H138.2z M138.1,33.1L138.1,33.1l0.2-0.2C138.2,32.9,138.2,33,138.1,33.1z M138.2,43.6v0.2h0.2v-0.2
		H138.2z M138.4,55.8h-0.2V56h0.2V55.8z M138.4,30L138.4,30L138.4,30L138.4,30z M138.5,28.4L138.5,28.4L138.5,28.4L138.5,28.4
		L138.5,28.4L138.5,28.4L138.5,28.4L138.5,28.4z M138.4,28.5L138.4,28.5L138.4,28.5L138.4,28.5z M138.4,38h0.2v-0.1h-0.2V38z
		 M138.6,46.3v-0.1h-0.2v0.1H138.6z M138.6,55.3v-0.2h-0.2v0.2H138.6z M138.6,28.2L138.6,28.2L138.6,28.2L138.6,28.2z M138.6,52.6
		v0.1h0.1v-0.1H138.6z M138.8,55.6h-0.1v0.2h0.1V55.6z M139,54.2h-0.2v0.2h0.2V54.2z M139.5,21.4h-0.2l-0.4,3.2h0.1L139.5,21.4z
		 M139.9,47.7h-0.2v0.2h0.2V47.7z M139.9,54.6h-0.2v0.1h0.2V54.6z M140.2,51.2h-0.1v0.1h0.1V51.2z M140.2,54.7h-0.1v0.2h0.1V54.7z
		 M140.4,48.1h-0.2v0.2h0.2V48.1z M142.6,42h-0.2v0.1h0.2V42z M143.3,41.4h-0.2v0.2h0.2V41.4z M143.7,26.1v0.2V26.1z M144.3,40.2
		h-0.1v0.2h0.1V40.2z M144.3,40.6h-0.1v0.1h0.1V40.6z M145.2,39.3h-0.2v0.1h0.2V39.3z M146.4,38h-0.2v0.2h0.2V38z M146.5,37.5h-0.1
		v0.2h0.1V37.5z M147.4,36.8H147V37h0.4V36.8z M148.7,35.1h-0.2v0.4h0.2V35.1z"/>
</g>
</svg>
