<svg xmlns="http://www.w3.org/2000/svg" viewBox="0 0 161.57 73.54"><defs><style>.a{fill:#231f20;}</style></defs><path class="a" d="M9.46,18.72l0,0-.14-.14v.19h.1l-.1.86v.53l-.24.19L9,20.25l-.09.53c.09.39-.34.72-.58.91A3.13,3.13,0,0,0,8,23l0,.24-.33.38a2.64,2.64,0,0,1-.34,1.06c0,.62-.19,1.2-.19,1.82l0,.1c.72,0,1.05-1,1.29-1.44l-.19-.34h.34c.24-.81.62-1.77.77-2.59l0,.48.1.05.24-.38v-.68h-.1l-.19.53H9.5V21.5l.53-.24L9.84,21c.19.1.24-.09.24-.24v-.09h.1l.48-.91h-.24l.24-.34v.19h.19v-.19h-.19a2.37,2.37,0,0,0,.48-1.06l-.2.15a6.84,6.84,0,0,0,.05-1,2.71,2.71,0,0,0,.34-1.25l.19-.19c0-.29.05-.67.29-.82a10.88,10.88,0,0,0-.29-1.77h0V14l-.48.52-.14.72v-.72l.48-.72v-.52l.34-.2.28,0L12,13a1.49,1.49,0,0,1-.38-.53l-.29.09v.34l-.19.34h-.29l-.34.72v.86h-.33a2.06,2.06,0,0,0,.14-1.06l.24-.19-.05-.14.15-.34H11v-.91h.34c-.14-.29.34-.38.34-.67l-.2-.34h.34v-.53l.19-.24L12,10.27l.34-.43c-.1-.39.33-1.25.33-1.73V8l.68-.53V8h.14a7.56,7.56,0,0,0-.14-1l.62-1.06a35.55,35.55,0,0,0,4.51-2.45l.24-.33A3.51,3.51,0,0,1,20,2.73h.81c.29.19.58.34.63.72h.33l.34.53.05.29-.24.43c.14.43,0,1,.19,1.39-.58-.09.38,1.39-.19,1.39a10.62,10.62,0,0,0,.19,2.45,1.4,1.4,0,0,0,0,1.15l-.19.44c0,1.34.33,2.69.33,4l-.14.24.14.19.2.77a1.87,1.87,0,0,0,0,.91h-.1l.1.15v.81l.33.15-.05.09-.48.19v.53l.2-.53.14.15v1.05l-.67-.43v-.09c.14-.15,0-.44,0-.58l-.15,1.2a.91.91,0,0,1,.15.72l.09.82.1-.05a2,2,0,0,1,.34-1.39l.62.86-.14.05L22.71,21l-.1.72-.19.24,0,.29h.09a.41.41,0,0,1,.53-.19c0,.14-.14,2.3.19,2.26a8.77,8.77,0,0,1,0,1.15c0,.57,0,1.2,0,1.77l.1.05c.24,0,.24-.33.24-.53s-.05-.67.14-.67l.34.24v.43l-.19.29a2.17,2.17,0,0,1,0,1.73l.52.1-.19,1,.19,1-.19.38h.05l.24-.38h0v.72l.19.43c-.34.09.14,1.06.14,1.29,0,.68.34,1.3.34,2a3.6,3.6,0,0,0,.14,1.73c0,.43.2.87.2,1.3s-.29,1.39.14,1.87l.05.34h.09c.1.67.2,3.55.48,3.93a1.3,1.3,0,0,0,.2,1,1.6,1.6,0,0,0,.14,1.25l.14.53h.05a9.6,9.6,0,0,1,.15,1.2c0,.14-.15.77.19.72.19.81.19,1.63.38,2.45h.1v.43l.33.29.15,1,.33.24a7.26,7.26,0,0,1,.15,1.82l.19.29c-.14-.05-.24,0-.24.14v.2h-.1l-.48.86c-.57.14-1.15,0-1.72.19a2.06,2.06,0,0,0-.92-.24v-.1l-1.63.68a4.44,4.44,0,0,0-1.82-.15l-.29-.38-.34,0v-.1A10.7,10.7,0,0,0,20.16,56l-.05-.39.2-.33,0-.48c0-.15,0-.39-.19-.39a5.37,5.37,0,0,0-.29-1.2h0c-.24-1.39,0-2.11-.82-3.36v-1.2h0l.09.53.2-.29c-.05-.53.14-1,.14-1.58,0-1.73-.62-3.41-.62-5.19a.3.3,0,0,1-.2,0V40.94h.1l.19.2.05-.39c.24.1.43-.14.48-.33l.19.62a5.56,5.56,0,0,0,0-1.82l-.19-.39h.19a1.36,1.36,0,0,0-.19-1.15,1.23,1.23,0,0,0-.14-1,3.3,3.3,0,0,0-.2-1.68l-.09-.53h0a9.24,9.24,0,0,1-.14-2v-1h-.24l-.1.72c-.53-.87-.62-2.69-.82-3.7l-.38-.19-1.58.33c0,.05-.1.05-.1.05a4.34,4.34,0,0,0-2,1.06c0-.19-.14-.19-.24-.05H13l0,.34-.14,0-.15.39-.1-.05-.38-.58-.29.24v.53a1.67,1.67,0,0,1-.86-.19,5.93,5.93,0,0,1-2.21.72H8.64l-.19.38-.1,0a3.48,3.48,0,0,0-.14,1.39C8,32.78,8,33,8,33.12v.09h-.1a3.26,3.26,0,0,0-.14.92v.33H7.54a3.88,3.88,0,0,0-.15,1.06v.34c-.19-.1-.24.09-.24.24v.09H7.06v.72H6.91a5.69,5.69,0,0,0-.29,1.25h0a4.73,4.73,0,0,1-.34,2.06v.72H6.1L6,41.47h0a2.21,2.21,0,0,1-.14,1.25v1c-.29-.1-.29.38-.24.53h-.1l0,.48a1.7,1.7,0,0,0,.19.86c.09,1.49-.87,2.11-1,3.41a4.44,4.44,0,0,0-1.78-.24v-.1H2.16v-.19c-.38.05-1.82-1-2.16-1.2l.05-.19a1.9,1.9,0,0,1,.81-.39v-.48L1,45.84h.33v-.1A.65.65,0,0,1,1,45.17v-.53l.14-.29v-.62l.34-.19.19,0v-.72l.19-.33L1.82,42H2l.19-.82v-.09L2,40.75H2.3l.2-1.92h.33v-.19l-.19-.34.24-.09,0-.58c.43.19.15-.38.48-.38v0c0-.34-.24-.05.15-.48A6.74,6.74,0,0,1,3.6,35c0,.1,0,.15.19.19v-1l.34-.72v-.72l.14-.39v-.09H2.83c.1-.24-.48-.48-.67-.53a5.38,5.38,0,0,1-.34-1.44A20.14,20.14,0,0,1,2,27.79l.19-.34a1.67,1.67,0,0,1,0-.86H3V27l.38.24,0,.19c.43-.57,1.2-.24,1.78-.52H6l.1-.53.14-.1.14-.43h0a3.88,3.88,0,0,0,.15-1.06v-.33h.14V24h.19l.1-.53h0V22.7l.33-.33L7.44,22l.1.05v-.72l.19-.1,0-.24h.09v-.52h.19v-.53h.15v-.53c.19.1.24-.1.24-.24v-.1h.09v-.52l.15-.1.09-.24h.1v-.53L9,17.28l.24-.19.1,0v-.52c.24.14.29-.24.29-.39h0l.14-.43v.62a2.55,2.55,0,0,0-.48,1.25l-.24.19-.1,0v.72l-.48,1h.34c-.19-.62.62-1.25.82-1.77v-.53l.14-.34H10l.05-.38.1.05v-.53c.24.09.19-.53.48-.72v.72c-.39-.19-.48,1.34-.48,1.58l-.24.19-.1,0-.34.86v0ZM3.79,39.36,3,39.22v.33c.09-.09.28-.24.33,0l.48.15Zm-.48.86H3.12v.2h.19Zm.15-1.72v-.2H3.31v.2Zm.19-4H3.46v-.19h.19Zm0,2.12-.19.52a9.83,9.83,0,0,1,.19,1.06l.14-.72Zm0,3.31H3.46v.19h.19Zm0-5s0,0,0-.09S3.6,34.9,3.6,34.94Zm.19,3.36H3.65v.2h.14Zm.15-2.25H3.79v.14h.15ZM4.27,35H4.13v.19h.14Zm.48-.86v-.19H4.61v.19Zm.1,2.49.09-.24v-.19h0l-.15.29v.1Zm.09.1H4.75v.19h.19ZM6.43,32.3l.15-.48-.29-.19-.87.72v.53H5.28l-.14,1.06h0V34l.19.24-.34.39a6.15,6.15,0,0,1,0,1l.63-.44.14-.38h0v-.67c.38.19.34-1,.34-1.06l.14-.29v-.43h.1l.24.19Zm-1.34-.09h.19V32H5.09Zm.67.48H5.9v.19H5.76Zm.14-.48h.2v.14H5.9Zm1.11-6-.29-.15-.14-.33-.15.67-.19.24v.09h.34V26.4Zm-.58,7H6.24v.2h.19Zm.48-6.62H6.72v.14h.19Zm0,5.23H6.72V32h.19Zm.82-7.53h.14v.19H7.73Zm.33-4.9H7.87v-.34h.19Zm1,5.57L9,24.67H8.93L8.78,25H8.69v1l.19-.14V25.2ZM9,24.14a1.65,1.65,0,0,0,.15.53A.68.68,0,0,0,9,24.14Zm.15,5.76H9v.19h.15Zm.19-6.29h-.1l.1.53Zm.19-.48-.14-.24H9.36l0,.29.15.24h0Zm.34-7.48v.09H9.84A.12.12,0,0,1,9.89,15.65Zm0,0a.69.69,0,0,0,.09-.29A.59.59,0,0,0,9.89,15.65Zm.09-.29.15-.53h0v.53C10.08,15.31,10,15.36,10,15.36Zm4.18,10.37.15.14-.05.19.81-.33v.33l.1.05.58-.38.67.14.14-.14c0-.05.05-.2.1-.2s.19.15.24.2l.33-.2A11,11,0,0,1,17,24.38l-.14-.19v-.58l-.19-.24a28.55,28.55,0,0,0-.15-2.92h0l-.28.19a13.51,13.51,0,0,0-.34-2.74c0-.14-.82-4.85-.82-4.89v-.63h-.33v.72c-.24-.14-.24.24-.19.34h-.1c.1.33-.38.57-.53.86V15l-.48,1.06H13.1c.34.14.15.62,0,.86-.23-.09-.23.24-.23.34v.19h-.1l-.1.53h-.05a5.08,5.08,0,0,1-.95,2.45v.72l-.2.09-.05.24h-.09v.72l-.48.87v.52h-.34c.05.34.1.87-.19,1.11v.48l-.14.05.24.81a2.4,2.4,0,0,0,.57.15C12.05,26.21,13.1,25.73,14.16,25.73Zm-4-4.76v.2h.14V21Zm.33-7.87h-.19v-.19h.19Zm0,14.69v-.14h-.19v.14Zm.15-10.51h-.15v-.15h.15Zm0,11v-.15h-.15v.15Zm.19,1.92h-.19v.19h.19ZM11,12h-.14v-.19H11Zm.15,5.62v.15h.19v-.15Zm.53,11.71h-.2v.2h.2Zm.14-12.62v-.14h-.14v.14Zm0,2.11H12v-.14h-.14Zm.34-5.09.33-.14-.19-.38-.34.19ZM12,15.36v.33h.2v-.33Zm.2-3h.14l.05-.29-.15-.24h0Zm.14,14.35h-.14v.2h.14Zm-.14,3.51h.33v.19h-.33Zm.33-15.94v.19h.14V14.3Zm.14-.77c0,.2.34.24.48.24v-.52l-.33.24-.1-.05h-.05ZM13,27.26h-.19v.19H13ZM13,29h-.19v.19H13ZM13.1,7.15H13V7h.14ZM13,12.57l.39-.38.43.19.05-.09s-.15-.1-.15-.15l.1-.1-.15-.81.24-.24h.39l.05-.1L14,10.65l.05-.14.38.14v-.09l-.24-.15.14-.48h.1V9.4c.24.1.24-.19.19-.33h.1c.09-.48-.19-1.06-.15-1.59l-.09,0-.24.38-.1.53h-.05V9.4l-.24.29.05.24h-.14v.53h-.15l-.53,1.39v.53Zm.14-4.22L13,8.54h.34ZM13,12.72v.38h.14v-.38Zm.34,13.49h-.2v.19h.2Zm0-11v.15h.14v-.15Zm.33,13.11v-.15h-.19v.15Zm.2-13.73-.15-.29h0l-.05.29.15.24h0Zm.09,14.26h-.29V29h.29Zm0-2.64h-.14v.38h.14Zm.34,2.49h-.15v.15h.15Zm.33-1.77h-.33v.19h.33Zm.15-17.19V9.6h-.15v.14ZM14.59,11v.19h.15V11Zm.15,15.74v-.14h-.15v.14Zm2.83-.19-.05-.14a10.48,10.48,0,0,0-2.45.33c.1.24-.14.34-.33.34v.05h.14l.39-.19v.19l.62-.39.82.39.67-.19Zm-2.64-15h.14v-.19h-.14Zm.48,16.27v-.14h-.14v.14Zm0-14.88h.14v-.19h-.14ZM15.55,28h-.14v.19h.14Zm.2-13.15h.14v-.14h-.14Zm0,.53h.14v-.15h-.14ZM16.08,28h-.19v.19h.19Zm0-10.51h.15v-.19h-.15Zm.15-3.17v.19h.19V14.3Zm.19,3.51v-.15h-.19v.15Zm0,2.3v.14h.14v-.14Zm.14-2.64h.15v-.19h-.15Zm0,2.45h.15v-.19h-.15Zm0,5.95v.19h.15v-.19Zm.34-5.14v.05h.33v-.19l-.14-.34H17A.46.46,0,0,1,16.9,20.73Zm0,.44v.14H17v-.14ZM17,15.69h.19v-.14H17Zm.19,6.15v-.15H17v.15ZM17,23.42h.19v-.19H17Zm.19-6v.19h.15v-.19Zm0,4.75h.15V22h-.15Zm0,.29.15.38v-.52h-.05Zm.15-7.82h.14v-.2h-.14Zm.24,5h.09v-.1l-.33-.58v.34C17.62,19.29,17.62,19.58,17.62,19.73Zm-.24,3.69V24h.33Zm1-6.48h.19l.14.19.1-.57L18.34,15l.19-.72a2.16,2.16,0,0,1-.19-1.1,1.94,1.94,0,0,1,.09-.48h.24v1l.34.53-.14.29A10.11,10.11,0,0,1,19,16.27v.34h.34v-.1a1.23,1.23,0,0,0-.2-.86c0-.68.05-1.35,0-2a5.28,5.28,0,0,1-.48-1.15v.09h-.33l-.15-.38V14a5,5,0,0,1-.09,2.07h-.24L17.71,15l-.19.15c.15.38,0,.81.19,1.2-.19,2.73.82,5.37.82,8.06v.29L19,25.73s.14,0,.14-.05a17,17,0,0,0-.48-3.84l.2-.24a7.36,7.36,0,0,1,0-1.15,3.85,3.85,0,0,1-.77-1.92l.43.19c-.05-.63,0-1,0-1.59h-.19l-.48-.38.33-.14Zm-.48,12.77h-.15v-.14h.15Zm.19-1.54h-.19v.15h.19Zm-.19,3h.19v.34h-.19Zm.05-14.88c.09,0,.28-.05.28-.14v-.05h0l.1.19v.14Zm.28-6.53h.15V9.4h-.15Zm.15,1.78-.15-.34v.34Zm0,13v-.19h-.15v.19Zm-.15.19v.14h.15v-.14Zm.34,3.84v-.19h-.34v.19Zm-.34.19v.15h.15V28.7Zm0,4h.34v1.05h-.05l-.19-.19Zm.15,3.89h-.15v-.2h.15Zm0-25.93v.15h.19v-.15Zm.05,19.44c.24,0,0-.52-.05-.62v.62Zm-.05,2.26h.19v.19h-.19Zm.19,1.92h-.19v-.33h.19Zm.62,3.94.05.09L19,38.16v1.73c-.43,0-.05-.67-.34-.87V38.5l-.33.19.19-.63-.19-.43A8.68,8.68,0,0,0,18.67,35,17.48,17.48,0,0,0,19,38.16c.14.05.24,0,.24-.19h.1Zm-.62,2.4-.05-.29.15-.24h0l.2.67Zm0-30.15.34.19H19v-.24l-.1-.24Zm.14,10.85h-.14v-.14h.14Zm0,.38h-.14V21.5h.14Zm0,4.71v-.19h-.14v.19Zm0,4.56h-.14v.19h.14Zm0,8.59h-.14v-.19h.14Zm-.14.15h.14v.19h-.14ZM18.67,9v.1H19V8.88l-.1-.19h0A.21.21,0,0,1,18.67,9Zm0,18.15h.2v-.19h-.2ZM18.87,49h-.2v-.19h.2Zm-.05-40.9.14.24H19l0-.24-.15-.29h0ZM19,36.58l-.14-.24.05-.29h0l.15.24,0,.29Zm-.09-14.36v.15H19v-.15ZM19,35.86h-.14v-.15H19Zm-.1-6.92.44-.24H20l-.19-.53.19-.09c0-.39-.24-.77-.19-1.15l-.24,1.39a4.38,4.38,0,0,0-.24-1.11l.33-.62-.38-.29-.15.63.2.72A13.09,13.09,0,0,1,18.91,28.94Zm.63-11.57a3.67,3.67,0,0,0-.19-.62H19v.38l.34.92-.2.28.24.1v.1l.1-.1A3.78,3.78,0,0,1,19.54,17.37ZM19,37.63h.14v.15H19Zm0,6.1.48-.53.05.91a5.41,5.41,0,0,1-.19.77l.33.43-.19.53h.1l.14-.34h.1l0-.67a1.86,1.86,0,0,0-.19-.91l.19-.43A7.31,7.31,0,0,0,19.44,42,5.43,5.43,0,0,0,19,43.73Zm.14,3.5,0-.29.19-.38h.05v.67Zm1.49-5.57v-.09l-.14.33a4,4,0,0,1,.33.82,1.37,1.37,0,0,0-.19.86c.15-.38.29.44.34.53l.33-.19V42.19l-.19-.09c0-.58.19-1.2.19-1.78L21.12,40a3.09,3.09,0,0,0,0-1c-.05,0-.14,0-.14-.09s.09-.19,0-.34V36.91c-.34.77.05,2.07-.24,2.59l-.1,0a8.22,8.22,0,0,0-.14-2.88l.14-.53v.86a2.94,2.94,0,0,0,.19-.62c0-1.11-.09-2.5-.19-3.6l-.14-.24.14-.44-.33-.43A6.23,6.23,0,0,0,20,29.47l-.15.43-.19-.09v-1h-.33a2.73,2.73,0,0,1-.2,1.39c0,.19.2.57.2.81a7.5,7.5,0,0,0,.09,1.83l-.09.72c.33-.05.33,1.34.33,1.58s-.29.44-.19.68l.29.14-.1.91c.19-.38.58.63.63.72h-.48l0,.15.38.28v.1c-.19.14-.05.53,0,.67-.33-.14-.05.77,0,.87h.1l.14-.34h.1l-.1.53-.14,0L20,39.7l-.05.14.34.34-.1.43.24.53h.05l.14-.39.24.19c-.24,0-.24.34-.24.48v0l.19.19ZM19.15,8.35h.2V8.21h-.2Zm.2,15.26v-.19h-.2v.19Zm-.2,16.47h.2v.14h-.2Zm.48,1.63-.33-.77h-.15v.72Zm.2-17.42.48.28c0-.38-.39-2.2,0-2.35v-.91L20,20.78l-.15.19h0V19.39c-.24.14-.24-.19-.24-.34h-.1a2.13,2.13,0,0,0,.19.77l-.38.29.05.14h.24a5.68,5.68,0,0,0-.1,1.59,10,10,0,0,1,.53.86l-.1.53C19.68,23.42,19.92,24,19.83,24.29Zm-.48-12.44V12h.14v-.19Zm0,12.29h.14V24h-.14Zm.14,6.63h-.14v-.34h.14Zm0-4.37h.19v-.19h-.19Zm.19,5.09h-.19v-.2h.19Zm.15-15.41-.1-.87h-.05C19.68,15.31,19.49,16.08,19.83,16.08Zm-.15-5.28h.15v-.15h-.15Zm0,1.92h.15v-.15h-.15Zm.15,3.89v-.39h-.15v.39Zm-.15,9.26v.19h.15v-.19Zm.34,7.2-.19,1a9.22,9.22,0,0,0-.15-2Zm-.19,15.6v-.38l-.15.19Zm0-31V18H20v-.34Zm.33,14-.24.19-.09-.05v-1.2A2.13,2.13,0,0,1,20.16,31.68ZM20,42h-.19v.19H20Zm0,8.59h-.19v.34H20Zm.09-15.26L20,35.09,20,34.8h.05l.14.29-.05.24Zm1.68-11.91.29.34h-.43l-.1.53-.09-1.06.33-.14h-.33v-.2a.38.38,0,0,0,.33,0v-.14l-.48-.62a16.41,16.41,0,0,0,.15-2.21l-.58-.53c.1-.34.19-1.73-.24-1.82l.19-.29c-.24-.05-.09-.43,0-.53-.33.05-.28-1.58-.33-1.82a13.11,13.11,0,0,1-.24-2.4l0-.49-.29.34a11.17,11.17,0,0,1,0,2.83,2.93,2.93,0,0,1,.14.87c-.14.38.05.81,0,1.2l.34.91a32.65,32.65,0,0,0,.62,4.9h.19v.14h-.19a16.69,16.69,0,0,1,.24,2.69l-.05.48h.63l-.29-.87h.29l.19-.52-.29-.2h-.05l-.33.53V25l.62-1.2.1,0-.05.29.62.15.2-.24V24l-.29-.05.09-.14c0-.1.2-.87-.14-.87l-.1.72,0-.52h-.15A1.24,1.24,0,0,0,21.79,23.42Zm-1.63-4.89v-.2H20v.2Zm-.05.52-.09.68h.14v-.68Zm0,6.48.1-.33h.1v1.2h.33v-.15a2.9,2.9,0,0,1-.14-1.44h-.15L20,25v.52Zm.05,10.85H20v-.33h.14Zm.15-24.67c0-.15.09-.77-.15-.72C20.26,11.33,20.07,11.37,20.31,11.71Zm0,24.87h0v.67h-.15Zm0,7.68h-.15v.19h.15Zm0-17.33v.19h.19v-.19Zm.28,1.24h.05v-.91h-.33A1.58,1.58,0,0,0,20.59,28.17Zm-.28.15v.19h.19v-.19Zm0,.72h.19v-.19h-.19Zm0,5.09h0l.15.86Zm0,4.7h.19V39h-.19Zm.19-25.92v.19h.14v-.19ZM20.5,31h.14v-.19H20.5Zm.33-12.24h-.19v-.19h.19Zm0,5h-.19V24h.19Zm-.19.38v.15h.19v-.15Zm.48,4.56-.14.24.14.72-.48.05.19.53.1.05h.29l.09-.05.05-.53A2.49,2.49,0,0,0,21.12,28.7ZM21,31l-.39.19.19.53h.29Zm-.39,11.23h.19v-.38h-.19Zm.53-8.93.29-.48.14.15-.29-.53-.14.29h-.05L20.83,32A17.45,17.45,0,0,0,21,34.66h.33c-.09-.2-.43-1.06,0-1.06ZM21,25.2h-.15v.14H21Zm0,1.92v-.19h-.15v.19Zm-.15.14v.19H21v-.19Zm0,.53V28H21v-.19ZM21,15.69h.14v-.14H21Zm0,1.06h.14v-.14H21ZM21,21l.19.39-.05.48Zm.14,7.2H21v.15h.14Zm-.09,2a.73.73,0,0,1,0-.29A.73.73,0,0,1,21,30.19Zm.09,4.61a2.54,2.54,0,0,0,.19,1.34Zm0-18.72v.14h.19v-.14Zm.19,4.17h-.19v-.14h.19Zm0,2.45c0,.05,0,.05,0,.1a.33.33,0,0,0-.19-.05V22.7Zm-.1,14c.19,0,0-.38-.05-.48v.48Zm.14,9V44.26h-.19V45.7Zm-.19.33v.19h.19V46Zm.19-34h.15v-.19h-.15Zm.15,10.85c-.05,0-.1-.09-.15-.09A.24.24,0,0,0,21.46,22.89Zm-.15,1.78h.15v.14h-.15ZM21.46,32v-.19h-.15V32Zm-.15,6.49v.19h.15V38.5Zm.15,8.92h-.15v.2h.15Zm.19-3.88-.14-.34h-.05l-.05.24.19.29h0Zm-.19-28.33v.15h.19v-.15Zm.19,1.92v-.19h-.19v.19Zm-.19,8.74h.19v.34h-.19Zm.19,1.3a4.54,4.54,0,0,0-.19.81c.09.05.57-.14.67-.19l.14.38a3.79,3.79,0,0,0-.14-1.05h-.34v-.39l-.14.44.05-.05c.14-.05.09.09.09.19l0,.14h-.1Zm2.26,15.17a1,1,0,0,1-1-.44l.33-1v1l.15-.53a1.75,1.75,0,0,1,.33-2.06c0-.39-.19-.68-.14-1.06l-.53-.48.05-.29.19.24h.1v-.19l-.15-.34h.34l-.19-.38.19-.86h-.1l-.14.33h-.1l-.05-.43.2-.43v.38h.09l.24-.48V32.69l-.33-.87a13.67,13.67,0,0,0,0-1.92l-.48.53h.14l-.14.34.33.81V32H23v.34h.24l-.1.19.53.77a13.67,13.67,0,0,1-.1,2L23,34.8l.33-.19.15,0-.34-.39L23,33.79a2.06,2.06,0,0,1,.1-.53l-.29.29-.1-.38.2-.48H22.9l-.29.19a2,2,0,0,0-.14-1.06h.28l.05-.09c-.24-.05-.38-.2-.33-.44-.15-.28-.39-.52-.39-.86a2.3,2.3,0,0,1,.43-.72c0-.14-.28-.14,0-.34l-.2-.28V29l.34-.1v-.09h-.1l-.62.38h-.1v-.82l-.33-.09.19.62c0,.48.43,2.88.14,3.07l.2.15-.2.19.34.43a13.75,13.75,0,0,0,.14,2.4l-.48,1.4.15.52c.14.1.29-.33.29-.38h0l.2.53a2.88,2.88,0,0,0-.2,1.25c.24-.1.34.48.34.62,0,1.44.43,2.83.34,4.27l.19.1-.19.24a.67.67,0,0,0,.48.53,2.28,2.28,0,0,0-.15-1l.1-.44h.05l.14.53h.05v-.86Zm-2.26-7.16v.87l.14-.72-.33-.87v.44Zm0-17.9c0,.09-.19.91.14.91Zm0-5.24h.14v-.19h-.14Zm.14,27.85h-.14v.19h.14Zm0-26.45v.19h.15v-.19Zm.15.72h-.15v.33h.15Zm0,16L22,29.9h.1v.15l-.1.19h-.09Zm.14-6.38v0l.05,0Zm.05-5h.14v-.19h-.14Zm.34,2.59v-.14h-.2v.14Zm0,4,.28.87-.48-1.54v.43Zm0-2.83.19.24.14-.05v-.33h-.28Zm.29,4.75a.42.42,0,0,0,0,.24l-.28.67.48.15v-.53Zm-.1,6.34h-.14v-.19h.14Zm0,1.06h-.14v-.2h.14Zm0,.33h-.14V34.8h.14ZM23,18.33h-.34v-.14H23Zm-.29,2h.14c.05,0,.1.05.15.05v.1Zm.29-.72h-.2v-.19H23Zm-.2.34H23v.19h-.2Zm.2,5.81v-.2h-.2v.2Zm-.2,3.64v.2H23v-.2Zm.2,4.76h-.2v-.39H23Zm0,.33h-.2v-.19H23ZM23,37l-.29-.24.39-.77.14.53-.14.34Zm-.09.67h-.2v-.19H23Zm0,.87h-.2v-.34H23Zm-.2,1.72L23,40l.14.24v.2Zm.1-6.67-.05.05C22.85,33.6,22.85,33.6,22.85,33.55Zm.1-12h.14v.34H23Zm0,4.37v.34h.14v-.34Zm0,.86h.14v-.14H23Zm.14,1.78-.14.62.14.15.19-.43ZM23,37,23,37,23,37.1Zm.63,1.68v.53l-.39.19-.28,0V39a2.38,2.38,0,0,0,.33-.86v.34Zm-.39-2.93-.14,0,.05.24Zm.2,9.55v-.53h-.34Zm0-23.62h-.15V21.5h.15ZM23.28,34.8V35h.15V34.8Zm.15,10.9v-.2h-.15v.2Zm.19-22.28h-.19v-.19h.19Zm0,1.25h-.19v-.19h.19Zm-.19.14h.19v.39h-.19Zm0,3.17h.33v-.19h-.33Zm.19.63V29l.14-.72-.24-.19-.09,0Zm0,18.48h-.19v.33h.19Zm0-9.65v.19h.14v-.19Zm.14,3.84v-.14h-.14v.14Zm-.14,16.13h.14v.19h-.14ZM23.71,36l.15.19h.05l0-.29-.14-.19h0Zm.05-6.77v.14h.15v-.14Zm.15.67v-.19h-.15v.19Zm-.15.34v.19h.15v-.19Zm0,.38V31h.15v-.34Zm.34,1.73v-.14h-.34v.14Zm-.19,7.73v-.19h-.15v.19Zm.19-6.14h0l.09-.15A5.18,5.18,0,0,0,24,32.54h0v.77A3,3,0,0,0,24.1,33.94Zm-.19,4.51a.4.4,0,0,0,.28.33l-.28-.48Zm.33-4.32-.14.43a4.85,4.85,0,0,0,.29,1.15h0v-.48C24.05,35.09,24.34,34.42,24.24,34.13Zm.19-5.43h-.19v-.19h.19Zm0,7.16h0l-.15.72h.19Zm.29-1.73h-.14v.14h.14Zm0,1.2h-.14v.19h.14Z" transform="translate(0 -0.91)"/><path class="a" d="M56.83,33.6l.1-.29v-.19l.09.09h.63l-.1-.33c.05,0,.2,0,.2-.1s-.1-.33,0-.48h0l.29.2.05-.1-.19-.24.29-.19h0l.2-.53.09-.05.24.19a.93.93,0,0,1,.39-.72.62.62,0,0,1,.19-.57v-.15h.33l.1-.33h.1c.09-.29.14-.77.52-.77l.2.05v-.53l.52-.19V28l.92-1.3h.52l.2.34v.05l.28.19h0v.53a.74.74,0,0,1-.53.33l-.19.58L61,30v.33l-.29.2h0l-.2.52a3.84,3.84,0,0,1-1,.53l-.58.72v.39l-.53.19v.33l-.52.2a.66.66,0,0,1-.2.57v.15l-.33.19H57l-.09.24.09.29h-.09v.24c-.29-.1-.72.53-.87.72v.57a.66.66,0,0,0-.57.2l-.15,0v.57l-.38.2-.19,0v.57l-.53-.19c.1.19.38.72,0,.72-.05.24-.19.72-.53.72h-.19v0l.19.29-.33.19h-.05v.53l-.72.72a.65.65,0,0,1-.19.57l0,.15-.33.19h-.05l-.1.34h-.09c0,.24.14,1.1-.15,1.29,0,.29.15,1.06-.19,1.25a19.72,19.72,0,0,0-.14,2.3h0a8.73,8.73,0,0,0-.24,1.59l.29.53-.24.24,0,.33,0,0c0,.67-.19,1.34-.19,2,.19,0,.09.28,0,.38-.19,1.49,0,3.12-.62,4.51,0,.29.05.77-.19,1l-.05.15c.19.09.1.43.05.57l.19.72-.14.29h0c0,.24.14,1.11-.19,1.25,0,.19.09.72-.2.72a12.82,12.82,0,0,1-.33,3.6c0,.29.09.86-.19,1.06a10.39,10.39,0,0,1-.92,2v.43h0a12.07,12.07,0,0,1-1,2.07l-.15.14-.09.24H47a2.35,2.35,0,0,0-.77.53c0,.14-.24.53-.19.72l-.24.19-.09,0v.39l-.48.24h0l-.1.33H45l-.72,1.11-.34,0v.09l-.72,0-.38-.19h-.53v-.19l-.53-.15v0L41,73.68a1.25,1.25,0,0,1-.91-.33c-.53.09-2.21-1.64-3-1.83.1-.38-.48-.43-.57-.72a4.26,4.26,0,0,1-.15-1.15V66.34l.34-.48-.1-.15-.09.1c-.05-.24-.1-.77.19-.91a2.89,2.89,0,0,0,.19-1.25l.29-.19h0v-.91l.33-.2h.05l.15-.33v-.53c.33.1.28-.14.38-.38-.14-.39.48-1,.72-1.25v-.53h.34v-.72h.38v0l-.19-.33.48-.73.24,0a4.64,4.64,0,0,0,.29-.82h.09a.68.68,0,0,1,.19-.58l0-.14h.57v-.09l-.38-.2v-.09l.33-.2h0v-.52c.29.09.48-.15.53-.39l.14,0s.05.05.05,0v-.1c-.24,0-.05-.33,0-.43l.1-.05.24.2-.15-.29.15-.43h.09a.21.21,0,0,0,.29.19,1.38,1.38,0,0,1,.15-1.06l.09,0,.29.2a1.62,1.62,0,0,1,.19-1.06h.34c0-.34.09-.48.33-.72v-.53h.39l.14-.38h0v-.53h.14a4.43,4.43,0,0,1,.2-1.78l0-.81c0-.15-.14-1.06,0-1.06l.1.05a8.88,8.88,0,0,0,0-1.63l.19-.15c-.19-.67.24-1.29.24-2,0-.44-.1-.87-.1-1.3l.2-.14c0-.29-.15-1.11.19-1.3a13,13,0,0,1,0-2c.33,0,0-.57.33-.57l.2,0v-.09l-.2-.29a8.07,8.07,0,0,0,.2-1.92c0-.14-.1-.72.19-.58,0-.48-.15-1.34.19-1.73v-.09l-.19-.34h.19c.05-.81.19-1.63.19-2.45l-.05-.76-.09-.05-.24.19a.7.7,0,0,1-.19.62v.1l-.29.19h-.05v.53A6.08,6.08,0,0,1,45,31.82v-.53c.33.15.38-.52.43-.72h.09l.72-1.24v-.58l-.52.19-.15.39h0v.52l-.14.34H45v.58l-.24.19-.1-.05-.29.58h-.43c-.05.09.1.19.14.19l.24.05,0,.09v.53l-.2.38h-.33a.73.73,0,0,1-.53.73l.19.52H43v-.52h-.1l-.14,1.24h-.1v.72l-.19.2v.14l-.29.24-.09,0a10.66,10.66,0,0,0-.53,1.63l.72-.52v-.58l.19-.19v-.15l.29-.19h0l.09-.33H43v.52a6.53,6.53,0,0,1-.58.92l0,.14-.72.91,0,0a.8.8,0,0,1-.09.58h0c0,.24.09.77-.19.91a7.77,7.77,0,0,0-.53,2.59l-.05.15.24.33a3.07,3.07,0,0,1-.72,1.06l-.14.38h0c0,.34-.15.48-.34.72v.34h-.38v.53l-.29.19h0l-.19.53c-.29-.1-.86.72-1.1.91-.34-.14-.39.38-.68.38a5.73,5.73,0,0,1-2-.19c-.19.05-.72.1-.72-.19-.68.1-1.2-.48-1.78-.72l-.72-.72c.1-.29-.19-.48-.43-.58v0l-.87-1.64c0-.48-.28-.86-.28-1.34L30,42v-.72l.29-.53.05-.72.19-.14c-.1-.24-.48-1.3,0-1.3v-.67l.19-.14-.1-.91.34-.2H31V35.9c.57-.48.57-1.29,1-1.77v-.58l.72-.72.1-.33h.1l.43-1.06,1-1.11v-.52h.33l.1-.72.19-.2v-.14L36.05,28c-.1-.29.33-.58.38-.91h.34c-.1-.43.38-.34.38-.91l.24-.2.1,0a.7.7,0,0,1,.19-.62v-.1l1.06-1.1V23.9l1.48-1.34a2.61,2.61,0,0,1,.58-.15,8.93,8.93,0,0,1,1.15.1v-.05a4.4,4.4,0,0,1,1.35-.14l.24-.39a5.39,5.39,0,0,1,1.2-.14,8.32,8.32,0,0,1,2.2.53c.92-.24,1.64-.91,2.55-1.15V19.92l.62-.82h.63a13.71,13.71,0,0,0,1.53.91L53,21.55l.19.1a12.71,12.71,0,0,1,.58,2.3l-.24.38c0,.29,0,.77-.19,1,0,.53,0,1.06,0,1.59a7.85,7.85,0,0,1-.1,3v1.25H53l-.05.34c0,.14.2,1.15,0,1.15l-.1,0,0,.58,0,1.39h-.19c-.24.67.19,1.25-.15,2,0,.29.15,1.1-.19,1.29a3.64,3.64,0,0,1-.19,1.25v.72A7.25,7.25,0,0,0,53,38.54l.24-.24.1.05a3.31,3.31,0,0,1,.91-1.25v-.57h.38a.58.58,0,0,1,.2-.53l0-.19.29-.19.09,0c.29-.48,1.3-.76,1.3-1.39ZM30.67,40.18h-.19v.19h.19Zm0,1h-.19v.19h.19Zm.72-3.74H31.2v.19h.19Zm1.73-4.66h-.19V33h.19Zm13.44-8.21.24-.53h.34v-.72h-.53c.09.24-.15.58-.29.72h-.43a.66.66,0,0,1-.19.58v.14h-.34l-.19.39v.53c-.24-.15-.39.57-.39.72l-.72.33a6.5,6.5,0,0,0-1.24,2.16l-.29.19h-.05l-.72.92v.52l-.72.72-.38.92-.24.19-.1,0-.53.72v.39l-.38.19h-.19l-.53.72v.33l-.29.2h0l-.09.33h-.1l-.38,1.11-.24.19-.1-.05-.19.38v.53h-.34v.53l-.33.19h0a2.15,2.15,0,0,0-.15,1.11c-.19-.1-.33.72-.62.91l-.1-.05v1.25l-.28.24-.1,0v.91h-.19v2h.09l.39-.53.48-.24.14,0a.7.7,0,0,1,.19-.62V43h.34c-.1-.43.38-.34.38-.91l.34-.19h.05l.14,0v0l-.19-.34.29-.19h.05l.19.38.05-.19-.2-.29.24-.24h.1l.34-.91a2.08,2.08,0,0,1-.15.91h0l.29-.19-.19-.86.19,0,.38.19.15-.34-.15-.38h.53c-.1-.72,1.15-2.64,1.54-3.22l.09-.52h.34l.14-.39h0l.14-.72H42l.24-1h.48v-.2l-.19-.33h.34l0-.1-.19-.29c.24.1.15-.33.72-.33v-.39l.34-.33.14-.39h.05v-.91a1,1,0,0,1,.53-.53l0-.38.14,0v-.58c.24.1.29-.14.24-.34,0,.05.14,0,.14-.09l-.24-.24c.24.05.29-.15.29-.34v0h.1l.19-.33v-.58h.34v-.05l-.2-.28h0l.34.19,0-.15-.2-.38c.24.1.2-.58.34-.77h.34l.19-.33-.19-.39ZM36.72,43.49h-.19v.38h.19Zm.19-.34h-.19v.19h.19Zm0,25.88h-.19v.19h.19Zm.19-2.88V66h-.19v.2Zm7-6.82V57.89l.2-.19c0-.48-.2-1.25.19-1.64l0-1,0-1.68c-.29,0-.19.48-.53.57l-.05.39-.14-.05c0-.43.43-.82.72-1.06v-.72h-.1l-.62.72v.34l-.29.19h0a.56.56,0,0,1-.24.58l.05.14h-.38V55h-.34l-.91,2.16-.29.19h-.05l-.24.53,0,.19-.29.19-.09,0a6.36,6.36,0,0,1-.53,1.29l-.19.1,0,.24h-.1l-.09.72-.34-.39-.14.05c0,.48.19,1,.19,1.44h-.34v.53l-.29.19-.09,0a2.18,2.18,0,0,0-.19,1.11l-.15.09-.09.24h-.1v.72c-.34-.09-.43.58-.48.77l0,0v1.3c-.33,0-.38.48-.38.72v1.39c.14.29-.1.39.19.67a1.3,1.3,0,0,1-.19,1,9.13,9.13,0,0,1,.91,1.35v.09l.53.15v0h.09l.29-.2.19.29,0,.1a8.71,8.71,0,0,0,2.3-1.3h0v-.33l.19-.24v-.15h.34a1.75,1.75,0,0,1,.09-.86h.1l.14-.39h0v-.52l.29-.2h0l.09-.33H43v-.72c.29.09.33-.34.29-.53h.09c0-.14-.19-.24-.19-.38l.19-.29c0-.29,0-.72.15-1a1.71,1.71,0,0,1,.19-1.11c0-.43-.15-1.48.19-1.77v-.24a9,9,0,0,1,0-2.26Zm-6.43,5h.15v-.19h-.15Zm.24-38.31h.34v-.19h-.34ZM38,68.11h.19v.39H38Zm.14-2,.19-.34h.05v.72h-.19Zm.39-4.66h.19V61.3H38.5Zm0,2.88h.19v.34H38.5Zm.38-.72v.53h-.05l-.19-.29,0-.24Zm.19-23h-.19v.14h.19Zm.15,22.08v.72l-.29.19h0c.1,0,.1-.19.1-.29v-.09h.09v-.53Zm.14-.39v.2l-.14-.2Zm0,0v-.19l.19.19Zm1.25-2.68a7.22,7.22,0,0,0-.24,1.1l-.2.34h-.09a.53.53,0,0,1-.19.62v.1L39.7,62h-.1v-.53l.19-.38.24-.2.1.05v-.57c.24.19.38-.63.38-.72Zm-.72-19.21v-.19h-.15v.19Zm.19.34h-.19V41h.19Zm.43,1.39-.19-.29h0l0,.24.19.29h0Zm-.05-.67v-.19h-.19v.19Zm.15-3.41h-.15v.39h.15Zm.76-.86a.68.68,0,0,1-.19-.58h0l-.14.19v.2l-.29.19-.09,0,0,.24.19.34h.05l.09-.58.44.19Zm-.76,19.54h.19v-.15h-.19Zm0,2.83v-.15l.09-.19.1,0ZM41,38.5h-.19v.14H41ZM40.85,59H41v.19h-.19ZM41,38.11v.19h.34v-.19ZM41.57,36h-.19v.19h.19Zm.19,21.75-.38.67v-.24a.54.54,0,0,0,.19-.63l.29-.19.09,0,.53-1.1C42.38,56.83,42.48,57.6,41.76,57.7ZM42,35.76h-.19V36H42Zm.15,35h-.34V71h.34Zm0,.58H42v.14h.15Zm0-16.18v.14h.19V55.2Zm.19,15.27H42.1v.19h.19Zm0-15.65h.19v-.15h-.19Zm.33,15.45.2-.14v0a.38.38,0,0,1-.53-.14V70l.19.15v.09ZM43.54,55h-.15c.1.29-.38.72-.57.86,0-.09,0-.29.09-.38l.1,0V55l.29-.19h.09l.15-.34Zm1.34-23.19H45l0,.24s-.14.19-.24.15v.52A4.29,4.29,0,0,1,43.92,34l-.1.39h-.09c0,.14-.24.53-.19.72l-.24.19-.1-.05-.14.39H43v-.53l.29-.24.09,0v-.53l.24-.24.1,0v-.53l.24-.19h.09a.56.56,0,0,1,.24-.58l0-.15.28-.19h.1V32ZM43.73,52.13h.19v-.19h-.19Zm.33,12.58v.19h.2v-.19Zm.2,4.32h-.2v.19h.2Zm.19-2.5v-.19h-.19v.19Zm.19,2.69V69h-.19v.19Zm.14-39.17h-.14v.14h.14Zm0,37.34h-.14v.2h.14Zm0,1.25h-.14v.19h.14Zm0,.91h-.14v.2h.14Zm.48-40.08-.48-.34v.15l.2.38h.38Zm-.09,16.9h.19v-.15h-.19Zm.33,11.71h-.33v.15h.33Zm-.14,5.57h-.19v.14h.19Zm.53,2.88H45.7v.14h.19Zm0-22.13h.19v-.19h-.19Zm0,8.64h.19v-.19h-.19Zm.19,8.45V61.3h-.19v.19Zm0-1.1v.19h.14v-.19Zm.34-34.66h-.2v.33h.2Zm-.2,3,.1.05.29-.19v-.53c.38.14.43-.53.43-.77l.1.05v-.91L47,26.4l-.43,1.49c-.24-.1-.29.09-.29.28v0h-.1Zm0,23.76h.2v-.19h-.2Zm.39,4.28h-.19V57h.19Zm0,1.29h-.19v.15h.19Zm.72-32.35-.29-.1-.24.1.14.52H47a.21.21,0,0,1,.19-.19h.1Zm0-.72h-.19v.33h.19ZM52.46,42.1h.15v.19h-.15Zm1.59-4.47H53.9v.19h.15Zm.57-.72h-.19v.19h.19Zm0,.34h-.19v.19h.19Zm1.44-.34h.15v.34h-.15Zm.15-.38h.19v.19h-.19Zm.48-.63h.14v.2h-.14ZM61.92,30a.5.5,0,0,0-.24.43v.1l-.53.52a10.75,10.75,0,0,1,.53-1.24h.19Zm1.39-1.44-.52.19c0-.62.72-.53.72-1.3h.33Z" transform="translate(0 -0.91)"/><path class="a" d="M68.93,41.71v.15h.14v-.2h-.14l.53-.52v-.72h.33c-.09-.44.39-.44.39-.77V39.5h0l.29.2,0-.1-.19-.29.29-.19h0l.2-.53a3.75,3.75,0,0,0,1-1.05l.1,0,.29.19c0-.72.91-1.54,1.44-2l.09-.33H74l0,.52.09-.72.72-.72v-.33l.34-.19h0a3.14,3.14,0,0,0,.72-1.16c0-.05,0-.14.09-.14l.24.19a1.19,1.19,0,0,1,.39-.86v-.39c.38-.33,1-.72,1.2-1.2l.48.15v-.39l-.24-.24,0-.14.19-.29.58.14v-.09l-.29-.19.43-.48c.1.09.67-.77.91-1l-.19.33h.1c0-.24.38,0,.48,0a.62.62,0,0,1,.19-.57l0-.15-.53.39v-.39A4.84,4.84,0,0,0,81,27.12h.1l-.34.14V28H80.4a2.13,2.13,0,0,1-.34,1.44l-.33.19h0a8.34,8.34,0,0,0-.86,1.78l-.39.24-.19-.05a7.11,7.11,0,0,0-1.06,1.59v-.34H77v.38h.15a7.07,7.07,0,0,1-1.59,2h-.33c.09.53-.72.63-.72,1.06v.1l-.53.81h-.39l-.09.39h-.1c-.43.57-.86,1.15-1.25,1.77v.53l-.28.19h0v.72h-.1l-.19-.29v-.09l-.29.57v.53c-.43.15-.86.91-1.1,1.25l.05.19-.53.19c-.05.15-.24.53-.19.72-1,.15-2,1.92-2.5,2.69v.72l-.34.19h0V48a4.76,4.76,0,0,1-.53.77v.14l-.72.34H63.89V49H63c-.2-.15-.44-.29-.53-.53h-.53a3.52,3.52,0,0,0-1.11-1.25h-.52l-.2-.48-.72-.62c0-.67-1.2-1.73-1.34-2.55l-.1.05,0-.53-.29-.57-.05-2a2.38,2.38,0,0,1,.24-1.15v-.34l-.19-.29h.19c0-.67.19-1.34.19-2l-.19-.34.29-.19h.05l.24-.62-.24-.24h.38v-.72h.14V33.21c.24.15.29-.19.29-.33v-.05H59v-.72l.24-.19.09,0v-.72c.24.14.29-.2.29-.34v-.05h.1a7.44,7.44,0,0,0,.33-1.73v-.24l.39-.19h.19v-.53L61,28h0v-.05l-.2-.28c.24.14.29-.24.29-.39h.1a.65.65,0,0,1,.19-.57v-.15h.34a8.44,8.44,0,0,1,2.88-3.6h.81a.32.32,0,0,0,.43-.14c.53,0,1.06.19,1.64.14-.15.29.38.34.53.39a4.57,4.57,0,0,1,1.63,1.05l.09.58.24.24.15-.05.05.43-.24.43c0,4.37-2.64,4.52-5.09,6.68a.43.43,0,0,0-.53.29,2.77,2.77,0,0,0-1.06.14A3,3,0,0,1,62.83,35h-.1l-.19.53.19,1h-.19l-.09.53h-.1c-.19,1.2-.19,2.4-.43,3.6h-.19a6,6,0,0,1-.2,2.07c.63,1.29,0,1.92,1.11,3.5v.53h.62l1-.87.58-.19.19-.33,0-.2.58-.19v-.38C65.81,44.78,67.92,42.72,68.93,41.71ZM63.21,31.34c1.3-.24,2.55-.67,2.84-2.11l.24-.19.09.05.1-.39h.1v-.53a5.92,5.92,0,0,1,.76-1.39v-.05a2.75,2.75,0,0,0,.48-1.44c-.33-.52-.67-1.1-1-1.63C65.42,25,63.21,29.47,63.21,31.34Zm3-1.53h-.19V30h.19Zm.34,14.54h-.2v.19h.2Zm.28-15.79h-.19v.14h.19Zm.44,15.79-.15-.19H67.1c.1.14,0,.29-.19.29l0,.09h.34Zm.38-.38h-.19v.19h.19Zm.14-.34h-.14v.19h.14ZM68,26h.19v-.19H68Zm.19,16.9H68v.19h.19Zm.33,1.25H68.4v.19h.14Zm.39-2.45v0Zm.33,1.54h-.19v.19h.19Zm.2-1.78h-.2v.39h.2Zm.33,0h-.14v.19h.14Zm.58-.72h-.19v.19h.19Zm.72-1.63H70.9v.19h.19Zm.33.72h-.19V40h.19Zm.2-1.44h.19v-.14h-.19Zm.19,1.1h-.19v.2h.19Zm.14-.91h-.14v.19H72Zm.39-.72h-.2v.19h.2Zm0,.53h-.2v.19h.2Zm1.34-1.78-.1-.38h0l-.29.19,0,.1c0,.33.24.19,0,.53l.1-.1h.28Zm.62-.52h-.19v.14h.19Zm.2-.53h-.2v.14h.2Zm.91-1.63h-.1l-.19.19H75v.33h0l.15-.19v-.14Zm.86-.92h-.19v.19h.19Zm0,.72h-.19v.2h.19Zm.53-1.05h-.14v.14h.14Zm.38.52h0s0,0,0,0Zm.2-1.24h-.2v.14h.2Zm.72-.92h-.2v.2h.2Zm.72-.52h-.2v.14h.2Z" transform="translate(0 -0.91)"/><path class="a" d="M112.47,29.76l0-.05-.28.19L111.5,31c-.43-.19-1,.77-1.19,1.1,0,0-.1,0-.1-.05l.33-.67-.48.67,0,.1v.48l-.14-.38a1.78,1.78,0,0,1-.91.72v0l.19.33c-.19-.1-.29.1-.29.24v.1h-.1v.72a5.37,5.37,0,0,1-.71.72v.38l-.25.19-.09,0a8.17,8.17,0,0,0-.58.91,1,1,0,0,1-.33.72h-.34a2.84,2.84,0,0,1-.58,1.44h-.14l-.38.81c.14.24-.48,1.11-.63,1.35h-.09v.72l-.53.53v.09a3.83,3.83,0,0,0-.63,1h-.09v.53l-.19.14v.19l-.29.2H103v.52l-.53.72-.09.39h-.1a2.92,2.92,0,0,0-.19,1.44l-.19.09,0,.24h-.1v.53l-.29.24-.09,0-.1.39h-.09l-.1.53H101V50c-.19-.1-.29.09-.29.24v.09h-.09l-.1.39h-.09a.45.45,0,0,1-.2.52l0,.2-.19.91-.19.29v0a2.11,2.11,0,0,1-1.44-.19h-.53l-.19-.29v0a.69.69,0,0,1-.58-.2H97a10.36,10.36,0,0,1-2.16-2c0-.77-1.06-1.78-1.06-3a8.32,8.32,0,0,0-.19-2.16,6.28,6.28,0,0,1,.19-.86l-.19-.58c.1-.34,0-.62,0-.91a3.27,3.27,0,0,1,.24-1.35v-.43A17.72,17.72,0,0,1,94.32,36c0-.14-.1-.77.19-.72-.09-.29-.09-.77.19-.91,0-.24-.14-.91.15-1.06,0-.24-.1-.77.19-.91v-.72c.19.09.29-.1.29-.24v-.1h.09v-.91h.15l.05-.29a6.11,6.11,0,0,1-.05-1L95.9,29h0V27.55l.19-.1,0-.24h.1a2.54,2.54,0,0,0,.19-.57v-.87H95.23v.34c-.53-.1-.91.48-1.1.91-.34-.09-2.16,1.83-2.5,2.16v.1l-.91.77-.34.67a3.4,3.4,0,0,0-1.24,1.49v.57c-.24-.14-.29.39-.48.53l-.15.34h-.09v.57l-.73.68a.61.61,0,0,1-.23.62l0,.1-.29.24-.09,0v.53l-.29.19h0v.53l-.38.38-.05.38-.1,0,0,.19c0,.19.09.62-.15.72v.53h-.38a8.75,8.75,0,0,1-.91,1.87c.19.09.09.33,0,.48a2.94,2.94,0,0,1-.62.19h-.67v-.38l-.34.19-.33-.19h-.2l-.19-.29V41h-.53l-.19-.34v0h-.33l-.24-.34,0-.19c-.33.09-.62-.39-.91-.53h-.09a4.53,4.53,0,0,1-1.35-1.54l-.53-.43L78,36.34a1.12,1.12,0,0,0-.14-1,7.21,7.21,0,0,1-.2-1v-.72l.24-.19.1,0a4.84,4.84,0,0,1,.38-3.17l-.14-.14-.24.14a1.69,1.69,0,0,0,0-.86l0-.29.19-.14L78,28.8h.19c0-.19-.09-1.39.19-1.25-.24-1.15.34-1.15.34-2.16,0-.24-.1-.77.19-.91l.19-.72c0-.19-.09-.72.2-.72v-.72c.09-.05.19-.24.14-.34l.19-.38.29-.19.1,0a2.82,2.82,0,0,0,.14-.86v-.24l.29-.19.09.05v-.92l.39,0,.33.24a.45.45,0,0,1,.53.19l.19-.05.2.58a2,2,0,0,1,1.05.14v.19h.53v.39l.53-.2.29.24.28,0,.2.24-.05.09.38.1c0,.05,0,.14.1.09l.24-.09.19.09c.43-.09,1.59.82,2,1.06l.19.91c-.43-.09.1.72-.34.72,0,.24.1.77-.19.91l-.14.53h0c0,.15.1.77-.19.72,0,.29.09.87-.14,1.06a3.87,3.87,0,0,0-.2.72c0,.24.15,1.1-.19,1.25v.72l-.19-.44c0-.33.19-.72.19-1.05s0-.39-.19-.48c.29.09.14-.67.1-.77a3.85,3.85,0,0,0-.39,1.3h0c0,.28.1,1-.19,1.1v.72h-.19a18.66,18.66,0,0,0-.15,2.35,2.05,2.05,0,0,0-.38.87c0,.24,0,1-.19,1.1a5.28,5.28,0,0,0-.15.87,5.76,5.76,0,0,0,.1.91l0-.72.19-.15v-.19l.34-.19h0l.53-.72v-.34L86.3,34l.1.05.1-.38h.09a21.86,21.86,0,0,0,2.16-2.88v-.53l.72-.34v-.38l.34-.19h0l1-1.06v-.1a8,8,0,0,0,1.78-2.06h.09a4.1,4.1,0,0,1,.63-.62v-.1h.38l.53-.91v-.34a1.83,1.83,0,0,0,.72-.53A5,5,0,0,1,97.49,23c.19,0,.33.09.43-.15v.34h.72v.38l.34.15h.57l.15.19h.19l.19.34v0H101l.34.15a4.33,4.33,0,0,1,.24,1.53l0,.82h-.19c0,.24,0,.91-.19,1.06a21.59,21.59,0,0,0-.53,3.55v.24h-.19l-.1.53h0l-.19.72c0,.14.1.76-.19.72,0,.24.14.81-.19.91v-.91h0l-.29.57c0,.24.1.77-.19.87v.53l-.19.14,0,.24h-.1c0,.29.1.86-.19,1.06l-.14.72h0v1.29l-.19.1-.05.24h-.1v1.77l-.19.2a30.88,30.88,0,0,0,0,3.6h-.19a2.18,2.18,0,0,0,.19,1.1l-.38.14.38.2.19,1.15c-.19.57.34,1.77.34,2.45h.09l.24-.39h0V49.1h.34l.09-.33h.1v-.58l.19-.09,0-.24h.1v-.53c.24.09.28-.15.28-.29v-.1h.1v-.72l.53-.72.09-.38.1.05v-.53l.34-.38.09-.39.1.05a3,3,0,0,0,.72-2l.29-.19.09,0v-.58l.34-.19v-.33h0a.27.27,0,0,0,.33.19V40.8l-.19-.29h.34a1.18,1.18,0,0,1,.19-.91h.33l.05-.1c0-.33-.33,0-.05-.62h.39a.68.68,0,0,1,.19-.58v-.14h.34v-.72l1.1-1v0l-.19-.38.53-.19v-.34l.33-.19h0a5.69,5.69,0,0,0,.86-1.63h.39l.72-1.06v-.38h.33l.1-.34h.1a9.47,9.47,0,0,1,1.39-1.44.68.68,0,0,1,.19-.58v-.14H111a.65.65,0,0,1,.19-.58V29h.33l.49-.91.62-.19.34.19.14.53h.1l-.2.91h-.14ZM83.37,33.5h-.19v.15h.19Zm.72,7.88H83.9v.19h.19Zm1.06-3.94h-.34l.15.19Zm.91-6.29h.19v.19h-.19Zm.34-.53h-.15v-.19h.15Zm-.15.15h.15V31h-.15Zm4.85-2.16h-.19v.19h.19ZM94,41.76h-.19v.14H94Zm.87-6.67H94.7v.19h.15ZM96,36.34h-.19v.19H96ZM97,44.64h-.34v.14H97Zm-.19-7.39H97v-.19h-.19Zm.38.38H97v.15h.19Zm2.16-2h.19v.19h-.19Zm.34-1.06,0,.43,0,.29a1.41,1.41,0,0,1-.15-.62v-.1Zm.14-1.78-.19.39,0,.33h.19v-.72Zm3.84,7.35h-.19v.19h.19Zm3.6-4.32h-.19V36h.19Zm2.16-2.88h.14v.19h-.14Zm1.92-2.5h-.19v.19h.19Z" transform="translate(0 -0.91)"/><path class="a" d="M137.66,34.37a4.44,4.44,0,0,1-1.24.86,1.54,1.54,0,0,0-.2.82v.29l-.38.33-.1.39h0v.86a.21.21,0,0,0-.29.19h-.1l-.53.91v.53c-.24-.09-.33.19-.33.39h0v.52c-.24.34-.43.87-.77,1.11l.05.14-.38.58.19.33c-.05.24-.19.63-.43.72l-.15.34h-.09v.91c-.24-.09-.39.43-.58.53v.53l-.29.19h0v.53l-.52.57-.1.39-.05,0h0a5.93,5.93,0,0,0,.2.91c-.2-.09-.29.1-.29.24v.1H131v.38h-.09l-.15-.24-.19.24h-.1v.72c-.24-.09-.57.19-.72.34a2.13,2.13,0,0,0-.19.77,4.94,4.94,0,0,1,0,.86l-.19.1-.05.24h-.09v.72l-.72.72-.2.72c0,.24,0,1-.19,1.1l-.14.72a4.22,4.22,0,0,1-1.11.14v0l.2.34h-1.64c.1-.19-.09-.29-.24-.29h-.09v-.1l-1.3-.33-.14-.53h-.39a9.08,9.08,0,0,1-2.59-4.37l-.09.05a19.11,19.11,0,0,1-.44-2.88h-.09a34,34,0,0,0-.53-3.41l.14-.38-.14-.34h.14c0-.24.15-2.73-.14-2.69l0-.09c.24-.05.1-.39,0-.53v-.48c.48.29-.19-1.78.33-2V36.58l.2-.44-.1-.91a1.72,1.72,0,0,1-.62.91,12.52,12.52,0,0,1-.91,1.78v.58l-.25.19-.09,0a2.16,2.16,0,0,0-.19,1.1l-.2.2v.14l-.28.19h0l-.91,1.06a.52.52,0,0,1-.2.62s0,.15-.09.15l-.24-.2V42l.19.29a1.66,1.66,0,0,0-.58,1.1l.2.34-.72.72v.53h-.2a3.92,3.92,0,0,0-.14,1v.39c-.24-.1-.29.14-.29.33v0h-.09a3.06,3.06,0,0,0-.2.63v.33l.2.29-.29.19h0v.34a9.05,9.05,0,0,1-1.1.72h-1.78l-.58-.53H110l-.15-.53h-.38l-.34-.38a9.42,9.42,0,0,0-1.44-2.5,4.12,4.12,0,0,0-.38-1.34V42.86l-.1-.24c.29-.91,0-2.25.1-3.26.24.1.29-.14.29-.34h.09a5,5,0,0,1,0-1.63l.19-.19,0-.34H108v-.52l.33-.2h0v-.09a.21.21,0,0,1-.19-.29l.24-.19.1,0-.15-.39.19-.19,0-.34.38-.33.1-.43.09,0c0-.43.48-1.1.72-1.44V32h.34v-.72l.19-.24v-.14l.14-.34.24-.19,0-.24.19-.48v-.53a.83.83,0,0,1,.53-.38l.19-.53.72-.72c-.15-.43.43-1,.72-1.25a2.82,2.82,0,0,1,1.44-1.63v-.33c.57-.05,1.25-1,1.77-1.25.48.09.87-.19,1.35-.19h.91l.43.19h1.11l.09.19.24.05v.09l.58.2.53-.05.53.05c0-.39.19-.77.19-1.16l-.19-.28h.38l-.14-.29.14-.43c0-.15-.19-1.06.14-1.06v-.91h.39l-.15-.29.29-1h.05a2.39,2.39,0,0,1,.14-1.3c0-.24,0-.72.2-.86l.14-.58h.05a4.3,4.3,0,0,0,.19-1l0-.91c.24.09.29-.15.29-.34h.1c-.05-.29-.1-.91.19-1.11l.09-.52h.05V10.27c.24.1.34-.19.34-.39h.05V9.17a10.86,10.86,0,0,0,.57-1.78c0-.19-.09-.58.15-.72V5.76l.19-.15c0-.05.09-.29.14-.19,0-.24,0-1,.19-1.1l.15-.53h0c-.1-.29-.1-.77.19-.91a3.39,3.39,0,0,1,0-2h.86l.19.33v.05h.53a3.74,3.74,0,0,1,1.15.77l.15-.05c.43.29,1,.24,1.49.48h.57l.19.24,0,.1.91,1.63v.86c-.19,0-.24.1-.24.24v.15h-.1a23.81,23.81,0,0,0-.38,3.6c-.19-.1-.19.34-.19.43V10l-.2.24c.1.1-.14.19-.14.29,0,.29.14.91-.19,1l-.15.58h0a5.69,5.69,0,0,1-.29,1.25h-.05v.91L130,15.5l.2.29-.34.14V16c.29,0-.05.62-.1.82h-.09a2.6,2.6,0,0,0-.1-1.25l-.14.38c0-.09-.19-.05-.15.05.24,0-.19,1.63-.19,2h-.19c.05.24.1.76-.19.91v.72c-.29-.1-.34.24-.34.48s.15,1.15-.19,1.29L128,22H128c.05.24.19.77-.15.91a5.12,5.12,0,0,0-.19.72c0,.24.15,1.11-.19,1.25a11.32,11.32,0,0,1-.19,1.25c0,.24.14.91-.15,1.1,0,.29,0,.77-.38.87,0,.14.14.86-.14.86l.14,1.11-.19.43.19.29-.53.81a3.74,3.74,0,0,1,0,1.49c-.24-.09-.33.34-.33.48A.33.33,0,0,0,126,34h-.14l0,.34,0,.91-.39,0c-.33,1.44-.53,2.84-.91,4.28,0-.05-.1,0-.1.09s.15.29.15.48l-.1.53-.09-.05v-.24a17.21,17.21,0,0,0-.53,4.95,28,28,0,0,0,1,6.91h.05a3.17,3.17,0,0,1,.19,1.34l.43.48.1-.72.28-.19h0a11.3,11.3,0,0,1,.91-1.63v-.72l.34-.19h0V50l.29-.19h0c-.14-.72,1.11-2.36,1.44-3.22l.39-.34c-.15-.43.43-1,.72-1.29v0l-.19-.29.28-.19h.05l.1-.34h.09l.34-1.1h0a.68.68,0,0,1,.19-.58v0l0-.1h0l.34.19v-.09a.22.22,0,0,1-.2-.29c.15.09.24,0,.24-.19v-.15h.1v-.53l.19-.24V40.8l.29-.19.1,0v-.58l.14-.34.34-.19h0V39l.29-.19H133l.19-.33v-.58l.19-.19v-.15l.72-.72v-.52l.34-.39.1-.33h.09a.73.73,0,0,1,.19-.63c0-.05.05-.14.1-.14l.24.24,0-.1L135,34.7l.14-.72h.19l.1-.38.09,0v-.58h.34l.38-.72v-.53l.2-.33.09,0,.77-.87v-.52l.19-.24v-.15l.29-.19h.05v-.53a1.34,1.34,0,0,0,.72-.72v-.53l1.1.2v.48a.82.82,0,0,1-.19.67l.19.53C139.54,30.81,137.66,30.81,137.66,34.37ZM108,37.92h-.19v.19H108Zm1.44,1.1h-.19v.2h.19Zm.38,4.66h-.19v.19h.19Zm11.67-18.15a1.62,1.62,0,0,0-.82-.33l-.29.43v.1l-.62.52h-.43c.09.24-.34.39-.53.39l-.19.53-.29.19h-.1a5.6,5.6,0,0,0-1.39,2.49.22.22,0,0,0-.29.2h-.09v.72a.93.93,0,0,1-.53.52l0,.39-.14-.05a9,9,0,0,0-.92,1.83l-.28.19h0a1.9,1.9,0,0,0-.19,1.05H114l-.14.53h0v.91c-.24-.09-.29.15-.29.34h-.1v.1l.2.28h0l-.29-.19v.91l-.19.29v.63c-.24-.1-.29.09-.29.28v0h-.1a2.25,2.25,0,0,0-.14,1.11c-.24-.1-.29.09-.29.28v.05h-.09L112,41l-.1-.53-.09,0-.24.24v.86h-.19v2.69l-.24.38,0,.34.29.48v.24l.24.14.77-.29.72-.91.14-.53.34-.19h.05c-.15-.38.53-.53.72-.72v-.09a.21.21,0,0,1-.19-.29l.28-.19.1,0a15.93,15.93,0,0,1,1.58-2v-.58l.24-.19,0-.53c.19,0,.24-.19.28-.34l.44.2.43-1.3.48-.14v-.05l-.19-.34c.28.1.48,0,.48-.29v0h0v-.39l.19-.19v-.14h.33v-.72l.72-.72v-.53a1.79,1.79,0,0,1,.58-.58v-.53h.14c0-.28,0-.72.2-.91,0-.19-.2-1.15.19-1.06a2.43,2.43,0,0,1,.09-1.44c0-.28,0-.72.24-.91a1.77,1.77,0,0,1,.19-1c-.23-.09.1-1.05.15-1.2h0a1.91,1.91,0,0,1-.1-.53A3.57,3.57,0,0,1,121.49,25.53Zm-8.84,1.64h.2V27h-.2Zm.92,17.76h-.2v.19h.2Zm3.07-4.13h-.19V41h.19Zm1.44-2.88h-.19v.38h.19Zm0-14.35h.14v-.2h-.14Zm.53,13.82h-.19v.19h.19Zm2.88-8.45h-.2v.19h.2ZM122,46.37h-.2v.19h.2Zm.52-25.16h.2v-.14h-.2ZM123.12,34h-.38v.2h.38Zm0-12.57h-.19v.19h.19Zm.34-4.52h.19v-.14h-.19Zm.14.87.14.24h.05l0-.34-.14-.19h0ZM124,28.22v-.14h-.19v.14Zm.2-9.31h.19v-.19h-.19Zm.33-6.14h.19v-.15h-.19Zm0,2.16h.19v-.15h-.19Zm0,4.12h.19v-.14h-.19Zm0,3.27h.19v-.19h-.19Zm.19-2.69v.14h.2v-.14Zm.2.53v.19h.19v-.19Zm.33.53h-.14v.19h.14Zm0-.53h.19V20h-.19Zm.19-.72h.2v-.19h-.2Zm1.11,25.87h.14v.19h-.14Zm.19-13.68h-.14v-.14h.14Zm1.44-11.95h.19v-.19h-.19Zm.91-1.11h.19V19h-.19Zm.19-.33h.15v.19h-.15Zm.15-.19-.1-.29h.15Zm.14,28.51h-.14v.19h.14Zm.39-.53h-.2v.19h.2Zm-.2,4.66h.2v.19h-.2Zm.1-35.62H130v-.19h-.19Zm.53-3.26h.19v-.2h-.19Zm.53-.73h.19v-.19h-.19Zm0,.39h.19v-.19h-.19Zm.28,32H131v.38h.19Zm.2-.87h-.2v.15h.2Zm1.24-2.68h-.19v.14h.19Zm0,.52h-.19v.2h.19Zm.72-1.63h-.19v.39h.19Zm.53,0h-.19V39h.19Zm.39-1.25h-.2v.2h.2Zm.14-.52v-.2h-.14v.2Zm.19.52h-.19v.2h.19Zm.39-1.82v-.14h-.2v.14Zm.14-.53H135v.19h.14Zm0,.72H135v.19h.14Zm0,1.44H135v.19h.14Zm.19-1.63h.19v-.14h-.19Zm.39.38h-.39v.2h.39Zm-.2,1.25h-.19v.19h.19Zm.2-2.3h-.2v.14h.2Zm1.58-3.46v-.14h-.34v.14Zm.19-.86h-.19v.14h.19Zm0,1.05h-.19V32h.19Zm.53-.33h-.19v.14H138Zm.19-2H138v.19h.19Z" transform="translate(0 -0.91)"/><path class="a" d="M143.13,25.2l-.38-.24a5.63,5.63,0,0,0,1.78-.29h0a8.25,8.25,0,0,1,2.16,1.39l-.09-.33.72.62c0,.38.14.72.14,1.1a.77.77,0,0,1-.72.68l-.57-.34a1,1,0,0,1-.82-.67h-.48c0,.53-.62,1.15-1,1.49a1.81,1.81,0,0,1-.81,1l.48.24-.48.28c0,.05-.05.15-.05.1l-.24.58a6.51,6.51,0,0,0-2.26,3l-.24.24,0,.15c-.34.52-.53,1.2-1.06,1.58l-.09.38h-.1a2,2,0,0,0-.19,1.06h-.34v0l.15.33c-.24-.09.05.48.05.53a1.87,1.87,0,0,0,0,.91c-.24-.09-.29.15-.29.34h-.1v.58h.05l.34-.2a.62.62,0,0,1,.19-.57l-.05-.15c.58-.57,2.35-2.49,2.35-3.26h.24A7.5,7.5,0,0,1,142.89,34h.05l.48-.52v-.2h.1a26.15,26.15,0,0,1,3.12-3.36l.05-.09.33-.29v-.05l0,.05,1.2-1.3.62-.33a3,3,0,0,1,.44-1.11,1.82,1.82,0,0,1,1.1.39l.19.52H151v.39c.58-.19.67.53.91.86a2.5,2.5,0,0,1,1.06.82c0,.81-.39,1.58-.39,2.45l.05.33c-.24-.14-.34.19-.34.39h0v.53l-.19,0-.05.29h-.1c-.05.39,0,.77-.19,1.11.09.28-.19.62-.34.81l-.05.15.2.28h-.34a3.5,3.5,0,0,1,0,1.25c-.24-.09-.38.48-.38.63l.24.19V39c0,.28.09.76-.24.86l-.05.43h-.1a16.92,16.92,0,0,1-.57,4.13h-.15c-.19,1.68-.33,3.36-.57,5l.09.05.29-.77.53-.53v-.53c.43.1.53-.76.72-1v0l.33-.19h.05l-.19-.34.29-.19h.05a2.27,2.27,0,0,1,.38-1.25h0l.29.19,0-.09c-.23,0-.09-.39,0-.48v-.34l.33-.19h.05v-.53L153,43h.1v-.05l-.19-.29c.24.15.28-.24.28-.38h.1a.68.68,0,0,1,.19-.58v-.14l.29-.19h.05a.58.58,0,0,1,.19-.53v-.14l.24-.24.1,0V41l-.15.34h-.38a.65.65,0,0,1-.19.57v.15h.09l.39-.53.43-.19a1.62,1.62,0,0,1,.19-1.06h-.05l-.33.19v-.91l1.1-1.77.1-.05.24.19.05-.1-.24-.24c.43.15.52-.67.57-.91l.29-.19h.05V36c.24.1.29-.14.29-.29v0h.09a3,3,0,0,1,.15-.92,4.52,4.52,0,0,0,1.1-1.24v-.39l.24-.19.1,0a.54.54,0,0,1,.24-.58l-.05-.14L159,32h0v-.52l.29-.2h0v-.52a.81.81,0,0,1,.53-.39v-.53l.57-.19v-.33l.29-.2h0v-.72c.57.15.72.48.72,1.06v.38l-.29.2h-.1v.33l-.28.19h-.05c.09.29-.29.58-.34.92h-.09l-.29-.2v.1l.09.24-.09.19v.39l-.24.19-.1,0v.58l-.72.86h.15v.58h-.15a.47.47,0,0,0-.57-.19l-.1-.24-.14,0,.24.29v.1a1.23,1.23,0,0,0-.2.81l.39-.67.38.19a3.92,3.92,0,0,1-.91,2h-.38a2.06,2.06,0,0,1-.53,1.25.5.5,0,0,1-.19.58v.14a.85.85,0,0,1-.53.38l-.19.53H156a4.13,4.13,0,0,1,0,1.11c-.38-.2-.38,1.24-.38,1.39l-.15.09-.09.29h-.1v.72l-.19.15v.19h-.34l-.05.09.2.29c-.2-.14-.24.19-.24.29v.05h-.1v.72c-.24-.1-.34,1.2-.43,1.44H154v.57l-.19.15-.14.38h0v1.59h-.34l-.05.19.24.38h-.38v.72c-.72,1.06-1.25,2.16-2,3.22.1.43-.38.38-.38.91h-.34c.1.38-1.44.77-1.78.86h0A9,9,0,0,0,146.83,54c.1-.33-.29-.57-.34-.91h-.38l-.1-.38h-.09l-.53-1.49c.05-.15.1-.72-.19-.67.05-1.44-.19-2.93-.19-4.37a2.45,2.45,0,0,1,.19-1.2c0-.34,0-1.15.19-1.44a3,3,0,0,0,.19-.91l-.19-.29c.19.05.19-.58.19-.67v-.44c.24.2.19-.62.19-.72h.15l.05-.72-.05-.72h.19a2.86,2.86,0,0,0,.19-1.1v-.34h.19l.1-.72h0V36H147l-.14-.29a1.69,1.69,0,0,0,.14-1h0l.29.2,0-.1c-.24,0-.15-.29,0-.43l.33-1.3h.05v-.72l.19-.05,0-.29h.1v-.72l.19-.24v-.14l.34-.62,0-.63a38.68,38.68,0,0,0-6,7.11,9.6,9.6,0,0,0-.48.86l.62-1c-.43,1-1.73,3.84-2.4,4.42v.43H140c.05,1.25-1.29,2.3-1.29,3.12,0,0,.09.19.19.14l-.34.72-1.24.63-1.11-.48c-.43.19-.91-.63-1.05-.87.09-.38-.44-.48-.58-.72a6.5,6.5,0,0,0-.24-1.29h-.1c0-.48-.19-1-.19-1.44,0-1.3.1-2.64.19-3.94h.2a5.5,5.5,0,0,0,.14-1.25v-.38c.24.1.29-.14.29-.29v0H135c.34-.72.24-1.53.72-2.16l.1-.38.1,0v-.58l.24-.19.09.05.1-.39h.09V31.1l.44-.19h.09c.05-.14.24-.53.19-.72l.24-.19.1.05.19-.58h.39l.72-1.25v-.33a.82.82,0,0,1,.52-.39,6.43,6.43,0,0,1,1.25-1.25h.1a5.62,5.62,0,0,1,1.58-1l-.19.52.24-.28-.24.43h.24l.48-.34-.48.29.34-.82Zm-7.24,15.46h-.2v.14h.2Zm.72-2v0H136v.58h.05l.14-.39Zm.14-2.74h-.14v.19h.14Zm0,5.23h-.14v.15h.14Zm1.49-.86-.58,0v.91h.1l.43-.52Zm.14-1.82h.19v-.2h-.19Zm.53-.92h.19v.2h-.19Zm3,.34c-.24.43-.57.82-.86.82a1.44,1.44,0,0,1-.14,1l.38-.62-.29.58.34-.63-.05,0,.14-.34v.1Zm1-3.22a12.5,12.5,0,0,0-1.58,1.92h-.1l.1.15A22.21,22.21,0,0,0,142.94,34.7ZM142,25.77l-.53.68h.05l.34-.29v-.05Zm-.19,11.38-.24.05v.19Zm1.2-1.73-.15.34h-.14a12.55,12.55,0,0,0-.53,1.2l.24-.14a4.09,4.09,0,0,0,.77-1.4Zm0-.76.53-.53C143.23,34.13,143.09,34.42,143,34.66Zm2.21-1.93h-.15l-1.63,2.17V35l.48-.43C144,33.89,145,33.46,145.2,32.73Zm-.39-6.33-.09-.15h-.15l.15.15ZM149,29.18v-.09l-.72.28v.1l-.58.19.05.15s0,0,0,0h-.19v-.09c-.82.91-1.54,1.87-2.35,2.78v.19C145.77,31.68,148,30,149,29.18Zm-.34-.72.15.05v-.1Zm.68,1.59h.19v-.2h-.19Zm1.44,17.76h-.15V48h.15Zm0,.38h-.15v.19h.15Zm.38-.72H151v.19h.19Zm.19-1.1,0,.72A1.19,1.19,0,0,0,151.34,46.37Zm.72-.53v-.19h-.19v.19Zm.15.72h-.15v.38h.15Zm.19-1.63h-.19v.19h.19Zm.72-1.59h-.19v.15h.19Zm.53-.91h-.15v.19h.15Zm0,.34h-.15V43h.15Zm0,4h-.15v.19h.15Zm.38-4.32v-.19h-.19v.19Zm.39,1.54c-.39,0-.15-.48,0-.63l-.1,0c0,.09-.05.24-.14.24l-.1,0v.38c.15,0,.24.05.24.19h.1Zm.33-1.35h-.09l-.29.53h.09l.2-.19h.09Zm-.19,2.5h.19v.19h-.19Zm.19-.34h.15v.15h-.15Zm1.54-6,.05,0-.15-.28v.33Zm1.15-2.06.19-.43-.19-.05-.53.38v.72c-.24-.09-.38.77-.38.91h.05l.33-.19.34-1h.38Zm-.91.09h.19v-.19h-.19Zm2.16-3.6h-.19v.39h.19ZM159,34a.33.33,0,0,0,0-.19l-.14.14Zm1.34-3.65v-.19h-.19v.19Zm.19.19h-.19v.2h.19Zm.53-.72h-.19v.2H161Zm.34-.72h-.2v.34h.2Z" transform="translate(0 -0.91)"/></svg>